%TF.GenerationSoftware,KiCad,Pcbnew,8.0.3*%
%TF.CreationDate,2024-06-17T15:26:31+02:00*%
%TF.ProjectId,OFMBearBoard1_0_Bruno,4f464d42-6561-4724-926f-617264315f30,1.1*%
%TF.SameCoordinates,Original*%
%TF.FileFunction,Soldermask,Bot*%
%TF.FilePolarity,Negative*%
%FSLAX46Y46*%
G04 Gerber Fmt 4.6, Leading zero omitted, Abs format (unit mm)*
G04 Created by KiCad (PCBNEW 8.0.3) date 2024-06-17 15:26:31*
%MOMM*%
%LPD*%
G01*
G04 APERTURE LIST*
G04 Aperture macros list*
%AMRoundRect*
0 Rectangle with rounded corners*
0 $1 Rounding radius*
0 $2 $3 $4 $5 $6 $7 $8 $9 X,Y pos of 4 corners*
0 Add a 4 corners polygon primitive as box body*
4,1,4,$2,$3,$4,$5,$6,$7,$8,$9,$2,$3,0*
0 Add four circle primitives for the rounded corners*
1,1,$1+$1,$2,$3*
1,1,$1+$1,$4,$5*
1,1,$1+$1,$6,$7*
1,1,$1+$1,$8,$9*
0 Add four rect primitives between the rounded corners*
20,1,$1+$1,$2,$3,$4,$5,0*
20,1,$1+$1,$4,$5,$6,$7,0*
20,1,$1+$1,$6,$7,$8,$9,0*
20,1,$1+$1,$8,$9,$2,$3,0*%
G04 Aperture macros list end*
%ADD10C,3.200000*%
%ADD11R,1.600000X1.600000*%
%ADD12O,1.600000X1.600000*%
%ADD13RoundRect,0.250000X-0.725000X0.600000X-0.725000X-0.600000X0.725000X-0.600000X0.725000X0.600000X0*%
%ADD14O,1.950000X1.700000*%
%ADD15C,1.600000*%
%ADD16RoundRect,0.250000X0.350000X0.625000X-0.350000X0.625000X-0.350000X-0.625000X0.350000X-0.625000X0*%
%ADD17O,1.200000X1.750000*%
%ADD18R,1.700000X1.700000*%
%ADD19O,1.700000X1.700000*%
G04 APERTURE END LIST*
D10*
%TO.C,H4*%
X125250000Y-83000000D03*
%TD*%
D11*
%TO.C,U2*%
X109880000Y-52580000D03*
D12*
X109880000Y-55120000D03*
X109880000Y-57660000D03*
X109880000Y-60200000D03*
X109880000Y-62740000D03*
X109880000Y-65280000D03*
X109880000Y-67820000D03*
X109880000Y-70360000D03*
X117500000Y-70360000D03*
X117500000Y-67820000D03*
X117500000Y-65280000D03*
X117500000Y-62740000D03*
X117500000Y-60200000D03*
X117500000Y-57660000D03*
X117500000Y-55120000D03*
X117500000Y-52580000D03*
%TD*%
D13*
%TO.C,J2*%
X124500000Y-49500000D03*
D14*
X124500000Y-52000000D03*
X124500000Y-54500000D03*
X124500000Y-57000000D03*
X124500000Y-59500000D03*
%TD*%
D11*
%TO.C,U1*%
X110380000Y-26420000D03*
D12*
X110380000Y-28960000D03*
X110380000Y-31500000D03*
X110380000Y-34040000D03*
X110380000Y-36580000D03*
X110380000Y-39120000D03*
X110380000Y-41660000D03*
X110380000Y-44200000D03*
X118000000Y-44200000D03*
X118000000Y-41660000D03*
X118000000Y-39120000D03*
X118000000Y-36580000D03*
X118000000Y-34040000D03*
X118000000Y-31500000D03*
X118000000Y-28960000D03*
X118000000Y-26420000D03*
%TD*%
D15*
%TO.C,C1*%
X112000000Y-48960000D03*
X114500000Y-48960000D03*
%TD*%
%TO.C,C2*%
X112250000Y-74660000D03*
X114750000Y-74660000D03*
%TD*%
D16*
%TO.C,J4*%
X117500000Y-82000000D03*
D17*
X115500000Y-82000000D03*
%TD*%
D10*
%TO.C,H3*%
X83250000Y-83000000D03*
%TD*%
D18*
%TO.C,JP1*%
X91475000Y-81000000D03*
D19*
X94015000Y-81000000D03*
X96555000Y-81000000D03*
%TD*%
D10*
%TO.C,H1*%
X83250000Y-25450000D03*
%TD*%
D13*
%TO.C,J1*%
X124500000Y-32500000D03*
D14*
X124500000Y-35000000D03*
X124500000Y-37500000D03*
X124500000Y-40000000D03*
X124500000Y-42500000D03*
%TD*%
D13*
%TO.C,J3*%
X124500000Y-66000000D03*
D14*
X124500000Y-68500000D03*
X124500000Y-71000000D03*
X124500000Y-73500000D03*
X124500000Y-76000000D03*
%TD*%
D16*
%TO.C,J5*%
X107000000Y-82000000D03*
D17*
X105000000Y-82000000D03*
%TD*%
D10*
%TO.C,H2*%
X125250000Y-25450000D03*
%TD*%
D11*
%TO.C,A1*%
X104610000Y-74550000D03*
D12*
X104610000Y-72010000D03*
X104610000Y-69470000D03*
X104610000Y-66930000D03*
X104610000Y-64390000D03*
X104610000Y-61850000D03*
X104610000Y-59310000D03*
X104610000Y-56770000D03*
X104610000Y-54230000D03*
X104610000Y-51690000D03*
X104610000Y-49150000D03*
X104610000Y-46610000D03*
X104610000Y-44070000D03*
X104610000Y-41530000D03*
X104610000Y-38990000D03*
X89370000Y-38990000D03*
X89370000Y-41530000D03*
X89370000Y-44070000D03*
X89370000Y-46610000D03*
X89370000Y-49150000D03*
X89370000Y-51690000D03*
X89370000Y-54230000D03*
X89370000Y-56770000D03*
X89370000Y-59310000D03*
X89370000Y-61850000D03*
X89370000Y-64390000D03*
X89370000Y-66930000D03*
X89370000Y-69470000D03*
X89370000Y-72010000D03*
X89370000Y-74550000D03*
%TD*%
M02*
