%TF.GenerationSoftware,KiCad,Pcbnew,8.0.3*%
%TF.CreationDate,2024-06-17T15:26:31+02:00*%
%TF.ProjectId,OFMBearBoard1_0_Bruno,4f464d42-6561-4724-926f-617264315f30,1.1*%
%TF.SameCoordinates,Original*%
%TF.FileFunction,Legend,Top*%
%TF.FilePolarity,Positive*%
%FSLAX46Y46*%
G04 Gerber Fmt 4.6, Leading zero omitted, Abs format (unit mm)*
G04 Created by KiCad (PCBNEW 8.0.3) date 2024-06-17 15:26:31*
%MOMM*%
%LPD*%
G01*
G04 APERTURE LIST*
%ADD10C,0.100000*%
%ADD11C,0.150000*%
%ADD12C,0.120000*%
G04 APERTURE END LIST*
D10*
X91994360Y-83372419D02*
X92184836Y-83372419D01*
X92184836Y-83372419D02*
X92280074Y-83420038D01*
X92280074Y-83420038D02*
X92375312Y-83515276D01*
X92375312Y-83515276D02*
X92422931Y-83705752D01*
X92422931Y-83705752D02*
X92422931Y-84039085D01*
X92422931Y-84039085D02*
X92375312Y-84229561D01*
X92375312Y-84229561D02*
X92280074Y-84324800D01*
X92280074Y-84324800D02*
X92184836Y-84372419D01*
X92184836Y-84372419D02*
X91994360Y-84372419D01*
X91994360Y-84372419D02*
X91899122Y-84324800D01*
X91899122Y-84324800D02*
X91803884Y-84229561D01*
X91803884Y-84229561D02*
X91756265Y-84039085D01*
X91756265Y-84039085D02*
X91756265Y-83705752D01*
X91756265Y-83705752D02*
X91803884Y-83515276D01*
X91803884Y-83515276D02*
X91899122Y-83420038D01*
X91899122Y-83420038D02*
X91994360Y-83372419D01*
X92851503Y-83705752D02*
X92851503Y-84372419D01*
X92851503Y-83800990D02*
X92899122Y-83753371D01*
X92899122Y-83753371D02*
X92994360Y-83705752D01*
X92994360Y-83705752D02*
X93137217Y-83705752D01*
X93137217Y-83705752D02*
X93232455Y-83753371D01*
X93232455Y-83753371D02*
X93280074Y-83848609D01*
X93280074Y-83848609D02*
X93280074Y-84372419D01*
X93994360Y-84705752D02*
X93994360Y-83277180D01*
X94661027Y-84086704D02*
X95137217Y-84086704D01*
X94565789Y-84372419D02*
X94899122Y-83372419D01*
X94899122Y-83372419D02*
X95232455Y-84372419D01*
X95565789Y-84372419D02*
X95565789Y-83705752D01*
X95565789Y-83896228D02*
X95613408Y-83800990D01*
X95613408Y-83800990D02*
X95661027Y-83753371D01*
X95661027Y-83753371D02*
X95756265Y-83705752D01*
X95756265Y-83705752D02*
X95851503Y-83705752D01*
X96613408Y-84372419D02*
X96613408Y-83372419D01*
X96613408Y-84324800D02*
X96518170Y-84372419D01*
X96518170Y-84372419D02*
X96327694Y-84372419D01*
X96327694Y-84372419D02*
X96232456Y-84324800D01*
X96232456Y-84324800D02*
X96184837Y-84277180D01*
X96184837Y-84277180D02*
X96137218Y-84181942D01*
X96137218Y-84181942D02*
X96137218Y-83896228D01*
X96137218Y-83896228D02*
X96184837Y-83800990D01*
X96184837Y-83800990D02*
X96232456Y-83753371D01*
X96232456Y-83753371D02*
X96327694Y-83705752D01*
X96327694Y-83705752D02*
X96518170Y-83705752D01*
X96518170Y-83705752D02*
X96613408Y-83753371D01*
X80372419Y-78005639D02*
X80372419Y-77815163D01*
X80372419Y-77815163D02*
X80420038Y-77719925D01*
X80420038Y-77719925D02*
X80515276Y-77624687D01*
X80515276Y-77624687D02*
X80705752Y-77577068D01*
X80705752Y-77577068D02*
X81039085Y-77577068D01*
X81039085Y-77577068D02*
X81229561Y-77624687D01*
X81229561Y-77624687D02*
X81324800Y-77719925D01*
X81324800Y-77719925D02*
X81372419Y-77815163D01*
X81372419Y-77815163D02*
X81372419Y-78005639D01*
X81372419Y-78005639D02*
X81324800Y-78100877D01*
X81324800Y-78100877D02*
X81229561Y-78196115D01*
X81229561Y-78196115D02*
X81039085Y-78243734D01*
X81039085Y-78243734D02*
X80705752Y-78243734D01*
X80705752Y-78243734D02*
X80515276Y-78196115D01*
X80515276Y-78196115D02*
X80420038Y-78100877D01*
X80420038Y-78100877D02*
X80372419Y-78005639D01*
X80848609Y-76815163D02*
X80848609Y-77148496D01*
X81372419Y-77148496D02*
X80372419Y-77148496D01*
X80372419Y-77148496D02*
X80372419Y-76672306D01*
X81372419Y-76291353D02*
X80372419Y-76291353D01*
X80372419Y-76291353D02*
X81086704Y-75958020D01*
X81086704Y-75958020D02*
X80372419Y-75624687D01*
X80372419Y-75624687D02*
X81372419Y-75624687D01*
X80848609Y-74815163D02*
X80896228Y-74672306D01*
X80896228Y-74672306D02*
X80943847Y-74624687D01*
X80943847Y-74624687D02*
X81039085Y-74577068D01*
X81039085Y-74577068D02*
X81181942Y-74577068D01*
X81181942Y-74577068D02*
X81277180Y-74624687D01*
X81277180Y-74624687D02*
X81324800Y-74672306D01*
X81324800Y-74672306D02*
X81372419Y-74767544D01*
X81372419Y-74767544D02*
X81372419Y-75148496D01*
X81372419Y-75148496D02*
X80372419Y-75148496D01*
X80372419Y-75148496D02*
X80372419Y-74815163D01*
X80372419Y-74815163D02*
X80420038Y-74719925D01*
X80420038Y-74719925D02*
X80467657Y-74672306D01*
X80467657Y-74672306D02*
X80562895Y-74624687D01*
X80562895Y-74624687D02*
X80658133Y-74624687D01*
X80658133Y-74624687D02*
X80753371Y-74672306D01*
X80753371Y-74672306D02*
X80800990Y-74719925D01*
X80800990Y-74719925D02*
X80848609Y-74815163D01*
X80848609Y-74815163D02*
X80848609Y-75148496D01*
X81324800Y-73767544D02*
X81372419Y-73862782D01*
X81372419Y-73862782D02*
X81372419Y-74053258D01*
X81372419Y-74053258D02*
X81324800Y-74148496D01*
X81324800Y-74148496D02*
X81229561Y-74196115D01*
X81229561Y-74196115D02*
X80848609Y-74196115D01*
X80848609Y-74196115D02*
X80753371Y-74148496D01*
X80753371Y-74148496D02*
X80705752Y-74053258D01*
X80705752Y-74053258D02*
X80705752Y-73862782D01*
X80705752Y-73862782D02*
X80753371Y-73767544D01*
X80753371Y-73767544D02*
X80848609Y-73719925D01*
X80848609Y-73719925D02*
X80943847Y-73719925D01*
X80943847Y-73719925D02*
X81039085Y-74196115D01*
X81372419Y-72862782D02*
X80848609Y-72862782D01*
X80848609Y-72862782D02*
X80753371Y-72910401D01*
X80753371Y-72910401D02*
X80705752Y-73005639D01*
X80705752Y-73005639D02*
X80705752Y-73196115D01*
X80705752Y-73196115D02*
X80753371Y-73291353D01*
X81324800Y-72862782D02*
X81372419Y-72958020D01*
X81372419Y-72958020D02*
X81372419Y-73196115D01*
X81372419Y-73196115D02*
X81324800Y-73291353D01*
X81324800Y-73291353D02*
X81229561Y-73338972D01*
X81229561Y-73338972D02*
X81134323Y-73338972D01*
X81134323Y-73338972D02*
X81039085Y-73291353D01*
X81039085Y-73291353D02*
X80991466Y-73196115D01*
X80991466Y-73196115D02*
X80991466Y-72958020D01*
X80991466Y-72958020D02*
X80943847Y-72862782D01*
X81372419Y-72386591D02*
X80705752Y-72386591D01*
X80896228Y-72386591D02*
X80800990Y-72338972D01*
X80800990Y-72338972D02*
X80753371Y-72291353D01*
X80753371Y-72291353D02*
X80705752Y-72196115D01*
X80705752Y-72196115D02*
X80705752Y-72100877D01*
X80848609Y-71434210D02*
X80896228Y-71291353D01*
X80896228Y-71291353D02*
X80943847Y-71243734D01*
X80943847Y-71243734D02*
X81039085Y-71196115D01*
X81039085Y-71196115D02*
X81181942Y-71196115D01*
X81181942Y-71196115D02*
X81277180Y-71243734D01*
X81277180Y-71243734D02*
X81324800Y-71291353D01*
X81324800Y-71291353D02*
X81372419Y-71386591D01*
X81372419Y-71386591D02*
X81372419Y-71767543D01*
X81372419Y-71767543D02*
X80372419Y-71767543D01*
X80372419Y-71767543D02*
X80372419Y-71434210D01*
X80372419Y-71434210D02*
X80420038Y-71338972D01*
X80420038Y-71338972D02*
X80467657Y-71291353D01*
X80467657Y-71291353D02*
X80562895Y-71243734D01*
X80562895Y-71243734D02*
X80658133Y-71243734D01*
X80658133Y-71243734D02*
X80753371Y-71291353D01*
X80753371Y-71291353D02*
X80800990Y-71338972D01*
X80800990Y-71338972D02*
X80848609Y-71434210D01*
X80848609Y-71434210D02*
X80848609Y-71767543D01*
X81372419Y-70624686D02*
X81324800Y-70719924D01*
X81324800Y-70719924D02*
X81277180Y-70767543D01*
X81277180Y-70767543D02*
X81181942Y-70815162D01*
X81181942Y-70815162D02*
X80896228Y-70815162D01*
X80896228Y-70815162D02*
X80800990Y-70767543D01*
X80800990Y-70767543D02*
X80753371Y-70719924D01*
X80753371Y-70719924D02*
X80705752Y-70624686D01*
X80705752Y-70624686D02*
X80705752Y-70481829D01*
X80705752Y-70481829D02*
X80753371Y-70386591D01*
X80753371Y-70386591D02*
X80800990Y-70338972D01*
X80800990Y-70338972D02*
X80896228Y-70291353D01*
X80896228Y-70291353D02*
X81181942Y-70291353D01*
X81181942Y-70291353D02*
X81277180Y-70338972D01*
X81277180Y-70338972D02*
X81324800Y-70386591D01*
X81324800Y-70386591D02*
X81372419Y-70481829D01*
X81372419Y-70481829D02*
X81372419Y-70624686D01*
X81372419Y-69434210D02*
X80848609Y-69434210D01*
X80848609Y-69434210D02*
X80753371Y-69481829D01*
X80753371Y-69481829D02*
X80705752Y-69577067D01*
X80705752Y-69577067D02*
X80705752Y-69767543D01*
X80705752Y-69767543D02*
X80753371Y-69862781D01*
X81324800Y-69434210D02*
X81372419Y-69529448D01*
X81372419Y-69529448D02*
X81372419Y-69767543D01*
X81372419Y-69767543D02*
X81324800Y-69862781D01*
X81324800Y-69862781D02*
X81229561Y-69910400D01*
X81229561Y-69910400D02*
X81134323Y-69910400D01*
X81134323Y-69910400D02*
X81039085Y-69862781D01*
X81039085Y-69862781D02*
X80991466Y-69767543D01*
X80991466Y-69767543D02*
X80991466Y-69529448D01*
X80991466Y-69529448D02*
X80943847Y-69434210D01*
X81372419Y-68958019D02*
X80705752Y-68958019D01*
X80896228Y-68958019D02*
X80800990Y-68910400D01*
X80800990Y-68910400D02*
X80753371Y-68862781D01*
X80753371Y-68862781D02*
X80705752Y-68767543D01*
X80705752Y-68767543D02*
X80705752Y-68672305D01*
X81372419Y-67910400D02*
X80372419Y-67910400D01*
X81324800Y-67910400D02*
X81372419Y-68005638D01*
X81372419Y-68005638D02*
X81372419Y-68196114D01*
X81372419Y-68196114D02*
X81324800Y-68291352D01*
X81324800Y-68291352D02*
X81277180Y-68338971D01*
X81277180Y-68338971D02*
X81181942Y-68386590D01*
X81181942Y-68386590D02*
X80896228Y-68386590D01*
X80896228Y-68386590D02*
X80800990Y-68338971D01*
X80800990Y-68338971D02*
X80753371Y-68291352D01*
X80753371Y-68291352D02*
X80705752Y-68196114D01*
X80705752Y-68196114D02*
X80705752Y-68005638D01*
X80705752Y-68005638D02*
X80753371Y-67910400D01*
X81372419Y-66148495D02*
X81372419Y-66719923D01*
X81372419Y-66434209D02*
X80372419Y-66434209D01*
X80372419Y-66434209D02*
X80515276Y-66529447D01*
X80515276Y-66529447D02*
X80610514Y-66624685D01*
X80610514Y-66624685D02*
X80658133Y-66719923D01*
X81277180Y-65719923D02*
X81324800Y-65672304D01*
X81324800Y-65672304D02*
X81372419Y-65719923D01*
X81372419Y-65719923D02*
X81324800Y-65767542D01*
X81324800Y-65767542D02*
X81277180Y-65719923D01*
X81277180Y-65719923D02*
X81372419Y-65719923D01*
X80372419Y-65053257D02*
X80372419Y-64958019D01*
X80372419Y-64958019D02*
X80420038Y-64862781D01*
X80420038Y-64862781D02*
X80467657Y-64815162D01*
X80467657Y-64815162D02*
X80562895Y-64767543D01*
X80562895Y-64767543D02*
X80753371Y-64719924D01*
X80753371Y-64719924D02*
X80991466Y-64719924D01*
X80991466Y-64719924D02*
X81181942Y-64767543D01*
X81181942Y-64767543D02*
X81277180Y-64815162D01*
X81277180Y-64815162D02*
X81324800Y-64862781D01*
X81324800Y-64862781D02*
X81372419Y-64958019D01*
X81372419Y-64958019D02*
X81372419Y-65053257D01*
X81372419Y-65053257D02*
X81324800Y-65148495D01*
X81324800Y-65148495D02*
X81277180Y-65196114D01*
X81277180Y-65196114D02*
X81181942Y-65243733D01*
X81181942Y-65243733D02*
X80991466Y-65291352D01*
X80991466Y-65291352D02*
X80753371Y-65291352D01*
X80753371Y-65291352D02*
X80562895Y-65243733D01*
X80562895Y-65243733D02*
X80467657Y-65196114D01*
X80467657Y-65196114D02*
X80420038Y-65148495D01*
X80420038Y-65148495D02*
X80372419Y-65053257D01*
X81753371Y-63243733D02*
X81705752Y-63291352D01*
X81705752Y-63291352D02*
X81562895Y-63386590D01*
X81562895Y-63386590D02*
X81467657Y-63434209D01*
X81467657Y-63434209D02*
X81324800Y-63481828D01*
X81324800Y-63481828D02*
X81086704Y-63529447D01*
X81086704Y-63529447D02*
X80896228Y-63529447D01*
X80896228Y-63529447D02*
X80658133Y-63481828D01*
X80658133Y-63481828D02*
X80515276Y-63434209D01*
X80515276Y-63434209D02*
X80420038Y-63386590D01*
X80420038Y-63386590D02*
X80277180Y-63291352D01*
X80277180Y-63291352D02*
X80229561Y-63243733D01*
X80848609Y-62529447D02*
X80896228Y-62386590D01*
X80896228Y-62386590D02*
X80943847Y-62338971D01*
X80943847Y-62338971D02*
X81039085Y-62291352D01*
X81039085Y-62291352D02*
X81181942Y-62291352D01*
X81181942Y-62291352D02*
X81277180Y-62338971D01*
X81277180Y-62338971D02*
X81324800Y-62386590D01*
X81324800Y-62386590D02*
X81372419Y-62481828D01*
X81372419Y-62481828D02*
X81372419Y-62862780D01*
X81372419Y-62862780D02*
X80372419Y-62862780D01*
X80372419Y-62862780D02*
X80372419Y-62529447D01*
X80372419Y-62529447D02*
X80420038Y-62434209D01*
X80420038Y-62434209D02*
X80467657Y-62386590D01*
X80467657Y-62386590D02*
X80562895Y-62338971D01*
X80562895Y-62338971D02*
X80658133Y-62338971D01*
X80658133Y-62338971D02*
X80753371Y-62386590D01*
X80753371Y-62386590D02*
X80800990Y-62434209D01*
X80800990Y-62434209D02*
X80848609Y-62529447D01*
X80848609Y-62529447D02*
X80848609Y-62862780D01*
X81372419Y-61862780D02*
X80705752Y-61862780D01*
X80896228Y-61862780D02*
X80800990Y-61815161D01*
X80800990Y-61815161D02*
X80753371Y-61767542D01*
X80753371Y-61767542D02*
X80705752Y-61672304D01*
X80705752Y-61672304D02*
X80705752Y-61577066D01*
X80705752Y-60815161D02*
X81372419Y-60815161D01*
X80705752Y-61243732D02*
X81229561Y-61243732D01*
X81229561Y-61243732D02*
X81324800Y-61196113D01*
X81324800Y-61196113D02*
X81372419Y-61100875D01*
X81372419Y-61100875D02*
X81372419Y-60958018D01*
X81372419Y-60958018D02*
X81324800Y-60862780D01*
X81324800Y-60862780D02*
X81277180Y-60815161D01*
X80705752Y-60338970D02*
X81372419Y-60338970D01*
X80800990Y-60338970D02*
X80753371Y-60291351D01*
X80753371Y-60291351D02*
X80705752Y-60196113D01*
X80705752Y-60196113D02*
X80705752Y-60053256D01*
X80705752Y-60053256D02*
X80753371Y-59958018D01*
X80753371Y-59958018D02*
X80848609Y-59910399D01*
X80848609Y-59910399D02*
X81372419Y-59910399D01*
X81372419Y-59291351D02*
X81324800Y-59386589D01*
X81324800Y-59386589D02*
X81277180Y-59434208D01*
X81277180Y-59434208D02*
X81181942Y-59481827D01*
X81181942Y-59481827D02*
X80896228Y-59481827D01*
X80896228Y-59481827D02*
X80800990Y-59434208D01*
X80800990Y-59434208D02*
X80753371Y-59386589D01*
X80753371Y-59386589D02*
X80705752Y-59291351D01*
X80705752Y-59291351D02*
X80705752Y-59148494D01*
X80705752Y-59148494D02*
X80753371Y-59053256D01*
X80753371Y-59053256D02*
X80800990Y-59005637D01*
X80800990Y-59005637D02*
X80896228Y-58958018D01*
X80896228Y-58958018D02*
X81181942Y-58958018D01*
X81181942Y-58958018D02*
X81277180Y-59005637D01*
X81277180Y-59005637D02*
X81324800Y-59053256D01*
X81324800Y-59053256D02*
X81372419Y-59148494D01*
X81372419Y-59148494D02*
X81372419Y-59291351D01*
X81753371Y-58624684D02*
X81705752Y-58577065D01*
X81705752Y-58577065D02*
X81562895Y-58481827D01*
X81562895Y-58481827D02*
X81467657Y-58434208D01*
X81467657Y-58434208D02*
X81324800Y-58386589D01*
X81324800Y-58386589D02*
X81086704Y-58338970D01*
X81086704Y-58338970D02*
X80896228Y-58338970D01*
X80896228Y-58338970D02*
X80658133Y-58386589D01*
X80658133Y-58386589D02*
X80515276Y-58434208D01*
X80515276Y-58434208D02*
X80420038Y-58481827D01*
X80420038Y-58481827D02*
X80277180Y-58577065D01*
X80277180Y-58577065D02*
X80229561Y-58624684D01*
X83262475Y-78410401D02*
X83976760Y-78410401D01*
X83976760Y-78410401D02*
X84119617Y-78458020D01*
X84119617Y-78458020D02*
X84214856Y-78553258D01*
X84214856Y-78553258D02*
X84262475Y-78696115D01*
X84262475Y-78696115D02*
X84262475Y-78791353D01*
X83262475Y-77505639D02*
X83262475Y-77696115D01*
X83262475Y-77696115D02*
X83310094Y-77791353D01*
X83310094Y-77791353D02*
X83357713Y-77838972D01*
X83357713Y-77838972D02*
X83500570Y-77934210D01*
X83500570Y-77934210D02*
X83691046Y-77981829D01*
X83691046Y-77981829D02*
X84071998Y-77981829D01*
X84071998Y-77981829D02*
X84167236Y-77934210D01*
X84167236Y-77934210D02*
X84214856Y-77886591D01*
X84214856Y-77886591D02*
X84262475Y-77791353D01*
X84262475Y-77791353D02*
X84262475Y-77600877D01*
X84262475Y-77600877D02*
X84214856Y-77505639D01*
X84214856Y-77505639D02*
X84167236Y-77458020D01*
X84167236Y-77458020D02*
X84071998Y-77410401D01*
X84071998Y-77410401D02*
X83833903Y-77410401D01*
X83833903Y-77410401D02*
X83738665Y-77458020D01*
X83738665Y-77458020D02*
X83691046Y-77505639D01*
X83691046Y-77505639D02*
X83643427Y-77600877D01*
X83643427Y-77600877D02*
X83643427Y-77791353D01*
X83643427Y-77791353D02*
X83691046Y-77886591D01*
X83691046Y-77886591D02*
X83738665Y-77934210D01*
X83738665Y-77934210D02*
X83833903Y-77981829D01*
X84214856Y-76934210D02*
X84262475Y-76934210D01*
X84262475Y-76934210D02*
X84357713Y-76981829D01*
X84357713Y-76981829D02*
X84405332Y-77029448D01*
X83262475Y-75458020D02*
X83976760Y-75458020D01*
X83976760Y-75458020D02*
X84119617Y-75505639D01*
X84119617Y-75505639D02*
X84214856Y-75600877D01*
X84214856Y-75600877D02*
X84262475Y-75743734D01*
X84262475Y-75743734D02*
X84262475Y-75838972D01*
X83262475Y-75077067D02*
X83262475Y-74410401D01*
X83262475Y-74410401D02*
X84262475Y-74838972D01*
X84167236Y-74029448D02*
X84214856Y-73981829D01*
X84214856Y-73981829D02*
X84262475Y-74029448D01*
X84262475Y-74029448D02*
X84214856Y-74077067D01*
X84214856Y-74077067D02*
X84167236Y-74029448D01*
X84167236Y-74029448D02*
X84262475Y-74029448D01*
X83643427Y-74029448D02*
X83691046Y-73981829D01*
X83691046Y-73981829D02*
X83738665Y-74029448D01*
X83738665Y-74029448D02*
X83691046Y-74077067D01*
X83691046Y-74077067D02*
X83643427Y-74029448D01*
X83643427Y-74029448D02*
X83738665Y-74029448D01*
X83262475Y-72505639D02*
X83976760Y-72505639D01*
X83976760Y-72505639D02*
X84119617Y-72553258D01*
X84119617Y-72553258D02*
X84214856Y-72648496D01*
X84214856Y-72648496D02*
X84262475Y-72791353D01*
X84262475Y-72791353D02*
X84262475Y-72886591D01*
X84214856Y-72077067D02*
X84262475Y-71934210D01*
X84262475Y-71934210D02*
X84262475Y-71696115D01*
X84262475Y-71696115D02*
X84214856Y-71600877D01*
X84214856Y-71600877D02*
X84167236Y-71553258D01*
X84167236Y-71553258D02*
X84071998Y-71505639D01*
X84071998Y-71505639D02*
X83976760Y-71505639D01*
X83976760Y-71505639D02*
X83881522Y-71553258D01*
X83881522Y-71553258D02*
X83833903Y-71600877D01*
X83833903Y-71600877D02*
X83786284Y-71696115D01*
X83786284Y-71696115D02*
X83738665Y-71886591D01*
X83738665Y-71886591D02*
X83691046Y-71981829D01*
X83691046Y-71981829D02*
X83643427Y-72029448D01*
X83643427Y-72029448D02*
X83548189Y-72077067D01*
X83548189Y-72077067D02*
X83452951Y-72077067D01*
X83452951Y-72077067D02*
X83357713Y-72029448D01*
X83357713Y-72029448D02*
X83310094Y-71981829D01*
X83310094Y-71981829D02*
X83262475Y-71886591D01*
X83262475Y-71886591D02*
X83262475Y-71648496D01*
X83262475Y-71648496D02*
X83310094Y-71505639D01*
X83262475Y-71219924D02*
X83262475Y-70648496D01*
X84262475Y-70934210D02*
X83262475Y-70934210D01*
X84262475Y-69553257D02*
X83262475Y-69553257D01*
X83262475Y-69553257D02*
X83262475Y-69172305D01*
X83262475Y-69172305D02*
X83310094Y-69077067D01*
X83310094Y-69077067D02*
X83357713Y-69029448D01*
X83357713Y-69029448D02*
X83452951Y-68981829D01*
X83452951Y-68981829D02*
X83595808Y-68981829D01*
X83595808Y-68981829D02*
X83691046Y-69029448D01*
X83691046Y-69029448D02*
X83738665Y-69077067D01*
X83738665Y-69077067D02*
X83786284Y-69172305D01*
X83786284Y-69172305D02*
X83786284Y-69553257D01*
X84262475Y-68553257D02*
X83262475Y-68553257D01*
X83738665Y-68553257D02*
X83738665Y-67981829D01*
X84262475Y-67981829D02*
X83262475Y-67981829D01*
X83357713Y-67553257D02*
X83310094Y-67505638D01*
X83310094Y-67505638D02*
X83262475Y-67410400D01*
X83262475Y-67410400D02*
X83262475Y-67172305D01*
X83262475Y-67172305D02*
X83310094Y-67077067D01*
X83310094Y-67077067D02*
X83357713Y-67029448D01*
X83357713Y-67029448D02*
X83452951Y-66981829D01*
X83452951Y-66981829D02*
X83548189Y-66981829D01*
X83548189Y-66981829D02*
X83691046Y-67029448D01*
X83691046Y-67029448D02*
X84262475Y-67600876D01*
X84262475Y-67600876D02*
X84262475Y-66981829D01*
X83214856Y-65077067D02*
X84500570Y-65934209D01*
X83262475Y-63696114D02*
X83976760Y-63696114D01*
X83976760Y-63696114D02*
X84119617Y-63743733D01*
X84119617Y-63743733D02*
X84214856Y-63838971D01*
X84214856Y-63838971D02*
X84262475Y-63981828D01*
X84262475Y-63981828D02*
X84262475Y-64077066D01*
X83691046Y-63077066D02*
X83643427Y-63172304D01*
X83643427Y-63172304D02*
X83595808Y-63219923D01*
X83595808Y-63219923D02*
X83500570Y-63267542D01*
X83500570Y-63267542D02*
X83452951Y-63267542D01*
X83452951Y-63267542D02*
X83357713Y-63219923D01*
X83357713Y-63219923D02*
X83310094Y-63172304D01*
X83310094Y-63172304D02*
X83262475Y-63077066D01*
X83262475Y-63077066D02*
X83262475Y-62886590D01*
X83262475Y-62886590D02*
X83310094Y-62791352D01*
X83310094Y-62791352D02*
X83357713Y-62743733D01*
X83357713Y-62743733D02*
X83452951Y-62696114D01*
X83452951Y-62696114D02*
X83500570Y-62696114D01*
X83500570Y-62696114D02*
X83595808Y-62743733D01*
X83595808Y-62743733D02*
X83643427Y-62791352D01*
X83643427Y-62791352D02*
X83691046Y-62886590D01*
X83691046Y-62886590D02*
X83691046Y-63077066D01*
X83691046Y-63077066D02*
X83738665Y-63172304D01*
X83738665Y-63172304D02*
X83786284Y-63219923D01*
X83786284Y-63219923D02*
X83881522Y-63267542D01*
X83881522Y-63267542D02*
X84071998Y-63267542D01*
X84071998Y-63267542D02*
X84167236Y-63219923D01*
X84167236Y-63219923D02*
X84214856Y-63172304D01*
X84214856Y-63172304D02*
X84262475Y-63077066D01*
X84262475Y-63077066D02*
X84262475Y-62886590D01*
X84262475Y-62886590D02*
X84214856Y-62791352D01*
X84214856Y-62791352D02*
X84167236Y-62743733D01*
X84167236Y-62743733D02*
X84071998Y-62696114D01*
X84071998Y-62696114D02*
X83881522Y-62696114D01*
X83881522Y-62696114D02*
X83786284Y-62743733D01*
X83786284Y-62743733D02*
X83738665Y-62791352D01*
X83738665Y-62791352D02*
X83691046Y-62886590D01*
X84214856Y-62219923D02*
X84262475Y-62219923D01*
X84262475Y-62219923D02*
X84357713Y-62267542D01*
X84357713Y-62267542D02*
X84405332Y-62315161D01*
X83262475Y-60743733D02*
X83976760Y-60743733D01*
X83976760Y-60743733D02*
X84119617Y-60791352D01*
X84119617Y-60791352D02*
X84214856Y-60886590D01*
X84214856Y-60886590D02*
X84262475Y-61029447D01*
X84262475Y-61029447D02*
X84262475Y-61124685D01*
X84262475Y-60219923D02*
X84262475Y-60029447D01*
X84262475Y-60029447D02*
X84214856Y-59934209D01*
X84214856Y-59934209D02*
X84167236Y-59886590D01*
X84167236Y-59886590D02*
X84024379Y-59791352D01*
X84024379Y-59791352D02*
X83833903Y-59743733D01*
X83833903Y-59743733D02*
X83452951Y-59743733D01*
X83452951Y-59743733D02*
X83357713Y-59791352D01*
X83357713Y-59791352D02*
X83310094Y-59838971D01*
X83310094Y-59838971D02*
X83262475Y-59934209D01*
X83262475Y-59934209D02*
X83262475Y-60124685D01*
X83262475Y-60124685D02*
X83310094Y-60219923D01*
X83310094Y-60219923D02*
X83357713Y-60267542D01*
X83357713Y-60267542D02*
X83452951Y-60315161D01*
X83452951Y-60315161D02*
X83691046Y-60315161D01*
X83691046Y-60315161D02*
X83786284Y-60267542D01*
X83786284Y-60267542D02*
X83833903Y-60219923D01*
X83833903Y-60219923D02*
X83881522Y-60124685D01*
X83881522Y-60124685D02*
X83881522Y-59934209D01*
X83881522Y-59934209D02*
X83833903Y-59838971D01*
X83833903Y-59838971D02*
X83786284Y-59791352D01*
X83786284Y-59791352D02*
X83691046Y-59743733D01*
X84214856Y-59267542D02*
X84262475Y-59267542D01*
X84262475Y-59267542D02*
X84357713Y-59315161D01*
X84357713Y-59315161D02*
X84405332Y-59362780D01*
X83262475Y-57791352D02*
X83976760Y-57791352D01*
X83976760Y-57791352D02*
X84119617Y-57838971D01*
X84119617Y-57838971D02*
X84214856Y-57934209D01*
X84214856Y-57934209D02*
X84262475Y-58077066D01*
X84262475Y-58077066D02*
X84262475Y-58172304D01*
X84262475Y-56791352D02*
X84262475Y-57362780D01*
X84262475Y-57077066D02*
X83262475Y-57077066D01*
X83262475Y-57077066D02*
X83405332Y-57172304D01*
X83405332Y-57172304D02*
X83500570Y-57267542D01*
X83500570Y-57267542D02*
X83548189Y-57362780D01*
X83262475Y-56172304D02*
X83262475Y-56077066D01*
X83262475Y-56077066D02*
X83310094Y-55981828D01*
X83310094Y-55981828D02*
X83357713Y-55934209D01*
X83357713Y-55934209D02*
X83452951Y-55886590D01*
X83452951Y-55886590D02*
X83643427Y-55838971D01*
X83643427Y-55838971D02*
X83881522Y-55838971D01*
X83881522Y-55838971D02*
X84071998Y-55886590D01*
X84071998Y-55886590D02*
X84167236Y-55934209D01*
X84167236Y-55934209D02*
X84214856Y-55981828D01*
X84214856Y-55981828D02*
X84262475Y-56077066D01*
X84262475Y-56077066D02*
X84262475Y-56172304D01*
X84262475Y-56172304D02*
X84214856Y-56267542D01*
X84214856Y-56267542D02*
X84167236Y-56315161D01*
X84167236Y-56315161D02*
X84071998Y-56362780D01*
X84071998Y-56362780D02*
X83881522Y-56410399D01*
X83881522Y-56410399D02*
X83643427Y-56410399D01*
X83643427Y-56410399D02*
X83452951Y-56362780D01*
X83452951Y-56362780D02*
X83357713Y-56315161D01*
X83357713Y-56315161D02*
X83310094Y-56267542D01*
X83310094Y-56267542D02*
X83262475Y-56172304D01*
X84167236Y-55410399D02*
X84214856Y-55362780D01*
X84214856Y-55362780D02*
X84262475Y-55410399D01*
X84262475Y-55410399D02*
X84214856Y-55458018D01*
X84214856Y-55458018D02*
X84167236Y-55410399D01*
X84167236Y-55410399D02*
X84262475Y-55410399D01*
X83643427Y-55410399D02*
X83691046Y-55362780D01*
X83691046Y-55362780D02*
X83738665Y-55410399D01*
X83738665Y-55410399D02*
X83691046Y-55458018D01*
X83691046Y-55458018D02*
X83643427Y-55410399D01*
X83643427Y-55410399D02*
X83738665Y-55410399D01*
X83262475Y-53886590D02*
X83976760Y-53886590D01*
X83976760Y-53886590D02*
X84119617Y-53934209D01*
X84119617Y-53934209D02*
X84214856Y-54029447D01*
X84214856Y-54029447D02*
X84262475Y-54172304D01*
X84262475Y-54172304D02*
X84262475Y-54267542D01*
X84214856Y-53458018D02*
X84262475Y-53315161D01*
X84262475Y-53315161D02*
X84262475Y-53077066D01*
X84262475Y-53077066D02*
X84214856Y-52981828D01*
X84214856Y-52981828D02*
X84167236Y-52934209D01*
X84167236Y-52934209D02*
X84071998Y-52886590D01*
X84071998Y-52886590D02*
X83976760Y-52886590D01*
X83976760Y-52886590D02*
X83881522Y-52934209D01*
X83881522Y-52934209D02*
X83833903Y-52981828D01*
X83833903Y-52981828D02*
X83786284Y-53077066D01*
X83786284Y-53077066D02*
X83738665Y-53267542D01*
X83738665Y-53267542D02*
X83691046Y-53362780D01*
X83691046Y-53362780D02*
X83643427Y-53410399D01*
X83643427Y-53410399D02*
X83548189Y-53458018D01*
X83548189Y-53458018D02*
X83452951Y-53458018D01*
X83452951Y-53458018D02*
X83357713Y-53410399D01*
X83357713Y-53410399D02*
X83310094Y-53362780D01*
X83310094Y-53362780D02*
X83262475Y-53267542D01*
X83262475Y-53267542D02*
X83262475Y-53029447D01*
X83262475Y-53029447D02*
X83310094Y-52886590D01*
X83262475Y-52600875D02*
X83262475Y-52029447D01*
X84262475Y-52315161D02*
X83262475Y-52315161D01*
X83262475Y-51029446D02*
X84262475Y-50362780D01*
X83262475Y-50362780D02*
X84262475Y-51029446D01*
X84262475Y-49981827D02*
X83262475Y-49981827D01*
X83738665Y-49981827D02*
X83738665Y-49410399D01*
X84262475Y-49410399D02*
X83262475Y-49410399D01*
X83262475Y-48458018D02*
X83262475Y-48934208D01*
X83262475Y-48934208D02*
X83738665Y-48981827D01*
X83738665Y-48981827D02*
X83691046Y-48934208D01*
X83691046Y-48934208D02*
X83643427Y-48838970D01*
X83643427Y-48838970D02*
X83643427Y-48600875D01*
X83643427Y-48600875D02*
X83691046Y-48505637D01*
X83691046Y-48505637D02*
X83738665Y-48458018D01*
X83738665Y-48458018D02*
X83833903Y-48410399D01*
X83833903Y-48410399D02*
X84071998Y-48410399D01*
X84071998Y-48410399D02*
X84167236Y-48458018D01*
X84167236Y-48458018D02*
X84214856Y-48505637D01*
X84214856Y-48505637D02*
X84262475Y-48600875D01*
X84262475Y-48600875D02*
X84262475Y-48838970D01*
X84262475Y-48838970D02*
X84214856Y-48934208D01*
X84214856Y-48934208D02*
X84167236Y-48981827D01*
X85777180Y-78124687D02*
X85824800Y-78172306D01*
X85824800Y-78172306D02*
X85872419Y-78315163D01*
X85872419Y-78315163D02*
X85872419Y-78410401D01*
X85872419Y-78410401D02*
X85824800Y-78553258D01*
X85824800Y-78553258D02*
X85729561Y-78648496D01*
X85729561Y-78648496D02*
X85634323Y-78696115D01*
X85634323Y-78696115D02*
X85443847Y-78743734D01*
X85443847Y-78743734D02*
X85300990Y-78743734D01*
X85300990Y-78743734D02*
X85110514Y-78696115D01*
X85110514Y-78696115D02*
X85015276Y-78648496D01*
X85015276Y-78648496D02*
X84920038Y-78553258D01*
X84920038Y-78553258D02*
X84872419Y-78410401D01*
X84872419Y-78410401D02*
X84872419Y-78315163D01*
X84872419Y-78315163D02*
X84920038Y-78172306D01*
X84920038Y-78172306D02*
X84967657Y-78124687D01*
X85348609Y-77696115D02*
X85348609Y-77362782D01*
X85872419Y-77219925D02*
X85872419Y-77696115D01*
X85872419Y-77696115D02*
X84872419Y-77696115D01*
X84872419Y-77696115D02*
X84872419Y-77219925D01*
X85872419Y-76219925D02*
X85396228Y-76553258D01*
X85872419Y-76791353D02*
X84872419Y-76791353D01*
X84872419Y-76791353D02*
X84872419Y-76410401D01*
X84872419Y-76410401D02*
X84920038Y-76315163D01*
X84920038Y-76315163D02*
X84967657Y-76267544D01*
X84967657Y-76267544D02*
X85062895Y-76219925D01*
X85062895Y-76219925D02*
X85205752Y-76219925D01*
X85205752Y-76219925D02*
X85300990Y-76267544D01*
X85300990Y-76267544D02*
X85348609Y-76315163D01*
X85348609Y-76315163D02*
X85396228Y-76410401D01*
X85396228Y-76410401D02*
X85396228Y-76791353D01*
X85872419Y-75791353D02*
X84872419Y-75791353D01*
X84872419Y-75791353D02*
X85872419Y-75219925D01*
X85872419Y-75219925D02*
X84872419Y-75219925D01*
X84872419Y-73791353D02*
X84872419Y-73600877D01*
X84872419Y-73600877D02*
X84920038Y-73505639D01*
X84920038Y-73505639D02*
X85015276Y-73410401D01*
X85015276Y-73410401D02*
X85205752Y-73362782D01*
X85205752Y-73362782D02*
X85539085Y-73362782D01*
X85539085Y-73362782D02*
X85729561Y-73410401D01*
X85729561Y-73410401D02*
X85824800Y-73505639D01*
X85824800Y-73505639D02*
X85872419Y-73600877D01*
X85872419Y-73600877D02*
X85872419Y-73791353D01*
X85872419Y-73791353D02*
X85824800Y-73886591D01*
X85824800Y-73886591D02*
X85729561Y-73981829D01*
X85729561Y-73981829D02*
X85539085Y-74029448D01*
X85539085Y-74029448D02*
X85205752Y-74029448D01*
X85205752Y-74029448D02*
X85015276Y-73981829D01*
X85015276Y-73981829D02*
X84920038Y-73886591D01*
X84920038Y-73886591D02*
X84872419Y-73791353D01*
X85205752Y-72934210D02*
X86205752Y-72934210D01*
X85253371Y-72934210D02*
X85205752Y-72838972D01*
X85205752Y-72838972D02*
X85205752Y-72648496D01*
X85205752Y-72648496D02*
X85253371Y-72553258D01*
X85253371Y-72553258D02*
X85300990Y-72505639D01*
X85300990Y-72505639D02*
X85396228Y-72458020D01*
X85396228Y-72458020D02*
X85681942Y-72458020D01*
X85681942Y-72458020D02*
X85777180Y-72505639D01*
X85777180Y-72505639D02*
X85824800Y-72553258D01*
X85824800Y-72553258D02*
X85872419Y-72648496D01*
X85872419Y-72648496D02*
X85872419Y-72838972D01*
X85872419Y-72838972D02*
X85824800Y-72934210D01*
X85824800Y-71648496D02*
X85872419Y-71743734D01*
X85872419Y-71743734D02*
X85872419Y-71934210D01*
X85872419Y-71934210D02*
X85824800Y-72029448D01*
X85824800Y-72029448D02*
X85729561Y-72077067D01*
X85729561Y-72077067D02*
X85348609Y-72077067D01*
X85348609Y-72077067D02*
X85253371Y-72029448D01*
X85253371Y-72029448D02*
X85205752Y-71934210D01*
X85205752Y-71934210D02*
X85205752Y-71743734D01*
X85205752Y-71743734D02*
X85253371Y-71648496D01*
X85253371Y-71648496D02*
X85348609Y-71600877D01*
X85348609Y-71600877D02*
X85443847Y-71600877D01*
X85443847Y-71600877D02*
X85539085Y-72077067D01*
X85205752Y-71172305D02*
X85872419Y-71172305D01*
X85300990Y-71172305D02*
X85253371Y-71124686D01*
X85253371Y-71124686D02*
X85205752Y-71029448D01*
X85205752Y-71029448D02*
X85205752Y-70886591D01*
X85205752Y-70886591D02*
X85253371Y-70791353D01*
X85253371Y-70791353D02*
X85348609Y-70743734D01*
X85348609Y-70743734D02*
X85872419Y-70743734D01*
X85872419Y-69505638D02*
X84872419Y-69505638D01*
X85348609Y-69505638D02*
X85348609Y-68934210D01*
X85872419Y-68934210D02*
X84872419Y-68934210D01*
X85872419Y-68029448D02*
X85348609Y-68029448D01*
X85348609Y-68029448D02*
X85253371Y-68077067D01*
X85253371Y-68077067D02*
X85205752Y-68172305D01*
X85205752Y-68172305D02*
X85205752Y-68362781D01*
X85205752Y-68362781D02*
X85253371Y-68458019D01*
X85824800Y-68029448D02*
X85872419Y-68124686D01*
X85872419Y-68124686D02*
X85872419Y-68362781D01*
X85872419Y-68362781D02*
X85824800Y-68458019D01*
X85824800Y-68458019D02*
X85729561Y-68505638D01*
X85729561Y-68505638D02*
X85634323Y-68505638D01*
X85634323Y-68505638D02*
X85539085Y-68458019D01*
X85539085Y-68458019D02*
X85491466Y-68362781D01*
X85491466Y-68362781D02*
X85491466Y-68124686D01*
X85491466Y-68124686D02*
X85443847Y-68029448D01*
X85872419Y-67553257D02*
X85205752Y-67553257D01*
X85396228Y-67553257D02*
X85300990Y-67505638D01*
X85300990Y-67505638D02*
X85253371Y-67458019D01*
X85253371Y-67458019D02*
X85205752Y-67362781D01*
X85205752Y-67362781D02*
X85205752Y-67267543D01*
X85872419Y-66505638D02*
X84872419Y-66505638D01*
X85824800Y-66505638D02*
X85872419Y-66600876D01*
X85872419Y-66600876D02*
X85872419Y-66791352D01*
X85872419Y-66791352D02*
X85824800Y-66886590D01*
X85824800Y-66886590D02*
X85777180Y-66934209D01*
X85777180Y-66934209D02*
X85681942Y-66981828D01*
X85681942Y-66981828D02*
X85396228Y-66981828D01*
X85396228Y-66981828D02*
X85300990Y-66934209D01*
X85300990Y-66934209D02*
X85253371Y-66886590D01*
X85253371Y-66886590D02*
X85205752Y-66791352D01*
X85205752Y-66791352D02*
X85205752Y-66600876D01*
X85205752Y-66600876D02*
X85253371Y-66505638D01*
X85205752Y-66124685D02*
X85872419Y-65934209D01*
X85872419Y-65934209D02*
X85396228Y-65743733D01*
X85396228Y-65743733D02*
X85872419Y-65553257D01*
X85872419Y-65553257D02*
X85205752Y-65362781D01*
X85872419Y-64553257D02*
X85348609Y-64553257D01*
X85348609Y-64553257D02*
X85253371Y-64600876D01*
X85253371Y-64600876D02*
X85205752Y-64696114D01*
X85205752Y-64696114D02*
X85205752Y-64886590D01*
X85205752Y-64886590D02*
X85253371Y-64981828D01*
X85824800Y-64553257D02*
X85872419Y-64648495D01*
X85872419Y-64648495D02*
X85872419Y-64886590D01*
X85872419Y-64886590D02*
X85824800Y-64981828D01*
X85824800Y-64981828D02*
X85729561Y-65029447D01*
X85729561Y-65029447D02*
X85634323Y-65029447D01*
X85634323Y-65029447D02*
X85539085Y-64981828D01*
X85539085Y-64981828D02*
X85491466Y-64886590D01*
X85491466Y-64886590D02*
X85491466Y-64648495D01*
X85491466Y-64648495D02*
X85443847Y-64553257D01*
X85872419Y-64077066D02*
X85205752Y-64077066D01*
X85396228Y-64077066D02*
X85300990Y-64029447D01*
X85300990Y-64029447D02*
X85253371Y-63981828D01*
X85253371Y-63981828D02*
X85205752Y-63886590D01*
X85205752Y-63886590D02*
X85205752Y-63791352D01*
X85824800Y-63077066D02*
X85872419Y-63172304D01*
X85872419Y-63172304D02*
X85872419Y-63362780D01*
X85872419Y-63362780D02*
X85824800Y-63458018D01*
X85824800Y-63458018D02*
X85729561Y-63505637D01*
X85729561Y-63505637D02*
X85348609Y-63505637D01*
X85348609Y-63505637D02*
X85253371Y-63458018D01*
X85253371Y-63458018D02*
X85205752Y-63362780D01*
X85205752Y-63362780D02*
X85205752Y-63172304D01*
X85205752Y-63172304D02*
X85253371Y-63077066D01*
X85253371Y-63077066D02*
X85348609Y-63029447D01*
X85348609Y-63029447D02*
X85443847Y-63029447D01*
X85443847Y-63029447D02*
X85539085Y-63505637D01*
X85872419Y-61362780D02*
X85872419Y-61838970D01*
X85872419Y-61838970D02*
X84872419Y-61838970D01*
X85872419Y-61029446D02*
X85205752Y-61029446D01*
X84872419Y-61029446D02*
X84920038Y-61077065D01*
X84920038Y-61077065D02*
X84967657Y-61029446D01*
X84967657Y-61029446D02*
X84920038Y-60981827D01*
X84920038Y-60981827D02*
X84872419Y-61029446D01*
X84872419Y-61029446D02*
X84967657Y-61029446D01*
X85824800Y-60124685D02*
X85872419Y-60219923D01*
X85872419Y-60219923D02*
X85872419Y-60410399D01*
X85872419Y-60410399D02*
X85824800Y-60505637D01*
X85824800Y-60505637D02*
X85777180Y-60553256D01*
X85777180Y-60553256D02*
X85681942Y-60600875D01*
X85681942Y-60600875D02*
X85396228Y-60600875D01*
X85396228Y-60600875D02*
X85300990Y-60553256D01*
X85300990Y-60553256D02*
X85253371Y-60505637D01*
X85253371Y-60505637D02*
X85205752Y-60410399D01*
X85205752Y-60410399D02*
X85205752Y-60219923D01*
X85205752Y-60219923D02*
X85253371Y-60124685D01*
X85824800Y-59315161D02*
X85872419Y-59410399D01*
X85872419Y-59410399D02*
X85872419Y-59600875D01*
X85872419Y-59600875D02*
X85824800Y-59696113D01*
X85824800Y-59696113D02*
X85729561Y-59743732D01*
X85729561Y-59743732D02*
X85348609Y-59743732D01*
X85348609Y-59743732D02*
X85253371Y-59696113D01*
X85253371Y-59696113D02*
X85205752Y-59600875D01*
X85205752Y-59600875D02*
X85205752Y-59410399D01*
X85205752Y-59410399D02*
X85253371Y-59315161D01*
X85253371Y-59315161D02*
X85348609Y-59267542D01*
X85348609Y-59267542D02*
X85443847Y-59267542D01*
X85443847Y-59267542D02*
X85539085Y-59743732D01*
X85205752Y-58838970D02*
X85872419Y-58838970D01*
X85300990Y-58838970D02*
X85253371Y-58791351D01*
X85253371Y-58791351D02*
X85205752Y-58696113D01*
X85205752Y-58696113D02*
X85205752Y-58553256D01*
X85205752Y-58553256D02*
X85253371Y-58458018D01*
X85253371Y-58458018D02*
X85348609Y-58410399D01*
X85348609Y-58410399D02*
X85872419Y-58410399D01*
X85824800Y-57505637D02*
X85872419Y-57600875D01*
X85872419Y-57600875D02*
X85872419Y-57791351D01*
X85872419Y-57791351D02*
X85824800Y-57886589D01*
X85824800Y-57886589D02*
X85777180Y-57934208D01*
X85777180Y-57934208D02*
X85681942Y-57981827D01*
X85681942Y-57981827D02*
X85396228Y-57981827D01*
X85396228Y-57981827D02*
X85300990Y-57934208D01*
X85300990Y-57934208D02*
X85253371Y-57886589D01*
X85253371Y-57886589D02*
X85205752Y-57791351D01*
X85205752Y-57791351D02*
X85205752Y-57600875D01*
X85205752Y-57600875D02*
X85253371Y-57505637D01*
X85824800Y-56696113D02*
X85872419Y-56791351D01*
X85872419Y-56791351D02*
X85872419Y-56981827D01*
X85872419Y-56981827D02*
X85824800Y-57077065D01*
X85824800Y-57077065D02*
X85729561Y-57124684D01*
X85729561Y-57124684D02*
X85348609Y-57124684D01*
X85348609Y-57124684D02*
X85253371Y-57077065D01*
X85253371Y-57077065D02*
X85205752Y-56981827D01*
X85205752Y-56981827D02*
X85205752Y-56791351D01*
X85205752Y-56791351D02*
X85253371Y-56696113D01*
X85253371Y-56696113D02*
X85348609Y-56648494D01*
X85348609Y-56648494D02*
X85443847Y-56648494D01*
X85443847Y-56648494D02*
X85539085Y-57124684D01*
X84872419Y-55600874D02*
X85872419Y-55267541D01*
X85872419Y-55267541D02*
X84872419Y-54934208D01*
X85824800Y-54219922D02*
X85872419Y-54315160D01*
X85872419Y-54315160D02*
X85872419Y-54505636D01*
X85872419Y-54505636D02*
X85824800Y-54600874D01*
X85824800Y-54600874D02*
X85729561Y-54648493D01*
X85729561Y-54648493D02*
X85348609Y-54648493D01*
X85348609Y-54648493D02*
X85253371Y-54600874D01*
X85253371Y-54600874D02*
X85205752Y-54505636D01*
X85205752Y-54505636D02*
X85205752Y-54315160D01*
X85205752Y-54315160D02*
X85253371Y-54219922D01*
X85253371Y-54219922D02*
X85348609Y-54172303D01*
X85348609Y-54172303D02*
X85443847Y-54172303D01*
X85443847Y-54172303D02*
X85539085Y-54648493D01*
X85872419Y-53743731D02*
X85205752Y-53743731D01*
X85396228Y-53743731D02*
X85300990Y-53696112D01*
X85300990Y-53696112D02*
X85253371Y-53648493D01*
X85253371Y-53648493D02*
X85205752Y-53553255D01*
X85205752Y-53553255D02*
X85205752Y-53458017D01*
X85824800Y-53172302D02*
X85872419Y-53077064D01*
X85872419Y-53077064D02*
X85872419Y-52886588D01*
X85872419Y-52886588D02*
X85824800Y-52791350D01*
X85824800Y-52791350D02*
X85729561Y-52743731D01*
X85729561Y-52743731D02*
X85681942Y-52743731D01*
X85681942Y-52743731D02*
X85586704Y-52791350D01*
X85586704Y-52791350D02*
X85539085Y-52886588D01*
X85539085Y-52886588D02*
X85539085Y-53029445D01*
X85539085Y-53029445D02*
X85491466Y-53124683D01*
X85491466Y-53124683D02*
X85396228Y-53172302D01*
X85396228Y-53172302D02*
X85348609Y-53172302D01*
X85348609Y-53172302D02*
X85253371Y-53124683D01*
X85253371Y-53124683D02*
X85205752Y-53029445D01*
X85205752Y-53029445D02*
X85205752Y-52886588D01*
X85205752Y-52886588D02*
X85253371Y-52791350D01*
X85872419Y-52315159D02*
X85205752Y-52315159D01*
X84872419Y-52315159D02*
X84920038Y-52362778D01*
X84920038Y-52362778D02*
X84967657Y-52315159D01*
X84967657Y-52315159D02*
X84920038Y-52267540D01*
X84920038Y-52267540D02*
X84872419Y-52315159D01*
X84872419Y-52315159D02*
X84967657Y-52315159D01*
X85872419Y-51696112D02*
X85824800Y-51791350D01*
X85824800Y-51791350D02*
X85777180Y-51838969D01*
X85777180Y-51838969D02*
X85681942Y-51886588D01*
X85681942Y-51886588D02*
X85396228Y-51886588D01*
X85396228Y-51886588D02*
X85300990Y-51838969D01*
X85300990Y-51838969D02*
X85253371Y-51791350D01*
X85253371Y-51791350D02*
X85205752Y-51696112D01*
X85205752Y-51696112D02*
X85205752Y-51553255D01*
X85205752Y-51553255D02*
X85253371Y-51458017D01*
X85253371Y-51458017D02*
X85300990Y-51410398D01*
X85300990Y-51410398D02*
X85396228Y-51362779D01*
X85396228Y-51362779D02*
X85681942Y-51362779D01*
X85681942Y-51362779D02*
X85777180Y-51410398D01*
X85777180Y-51410398D02*
X85824800Y-51458017D01*
X85824800Y-51458017D02*
X85872419Y-51553255D01*
X85872419Y-51553255D02*
X85872419Y-51696112D01*
X85205752Y-50934207D02*
X85872419Y-50934207D01*
X85300990Y-50934207D02*
X85253371Y-50886588D01*
X85253371Y-50886588D02*
X85205752Y-50791350D01*
X85205752Y-50791350D02*
X85205752Y-50648493D01*
X85205752Y-50648493D02*
X85253371Y-50553255D01*
X85253371Y-50553255D02*
X85348609Y-50505636D01*
X85348609Y-50505636D02*
X85872419Y-50505636D01*
X84967657Y-49315159D02*
X84920038Y-49267540D01*
X84920038Y-49267540D02*
X84872419Y-49172302D01*
X84872419Y-49172302D02*
X84872419Y-48934207D01*
X84872419Y-48934207D02*
X84920038Y-48838969D01*
X84920038Y-48838969D02*
X84967657Y-48791350D01*
X84967657Y-48791350D02*
X85062895Y-48743731D01*
X85062895Y-48743731D02*
X85158133Y-48743731D01*
X85158133Y-48743731D02*
X85300990Y-48791350D01*
X85300990Y-48791350D02*
X85872419Y-49362778D01*
X85872419Y-49362778D02*
X85872419Y-48743731D01*
X85824800Y-48267540D02*
X85872419Y-48267540D01*
X85872419Y-48267540D02*
X85967657Y-48315159D01*
X85967657Y-48315159D02*
X86015276Y-48362778D01*
X85205752Y-47077064D02*
X85872419Y-47077064D01*
X85300990Y-47077064D02*
X85253371Y-47029445D01*
X85253371Y-47029445D02*
X85205752Y-46934207D01*
X85205752Y-46934207D02*
X85205752Y-46791350D01*
X85205752Y-46791350D02*
X85253371Y-46696112D01*
X85253371Y-46696112D02*
X85348609Y-46648493D01*
X85348609Y-46648493D02*
X85872419Y-46648493D01*
X85872419Y-46029445D02*
X85824800Y-46124683D01*
X85824800Y-46124683D02*
X85777180Y-46172302D01*
X85777180Y-46172302D02*
X85681942Y-46219921D01*
X85681942Y-46219921D02*
X85396228Y-46219921D01*
X85396228Y-46219921D02*
X85300990Y-46172302D01*
X85300990Y-46172302D02*
X85253371Y-46124683D01*
X85253371Y-46124683D02*
X85205752Y-46029445D01*
X85205752Y-46029445D02*
X85205752Y-45886588D01*
X85205752Y-45886588D02*
X85253371Y-45791350D01*
X85253371Y-45791350D02*
X85300990Y-45743731D01*
X85300990Y-45743731D02*
X85396228Y-45696112D01*
X85396228Y-45696112D02*
X85681942Y-45696112D01*
X85681942Y-45696112D02*
X85777180Y-45743731D01*
X85777180Y-45743731D02*
X85824800Y-45791350D01*
X85824800Y-45791350D02*
X85872419Y-45886588D01*
X85872419Y-45886588D02*
X85872419Y-46029445D01*
X85205752Y-44600873D02*
X85872419Y-44410397D01*
X85872419Y-44410397D02*
X85396228Y-44219921D01*
X85396228Y-44219921D02*
X85872419Y-44029445D01*
X85872419Y-44029445D02*
X85205752Y-43838969D01*
X85872419Y-43029445D02*
X85348609Y-43029445D01*
X85348609Y-43029445D02*
X85253371Y-43077064D01*
X85253371Y-43077064D02*
X85205752Y-43172302D01*
X85205752Y-43172302D02*
X85205752Y-43362778D01*
X85205752Y-43362778D02*
X85253371Y-43458016D01*
X85824800Y-43029445D02*
X85872419Y-43124683D01*
X85872419Y-43124683D02*
X85872419Y-43362778D01*
X85872419Y-43362778D02*
X85824800Y-43458016D01*
X85824800Y-43458016D02*
X85729561Y-43505635D01*
X85729561Y-43505635D02*
X85634323Y-43505635D01*
X85634323Y-43505635D02*
X85539085Y-43458016D01*
X85539085Y-43458016D02*
X85491466Y-43362778D01*
X85491466Y-43362778D02*
X85491466Y-43124683D01*
X85491466Y-43124683D02*
X85443847Y-43029445D01*
X85872419Y-42553254D02*
X85205752Y-42553254D01*
X85396228Y-42553254D02*
X85300990Y-42505635D01*
X85300990Y-42505635D02*
X85253371Y-42458016D01*
X85253371Y-42458016D02*
X85205752Y-42362778D01*
X85205752Y-42362778D02*
X85205752Y-42267540D01*
X85872419Y-41505635D02*
X85348609Y-41505635D01*
X85348609Y-41505635D02*
X85253371Y-41553254D01*
X85253371Y-41553254D02*
X85205752Y-41648492D01*
X85205752Y-41648492D02*
X85205752Y-41838968D01*
X85205752Y-41838968D02*
X85253371Y-41934206D01*
X85824800Y-41505635D02*
X85872419Y-41600873D01*
X85872419Y-41600873D02*
X85872419Y-41838968D01*
X85872419Y-41838968D02*
X85824800Y-41934206D01*
X85824800Y-41934206D02*
X85729561Y-41981825D01*
X85729561Y-41981825D02*
X85634323Y-41981825D01*
X85634323Y-41981825D02*
X85539085Y-41934206D01*
X85539085Y-41934206D02*
X85491466Y-41838968D01*
X85491466Y-41838968D02*
X85491466Y-41600873D01*
X85491466Y-41600873D02*
X85443847Y-41505635D01*
X85205752Y-41029444D02*
X85872419Y-41029444D01*
X85300990Y-41029444D02*
X85253371Y-40981825D01*
X85253371Y-40981825D02*
X85205752Y-40886587D01*
X85205752Y-40886587D02*
X85205752Y-40743730D01*
X85205752Y-40743730D02*
X85253371Y-40648492D01*
X85253371Y-40648492D02*
X85348609Y-40600873D01*
X85348609Y-40600873D02*
X85872419Y-40600873D01*
X85205752Y-40267539D02*
X85205752Y-39886587D01*
X84872419Y-40124682D02*
X85729561Y-40124682D01*
X85729561Y-40124682D02*
X85824800Y-40077063D01*
X85824800Y-40077063D02*
X85872419Y-39981825D01*
X85872419Y-39981825D02*
X85872419Y-39886587D01*
X85205752Y-39648491D02*
X85872419Y-39410396D01*
X85205752Y-39172301D02*
X85872419Y-39410396D01*
X85872419Y-39410396D02*
X86110514Y-39505634D01*
X86110514Y-39505634D02*
X86158133Y-39553253D01*
X86158133Y-39553253D02*
X86205752Y-39648491D01*
X85777180Y-38791348D02*
X85824800Y-38743729D01*
X85824800Y-38743729D02*
X85872419Y-38791348D01*
X85872419Y-38791348D02*
X85824800Y-38838967D01*
X85824800Y-38838967D02*
X85777180Y-38791348D01*
X85777180Y-38791348D02*
X85872419Y-38791348D01*
X85491466Y-38791348D02*
X84920038Y-38838967D01*
X84920038Y-38838967D02*
X84872419Y-38791348D01*
X84872419Y-38791348D02*
X84920038Y-38743729D01*
X84920038Y-38743729D02*
X85491466Y-38791348D01*
X85491466Y-38791348D02*
X84872419Y-38791348D01*
X88589598Y-23652531D02*
X88589598Y-24366816D01*
X88589598Y-24366816D02*
X88541979Y-24509673D01*
X88541979Y-24509673D02*
X88446741Y-24604912D01*
X88446741Y-24604912D02*
X88303884Y-24652531D01*
X88303884Y-24652531D02*
X88208646Y-24652531D01*
X89065789Y-24652531D02*
X89065789Y-23652531D01*
X89065789Y-23652531D02*
X89446741Y-23652531D01*
X89446741Y-23652531D02*
X89541979Y-23700150D01*
X89541979Y-23700150D02*
X89589598Y-23747769D01*
X89589598Y-23747769D02*
X89637217Y-23843007D01*
X89637217Y-23843007D02*
X89637217Y-23985864D01*
X89637217Y-23985864D02*
X89589598Y-24081102D01*
X89589598Y-24081102D02*
X89541979Y-24128721D01*
X89541979Y-24128721D02*
X89446741Y-24176340D01*
X89446741Y-24176340D02*
X89065789Y-24176340D01*
X90589598Y-24652531D02*
X90018170Y-24652531D01*
X90303884Y-24652531D02*
X90303884Y-23652531D01*
X90303884Y-23652531D02*
X90208646Y-23795388D01*
X90208646Y-23795388D02*
X90113408Y-23890626D01*
X90113408Y-23890626D02*
X90018170Y-23938245D01*
X92256265Y-24652531D02*
X91780075Y-24652531D01*
X91780075Y-24652531D02*
X91780075Y-23652531D01*
X92589599Y-24128721D02*
X92922932Y-24128721D01*
X93065789Y-24652531D02*
X92589599Y-24652531D01*
X92589599Y-24652531D02*
X92589599Y-23652531D01*
X92589599Y-23652531D02*
X93065789Y-23652531D01*
X93494361Y-24652531D02*
X93494361Y-23652531D01*
X93494361Y-23652531D02*
X93732456Y-23652531D01*
X93732456Y-23652531D02*
X93875313Y-23700150D01*
X93875313Y-23700150D02*
X93970551Y-23795388D01*
X93970551Y-23795388D02*
X94018170Y-23890626D01*
X94018170Y-23890626D02*
X94065789Y-24081102D01*
X94065789Y-24081102D02*
X94065789Y-24223959D01*
X94065789Y-24223959D02*
X94018170Y-24414435D01*
X94018170Y-24414435D02*
X93970551Y-24509673D01*
X93970551Y-24509673D02*
X93875313Y-24604912D01*
X93875313Y-24604912D02*
X93732456Y-24652531D01*
X93732456Y-24652531D02*
X93494361Y-24652531D01*
X95208647Y-24604912D02*
X95303885Y-24652531D01*
X95303885Y-24652531D02*
X95494361Y-24652531D01*
X95494361Y-24652531D02*
X95589599Y-24604912D01*
X95589599Y-24604912D02*
X95637218Y-24509673D01*
X95637218Y-24509673D02*
X95637218Y-24462054D01*
X95637218Y-24462054D02*
X95589599Y-24366816D01*
X95589599Y-24366816D02*
X95494361Y-24319197D01*
X95494361Y-24319197D02*
X95351504Y-24319197D01*
X95351504Y-24319197D02*
X95256266Y-24271578D01*
X95256266Y-24271578D02*
X95208647Y-24176340D01*
X95208647Y-24176340D02*
X95208647Y-24128721D01*
X95208647Y-24128721D02*
X95256266Y-24033483D01*
X95256266Y-24033483D02*
X95351504Y-23985864D01*
X95351504Y-23985864D02*
X95494361Y-23985864D01*
X95494361Y-23985864D02*
X95589599Y-24033483D01*
X96446742Y-24604912D02*
X96351504Y-24652531D01*
X96351504Y-24652531D02*
X96161028Y-24652531D01*
X96161028Y-24652531D02*
X96065790Y-24604912D01*
X96065790Y-24604912D02*
X96018171Y-24509673D01*
X96018171Y-24509673D02*
X96018171Y-24128721D01*
X96018171Y-24128721D02*
X96065790Y-24033483D01*
X96065790Y-24033483D02*
X96161028Y-23985864D01*
X96161028Y-23985864D02*
X96351504Y-23985864D01*
X96351504Y-23985864D02*
X96446742Y-24033483D01*
X96446742Y-24033483D02*
X96494361Y-24128721D01*
X96494361Y-24128721D02*
X96494361Y-24223959D01*
X96494361Y-24223959D02*
X96018171Y-24319197D01*
X96780076Y-23985864D02*
X97161028Y-23985864D01*
X96922933Y-23652531D02*
X96922933Y-24509673D01*
X96922933Y-24509673D02*
X96970552Y-24604912D01*
X96970552Y-24604912D02*
X97065790Y-24652531D01*
X97065790Y-24652531D02*
X97161028Y-24652531D01*
X97351505Y-23985864D02*
X97732457Y-23985864D01*
X97494362Y-23652531D02*
X97494362Y-24509673D01*
X97494362Y-24509673D02*
X97541981Y-24604912D01*
X97541981Y-24604912D02*
X97637219Y-24652531D01*
X97637219Y-24652531D02*
X97732457Y-24652531D01*
X98065791Y-24652531D02*
X98065791Y-23985864D01*
X98065791Y-23652531D02*
X98018172Y-23700150D01*
X98018172Y-23700150D02*
X98065791Y-23747769D01*
X98065791Y-23747769D02*
X98113410Y-23700150D01*
X98113410Y-23700150D02*
X98065791Y-23652531D01*
X98065791Y-23652531D02*
X98065791Y-23747769D01*
X98541981Y-23985864D02*
X98541981Y-24652531D01*
X98541981Y-24081102D02*
X98589600Y-24033483D01*
X98589600Y-24033483D02*
X98684838Y-23985864D01*
X98684838Y-23985864D02*
X98827695Y-23985864D01*
X98827695Y-23985864D02*
X98922933Y-24033483D01*
X98922933Y-24033483D02*
X98970552Y-24128721D01*
X98970552Y-24128721D02*
X98970552Y-24652531D01*
X99875314Y-23985864D02*
X99875314Y-24795388D01*
X99875314Y-24795388D02*
X99827695Y-24890626D01*
X99827695Y-24890626D02*
X99780076Y-24938245D01*
X99780076Y-24938245D02*
X99684838Y-24985864D01*
X99684838Y-24985864D02*
X99541981Y-24985864D01*
X99541981Y-24985864D02*
X99446743Y-24938245D01*
X99875314Y-24604912D02*
X99780076Y-24652531D01*
X99780076Y-24652531D02*
X99589600Y-24652531D01*
X99589600Y-24652531D02*
X99494362Y-24604912D01*
X99494362Y-24604912D02*
X99446743Y-24557292D01*
X99446743Y-24557292D02*
X99399124Y-24462054D01*
X99399124Y-24462054D02*
X99399124Y-24176340D01*
X99399124Y-24176340D02*
X99446743Y-24081102D01*
X99446743Y-24081102D02*
X99494362Y-24033483D01*
X99494362Y-24033483D02*
X99589600Y-23985864D01*
X99589600Y-23985864D02*
X99780076Y-23985864D01*
X99780076Y-23985864D02*
X99875314Y-24033483D01*
X100303886Y-24604912D02*
X100399124Y-24652531D01*
X100399124Y-24652531D02*
X100589600Y-24652531D01*
X100589600Y-24652531D02*
X100684838Y-24604912D01*
X100684838Y-24604912D02*
X100732457Y-24509673D01*
X100732457Y-24509673D02*
X100732457Y-24462054D01*
X100732457Y-24462054D02*
X100684838Y-24366816D01*
X100684838Y-24366816D02*
X100589600Y-24319197D01*
X100589600Y-24319197D02*
X100446743Y-24319197D01*
X100446743Y-24319197D02*
X100351505Y-24271578D01*
X100351505Y-24271578D02*
X100303886Y-24176340D01*
X100303886Y-24176340D02*
X100303886Y-24128721D01*
X100303886Y-24128721D02*
X100351505Y-24033483D01*
X100351505Y-24033483D02*
X100446743Y-23985864D01*
X100446743Y-23985864D02*
X100589600Y-23985864D01*
X100589600Y-23985864D02*
X100684838Y-24033483D01*
X101161029Y-24557292D02*
X101208648Y-24604912D01*
X101208648Y-24604912D02*
X101161029Y-24652531D01*
X101161029Y-24652531D02*
X101113410Y-24604912D01*
X101113410Y-24604912D02*
X101161029Y-24557292D01*
X101161029Y-24557292D02*
X101161029Y-24652531D01*
X101161029Y-24033483D02*
X101208648Y-24081102D01*
X101208648Y-24081102D02*
X101161029Y-24128721D01*
X101161029Y-24128721D02*
X101113410Y-24081102D01*
X101113410Y-24081102D02*
X101161029Y-24033483D01*
X101161029Y-24033483D02*
X101161029Y-24128721D01*
X88827693Y-26262475D02*
X88256265Y-26262475D01*
X88541979Y-26262475D02*
X88541979Y-25262475D01*
X88541979Y-25262475D02*
X88446741Y-25405332D01*
X88446741Y-25405332D02*
X88351503Y-25500570D01*
X88351503Y-25500570D02*
X88256265Y-25548189D01*
X89256265Y-25881522D02*
X90018170Y-25881522D01*
X90446741Y-25357713D02*
X90494360Y-25310094D01*
X90494360Y-25310094D02*
X90589598Y-25262475D01*
X90589598Y-25262475D02*
X90827693Y-25262475D01*
X90827693Y-25262475D02*
X90922931Y-25310094D01*
X90922931Y-25310094D02*
X90970550Y-25357713D01*
X90970550Y-25357713D02*
X91018169Y-25452951D01*
X91018169Y-25452951D02*
X91018169Y-25548189D01*
X91018169Y-25548189D02*
X90970550Y-25691046D01*
X90970550Y-25691046D02*
X90399122Y-26262475D01*
X90399122Y-26262475D02*
X91018169Y-26262475D01*
X91446741Y-26167236D02*
X91494360Y-26214856D01*
X91494360Y-26214856D02*
X91446741Y-26262475D01*
X91446741Y-26262475D02*
X91399122Y-26214856D01*
X91399122Y-26214856D02*
X91446741Y-26167236D01*
X91446741Y-26167236D02*
X91446741Y-26262475D01*
X91446741Y-25643427D02*
X91494360Y-25691046D01*
X91494360Y-25691046D02*
X91446741Y-25738665D01*
X91446741Y-25738665D02*
X91399122Y-25691046D01*
X91399122Y-25691046D02*
X91446741Y-25643427D01*
X91446741Y-25643427D02*
X91446741Y-25738665D01*
X93113407Y-26262475D02*
X93113407Y-25738665D01*
X93113407Y-25738665D02*
X93065788Y-25643427D01*
X93065788Y-25643427D02*
X92970550Y-25595808D01*
X92970550Y-25595808D02*
X92780074Y-25595808D01*
X92780074Y-25595808D02*
X92684836Y-25643427D01*
X93113407Y-26214856D02*
X93018169Y-26262475D01*
X93018169Y-26262475D02*
X92780074Y-26262475D01*
X92780074Y-26262475D02*
X92684836Y-26214856D01*
X92684836Y-26214856D02*
X92637217Y-26119617D01*
X92637217Y-26119617D02*
X92637217Y-26024379D01*
X92637217Y-26024379D02*
X92684836Y-25929141D01*
X92684836Y-25929141D02*
X92780074Y-25881522D01*
X92780074Y-25881522D02*
X93018169Y-25881522D01*
X93018169Y-25881522D02*
X93113407Y-25833903D01*
X93732455Y-26262475D02*
X93637217Y-26214856D01*
X93637217Y-26214856D02*
X93589598Y-26119617D01*
X93589598Y-26119617D02*
X93589598Y-25262475D01*
X94018170Y-25595808D02*
X94208646Y-26262475D01*
X94208646Y-26262475D02*
X94399122Y-25786284D01*
X94399122Y-25786284D02*
X94589598Y-26262475D01*
X94589598Y-26262475D02*
X94780074Y-25595808D01*
X95589598Y-26262475D02*
X95589598Y-25738665D01*
X95589598Y-25738665D02*
X95541979Y-25643427D01*
X95541979Y-25643427D02*
X95446741Y-25595808D01*
X95446741Y-25595808D02*
X95256265Y-25595808D01*
X95256265Y-25595808D02*
X95161027Y-25643427D01*
X95589598Y-26214856D02*
X95494360Y-26262475D01*
X95494360Y-26262475D02*
X95256265Y-26262475D01*
X95256265Y-26262475D02*
X95161027Y-26214856D01*
X95161027Y-26214856D02*
X95113408Y-26119617D01*
X95113408Y-26119617D02*
X95113408Y-26024379D01*
X95113408Y-26024379D02*
X95161027Y-25929141D01*
X95161027Y-25929141D02*
X95256265Y-25881522D01*
X95256265Y-25881522D02*
X95494360Y-25881522D01*
X95494360Y-25881522D02*
X95589598Y-25833903D01*
X95970551Y-25595808D02*
X96208646Y-26262475D01*
X96446741Y-25595808D02*
X96208646Y-26262475D01*
X96208646Y-26262475D02*
X96113408Y-26500570D01*
X96113408Y-26500570D02*
X96065789Y-26548189D01*
X96065789Y-26548189D02*
X95970551Y-26595808D01*
X96780075Y-26214856D02*
X96875313Y-26262475D01*
X96875313Y-26262475D02*
X97065789Y-26262475D01*
X97065789Y-26262475D02*
X97161027Y-26214856D01*
X97161027Y-26214856D02*
X97208646Y-26119617D01*
X97208646Y-26119617D02*
X97208646Y-26071998D01*
X97208646Y-26071998D02*
X97161027Y-25976760D01*
X97161027Y-25976760D02*
X97065789Y-25929141D01*
X97065789Y-25929141D02*
X96922932Y-25929141D01*
X96922932Y-25929141D02*
X96827694Y-25881522D01*
X96827694Y-25881522D02*
X96780075Y-25786284D01*
X96780075Y-25786284D02*
X96780075Y-25738665D01*
X96780075Y-25738665D02*
X96827694Y-25643427D01*
X96827694Y-25643427D02*
X96922932Y-25595808D01*
X96922932Y-25595808D02*
X97065789Y-25595808D01*
X97065789Y-25595808D02*
X97161027Y-25643427D01*
X98541980Y-26262475D02*
X98446742Y-26214856D01*
X98446742Y-26214856D02*
X98399123Y-26167236D01*
X98399123Y-26167236D02*
X98351504Y-26071998D01*
X98351504Y-26071998D02*
X98351504Y-25786284D01*
X98351504Y-25786284D02*
X98399123Y-25691046D01*
X98399123Y-25691046D02*
X98446742Y-25643427D01*
X98446742Y-25643427D02*
X98541980Y-25595808D01*
X98541980Y-25595808D02*
X98684837Y-25595808D01*
X98684837Y-25595808D02*
X98780075Y-25643427D01*
X98780075Y-25643427D02*
X98827694Y-25691046D01*
X98827694Y-25691046D02*
X98875313Y-25786284D01*
X98875313Y-25786284D02*
X98875313Y-26071998D01*
X98875313Y-26071998D02*
X98827694Y-26167236D01*
X98827694Y-26167236D02*
X98780075Y-26214856D01*
X98780075Y-26214856D02*
X98684837Y-26262475D01*
X98684837Y-26262475D02*
X98541980Y-26262475D01*
X99303885Y-25595808D02*
X99303885Y-26262475D01*
X99303885Y-25691046D02*
X99351504Y-25643427D01*
X99351504Y-25643427D02*
X99446742Y-25595808D01*
X99446742Y-25595808D02*
X99589599Y-25595808D01*
X99589599Y-25595808D02*
X99684837Y-25643427D01*
X99684837Y-25643427D02*
X99732456Y-25738665D01*
X99732456Y-25738665D02*
X99732456Y-26262475D01*
X88256265Y-26967657D02*
X88303884Y-26920038D01*
X88303884Y-26920038D02*
X88399122Y-26872419D01*
X88399122Y-26872419D02*
X88637217Y-26872419D01*
X88637217Y-26872419D02*
X88732455Y-26920038D01*
X88732455Y-26920038D02*
X88780074Y-26967657D01*
X88780074Y-26967657D02*
X88827693Y-27062895D01*
X88827693Y-27062895D02*
X88827693Y-27158133D01*
X88827693Y-27158133D02*
X88780074Y-27300990D01*
X88780074Y-27300990D02*
X88208646Y-27872419D01*
X88208646Y-27872419D02*
X88827693Y-27872419D01*
X89256265Y-27491466D02*
X90018170Y-27491466D01*
X90399122Y-26872419D02*
X91018169Y-26872419D01*
X91018169Y-26872419D02*
X90684836Y-27253371D01*
X90684836Y-27253371D02*
X90827693Y-27253371D01*
X90827693Y-27253371D02*
X90922931Y-27300990D01*
X90922931Y-27300990D02*
X90970550Y-27348609D01*
X90970550Y-27348609D02*
X91018169Y-27443847D01*
X91018169Y-27443847D02*
X91018169Y-27681942D01*
X91018169Y-27681942D02*
X90970550Y-27777180D01*
X90970550Y-27777180D02*
X90922931Y-27824800D01*
X90922931Y-27824800D02*
X90827693Y-27872419D01*
X90827693Y-27872419D02*
X90541979Y-27872419D01*
X90541979Y-27872419D02*
X90446741Y-27824800D01*
X90446741Y-27824800D02*
X90399122Y-27777180D01*
X91446741Y-27777180D02*
X91494360Y-27824800D01*
X91494360Y-27824800D02*
X91446741Y-27872419D01*
X91446741Y-27872419D02*
X91399122Y-27824800D01*
X91399122Y-27824800D02*
X91446741Y-27777180D01*
X91446741Y-27777180D02*
X91446741Y-27872419D01*
X91446741Y-27253371D02*
X91494360Y-27300990D01*
X91494360Y-27300990D02*
X91446741Y-27348609D01*
X91446741Y-27348609D02*
X91399122Y-27300990D01*
X91399122Y-27300990D02*
X91446741Y-27253371D01*
X91446741Y-27253371D02*
X91446741Y-27348609D01*
X92637217Y-27586704D02*
X93113407Y-27586704D01*
X92541979Y-27872419D02*
X92875312Y-26872419D01*
X92875312Y-26872419D02*
X93208645Y-27872419D01*
X93541979Y-27872419D02*
X93541979Y-27205752D01*
X93541979Y-27396228D02*
X93589598Y-27300990D01*
X93589598Y-27300990D02*
X93637217Y-27253371D01*
X93637217Y-27253371D02*
X93732455Y-27205752D01*
X93732455Y-27205752D02*
X93827693Y-27205752D01*
X94589598Y-27872419D02*
X94589598Y-26872419D01*
X94589598Y-27824800D02*
X94494360Y-27872419D01*
X94494360Y-27872419D02*
X94303884Y-27872419D01*
X94303884Y-27872419D02*
X94208646Y-27824800D01*
X94208646Y-27824800D02*
X94161027Y-27777180D01*
X94161027Y-27777180D02*
X94113408Y-27681942D01*
X94113408Y-27681942D02*
X94113408Y-27396228D01*
X94113408Y-27396228D02*
X94161027Y-27300990D01*
X94161027Y-27300990D02*
X94208646Y-27253371D01*
X94208646Y-27253371D02*
X94303884Y-27205752D01*
X94303884Y-27205752D02*
X94494360Y-27205752D01*
X94494360Y-27205752D02*
X94589598Y-27253371D01*
X95494360Y-27205752D02*
X95494360Y-27872419D01*
X95065789Y-27205752D02*
X95065789Y-27729561D01*
X95065789Y-27729561D02*
X95113408Y-27824800D01*
X95113408Y-27824800D02*
X95208646Y-27872419D01*
X95208646Y-27872419D02*
X95351503Y-27872419D01*
X95351503Y-27872419D02*
X95446741Y-27824800D01*
X95446741Y-27824800D02*
X95494360Y-27777180D01*
X95970551Y-27872419D02*
X95970551Y-27205752D01*
X95970551Y-26872419D02*
X95922932Y-26920038D01*
X95922932Y-26920038D02*
X95970551Y-26967657D01*
X95970551Y-26967657D02*
X96018170Y-26920038D01*
X96018170Y-26920038D02*
X95970551Y-26872419D01*
X95970551Y-26872419D02*
X95970551Y-26967657D01*
X96446741Y-27205752D02*
X96446741Y-27872419D01*
X96446741Y-27300990D02*
X96494360Y-27253371D01*
X96494360Y-27253371D02*
X96589598Y-27205752D01*
X96589598Y-27205752D02*
X96732455Y-27205752D01*
X96732455Y-27205752D02*
X96827693Y-27253371D01*
X96827693Y-27253371D02*
X96875312Y-27348609D01*
X96875312Y-27348609D02*
X96875312Y-27872419D01*
X97494360Y-27872419D02*
X97399122Y-27824800D01*
X97399122Y-27824800D02*
X97351503Y-27777180D01*
X97351503Y-27777180D02*
X97303884Y-27681942D01*
X97303884Y-27681942D02*
X97303884Y-27396228D01*
X97303884Y-27396228D02*
X97351503Y-27300990D01*
X97351503Y-27300990D02*
X97399122Y-27253371D01*
X97399122Y-27253371D02*
X97494360Y-27205752D01*
X97494360Y-27205752D02*
X97637217Y-27205752D01*
X97637217Y-27205752D02*
X97732455Y-27253371D01*
X97732455Y-27253371D02*
X97780074Y-27300990D01*
X97780074Y-27300990D02*
X97827693Y-27396228D01*
X97827693Y-27396228D02*
X97827693Y-27681942D01*
X97827693Y-27681942D02*
X97780074Y-27777180D01*
X97780074Y-27777180D02*
X97732455Y-27824800D01*
X97732455Y-27824800D02*
X97637217Y-27872419D01*
X97637217Y-27872419D02*
X97494360Y-27872419D01*
X99446741Y-27824800D02*
X99351503Y-27872419D01*
X99351503Y-27872419D02*
X99161027Y-27872419D01*
X99161027Y-27872419D02*
X99065789Y-27824800D01*
X99065789Y-27824800D02*
X99018170Y-27777180D01*
X99018170Y-27777180D02*
X98970551Y-27681942D01*
X98970551Y-27681942D02*
X98970551Y-27396228D01*
X98970551Y-27396228D02*
X99018170Y-27300990D01*
X99018170Y-27300990D02*
X99065789Y-27253371D01*
X99065789Y-27253371D02*
X99161027Y-27205752D01*
X99161027Y-27205752D02*
X99351503Y-27205752D01*
X99351503Y-27205752D02*
X99446741Y-27253371D01*
X100018170Y-27872419D02*
X99922932Y-27824800D01*
X99922932Y-27824800D02*
X99875313Y-27777180D01*
X99875313Y-27777180D02*
X99827694Y-27681942D01*
X99827694Y-27681942D02*
X99827694Y-27396228D01*
X99827694Y-27396228D02*
X99875313Y-27300990D01*
X99875313Y-27300990D02*
X99922932Y-27253371D01*
X99922932Y-27253371D02*
X100018170Y-27205752D01*
X100018170Y-27205752D02*
X100161027Y-27205752D01*
X100161027Y-27205752D02*
X100256265Y-27253371D01*
X100256265Y-27253371D02*
X100303884Y-27300990D01*
X100303884Y-27300990D02*
X100351503Y-27396228D01*
X100351503Y-27396228D02*
X100351503Y-27681942D01*
X100351503Y-27681942D02*
X100303884Y-27777180D01*
X100303884Y-27777180D02*
X100256265Y-27824800D01*
X100256265Y-27824800D02*
X100161027Y-27872419D01*
X100161027Y-27872419D02*
X100018170Y-27872419D01*
X100780075Y-27205752D02*
X100780075Y-27872419D01*
X100780075Y-27300990D02*
X100827694Y-27253371D01*
X100827694Y-27253371D02*
X100922932Y-27205752D01*
X100922932Y-27205752D02*
X101065789Y-27205752D01*
X101065789Y-27205752D02*
X101161027Y-27253371D01*
X101161027Y-27253371D02*
X101208646Y-27348609D01*
X101208646Y-27348609D02*
X101208646Y-27872419D01*
X101541980Y-27205752D02*
X101922932Y-27205752D01*
X101684837Y-26872419D02*
X101684837Y-27729561D01*
X101684837Y-27729561D02*
X101732456Y-27824800D01*
X101732456Y-27824800D02*
X101827694Y-27872419D01*
X101827694Y-27872419D02*
X101922932Y-27872419D01*
X102256266Y-27872419D02*
X102256266Y-27205752D01*
X102256266Y-27396228D02*
X102303885Y-27300990D01*
X102303885Y-27300990D02*
X102351504Y-27253371D01*
X102351504Y-27253371D02*
X102446742Y-27205752D01*
X102446742Y-27205752D02*
X102541980Y-27205752D01*
X103018171Y-27872419D02*
X102922933Y-27824800D01*
X102922933Y-27824800D02*
X102875314Y-27777180D01*
X102875314Y-27777180D02*
X102827695Y-27681942D01*
X102827695Y-27681942D02*
X102827695Y-27396228D01*
X102827695Y-27396228D02*
X102875314Y-27300990D01*
X102875314Y-27300990D02*
X102922933Y-27253371D01*
X102922933Y-27253371D02*
X103018171Y-27205752D01*
X103018171Y-27205752D02*
X103161028Y-27205752D01*
X103161028Y-27205752D02*
X103256266Y-27253371D01*
X103256266Y-27253371D02*
X103303885Y-27300990D01*
X103303885Y-27300990D02*
X103351504Y-27396228D01*
X103351504Y-27396228D02*
X103351504Y-27681942D01*
X103351504Y-27681942D02*
X103303885Y-27777180D01*
X103303885Y-27777180D02*
X103256266Y-27824800D01*
X103256266Y-27824800D02*
X103161028Y-27872419D01*
X103161028Y-27872419D02*
X103018171Y-27872419D01*
X103922933Y-27872419D02*
X103827695Y-27824800D01*
X103827695Y-27824800D02*
X103780076Y-27729561D01*
X103780076Y-27729561D02*
X103780076Y-26872419D01*
X104446743Y-27872419D02*
X104351505Y-27824800D01*
X104351505Y-27824800D02*
X104303886Y-27729561D01*
X104303886Y-27729561D02*
X104303886Y-26872419D01*
X105208648Y-27824800D02*
X105113410Y-27872419D01*
X105113410Y-27872419D02*
X104922934Y-27872419D01*
X104922934Y-27872419D02*
X104827696Y-27824800D01*
X104827696Y-27824800D02*
X104780077Y-27729561D01*
X104780077Y-27729561D02*
X104780077Y-27348609D01*
X104780077Y-27348609D02*
X104827696Y-27253371D01*
X104827696Y-27253371D02*
X104922934Y-27205752D01*
X104922934Y-27205752D02*
X105113410Y-27205752D01*
X105113410Y-27205752D02*
X105208648Y-27253371D01*
X105208648Y-27253371D02*
X105256267Y-27348609D01*
X105256267Y-27348609D02*
X105256267Y-27443847D01*
X105256267Y-27443847D02*
X104780077Y-27539085D01*
X106113410Y-27872419D02*
X106113410Y-26872419D01*
X106113410Y-27824800D02*
X106018172Y-27872419D01*
X106018172Y-27872419D02*
X105827696Y-27872419D01*
X105827696Y-27872419D02*
X105732458Y-27824800D01*
X105732458Y-27824800D02*
X105684839Y-27777180D01*
X105684839Y-27777180D02*
X105637220Y-27681942D01*
X105637220Y-27681942D02*
X105637220Y-27396228D01*
X105637220Y-27396228D02*
X105684839Y-27300990D01*
X105684839Y-27300990D02*
X105732458Y-27253371D01*
X105732458Y-27253371D02*
X105827696Y-27205752D01*
X105827696Y-27205752D02*
X106018172Y-27205752D01*
X106018172Y-27205752D02*
X106113410Y-27253371D01*
D11*
X112738095Y-56954819D02*
X112738095Y-57764342D01*
X112738095Y-57764342D02*
X112785714Y-57859580D01*
X112785714Y-57859580D02*
X112833333Y-57907200D01*
X112833333Y-57907200D02*
X112928571Y-57954819D01*
X112928571Y-57954819D02*
X113119047Y-57954819D01*
X113119047Y-57954819D02*
X113214285Y-57907200D01*
X113214285Y-57907200D02*
X113261904Y-57859580D01*
X113261904Y-57859580D02*
X113309523Y-57764342D01*
X113309523Y-57764342D02*
X113309523Y-56954819D01*
X113738095Y-57050057D02*
X113785714Y-57002438D01*
X113785714Y-57002438D02*
X113880952Y-56954819D01*
X113880952Y-56954819D02*
X114119047Y-56954819D01*
X114119047Y-56954819D02*
X114214285Y-57002438D01*
X114214285Y-57002438D02*
X114261904Y-57050057D01*
X114261904Y-57050057D02*
X114309523Y-57145295D01*
X114309523Y-57145295D02*
X114309523Y-57240533D01*
X114309523Y-57240533D02*
X114261904Y-57383390D01*
X114261904Y-57383390D02*
X113690476Y-57954819D01*
X113690476Y-57954819D02*
X114309523Y-57954819D01*
X109142381Y-72144819D02*
X109142381Y-72954342D01*
X109142381Y-72954342D02*
X109190000Y-73049580D01*
X109190000Y-73049580D02*
X109237619Y-73097200D01*
X109237619Y-73097200D02*
X109332857Y-73144819D01*
X109332857Y-73144819D02*
X109523333Y-73144819D01*
X109523333Y-73144819D02*
X109618571Y-73097200D01*
X109618571Y-73097200D02*
X109666190Y-73049580D01*
X109666190Y-73049580D02*
X109713809Y-72954342D01*
X109713809Y-72954342D02*
X109713809Y-72144819D01*
X110666190Y-73144819D02*
X110190000Y-73144819D01*
X110190000Y-73144819D02*
X110190000Y-72144819D01*
X110999524Y-73144819D02*
X110999524Y-72144819D01*
X110999524Y-72144819D02*
X111570952Y-73144819D01*
X111570952Y-73144819D02*
X111570952Y-72144819D01*
X111999524Y-72240057D02*
X112047143Y-72192438D01*
X112047143Y-72192438D02*
X112142381Y-72144819D01*
X112142381Y-72144819D02*
X112380476Y-72144819D01*
X112380476Y-72144819D02*
X112475714Y-72192438D01*
X112475714Y-72192438D02*
X112523333Y-72240057D01*
X112523333Y-72240057D02*
X112570952Y-72335295D01*
X112570952Y-72335295D02*
X112570952Y-72430533D01*
X112570952Y-72430533D02*
X112523333Y-72573390D01*
X112523333Y-72573390D02*
X111951905Y-73144819D01*
X111951905Y-73144819D02*
X112570952Y-73144819D01*
X113190000Y-72144819D02*
X113285238Y-72144819D01*
X113285238Y-72144819D02*
X113380476Y-72192438D01*
X113380476Y-72192438D02*
X113428095Y-72240057D01*
X113428095Y-72240057D02*
X113475714Y-72335295D01*
X113475714Y-72335295D02*
X113523333Y-72525771D01*
X113523333Y-72525771D02*
X113523333Y-72763866D01*
X113523333Y-72763866D02*
X113475714Y-72954342D01*
X113475714Y-72954342D02*
X113428095Y-73049580D01*
X113428095Y-73049580D02*
X113380476Y-73097200D01*
X113380476Y-73097200D02*
X113285238Y-73144819D01*
X113285238Y-73144819D02*
X113190000Y-73144819D01*
X113190000Y-73144819D02*
X113094762Y-73097200D01*
X113094762Y-73097200D02*
X113047143Y-73049580D01*
X113047143Y-73049580D02*
X112999524Y-72954342D01*
X112999524Y-72954342D02*
X112951905Y-72763866D01*
X112951905Y-72763866D02*
X112951905Y-72525771D01*
X112951905Y-72525771D02*
X112999524Y-72335295D01*
X112999524Y-72335295D02*
X113047143Y-72240057D01*
X113047143Y-72240057D02*
X113094762Y-72192438D01*
X113094762Y-72192438D02*
X113190000Y-72144819D01*
X114142381Y-72144819D02*
X114237619Y-72144819D01*
X114237619Y-72144819D02*
X114332857Y-72192438D01*
X114332857Y-72192438D02*
X114380476Y-72240057D01*
X114380476Y-72240057D02*
X114428095Y-72335295D01*
X114428095Y-72335295D02*
X114475714Y-72525771D01*
X114475714Y-72525771D02*
X114475714Y-72763866D01*
X114475714Y-72763866D02*
X114428095Y-72954342D01*
X114428095Y-72954342D02*
X114380476Y-73049580D01*
X114380476Y-73049580D02*
X114332857Y-73097200D01*
X114332857Y-73097200D02*
X114237619Y-73144819D01*
X114237619Y-73144819D02*
X114142381Y-73144819D01*
X114142381Y-73144819D02*
X114047143Y-73097200D01*
X114047143Y-73097200D02*
X113999524Y-73049580D01*
X113999524Y-73049580D02*
X113951905Y-72954342D01*
X113951905Y-72954342D02*
X113904286Y-72763866D01*
X113904286Y-72763866D02*
X113904286Y-72525771D01*
X113904286Y-72525771D02*
X113951905Y-72335295D01*
X113951905Y-72335295D02*
X113999524Y-72240057D01*
X113999524Y-72240057D02*
X114047143Y-72192438D01*
X114047143Y-72192438D02*
X114142381Y-72144819D01*
X114809048Y-72144819D02*
X115428095Y-72144819D01*
X115428095Y-72144819D02*
X115094762Y-72525771D01*
X115094762Y-72525771D02*
X115237619Y-72525771D01*
X115237619Y-72525771D02*
X115332857Y-72573390D01*
X115332857Y-72573390D02*
X115380476Y-72621009D01*
X115380476Y-72621009D02*
X115428095Y-72716247D01*
X115428095Y-72716247D02*
X115428095Y-72954342D01*
X115428095Y-72954342D02*
X115380476Y-73049580D01*
X115380476Y-73049580D02*
X115332857Y-73097200D01*
X115332857Y-73097200D02*
X115237619Y-73144819D01*
X115237619Y-73144819D02*
X114951905Y-73144819D01*
X114951905Y-73144819D02*
X114856667Y-73097200D01*
X114856667Y-73097200D02*
X114809048Y-73049580D01*
X115809048Y-72859104D02*
X116285238Y-72859104D01*
X115713810Y-73144819D02*
X116047143Y-72144819D01*
X116047143Y-72144819D02*
X116380476Y-73144819D01*
X116713810Y-73144819D02*
X116713810Y-72144819D01*
X116713810Y-72144819D02*
X117094762Y-72144819D01*
X117094762Y-72144819D02*
X117190000Y-72192438D01*
X117190000Y-72192438D02*
X117237619Y-72240057D01*
X117237619Y-72240057D02*
X117285238Y-72335295D01*
X117285238Y-72335295D02*
X117285238Y-72478152D01*
X117285238Y-72478152D02*
X117237619Y-72573390D01*
X117237619Y-72573390D02*
X117190000Y-72621009D01*
X117190000Y-72621009D02*
X117094762Y-72668628D01*
X117094762Y-72668628D02*
X116713810Y-72668628D01*
X118237619Y-72192438D02*
X118142381Y-72144819D01*
X118142381Y-72144819D02*
X117999524Y-72144819D01*
X117999524Y-72144819D02*
X117856667Y-72192438D01*
X117856667Y-72192438D02*
X117761429Y-72287676D01*
X117761429Y-72287676D02*
X117713810Y-72382914D01*
X117713810Y-72382914D02*
X117666191Y-72573390D01*
X117666191Y-72573390D02*
X117666191Y-72716247D01*
X117666191Y-72716247D02*
X117713810Y-72906723D01*
X117713810Y-72906723D02*
X117761429Y-73001961D01*
X117761429Y-73001961D02*
X117856667Y-73097200D01*
X117856667Y-73097200D02*
X117999524Y-73144819D01*
X117999524Y-73144819D02*
X118094762Y-73144819D01*
X118094762Y-73144819D02*
X118237619Y-73097200D01*
X118237619Y-73097200D02*
X118285238Y-73049580D01*
X118285238Y-73049580D02*
X118285238Y-72716247D01*
X118285238Y-72716247D02*
X118094762Y-72716247D01*
X127454819Y-59883333D02*
X128169104Y-59883333D01*
X128169104Y-59883333D02*
X128311961Y-59930952D01*
X128311961Y-59930952D02*
X128407200Y-60026190D01*
X128407200Y-60026190D02*
X128454819Y-60169047D01*
X128454819Y-60169047D02*
X128454819Y-60264285D01*
X127550057Y-59454761D02*
X127502438Y-59407142D01*
X127502438Y-59407142D02*
X127454819Y-59311904D01*
X127454819Y-59311904D02*
X127454819Y-59073809D01*
X127454819Y-59073809D02*
X127502438Y-58978571D01*
X127502438Y-58978571D02*
X127550057Y-58930952D01*
X127550057Y-58930952D02*
X127645295Y-58883333D01*
X127645295Y-58883333D02*
X127740533Y-58883333D01*
X127740533Y-58883333D02*
X127883390Y-58930952D01*
X127883390Y-58930952D02*
X128454819Y-59502380D01*
X128454819Y-59502380D02*
X128454819Y-58883333D01*
X127978628Y-53952381D02*
X128454819Y-53952381D01*
X127454819Y-54285714D02*
X127978628Y-53952381D01*
X127978628Y-53952381D02*
X127454819Y-53619048D01*
X128454819Y-52523809D02*
X127454819Y-52523809D01*
X127454819Y-52523809D02*
X128169104Y-52190476D01*
X128169104Y-52190476D02*
X127454819Y-51857143D01*
X127454819Y-51857143D02*
X128454819Y-51857143D01*
X128454819Y-51238095D02*
X128407200Y-51333333D01*
X128407200Y-51333333D02*
X128359580Y-51380952D01*
X128359580Y-51380952D02*
X128264342Y-51428571D01*
X128264342Y-51428571D02*
X127978628Y-51428571D01*
X127978628Y-51428571D02*
X127883390Y-51380952D01*
X127883390Y-51380952D02*
X127835771Y-51333333D01*
X127835771Y-51333333D02*
X127788152Y-51238095D01*
X127788152Y-51238095D02*
X127788152Y-51095238D01*
X127788152Y-51095238D02*
X127835771Y-51000000D01*
X127835771Y-51000000D02*
X127883390Y-50952381D01*
X127883390Y-50952381D02*
X127978628Y-50904762D01*
X127978628Y-50904762D02*
X128264342Y-50904762D01*
X128264342Y-50904762D02*
X128359580Y-50952381D01*
X128359580Y-50952381D02*
X128407200Y-51000000D01*
X128407200Y-51000000D02*
X128454819Y-51095238D01*
X128454819Y-51095238D02*
X128454819Y-51238095D01*
X127788152Y-50619047D02*
X127788152Y-50238095D01*
X127454819Y-50476190D02*
X128311961Y-50476190D01*
X128311961Y-50476190D02*
X128407200Y-50428571D01*
X128407200Y-50428571D02*
X128454819Y-50333333D01*
X128454819Y-50333333D02*
X128454819Y-50238095D01*
X128454819Y-49761904D02*
X128407200Y-49857142D01*
X128407200Y-49857142D02*
X128359580Y-49904761D01*
X128359580Y-49904761D02*
X128264342Y-49952380D01*
X128264342Y-49952380D02*
X127978628Y-49952380D01*
X127978628Y-49952380D02*
X127883390Y-49904761D01*
X127883390Y-49904761D02*
X127835771Y-49857142D01*
X127835771Y-49857142D02*
X127788152Y-49761904D01*
X127788152Y-49761904D02*
X127788152Y-49619047D01*
X127788152Y-49619047D02*
X127835771Y-49523809D01*
X127835771Y-49523809D02*
X127883390Y-49476190D01*
X127883390Y-49476190D02*
X127978628Y-49428571D01*
X127978628Y-49428571D02*
X128264342Y-49428571D01*
X128264342Y-49428571D02*
X128359580Y-49476190D01*
X128359580Y-49476190D02*
X128407200Y-49523809D01*
X128407200Y-49523809D02*
X128454819Y-49619047D01*
X128454819Y-49619047D02*
X128454819Y-49761904D01*
X128454819Y-48999999D02*
X127788152Y-48999999D01*
X127978628Y-48999999D02*
X127883390Y-48952380D01*
X127883390Y-48952380D02*
X127835771Y-48904761D01*
X127835771Y-48904761D02*
X127788152Y-48809523D01*
X127788152Y-48809523D02*
X127788152Y-48714285D01*
X113238095Y-30954819D02*
X113238095Y-31764342D01*
X113238095Y-31764342D02*
X113285714Y-31859580D01*
X113285714Y-31859580D02*
X113333333Y-31907200D01*
X113333333Y-31907200D02*
X113428571Y-31954819D01*
X113428571Y-31954819D02*
X113619047Y-31954819D01*
X113619047Y-31954819D02*
X113714285Y-31907200D01*
X113714285Y-31907200D02*
X113761904Y-31859580D01*
X113761904Y-31859580D02*
X113809523Y-31764342D01*
X113809523Y-31764342D02*
X113809523Y-30954819D01*
X114809523Y-31954819D02*
X114238095Y-31954819D01*
X114523809Y-31954819D02*
X114523809Y-30954819D01*
X114523809Y-30954819D02*
X114428571Y-31097676D01*
X114428571Y-31097676D02*
X114333333Y-31192914D01*
X114333333Y-31192914D02*
X114238095Y-31240533D01*
X109642381Y-45984819D02*
X109642381Y-46794342D01*
X109642381Y-46794342D02*
X109690000Y-46889580D01*
X109690000Y-46889580D02*
X109737619Y-46937200D01*
X109737619Y-46937200D02*
X109832857Y-46984819D01*
X109832857Y-46984819D02*
X110023333Y-46984819D01*
X110023333Y-46984819D02*
X110118571Y-46937200D01*
X110118571Y-46937200D02*
X110166190Y-46889580D01*
X110166190Y-46889580D02*
X110213809Y-46794342D01*
X110213809Y-46794342D02*
X110213809Y-45984819D01*
X111166190Y-46984819D02*
X110690000Y-46984819D01*
X110690000Y-46984819D02*
X110690000Y-45984819D01*
X111499524Y-46984819D02*
X111499524Y-45984819D01*
X111499524Y-45984819D02*
X112070952Y-46984819D01*
X112070952Y-46984819D02*
X112070952Y-45984819D01*
X112499524Y-46080057D02*
X112547143Y-46032438D01*
X112547143Y-46032438D02*
X112642381Y-45984819D01*
X112642381Y-45984819D02*
X112880476Y-45984819D01*
X112880476Y-45984819D02*
X112975714Y-46032438D01*
X112975714Y-46032438D02*
X113023333Y-46080057D01*
X113023333Y-46080057D02*
X113070952Y-46175295D01*
X113070952Y-46175295D02*
X113070952Y-46270533D01*
X113070952Y-46270533D02*
X113023333Y-46413390D01*
X113023333Y-46413390D02*
X112451905Y-46984819D01*
X112451905Y-46984819D02*
X113070952Y-46984819D01*
X113690000Y-45984819D02*
X113785238Y-45984819D01*
X113785238Y-45984819D02*
X113880476Y-46032438D01*
X113880476Y-46032438D02*
X113928095Y-46080057D01*
X113928095Y-46080057D02*
X113975714Y-46175295D01*
X113975714Y-46175295D02*
X114023333Y-46365771D01*
X114023333Y-46365771D02*
X114023333Y-46603866D01*
X114023333Y-46603866D02*
X113975714Y-46794342D01*
X113975714Y-46794342D02*
X113928095Y-46889580D01*
X113928095Y-46889580D02*
X113880476Y-46937200D01*
X113880476Y-46937200D02*
X113785238Y-46984819D01*
X113785238Y-46984819D02*
X113690000Y-46984819D01*
X113690000Y-46984819D02*
X113594762Y-46937200D01*
X113594762Y-46937200D02*
X113547143Y-46889580D01*
X113547143Y-46889580D02*
X113499524Y-46794342D01*
X113499524Y-46794342D02*
X113451905Y-46603866D01*
X113451905Y-46603866D02*
X113451905Y-46365771D01*
X113451905Y-46365771D02*
X113499524Y-46175295D01*
X113499524Y-46175295D02*
X113547143Y-46080057D01*
X113547143Y-46080057D02*
X113594762Y-46032438D01*
X113594762Y-46032438D02*
X113690000Y-45984819D01*
X114642381Y-45984819D02*
X114737619Y-45984819D01*
X114737619Y-45984819D02*
X114832857Y-46032438D01*
X114832857Y-46032438D02*
X114880476Y-46080057D01*
X114880476Y-46080057D02*
X114928095Y-46175295D01*
X114928095Y-46175295D02*
X114975714Y-46365771D01*
X114975714Y-46365771D02*
X114975714Y-46603866D01*
X114975714Y-46603866D02*
X114928095Y-46794342D01*
X114928095Y-46794342D02*
X114880476Y-46889580D01*
X114880476Y-46889580D02*
X114832857Y-46937200D01*
X114832857Y-46937200D02*
X114737619Y-46984819D01*
X114737619Y-46984819D02*
X114642381Y-46984819D01*
X114642381Y-46984819D02*
X114547143Y-46937200D01*
X114547143Y-46937200D02*
X114499524Y-46889580D01*
X114499524Y-46889580D02*
X114451905Y-46794342D01*
X114451905Y-46794342D02*
X114404286Y-46603866D01*
X114404286Y-46603866D02*
X114404286Y-46365771D01*
X114404286Y-46365771D02*
X114451905Y-46175295D01*
X114451905Y-46175295D02*
X114499524Y-46080057D01*
X114499524Y-46080057D02*
X114547143Y-46032438D01*
X114547143Y-46032438D02*
X114642381Y-45984819D01*
X115309048Y-45984819D02*
X115928095Y-45984819D01*
X115928095Y-45984819D02*
X115594762Y-46365771D01*
X115594762Y-46365771D02*
X115737619Y-46365771D01*
X115737619Y-46365771D02*
X115832857Y-46413390D01*
X115832857Y-46413390D02*
X115880476Y-46461009D01*
X115880476Y-46461009D02*
X115928095Y-46556247D01*
X115928095Y-46556247D02*
X115928095Y-46794342D01*
X115928095Y-46794342D02*
X115880476Y-46889580D01*
X115880476Y-46889580D02*
X115832857Y-46937200D01*
X115832857Y-46937200D02*
X115737619Y-46984819D01*
X115737619Y-46984819D02*
X115451905Y-46984819D01*
X115451905Y-46984819D02*
X115356667Y-46937200D01*
X115356667Y-46937200D02*
X115309048Y-46889580D01*
X116309048Y-46699104D02*
X116785238Y-46699104D01*
X116213810Y-46984819D02*
X116547143Y-45984819D01*
X116547143Y-45984819D02*
X116880476Y-46984819D01*
X117213810Y-46984819D02*
X117213810Y-45984819D01*
X117213810Y-45984819D02*
X117594762Y-45984819D01*
X117594762Y-45984819D02*
X117690000Y-46032438D01*
X117690000Y-46032438D02*
X117737619Y-46080057D01*
X117737619Y-46080057D02*
X117785238Y-46175295D01*
X117785238Y-46175295D02*
X117785238Y-46318152D01*
X117785238Y-46318152D02*
X117737619Y-46413390D01*
X117737619Y-46413390D02*
X117690000Y-46461009D01*
X117690000Y-46461009D02*
X117594762Y-46508628D01*
X117594762Y-46508628D02*
X117213810Y-46508628D01*
X118737619Y-46032438D02*
X118642381Y-45984819D01*
X118642381Y-45984819D02*
X118499524Y-45984819D01*
X118499524Y-45984819D02*
X118356667Y-46032438D01*
X118356667Y-46032438D02*
X118261429Y-46127676D01*
X118261429Y-46127676D02*
X118213810Y-46222914D01*
X118213810Y-46222914D02*
X118166191Y-46413390D01*
X118166191Y-46413390D02*
X118166191Y-46556247D01*
X118166191Y-46556247D02*
X118213810Y-46746723D01*
X118213810Y-46746723D02*
X118261429Y-46841961D01*
X118261429Y-46841961D02*
X118356667Y-46937200D01*
X118356667Y-46937200D02*
X118499524Y-46984819D01*
X118499524Y-46984819D02*
X118594762Y-46984819D01*
X118594762Y-46984819D02*
X118737619Y-46937200D01*
X118737619Y-46937200D02*
X118785238Y-46889580D01*
X118785238Y-46889580D02*
X118785238Y-46556247D01*
X118785238Y-46556247D02*
X118594762Y-46556247D01*
X109083333Y-49319580D02*
X109035714Y-49367200D01*
X109035714Y-49367200D02*
X108892857Y-49414819D01*
X108892857Y-49414819D02*
X108797619Y-49414819D01*
X108797619Y-49414819D02*
X108654762Y-49367200D01*
X108654762Y-49367200D02*
X108559524Y-49271961D01*
X108559524Y-49271961D02*
X108511905Y-49176723D01*
X108511905Y-49176723D02*
X108464286Y-48986247D01*
X108464286Y-48986247D02*
X108464286Y-48843390D01*
X108464286Y-48843390D02*
X108511905Y-48652914D01*
X108511905Y-48652914D02*
X108559524Y-48557676D01*
X108559524Y-48557676D02*
X108654762Y-48462438D01*
X108654762Y-48462438D02*
X108797619Y-48414819D01*
X108797619Y-48414819D02*
X108892857Y-48414819D01*
X108892857Y-48414819D02*
X109035714Y-48462438D01*
X109035714Y-48462438D02*
X109083333Y-48510057D01*
X110035714Y-49414819D02*
X109464286Y-49414819D01*
X109750000Y-49414819D02*
X109750000Y-48414819D01*
X109750000Y-48414819D02*
X109654762Y-48557676D01*
X109654762Y-48557676D02*
X109559524Y-48652914D01*
X109559524Y-48652914D02*
X109464286Y-48700533D01*
X116952380Y-49414819D02*
X116380952Y-49414819D01*
X116666666Y-49414819D02*
X116666666Y-48414819D01*
X116666666Y-48414819D02*
X116571428Y-48557676D01*
X116571428Y-48557676D02*
X116476190Y-48652914D01*
X116476190Y-48652914D02*
X116380952Y-48700533D01*
X117571428Y-48414819D02*
X117666666Y-48414819D01*
X117666666Y-48414819D02*
X117761904Y-48462438D01*
X117761904Y-48462438D02*
X117809523Y-48510057D01*
X117809523Y-48510057D02*
X117857142Y-48605295D01*
X117857142Y-48605295D02*
X117904761Y-48795771D01*
X117904761Y-48795771D02*
X117904761Y-49033866D01*
X117904761Y-49033866D02*
X117857142Y-49224342D01*
X117857142Y-49224342D02*
X117809523Y-49319580D01*
X117809523Y-49319580D02*
X117761904Y-49367200D01*
X117761904Y-49367200D02*
X117666666Y-49414819D01*
X117666666Y-49414819D02*
X117571428Y-49414819D01*
X117571428Y-49414819D02*
X117476190Y-49367200D01*
X117476190Y-49367200D02*
X117428571Y-49319580D01*
X117428571Y-49319580D02*
X117380952Y-49224342D01*
X117380952Y-49224342D02*
X117333333Y-49033866D01*
X117333333Y-49033866D02*
X117333333Y-48795771D01*
X117333333Y-48795771D02*
X117380952Y-48605295D01*
X117380952Y-48605295D02*
X117428571Y-48510057D01*
X117428571Y-48510057D02*
X117476190Y-48462438D01*
X117476190Y-48462438D02*
X117571428Y-48414819D01*
X118523809Y-48414819D02*
X118619047Y-48414819D01*
X118619047Y-48414819D02*
X118714285Y-48462438D01*
X118714285Y-48462438D02*
X118761904Y-48510057D01*
X118761904Y-48510057D02*
X118809523Y-48605295D01*
X118809523Y-48605295D02*
X118857142Y-48795771D01*
X118857142Y-48795771D02*
X118857142Y-49033866D01*
X118857142Y-49033866D02*
X118809523Y-49224342D01*
X118809523Y-49224342D02*
X118761904Y-49319580D01*
X118761904Y-49319580D02*
X118714285Y-49367200D01*
X118714285Y-49367200D02*
X118619047Y-49414819D01*
X118619047Y-49414819D02*
X118523809Y-49414819D01*
X118523809Y-49414819D02*
X118428571Y-49367200D01*
X118428571Y-49367200D02*
X118380952Y-49319580D01*
X118380952Y-49319580D02*
X118333333Y-49224342D01*
X118333333Y-49224342D02*
X118285714Y-49033866D01*
X118285714Y-49033866D02*
X118285714Y-48795771D01*
X118285714Y-48795771D02*
X118333333Y-48605295D01*
X118333333Y-48605295D02*
X118380952Y-48510057D01*
X118380952Y-48510057D02*
X118428571Y-48462438D01*
X118428571Y-48462438D02*
X118523809Y-48414819D01*
X119285714Y-48748152D02*
X119285714Y-49414819D01*
X119285714Y-48843390D02*
X119333333Y-48795771D01*
X119333333Y-48795771D02*
X119428571Y-48748152D01*
X119428571Y-48748152D02*
X119571428Y-48748152D01*
X119571428Y-48748152D02*
X119666666Y-48795771D01*
X119666666Y-48795771D02*
X119714285Y-48891009D01*
X119714285Y-48891009D02*
X119714285Y-49414819D01*
X120523809Y-48891009D02*
X120190476Y-48891009D01*
X120190476Y-49414819D02*
X120190476Y-48414819D01*
X120190476Y-48414819D02*
X120666666Y-48414819D01*
X109148333Y-75019580D02*
X109100714Y-75067200D01*
X109100714Y-75067200D02*
X108957857Y-75114819D01*
X108957857Y-75114819D02*
X108862619Y-75114819D01*
X108862619Y-75114819D02*
X108719762Y-75067200D01*
X108719762Y-75067200D02*
X108624524Y-74971961D01*
X108624524Y-74971961D02*
X108576905Y-74876723D01*
X108576905Y-74876723D02*
X108529286Y-74686247D01*
X108529286Y-74686247D02*
X108529286Y-74543390D01*
X108529286Y-74543390D02*
X108576905Y-74352914D01*
X108576905Y-74352914D02*
X108624524Y-74257676D01*
X108624524Y-74257676D02*
X108719762Y-74162438D01*
X108719762Y-74162438D02*
X108862619Y-74114819D01*
X108862619Y-74114819D02*
X108957857Y-74114819D01*
X108957857Y-74114819D02*
X109100714Y-74162438D01*
X109100714Y-74162438D02*
X109148333Y-74210057D01*
X109529286Y-74210057D02*
X109576905Y-74162438D01*
X109576905Y-74162438D02*
X109672143Y-74114819D01*
X109672143Y-74114819D02*
X109910238Y-74114819D01*
X109910238Y-74114819D02*
X110005476Y-74162438D01*
X110005476Y-74162438D02*
X110053095Y-74210057D01*
X110053095Y-74210057D02*
X110100714Y-74305295D01*
X110100714Y-74305295D02*
X110100714Y-74400533D01*
X110100714Y-74400533D02*
X110053095Y-74543390D01*
X110053095Y-74543390D02*
X109481667Y-75114819D01*
X109481667Y-75114819D02*
X110100714Y-75114819D01*
X117017380Y-75114819D02*
X116445952Y-75114819D01*
X116731666Y-75114819D02*
X116731666Y-74114819D01*
X116731666Y-74114819D02*
X116636428Y-74257676D01*
X116636428Y-74257676D02*
X116541190Y-74352914D01*
X116541190Y-74352914D02*
X116445952Y-74400533D01*
X117636428Y-74114819D02*
X117731666Y-74114819D01*
X117731666Y-74114819D02*
X117826904Y-74162438D01*
X117826904Y-74162438D02*
X117874523Y-74210057D01*
X117874523Y-74210057D02*
X117922142Y-74305295D01*
X117922142Y-74305295D02*
X117969761Y-74495771D01*
X117969761Y-74495771D02*
X117969761Y-74733866D01*
X117969761Y-74733866D02*
X117922142Y-74924342D01*
X117922142Y-74924342D02*
X117874523Y-75019580D01*
X117874523Y-75019580D02*
X117826904Y-75067200D01*
X117826904Y-75067200D02*
X117731666Y-75114819D01*
X117731666Y-75114819D02*
X117636428Y-75114819D01*
X117636428Y-75114819D02*
X117541190Y-75067200D01*
X117541190Y-75067200D02*
X117493571Y-75019580D01*
X117493571Y-75019580D02*
X117445952Y-74924342D01*
X117445952Y-74924342D02*
X117398333Y-74733866D01*
X117398333Y-74733866D02*
X117398333Y-74495771D01*
X117398333Y-74495771D02*
X117445952Y-74305295D01*
X117445952Y-74305295D02*
X117493571Y-74210057D01*
X117493571Y-74210057D02*
X117541190Y-74162438D01*
X117541190Y-74162438D02*
X117636428Y-74114819D01*
X118588809Y-74114819D02*
X118684047Y-74114819D01*
X118684047Y-74114819D02*
X118779285Y-74162438D01*
X118779285Y-74162438D02*
X118826904Y-74210057D01*
X118826904Y-74210057D02*
X118874523Y-74305295D01*
X118874523Y-74305295D02*
X118922142Y-74495771D01*
X118922142Y-74495771D02*
X118922142Y-74733866D01*
X118922142Y-74733866D02*
X118874523Y-74924342D01*
X118874523Y-74924342D02*
X118826904Y-75019580D01*
X118826904Y-75019580D02*
X118779285Y-75067200D01*
X118779285Y-75067200D02*
X118684047Y-75114819D01*
X118684047Y-75114819D02*
X118588809Y-75114819D01*
X118588809Y-75114819D02*
X118493571Y-75067200D01*
X118493571Y-75067200D02*
X118445952Y-75019580D01*
X118445952Y-75019580D02*
X118398333Y-74924342D01*
X118398333Y-74924342D02*
X118350714Y-74733866D01*
X118350714Y-74733866D02*
X118350714Y-74495771D01*
X118350714Y-74495771D02*
X118398333Y-74305295D01*
X118398333Y-74305295D02*
X118445952Y-74210057D01*
X118445952Y-74210057D02*
X118493571Y-74162438D01*
X118493571Y-74162438D02*
X118588809Y-74114819D01*
X119350714Y-74448152D02*
X119350714Y-75114819D01*
X119350714Y-74543390D02*
X119398333Y-74495771D01*
X119398333Y-74495771D02*
X119493571Y-74448152D01*
X119493571Y-74448152D02*
X119636428Y-74448152D01*
X119636428Y-74448152D02*
X119731666Y-74495771D01*
X119731666Y-74495771D02*
X119779285Y-74591009D01*
X119779285Y-74591009D02*
X119779285Y-75114819D01*
X120588809Y-74591009D02*
X120255476Y-74591009D01*
X120255476Y-75114819D02*
X120255476Y-74114819D01*
X120255476Y-74114819D02*
X120731666Y-74114819D01*
X111454819Y-83333333D02*
X112169104Y-83333333D01*
X112169104Y-83333333D02*
X112311961Y-83380952D01*
X112311961Y-83380952D02*
X112407200Y-83476190D01*
X112407200Y-83476190D02*
X112454819Y-83619047D01*
X112454819Y-83619047D02*
X112454819Y-83714285D01*
X111788152Y-82428571D02*
X112454819Y-82428571D01*
X111407200Y-82666666D02*
X112121485Y-82904761D01*
X112121485Y-82904761D02*
X112121485Y-82285714D01*
X112454819Y-80642857D02*
X112454819Y-81119047D01*
X112454819Y-81119047D02*
X111454819Y-81119047D01*
X111931009Y-80309523D02*
X111931009Y-79976190D01*
X112454819Y-79833333D02*
X112454819Y-80309523D01*
X112454819Y-80309523D02*
X111454819Y-80309523D01*
X111454819Y-80309523D02*
X111454819Y-79833333D01*
X112454819Y-79404761D02*
X111454819Y-79404761D01*
X111454819Y-79404761D02*
X111454819Y-79166666D01*
X111454819Y-79166666D02*
X111502438Y-79023809D01*
X111502438Y-79023809D02*
X111597676Y-78928571D01*
X111597676Y-78928571D02*
X111692914Y-78880952D01*
X111692914Y-78880952D02*
X111883390Y-78833333D01*
X111883390Y-78833333D02*
X112026247Y-78833333D01*
X112026247Y-78833333D02*
X112216723Y-78880952D01*
X112216723Y-78880952D02*
X112311961Y-78928571D01*
X112311961Y-78928571D02*
X112407200Y-79023809D01*
X112407200Y-79023809D02*
X112454819Y-79166666D01*
X112454819Y-79166666D02*
X112454819Y-79404761D01*
X88204819Y-81833333D02*
X88919104Y-81833333D01*
X88919104Y-81833333D02*
X89061961Y-81880952D01*
X89061961Y-81880952D02*
X89157200Y-81976190D01*
X89157200Y-81976190D02*
X89204819Y-82119047D01*
X89204819Y-82119047D02*
X89204819Y-82214285D01*
X89204819Y-81357142D02*
X88204819Y-81357142D01*
X88204819Y-81357142D02*
X88204819Y-80976190D01*
X88204819Y-80976190D02*
X88252438Y-80880952D01*
X88252438Y-80880952D02*
X88300057Y-80833333D01*
X88300057Y-80833333D02*
X88395295Y-80785714D01*
X88395295Y-80785714D02*
X88538152Y-80785714D01*
X88538152Y-80785714D02*
X88633390Y-80833333D01*
X88633390Y-80833333D02*
X88681009Y-80880952D01*
X88681009Y-80880952D02*
X88728628Y-80976190D01*
X88728628Y-80976190D02*
X88728628Y-81357142D01*
X89204819Y-79833333D02*
X89204819Y-80404761D01*
X89204819Y-80119047D02*
X88204819Y-80119047D01*
X88204819Y-80119047D02*
X88347676Y-80214285D01*
X88347676Y-80214285D02*
X88442914Y-80309523D01*
X88442914Y-80309523D02*
X88490533Y-80404761D01*
X127504819Y-42883333D02*
X128219104Y-42883333D01*
X128219104Y-42883333D02*
X128361961Y-42930952D01*
X128361961Y-42930952D02*
X128457200Y-43026190D01*
X128457200Y-43026190D02*
X128504819Y-43169047D01*
X128504819Y-43169047D02*
X128504819Y-43264285D01*
X128504819Y-41883333D02*
X128504819Y-42454761D01*
X128504819Y-42169047D02*
X127504819Y-42169047D01*
X127504819Y-42169047D02*
X127647676Y-42264285D01*
X127647676Y-42264285D02*
X127742914Y-42359523D01*
X127742914Y-42359523D02*
X127790533Y-42454761D01*
X127454819Y-37835714D02*
X128454819Y-37169048D01*
X127454819Y-37169048D02*
X128454819Y-37835714D01*
X128454819Y-36026190D02*
X127454819Y-36026190D01*
X127454819Y-36026190D02*
X128169104Y-35692857D01*
X128169104Y-35692857D02*
X127454819Y-35359524D01*
X127454819Y-35359524D02*
X128454819Y-35359524D01*
X128454819Y-34740476D02*
X128407200Y-34835714D01*
X128407200Y-34835714D02*
X128359580Y-34883333D01*
X128359580Y-34883333D02*
X128264342Y-34930952D01*
X128264342Y-34930952D02*
X127978628Y-34930952D01*
X127978628Y-34930952D02*
X127883390Y-34883333D01*
X127883390Y-34883333D02*
X127835771Y-34835714D01*
X127835771Y-34835714D02*
X127788152Y-34740476D01*
X127788152Y-34740476D02*
X127788152Y-34597619D01*
X127788152Y-34597619D02*
X127835771Y-34502381D01*
X127835771Y-34502381D02*
X127883390Y-34454762D01*
X127883390Y-34454762D02*
X127978628Y-34407143D01*
X127978628Y-34407143D02*
X128264342Y-34407143D01*
X128264342Y-34407143D02*
X128359580Y-34454762D01*
X128359580Y-34454762D02*
X128407200Y-34502381D01*
X128407200Y-34502381D02*
X128454819Y-34597619D01*
X128454819Y-34597619D02*
X128454819Y-34740476D01*
X127788152Y-34121428D02*
X127788152Y-33740476D01*
X127454819Y-33978571D02*
X128311961Y-33978571D01*
X128311961Y-33978571D02*
X128407200Y-33930952D01*
X128407200Y-33930952D02*
X128454819Y-33835714D01*
X128454819Y-33835714D02*
X128454819Y-33740476D01*
X128454819Y-33264285D02*
X128407200Y-33359523D01*
X128407200Y-33359523D02*
X128359580Y-33407142D01*
X128359580Y-33407142D02*
X128264342Y-33454761D01*
X128264342Y-33454761D02*
X127978628Y-33454761D01*
X127978628Y-33454761D02*
X127883390Y-33407142D01*
X127883390Y-33407142D02*
X127835771Y-33359523D01*
X127835771Y-33359523D02*
X127788152Y-33264285D01*
X127788152Y-33264285D02*
X127788152Y-33121428D01*
X127788152Y-33121428D02*
X127835771Y-33026190D01*
X127835771Y-33026190D02*
X127883390Y-32978571D01*
X127883390Y-32978571D02*
X127978628Y-32930952D01*
X127978628Y-32930952D02*
X128264342Y-32930952D01*
X128264342Y-32930952D02*
X128359580Y-32978571D01*
X128359580Y-32978571D02*
X128407200Y-33026190D01*
X128407200Y-33026190D02*
X128454819Y-33121428D01*
X128454819Y-33121428D02*
X128454819Y-33264285D01*
X128454819Y-32502380D02*
X127788152Y-32502380D01*
X127978628Y-32502380D02*
X127883390Y-32454761D01*
X127883390Y-32454761D02*
X127835771Y-32407142D01*
X127835771Y-32407142D02*
X127788152Y-32311904D01*
X127788152Y-32311904D02*
X127788152Y-32216666D01*
X127454819Y-76383333D02*
X128169104Y-76383333D01*
X128169104Y-76383333D02*
X128311961Y-76430952D01*
X128311961Y-76430952D02*
X128407200Y-76526190D01*
X128407200Y-76526190D02*
X128454819Y-76669047D01*
X128454819Y-76669047D02*
X128454819Y-76764285D01*
X127454819Y-76002380D02*
X127454819Y-75383333D01*
X127454819Y-75383333D02*
X127835771Y-75716666D01*
X127835771Y-75716666D02*
X127835771Y-75573809D01*
X127835771Y-75573809D02*
X127883390Y-75478571D01*
X127883390Y-75478571D02*
X127931009Y-75430952D01*
X127931009Y-75430952D02*
X128026247Y-75383333D01*
X128026247Y-75383333D02*
X128264342Y-75383333D01*
X128264342Y-75383333D02*
X128359580Y-75430952D01*
X128359580Y-75430952D02*
X128407200Y-75478571D01*
X128407200Y-75478571D02*
X128454819Y-75573809D01*
X128454819Y-75573809D02*
X128454819Y-75859523D01*
X128454819Y-75859523D02*
X128407200Y-75954761D01*
X128407200Y-75954761D02*
X128359580Y-76002380D01*
X127454819Y-70835714D02*
X127454819Y-70169048D01*
X127454819Y-70169048D02*
X128454819Y-70835714D01*
X128454819Y-70835714D02*
X128454819Y-70169048D01*
X128454819Y-69026190D02*
X127454819Y-69026190D01*
X127454819Y-69026190D02*
X128169104Y-68692857D01*
X128169104Y-68692857D02*
X127454819Y-68359524D01*
X127454819Y-68359524D02*
X128454819Y-68359524D01*
X128454819Y-67740476D02*
X128407200Y-67835714D01*
X128407200Y-67835714D02*
X128359580Y-67883333D01*
X128359580Y-67883333D02*
X128264342Y-67930952D01*
X128264342Y-67930952D02*
X127978628Y-67930952D01*
X127978628Y-67930952D02*
X127883390Y-67883333D01*
X127883390Y-67883333D02*
X127835771Y-67835714D01*
X127835771Y-67835714D02*
X127788152Y-67740476D01*
X127788152Y-67740476D02*
X127788152Y-67597619D01*
X127788152Y-67597619D02*
X127835771Y-67502381D01*
X127835771Y-67502381D02*
X127883390Y-67454762D01*
X127883390Y-67454762D02*
X127978628Y-67407143D01*
X127978628Y-67407143D02*
X128264342Y-67407143D01*
X128264342Y-67407143D02*
X128359580Y-67454762D01*
X128359580Y-67454762D02*
X128407200Y-67502381D01*
X128407200Y-67502381D02*
X128454819Y-67597619D01*
X128454819Y-67597619D02*
X128454819Y-67740476D01*
X127788152Y-67121428D02*
X127788152Y-66740476D01*
X127454819Y-66978571D02*
X128311961Y-66978571D01*
X128311961Y-66978571D02*
X128407200Y-66930952D01*
X128407200Y-66930952D02*
X128454819Y-66835714D01*
X128454819Y-66835714D02*
X128454819Y-66740476D01*
X128454819Y-66264285D02*
X128407200Y-66359523D01*
X128407200Y-66359523D02*
X128359580Y-66407142D01*
X128359580Y-66407142D02*
X128264342Y-66454761D01*
X128264342Y-66454761D02*
X127978628Y-66454761D01*
X127978628Y-66454761D02*
X127883390Y-66407142D01*
X127883390Y-66407142D02*
X127835771Y-66359523D01*
X127835771Y-66359523D02*
X127788152Y-66264285D01*
X127788152Y-66264285D02*
X127788152Y-66121428D01*
X127788152Y-66121428D02*
X127835771Y-66026190D01*
X127835771Y-66026190D02*
X127883390Y-65978571D01*
X127883390Y-65978571D02*
X127978628Y-65930952D01*
X127978628Y-65930952D02*
X128264342Y-65930952D01*
X128264342Y-65930952D02*
X128359580Y-65978571D01*
X128359580Y-65978571D02*
X128407200Y-66026190D01*
X128407200Y-66026190D02*
X128454819Y-66121428D01*
X128454819Y-66121428D02*
X128454819Y-66264285D01*
X128454819Y-65502380D02*
X127788152Y-65502380D01*
X127978628Y-65502380D02*
X127883390Y-65454761D01*
X127883390Y-65454761D02*
X127835771Y-65407142D01*
X127835771Y-65407142D02*
X127788152Y-65311904D01*
X127788152Y-65311904D02*
X127788152Y-65216666D01*
X100954819Y-83333333D02*
X101669104Y-83333333D01*
X101669104Y-83333333D02*
X101811961Y-83380952D01*
X101811961Y-83380952D02*
X101907200Y-83476190D01*
X101907200Y-83476190D02*
X101954819Y-83619047D01*
X101954819Y-83619047D02*
X101954819Y-83714285D01*
X100954819Y-82380952D02*
X100954819Y-82857142D01*
X100954819Y-82857142D02*
X101431009Y-82904761D01*
X101431009Y-82904761D02*
X101383390Y-82857142D01*
X101383390Y-82857142D02*
X101335771Y-82761904D01*
X101335771Y-82761904D02*
X101335771Y-82523809D01*
X101335771Y-82523809D02*
X101383390Y-82428571D01*
X101383390Y-82428571D02*
X101431009Y-82380952D01*
X101431009Y-82380952D02*
X101526247Y-82333333D01*
X101526247Y-82333333D02*
X101764342Y-82333333D01*
X101764342Y-82333333D02*
X101859580Y-82380952D01*
X101859580Y-82380952D02*
X101907200Y-82428571D01*
X101907200Y-82428571D02*
X101954819Y-82523809D01*
X101954819Y-82523809D02*
X101954819Y-82761904D01*
X101954819Y-82761904D02*
X101907200Y-82857142D01*
X101907200Y-82857142D02*
X101859580Y-82904761D01*
X100954819Y-80690476D02*
X100954819Y-81166666D01*
X100954819Y-81166666D02*
X101431009Y-81214285D01*
X101431009Y-81214285D02*
X101383390Y-81166666D01*
X101383390Y-81166666D02*
X101335771Y-81071428D01*
X101335771Y-81071428D02*
X101335771Y-80833333D01*
X101335771Y-80833333D02*
X101383390Y-80738095D01*
X101383390Y-80738095D02*
X101431009Y-80690476D01*
X101431009Y-80690476D02*
X101526247Y-80642857D01*
X101526247Y-80642857D02*
X101764342Y-80642857D01*
X101764342Y-80642857D02*
X101859580Y-80690476D01*
X101859580Y-80690476D02*
X101907200Y-80738095D01*
X101907200Y-80738095D02*
X101954819Y-80833333D01*
X101954819Y-80833333D02*
X101954819Y-81071428D01*
X101954819Y-81071428D02*
X101907200Y-81166666D01*
X101907200Y-81166666D02*
X101859580Y-81214285D01*
X100954819Y-80357142D02*
X101954819Y-80023809D01*
X101954819Y-80023809D02*
X100954819Y-79690476D01*
X95785714Y-69669104D02*
X96261904Y-69669104D01*
X95690476Y-69954819D02*
X96023809Y-68954819D01*
X96023809Y-68954819D02*
X96357142Y-69954819D01*
X97214285Y-69954819D02*
X96642857Y-69954819D01*
X96928571Y-69954819D02*
X96928571Y-68954819D01*
X96928571Y-68954819D02*
X96833333Y-69097676D01*
X96833333Y-69097676D02*
X96738095Y-69192914D01*
X96738095Y-69192914D02*
X96642857Y-69240533D01*
X92142857Y-31169104D02*
X92619047Y-31169104D01*
X92047619Y-31454819D02*
X92380952Y-30454819D01*
X92380952Y-30454819D02*
X92714285Y-31454819D01*
X93047619Y-31454819D02*
X93047619Y-30788152D01*
X93047619Y-30978628D02*
X93095238Y-30883390D01*
X93095238Y-30883390D02*
X93142857Y-30835771D01*
X93142857Y-30835771D02*
X93238095Y-30788152D01*
X93238095Y-30788152D02*
X93333333Y-30788152D01*
X94095238Y-31454819D02*
X94095238Y-30454819D01*
X94095238Y-31407200D02*
X94000000Y-31454819D01*
X94000000Y-31454819D02*
X93809524Y-31454819D01*
X93809524Y-31454819D02*
X93714286Y-31407200D01*
X93714286Y-31407200D02*
X93666667Y-31359580D01*
X93666667Y-31359580D02*
X93619048Y-31264342D01*
X93619048Y-31264342D02*
X93619048Y-30978628D01*
X93619048Y-30978628D02*
X93666667Y-30883390D01*
X93666667Y-30883390D02*
X93714286Y-30835771D01*
X93714286Y-30835771D02*
X93809524Y-30788152D01*
X93809524Y-30788152D02*
X94000000Y-30788152D01*
X94000000Y-30788152D02*
X94095238Y-30835771D01*
X95000000Y-30788152D02*
X95000000Y-31454819D01*
X94571429Y-30788152D02*
X94571429Y-31311961D01*
X94571429Y-31311961D02*
X94619048Y-31407200D01*
X94619048Y-31407200D02*
X94714286Y-31454819D01*
X94714286Y-31454819D02*
X94857143Y-31454819D01*
X94857143Y-31454819D02*
X94952381Y-31407200D01*
X94952381Y-31407200D02*
X95000000Y-31359580D01*
X95476191Y-31454819D02*
X95476191Y-30788152D01*
X95476191Y-30454819D02*
X95428572Y-30502438D01*
X95428572Y-30502438D02*
X95476191Y-30550057D01*
X95476191Y-30550057D02*
X95523810Y-30502438D01*
X95523810Y-30502438D02*
X95476191Y-30454819D01*
X95476191Y-30454819D02*
X95476191Y-30550057D01*
X95952381Y-30788152D02*
X95952381Y-31454819D01*
X95952381Y-30883390D02*
X96000000Y-30835771D01*
X96000000Y-30835771D02*
X96095238Y-30788152D01*
X96095238Y-30788152D02*
X96238095Y-30788152D01*
X96238095Y-30788152D02*
X96333333Y-30835771D01*
X96333333Y-30835771D02*
X96380952Y-30931009D01*
X96380952Y-30931009D02*
X96380952Y-31454819D01*
X97000000Y-31454819D02*
X96904762Y-31407200D01*
X96904762Y-31407200D02*
X96857143Y-31359580D01*
X96857143Y-31359580D02*
X96809524Y-31264342D01*
X96809524Y-31264342D02*
X96809524Y-30978628D01*
X96809524Y-30978628D02*
X96857143Y-30883390D01*
X96857143Y-30883390D02*
X96904762Y-30835771D01*
X96904762Y-30835771D02*
X97000000Y-30788152D01*
X97000000Y-30788152D02*
X97142857Y-30788152D01*
X97142857Y-30788152D02*
X97238095Y-30835771D01*
X97238095Y-30835771D02*
X97285714Y-30883390D01*
X97285714Y-30883390D02*
X97333333Y-30978628D01*
X97333333Y-30978628D02*
X97333333Y-31264342D01*
X97333333Y-31264342D02*
X97285714Y-31359580D01*
X97285714Y-31359580D02*
X97238095Y-31407200D01*
X97238095Y-31407200D02*
X97142857Y-31454819D01*
X97142857Y-31454819D02*
X97000000Y-31454819D01*
X97523810Y-31550057D02*
X98285714Y-31550057D01*
X98523810Y-31454819D02*
X98523810Y-30454819D01*
X98523810Y-30454819D02*
X99095238Y-31454819D01*
X99095238Y-31454819D02*
X99095238Y-30454819D01*
X100000000Y-31454819D02*
X100000000Y-30931009D01*
X100000000Y-30931009D02*
X99952381Y-30835771D01*
X99952381Y-30835771D02*
X99857143Y-30788152D01*
X99857143Y-30788152D02*
X99666667Y-30788152D01*
X99666667Y-30788152D02*
X99571429Y-30835771D01*
X100000000Y-31407200D02*
X99904762Y-31454819D01*
X99904762Y-31454819D02*
X99666667Y-31454819D01*
X99666667Y-31454819D02*
X99571429Y-31407200D01*
X99571429Y-31407200D02*
X99523810Y-31311961D01*
X99523810Y-31311961D02*
X99523810Y-31216723D01*
X99523810Y-31216723D02*
X99571429Y-31121485D01*
X99571429Y-31121485D02*
X99666667Y-31073866D01*
X99666667Y-31073866D02*
X99904762Y-31073866D01*
X99904762Y-31073866D02*
X100000000Y-31026247D01*
X100476191Y-30788152D02*
X100476191Y-31454819D01*
X100476191Y-30883390D02*
X100523810Y-30835771D01*
X100523810Y-30835771D02*
X100619048Y-30788152D01*
X100619048Y-30788152D02*
X100761905Y-30788152D01*
X100761905Y-30788152D02*
X100857143Y-30835771D01*
X100857143Y-30835771D02*
X100904762Y-30931009D01*
X100904762Y-30931009D02*
X100904762Y-31454819D01*
X101523810Y-31454819D02*
X101428572Y-31407200D01*
X101428572Y-31407200D02*
X101380953Y-31359580D01*
X101380953Y-31359580D02*
X101333334Y-31264342D01*
X101333334Y-31264342D02*
X101333334Y-30978628D01*
X101333334Y-30978628D02*
X101380953Y-30883390D01*
X101380953Y-30883390D02*
X101428572Y-30835771D01*
X101428572Y-30835771D02*
X101523810Y-30788152D01*
X101523810Y-30788152D02*
X101666667Y-30788152D01*
X101666667Y-30788152D02*
X101761905Y-30835771D01*
X101761905Y-30835771D02*
X101809524Y-30883390D01*
X101809524Y-30883390D02*
X101857143Y-30978628D01*
X101857143Y-30978628D02*
X101857143Y-31264342D01*
X101857143Y-31264342D02*
X101809524Y-31359580D01*
X101809524Y-31359580D02*
X101761905Y-31407200D01*
X101761905Y-31407200D02*
X101666667Y-31454819D01*
X101666667Y-31454819D02*
X101523810Y-31454819D01*
X98251904Y-39535180D02*
X98251904Y-38725657D01*
X98251904Y-38725657D02*
X98204285Y-38630419D01*
X98204285Y-38630419D02*
X98156666Y-38582800D01*
X98156666Y-38582800D02*
X98061428Y-38535180D01*
X98061428Y-38535180D02*
X97870952Y-38535180D01*
X97870952Y-38535180D02*
X97775714Y-38582800D01*
X97775714Y-38582800D02*
X97728095Y-38630419D01*
X97728095Y-38630419D02*
X97680476Y-38725657D01*
X97680476Y-38725657D02*
X97680476Y-39535180D01*
X97251904Y-38582800D02*
X97109047Y-38535180D01*
X97109047Y-38535180D02*
X96870952Y-38535180D01*
X96870952Y-38535180D02*
X96775714Y-38582800D01*
X96775714Y-38582800D02*
X96728095Y-38630419D01*
X96728095Y-38630419D02*
X96680476Y-38725657D01*
X96680476Y-38725657D02*
X96680476Y-38820895D01*
X96680476Y-38820895D02*
X96728095Y-38916133D01*
X96728095Y-38916133D02*
X96775714Y-38963752D01*
X96775714Y-38963752D02*
X96870952Y-39011371D01*
X96870952Y-39011371D02*
X97061428Y-39058990D01*
X97061428Y-39058990D02*
X97156666Y-39106609D01*
X97156666Y-39106609D02*
X97204285Y-39154228D01*
X97204285Y-39154228D02*
X97251904Y-39249466D01*
X97251904Y-39249466D02*
X97251904Y-39344704D01*
X97251904Y-39344704D02*
X97204285Y-39439942D01*
X97204285Y-39439942D02*
X97156666Y-39487561D01*
X97156666Y-39487561D02*
X97061428Y-39535180D01*
X97061428Y-39535180D02*
X96823333Y-39535180D01*
X96823333Y-39535180D02*
X96680476Y-39487561D01*
X95918571Y-39058990D02*
X95775714Y-39011371D01*
X95775714Y-39011371D02*
X95728095Y-38963752D01*
X95728095Y-38963752D02*
X95680476Y-38868514D01*
X95680476Y-38868514D02*
X95680476Y-38725657D01*
X95680476Y-38725657D02*
X95728095Y-38630419D01*
X95728095Y-38630419D02*
X95775714Y-38582800D01*
X95775714Y-38582800D02*
X95870952Y-38535180D01*
X95870952Y-38535180D02*
X96251904Y-38535180D01*
X96251904Y-38535180D02*
X96251904Y-39535180D01*
X96251904Y-39535180D02*
X95918571Y-39535180D01*
X95918571Y-39535180D02*
X95823333Y-39487561D01*
X95823333Y-39487561D02*
X95775714Y-39439942D01*
X95775714Y-39439942D02*
X95728095Y-39344704D01*
X95728095Y-39344704D02*
X95728095Y-39249466D01*
X95728095Y-39249466D02*
X95775714Y-39154228D01*
X95775714Y-39154228D02*
X95823333Y-39106609D01*
X95823333Y-39106609D02*
X95918571Y-39058990D01*
X95918571Y-39058990D02*
X96251904Y-39058990D01*
D12*
%TO.C,U2*%
X108550000Y-51190000D02*
X108550000Y-71750000D01*
X108550000Y-71750000D02*
X118830000Y-71750000D01*
X111040000Y-51250000D02*
X111040000Y-71690000D01*
X111040000Y-71690000D02*
X116340000Y-71690000D01*
X112690000Y-51250000D02*
X111040000Y-51250000D01*
X116340000Y-51250000D02*
X114690000Y-51250000D01*
X116340000Y-71690000D02*
X116340000Y-51250000D01*
X118830000Y-51190000D02*
X108550000Y-51190000D01*
X118830000Y-71750000D02*
X118830000Y-51190000D01*
X114690000Y-51250000D02*
G75*
G02*
X112690000Y-51250000I-1000000J0D01*
G01*
%TO.C,J2*%
X120990000Y-46940000D02*
X120990000Y-62060000D01*
X120990000Y-62060000D02*
X126960000Y-62060000D01*
X121750000Y-47700000D02*
X121750000Y-54500000D01*
X121750000Y-61300000D02*
X121750000Y-54500000D01*
X124700000Y-46950000D02*
X124700000Y-47700000D01*
X124700000Y-47700000D02*
X121750000Y-47700000D01*
X124700000Y-61300000D02*
X121750000Y-61300000D01*
X124700000Y-62050000D02*
X124700000Y-61300000D01*
X126200000Y-46950000D02*
X126200000Y-48750000D01*
X126200000Y-48750000D02*
X126950000Y-48750000D01*
X126200000Y-50250000D02*
X126200000Y-58750000D01*
X126200000Y-58750000D02*
X126950000Y-58750000D01*
X126200000Y-60250000D02*
X126200000Y-62050000D01*
X126200000Y-62050000D02*
X126950000Y-62050000D01*
X126950000Y-46950000D02*
X126200000Y-46950000D01*
X126950000Y-48750000D02*
X126950000Y-46950000D01*
X126950000Y-50250000D02*
X126200000Y-50250000D01*
X126950000Y-58750000D02*
X126950000Y-50250000D01*
X126950000Y-60250000D02*
X126200000Y-60250000D01*
X126950000Y-62050000D02*
X126950000Y-60250000D01*
X126960000Y-46940000D02*
X120990000Y-46940000D01*
X126960000Y-62060000D02*
X126960000Y-46940000D01*
X127250000Y-46650000D02*
X126000000Y-46650000D01*
X127250000Y-47900000D02*
X127250000Y-46650000D01*
%TO.C,U1*%
X109050000Y-25030000D02*
X109050000Y-45590000D01*
X109050000Y-45590000D02*
X119330000Y-45590000D01*
X111540000Y-25090000D02*
X111540000Y-45530000D01*
X111540000Y-45530000D02*
X116840000Y-45530000D01*
X113190000Y-25090000D02*
X111540000Y-25090000D01*
X116840000Y-25090000D02*
X115190000Y-25090000D01*
X116840000Y-45530000D02*
X116840000Y-25090000D01*
X119330000Y-25030000D02*
X109050000Y-25030000D01*
X119330000Y-45590000D02*
X119330000Y-25030000D01*
X115190000Y-25090000D02*
G75*
G02*
X113190000Y-25090000I-1000000J0D01*
G01*
%TO.C,C1*%
X111630000Y-47840000D02*
X111630000Y-47905000D01*
X111630000Y-47840000D02*
X114870000Y-47840000D01*
X111630000Y-50015000D02*
X111630000Y-50080000D01*
X111630000Y-50080000D02*
X114870000Y-50080000D01*
X114870000Y-47840000D02*
X114870000Y-47905000D01*
X114870000Y-50015000D02*
X114870000Y-50080000D01*
%TO.C,C2*%
X111880000Y-73540000D02*
X111880000Y-73605000D01*
X111880000Y-73540000D02*
X115120000Y-73540000D01*
X111880000Y-75715000D02*
X111880000Y-75780000D01*
X111880000Y-75780000D02*
X115120000Y-75780000D01*
X115120000Y-73540000D02*
X115120000Y-73605000D01*
X115120000Y-75715000D02*
X115120000Y-75780000D01*
%TO.C,J4*%
X113440000Y-79090000D02*
X113440000Y-83810000D01*
X113440000Y-81200000D02*
X114050000Y-81200000D01*
X113440000Y-82500000D02*
X114050000Y-82500000D01*
X113440000Y-83810000D02*
X119560000Y-83810000D01*
X114050000Y-79700000D02*
X114050000Y-83200000D01*
X114050000Y-83200000D02*
X116000000Y-83200000D01*
X116000000Y-83200000D02*
X116000000Y-83810000D01*
X116400000Y-80200000D02*
X116400000Y-79700000D01*
X116500000Y-79700000D02*
X116500000Y-80200000D01*
X116600000Y-79700000D02*
X116600000Y-80200000D01*
X116600000Y-80200000D02*
X116400000Y-80200000D01*
X117000000Y-83200000D02*
X118950000Y-83200000D01*
X117000000Y-83810000D02*
X117000000Y-83200000D01*
X117800000Y-83810000D02*
X117800000Y-84010000D01*
X117800000Y-83910000D02*
X118100000Y-83910000D01*
X117800000Y-84010000D02*
X118100000Y-84010000D01*
X118100000Y-84010000D02*
X118100000Y-83810000D01*
X118610000Y-84110000D02*
X119860000Y-84110000D01*
X118950000Y-79700000D02*
X114050000Y-79700000D01*
X118950000Y-83200000D02*
X118950000Y-79700000D01*
X119560000Y-79090000D02*
X113440000Y-79090000D01*
X119560000Y-81200000D02*
X118950000Y-81200000D01*
X119560000Y-82500000D02*
X118950000Y-82500000D01*
X119560000Y-83810000D02*
X119560000Y-79090000D01*
X119860000Y-84110000D02*
X119860000Y-82860000D01*
%TO.C,JP1*%
X90145000Y-82330000D02*
X90145000Y-81000000D01*
X91475000Y-82330000D02*
X90145000Y-82330000D01*
X92745000Y-79670000D02*
X97885000Y-79670000D01*
X92745000Y-82330000D02*
X92745000Y-79670000D01*
X92745000Y-82330000D02*
X97885000Y-82330000D01*
X97885000Y-82330000D02*
X97885000Y-79670000D01*
%TO.C,J1*%
X120990000Y-29940000D02*
X120990000Y-45060000D01*
X120990000Y-45060000D02*
X126960000Y-45060000D01*
X121750000Y-30700000D02*
X121750000Y-37500000D01*
X121750000Y-44300000D02*
X121750000Y-37500000D01*
X124700000Y-29950000D02*
X124700000Y-30700000D01*
X124700000Y-30700000D02*
X121750000Y-30700000D01*
X124700000Y-44300000D02*
X121750000Y-44300000D01*
X124700000Y-45050000D02*
X124700000Y-44300000D01*
X126200000Y-29950000D02*
X126200000Y-31750000D01*
X126200000Y-31750000D02*
X126950000Y-31750000D01*
X126200000Y-33250000D02*
X126200000Y-41750000D01*
X126200000Y-41750000D02*
X126950000Y-41750000D01*
X126200000Y-43250000D02*
X126200000Y-45050000D01*
X126200000Y-45050000D02*
X126950000Y-45050000D01*
X126950000Y-29950000D02*
X126200000Y-29950000D01*
X126950000Y-31750000D02*
X126950000Y-29950000D01*
X126950000Y-33250000D02*
X126200000Y-33250000D01*
X126950000Y-41750000D02*
X126950000Y-33250000D01*
X126950000Y-43250000D02*
X126200000Y-43250000D01*
X126950000Y-45050000D02*
X126950000Y-43250000D01*
X126960000Y-29940000D02*
X120990000Y-29940000D01*
X126960000Y-45060000D02*
X126960000Y-29940000D01*
X127250000Y-29650000D02*
X126000000Y-29650000D01*
X127250000Y-30900000D02*
X127250000Y-29650000D01*
%TO.C,J3*%
X120990000Y-63440000D02*
X120990000Y-78560000D01*
X120990000Y-78560000D02*
X126960000Y-78560000D01*
X121750000Y-64200000D02*
X121750000Y-71000000D01*
X121750000Y-77800000D02*
X121750000Y-71000000D01*
X124700000Y-63450000D02*
X124700000Y-64200000D01*
X124700000Y-64200000D02*
X121750000Y-64200000D01*
X124700000Y-77800000D02*
X121750000Y-77800000D01*
X124700000Y-78550000D02*
X124700000Y-77800000D01*
X126200000Y-63450000D02*
X126200000Y-65250000D01*
X126200000Y-65250000D02*
X126950000Y-65250000D01*
X126200000Y-66750000D02*
X126200000Y-75250000D01*
X126200000Y-75250000D02*
X126950000Y-75250000D01*
X126200000Y-76750000D02*
X126200000Y-78550000D01*
X126200000Y-78550000D02*
X126950000Y-78550000D01*
X126950000Y-63450000D02*
X126200000Y-63450000D01*
X126950000Y-65250000D02*
X126950000Y-63450000D01*
X126950000Y-66750000D02*
X126200000Y-66750000D01*
X126950000Y-75250000D02*
X126950000Y-66750000D01*
X126950000Y-76750000D02*
X126200000Y-76750000D01*
X126950000Y-78550000D02*
X126950000Y-76750000D01*
X126960000Y-63440000D02*
X120990000Y-63440000D01*
X126960000Y-78560000D02*
X126960000Y-63440000D01*
X127250000Y-63150000D02*
X126000000Y-63150000D01*
X127250000Y-64400000D02*
X127250000Y-63150000D01*
%TO.C,J5*%
X102940000Y-79090000D02*
X102940000Y-83810000D01*
X102940000Y-81200000D02*
X103550000Y-81200000D01*
X102940000Y-82500000D02*
X103550000Y-82500000D01*
X102940000Y-83810000D02*
X109060000Y-83810000D01*
X103550000Y-79700000D02*
X103550000Y-83200000D01*
X103550000Y-83200000D02*
X105500000Y-83200000D01*
X105500000Y-83200000D02*
X105500000Y-83810000D01*
X105900000Y-80200000D02*
X105900000Y-79700000D01*
X106000000Y-79700000D02*
X106000000Y-80200000D01*
X106100000Y-79700000D02*
X106100000Y-80200000D01*
X106100000Y-80200000D02*
X105900000Y-80200000D01*
X106500000Y-83200000D02*
X108450000Y-83200000D01*
X106500000Y-83810000D02*
X106500000Y-83200000D01*
X107300000Y-83810000D02*
X107300000Y-84010000D01*
X107300000Y-83910000D02*
X107600000Y-83910000D01*
X107300000Y-84010000D02*
X107600000Y-84010000D01*
X107600000Y-84010000D02*
X107600000Y-83810000D01*
X108110000Y-84110000D02*
X109360000Y-84110000D01*
X108450000Y-79700000D02*
X103550000Y-79700000D01*
X108450000Y-83200000D02*
X108450000Y-79700000D01*
X109060000Y-79090000D02*
X102940000Y-79090000D01*
X109060000Y-81200000D02*
X108450000Y-81200000D01*
X109060000Y-82500000D02*
X108450000Y-82500000D01*
X109060000Y-83810000D02*
X109060000Y-79090000D01*
X109360000Y-84110000D02*
X109360000Y-82860000D01*
%TO.C,A1*%
X87970000Y-35050000D02*
X87970000Y-78490000D01*
X87970000Y-35050000D02*
X93050000Y-35050000D01*
X87970000Y-78490000D02*
X106010000Y-78490000D01*
X90640000Y-37720000D02*
X87970000Y-37720000D01*
X90640000Y-75820000D02*
X87970000Y-75820000D01*
X90640000Y-75820000D02*
X90640000Y-37720000D01*
X93050000Y-32510000D02*
X100930000Y-32510000D01*
X93050000Y-42930000D02*
X93050000Y-32510000D01*
X100930000Y-32510000D02*
X100930000Y-42930000D01*
X100930000Y-42930000D02*
X93050000Y-42930000D01*
X103340000Y-37720000D02*
X106010000Y-37720000D01*
X103340000Y-73280000D02*
X103340000Y-37720000D01*
X103340000Y-73280000D02*
X103340000Y-75820000D01*
X103340000Y-73280000D02*
X106010000Y-73280000D01*
X103340000Y-75820000D02*
X106010000Y-75820000D01*
X106010000Y-35050000D02*
X100930000Y-35050000D01*
X106010000Y-73280000D02*
X106010000Y-35050000D01*
X106010000Y-78490000D02*
X106010000Y-75820000D01*
%TD*%
M02*
