%TF.GenerationSoftware,KiCad,Pcbnew,8.0.3*%
%TF.CreationDate,2024-07-15T07:55:14+02:00*%
%TF.ProjectId,OFMBearBoard,4f464d42-6561-4724-926f-6172642e6b69,1.0.1 (Dicker)*%
%TF.SameCoordinates,Original*%
%TF.FileFunction,Drillmap*%
%TF.FilePolarity,Positive*%
%FSLAX45Y45*%
G04 Gerber Fmt 4.5, Leading zero omitted, Abs format (unit mm)*
G04 Created by KiCad (PCBNEW 8.0.3) date 2024-07-15 07:55:14*
%MOMM*%
%LPD*%
G01*
G04 APERTURE LIST*
%ADD10C,0.050000*%
%ADD11C,0.200000*%
%ADD12C,0.100000*%
G04 APERTURE END LIST*
D10*
X7925000Y-2145000D02*
X12925000Y-2145000D01*
X12925000Y-8695000D01*
X7925000Y-8695000D01*
X7925000Y-2145000D01*
D11*
D12*
X10462500Y-8162500D02*
X10537500Y-8237500D01*
X10537500Y-8162500D02*
X10462500Y-8237500D01*
X10662500Y-8162500D02*
X10737500Y-8237500D01*
X10737500Y-8162500D02*
X10662500Y-8237500D01*
X11512500Y-8162500D02*
X11587500Y-8237500D01*
X11587500Y-8162500D02*
X11512500Y-8237500D01*
X11712500Y-8162500D02*
X11787500Y-8237500D01*
X11787500Y-8162500D02*
X11712500Y-8237500D01*
X11078000Y-2642000D02*
G75*
G02*
X10998000Y-2642000I-40000J0D01*
G01*
X10998000Y-2642000D02*
G75*
G02*
X11078000Y-2642000I40000J0D01*
G01*
X11078000Y-2896000D02*
G75*
G02*
X10998000Y-2896000I-40000J0D01*
G01*
X10998000Y-2896000D02*
G75*
G02*
X11078000Y-2896000I40000J0D01*
G01*
X11078000Y-3150000D02*
G75*
G02*
X10998000Y-3150000I-40000J0D01*
G01*
X10998000Y-3150000D02*
G75*
G02*
X11078000Y-3150000I40000J0D01*
G01*
X11078000Y-3404000D02*
G75*
G02*
X10998000Y-3404000I-40000J0D01*
G01*
X10998000Y-3404000D02*
G75*
G02*
X11078000Y-3404000I40000J0D01*
G01*
X11078000Y-3658000D02*
G75*
G02*
X10998000Y-3658000I-40000J0D01*
G01*
X10998000Y-3658000D02*
G75*
G02*
X11078000Y-3658000I40000J0D01*
G01*
X11078000Y-3912000D02*
G75*
G02*
X10998000Y-3912000I-40000J0D01*
G01*
X10998000Y-3912000D02*
G75*
G02*
X11078000Y-3912000I40000J0D01*
G01*
X11078000Y-4166000D02*
G75*
G02*
X10998000Y-4166000I-40000J0D01*
G01*
X10998000Y-4166000D02*
G75*
G02*
X11078000Y-4166000I40000J0D01*
G01*
X11078000Y-4420000D02*
G75*
G02*
X10998000Y-4420000I-40000J0D01*
G01*
X10998000Y-4420000D02*
G75*
G02*
X11078000Y-4420000I40000J0D01*
G01*
X11090000Y-5350000D02*
G75*
G02*
X11010000Y-5350000I-40000J0D01*
G01*
X11010000Y-5350000D02*
G75*
G02*
X11090000Y-5350000I40000J0D01*
G01*
X11090000Y-5604000D02*
G75*
G02*
X11010000Y-5604000I-40000J0D01*
G01*
X11010000Y-5604000D02*
G75*
G02*
X11090000Y-5604000I40000J0D01*
G01*
X11090000Y-5858000D02*
G75*
G02*
X11010000Y-5858000I-40000J0D01*
G01*
X11010000Y-5858000D02*
G75*
G02*
X11090000Y-5858000I40000J0D01*
G01*
X11090000Y-6112000D02*
G75*
G02*
X11010000Y-6112000I-40000J0D01*
G01*
X11010000Y-6112000D02*
G75*
G02*
X11090000Y-6112000I40000J0D01*
G01*
X11090000Y-6366000D02*
G75*
G02*
X11010000Y-6366000I-40000J0D01*
G01*
X11010000Y-6366000D02*
G75*
G02*
X11090000Y-6366000I40000J0D01*
G01*
X11090000Y-6620000D02*
G75*
G02*
X11010000Y-6620000I-40000J0D01*
G01*
X11010000Y-6620000D02*
G75*
G02*
X11090000Y-6620000I40000J0D01*
G01*
X11090000Y-6874000D02*
G75*
G02*
X11010000Y-6874000I-40000J0D01*
G01*
X11010000Y-6874000D02*
G75*
G02*
X11090000Y-6874000I40000J0D01*
G01*
X11090000Y-7128000D02*
G75*
G02*
X11010000Y-7128000I-40000J0D01*
G01*
X11010000Y-7128000D02*
G75*
G02*
X11090000Y-7128000I40000J0D01*
G01*
X11240000Y-4900000D02*
G75*
G02*
X11160000Y-4900000I-40000J0D01*
G01*
X11160000Y-4900000D02*
G75*
G02*
X11240000Y-4900000I40000J0D01*
G01*
X11240000Y-7650000D02*
G75*
G02*
X11160000Y-7650000I-40000J0D01*
G01*
X11160000Y-7650000D02*
G75*
G02*
X11240000Y-7650000I40000J0D01*
G01*
X11740000Y-4900000D02*
G75*
G02*
X11660000Y-4900000I-40000J0D01*
G01*
X11660000Y-4900000D02*
G75*
G02*
X11740000Y-4900000I40000J0D01*
G01*
X11740000Y-7650000D02*
G75*
G02*
X11660000Y-7650000I-40000J0D01*
G01*
X11660000Y-7650000D02*
G75*
G02*
X11740000Y-7650000I40000J0D01*
G01*
X11840000Y-2642000D02*
G75*
G02*
X11760000Y-2642000I-40000J0D01*
G01*
X11760000Y-2642000D02*
G75*
G02*
X11840000Y-2642000I40000J0D01*
G01*
X11840000Y-2896000D02*
G75*
G02*
X11760000Y-2896000I-40000J0D01*
G01*
X11760000Y-2896000D02*
G75*
G02*
X11840000Y-2896000I40000J0D01*
G01*
X11840000Y-3150000D02*
G75*
G02*
X11760000Y-3150000I-40000J0D01*
G01*
X11760000Y-3150000D02*
G75*
G02*
X11840000Y-3150000I40000J0D01*
G01*
X11840000Y-3404000D02*
G75*
G02*
X11760000Y-3404000I-40000J0D01*
G01*
X11760000Y-3404000D02*
G75*
G02*
X11840000Y-3404000I40000J0D01*
G01*
X11840000Y-3658000D02*
G75*
G02*
X11760000Y-3658000I-40000J0D01*
G01*
X11760000Y-3658000D02*
G75*
G02*
X11840000Y-3658000I40000J0D01*
G01*
X11840000Y-3912000D02*
G75*
G02*
X11760000Y-3912000I-40000J0D01*
G01*
X11760000Y-3912000D02*
G75*
G02*
X11840000Y-3912000I40000J0D01*
G01*
X11840000Y-4166000D02*
G75*
G02*
X11760000Y-4166000I-40000J0D01*
G01*
X11760000Y-4166000D02*
G75*
G02*
X11840000Y-4166000I40000J0D01*
G01*
X11840000Y-4420000D02*
G75*
G02*
X11760000Y-4420000I-40000J0D01*
G01*
X11760000Y-4420000D02*
G75*
G02*
X11840000Y-4420000I40000J0D01*
G01*
X11852000Y-5350000D02*
G75*
G02*
X11772000Y-5350000I-40000J0D01*
G01*
X11772000Y-5350000D02*
G75*
G02*
X11852000Y-5350000I40000J0D01*
G01*
X11852000Y-5604000D02*
G75*
G02*
X11772000Y-5604000I-40000J0D01*
G01*
X11772000Y-5604000D02*
G75*
G02*
X11852000Y-5604000I40000J0D01*
G01*
X11852000Y-5858000D02*
G75*
G02*
X11772000Y-5858000I-40000J0D01*
G01*
X11772000Y-5858000D02*
G75*
G02*
X11852000Y-5858000I40000J0D01*
G01*
X11852000Y-6112000D02*
G75*
G02*
X11772000Y-6112000I-40000J0D01*
G01*
X11772000Y-6112000D02*
G75*
G02*
X11852000Y-6112000I40000J0D01*
G01*
X11852000Y-6366000D02*
G75*
G02*
X11772000Y-6366000I-40000J0D01*
G01*
X11772000Y-6366000D02*
G75*
G02*
X11852000Y-6366000I40000J0D01*
G01*
X11852000Y-6620000D02*
G75*
G02*
X11772000Y-6620000I-40000J0D01*
G01*
X11772000Y-6620000D02*
G75*
G02*
X11852000Y-6620000I40000J0D01*
G01*
X11852000Y-6874000D02*
G75*
G02*
X11772000Y-6874000I-40000J0D01*
G01*
X11772000Y-6874000D02*
G75*
G02*
X11852000Y-6874000I40000J0D01*
G01*
X11852000Y-7128000D02*
G75*
G02*
X11772000Y-7128000I-40000J0D01*
G01*
X11772000Y-7128000D02*
G75*
G02*
X11852000Y-7128000I40000J0D01*
G01*
X12450000Y-3202500D02*
X12450000Y-3297500D01*
X12402500Y-3250000D02*
X12497500Y-3250000D01*
X12450000Y-3452500D02*
X12450000Y-3547500D01*
X12402500Y-3500000D02*
X12497500Y-3500000D01*
X12450000Y-3702500D02*
X12450000Y-3797500D01*
X12402500Y-3750000D02*
X12497500Y-3750000D01*
X12450000Y-3952500D02*
X12450000Y-4047500D01*
X12402500Y-4000000D02*
X12497500Y-4000000D01*
X12450000Y-4202500D02*
X12450000Y-4297500D01*
X12402500Y-4250000D02*
X12497500Y-4250000D01*
X12450000Y-4902500D02*
X12450000Y-4997500D01*
X12402500Y-4950000D02*
X12497500Y-4950000D01*
X12450000Y-5152500D02*
X12450000Y-5247500D01*
X12402500Y-5200000D02*
X12497500Y-5200000D01*
X12450000Y-5402500D02*
X12450000Y-5497500D01*
X12402500Y-5450000D02*
X12497500Y-5450000D01*
X12450000Y-5652500D02*
X12450000Y-5747500D01*
X12402500Y-5700000D02*
X12497500Y-5700000D01*
X12450000Y-5902500D02*
X12450000Y-5997500D01*
X12402500Y-5950000D02*
X12497500Y-5950000D01*
X12450000Y-6552500D02*
X12450000Y-6647500D01*
X12402500Y-6600000D02*
X12497500Y-6600000D01*
X12450000Y-6802500D02*
X12450000Y-6897500D01*
X12402500Y-6850000D02*
X12497500Y-6850000D01*
X12450000Y-7052500D02*
X12450000Y-7147500D01*
X12402500Y-7100000D02*
X12497500Y-7100000D01*
X12450000Y-7302500D02*
X12450000Y-7397500D01*
X12402500Y-7350000D02*
X12497500Y-7350000D01*
X12450000Y-7552500D02*
X12450000Y-7647500D01*
X12402500Y-7600000D02*
X12497500Y-7600000D01*
X8972356Y-3934356D02*
X8972356Y-3863644D01*
X8901644Y-3863644D01*
X8901644Y-3934356D01*
X8972356Y-3934356D01*
X8972356Y-4188356D02*
X8972356Y-4117644D01*
X8901644Y-4117644D01*
X8901644Y-4188356D01*
X8972356Y-4188356D01*
X8972356Y-4442356D02*
X8972356Y-4371644D01*
X8901644Y-4371644D01*
X8901644Y-4442356D01*
X8972356Y-4442356D01*
X8972356Y-4696356D02*
X8972356Y-4625644D01*
X8901644Y-4625644D01*
X8901644Y-4696356D01*
X8972356Y-4696356D01*
X8972356Y-4950356D02*
X8972356Y-4879644D01*
X8901644Y-4879644D01*
X8901644Y-4950356D01*
X8972356Y-4950356D01*
X8972356Y-5204356D02*
X8972356Y-5133644D01*
X8901644Y-5133644D01*
X8901644Y-5204356D01*
X8972356Y-5204356D01*
X8972356Y-5458356D02*
X8972356Y-5387644D01*
X8901644Y-5387644D01*
X8901644Y-5458356D01*
X8972356Y-5458356D01*
X8972356Y-5712356D02*
X8972356Y-5641644D01*
X8901644Y-5641644D01*
X8901644Y-5712356D01*
X8972356Y-5712356D01*
X8972356Y-5966356D02*
X8972356Y-5895644D01*
X8901644Y-5895644D01*
X8901644Y-5966356D01*
X8972356Y-5966356D01*
X8972356Y-6220356D02*
X8972356Y-6149644D01*
X8901644Y-6149644D01*
X8901644Y-6220356D01*
X8972356Y-6220356D01*
X8972356Y-6474356D02*
X8972356Y-6403644D01*
X8901644Y-6403644D01*
X8901644Y-6474356D01*
X8972356Y-6474356D01*
X8972356Y-6728356D02*
X8972356Y-6657644D01*
X8901644Y-6657644D01*
X8901644Y-6728356D01*
X8972356Y-6728356D01*
X8972356Y-6982356D02*
X8972356Y-6911644D01*
X8901644Y-6911644D01*
X8901644Y-6982356D01*
X8972356Y-6982356D01*
X8972356Y-7236356D02*
X8972356Y-7165644D01*
X8901644Y-7165644D01*
X8901644Y-7236356D01*
X8972356Y-7236356D01*
X8972356Y-7490356D02*
X8972356Y-7419644D01*
X8901644Y-7419644D01*
X8901644Y-7490356D01*
X8972356Y-7490356D01*
X9182856Y-8135356D02*
X9182856Y-8064644D01*
X9112144Y-8064644D01*
X9112144Y-8135356D01*
X9182856Y-8135356D01*
X9436856Y-8135356D02*
X9436856Y-8064644D01*
X9366144Y-8064644D01*
X9366144Y-8135356D01*
X9436856Y-8135356D01*
X9690856Y-8135356D02*
X9690856Y-8064644D01*
X9620144Y-8064644D01*
X9620144Y-8135356D01*
X9690856Y-8135356D01*
X10496356Y-3934356D02*
X10496356Y-3863644D01*
X10425644Y-3863644D01*
X10425644Y-3934356D01*
X10496356Y-3934356D01*
X10496356Y-4188356D02*
X10496356Y-4117644D01*
X10425644Y-4117644D01*
X10425644Y-4188356D01*
X10496356Y-4188356D01*
X10496356Y-4442356D02*
X10496356Y-4371644D01*
X10425644Y-4371644D01*
X10425644Y-4442356D01*
X10496356Y-4442356D01*
X10496356Y-4696356D02*
X10496356Y-4625644D01*
X10425644Y-4625644D01*
X10425644Y-4696356D01*
X10496356Y-4696356D01*
X10496356Y-4950356D02*
X10496356Y-4879644D01*
X10425644Y-4879644D01*
X10425644Y-4950356D01*
X10496356Y-4950356D01*
X10496356Y-5204356D02*
X10496356Y-5133644D01*
X10425644Y-5133644D01*
X10425644Y-5204356D01*
X10496356Y-5204356D01*
X10496356Y-5458356D02*
X10496356Y-5387644D01*
X10425644Y-5387644D01*
X10425644Y-5458356D01*
X10496356Y-5458356D01*
X10496356Y-5712356D02*
X10496356Y-5641644D01*
X10425644Y-5641644D01*
X10425644Y-5712356D01*
X10496356Y-5712356D01*
X10496356Y-5966356D02*
X10496356Y-5895644D01*
X10425644Y-5895644D01*
X10425644Y-5966356D01*
X10496356Y-5966356D01*
X10496356Y-6220356D02*
X10496356Y-6149644D01*
X10425644Y-6149644D01*
X10425644Y-6220356D01*
X10496356Y-6220356D01*
X10496356Y-6474356D02*
X10496356Y-6403644D01*
X10425644Y-6403644D01*
X10425644Y-6474356D01*
X10496356Y-6474356D01*
X10496356Y-6728356D02*
X10496356Y-6657644D01*
X10425644Y-6657644D01*
X10425644Y-6728356D01*
X10496356Y-6728356D01*
X10496356Y-6982356D02*
X10496356Y-6911644D01*
X10425644Y-6911644D01*
X10425644Y-6982356D01*
X10496356Y-6982356D01*
X10496356Y-7236356D02*
X10496356Y-7165644D01*
X10425644Y-7165644D01*
X10425644Y-7236356D01*
X10496356Y-7236356D01*
X10496356Y-7490356D02*
X10496356Y-7419644D01*
X10425644Y-7419644D01*
X10425644Y-7490356D01*
X10496356Y-7490356D01*
D11*
X8183277Y-9008984D02*
X8183277Y-8808984D01*
X8183277Y-8808984D02*
X8230896Y-8808984D01*
X8230896Y-8808984D02*
X8259467Y-8818508D01*
X8259467Y-8818508D02*
X8278515Y-8837555D01*
X8278515Y-8837555D02*
X8288039Y-8856603D01*
X8288039Y-8856603D02*
X8297562Y-8894698D01*
X8297562Y-8894698D02*
X8297562Y-8923270D01*
X8297562Y-8923270D02*
X8288039Y-8961365D01*
X8288039Y-8961365D02*
X8278515Y-8980412D01*
X8278515Y-8980412D02*
X8259467Y-8999460D01*
X8259467Y-8999460D02*
X8230896Y-9008984D01*
X8230896Y-9008984D02*
X8183277Y-9008984D01*
X8383277Y-9008984D02*
X8383277Y-8875650D01*
X8383277Y-8913746D02*
X8392801Y-8894698D01*
X8392801Y-8894698D02*
X8402324Y-8885174D01*
X8402324Y-8885174D02*
X8421372Y-8875650D01*
X8421372Y-8875650D02*
X8440420Y-8875650D01*
X8507086Y-9008984D02*
X8507086Y-8875650D01*
X8507086Y-8808984D02*
X8497563Y-8818508D01*
X8497563Y-8818508D02*
X8507086Y-8828031D01*
X8507086Y-8828031D02*
X8516610Y-8818508D01*
X8516610Y-8818508D02*
X8507086Y-8808984D01*
X8507086Y-8808984D02*
X8507086Y-8828031D01*
X8630896Y-9008984D02*
X8611848Y-8999460D01*
X8611848Y-8999460D02*
X8602324Y-8980412D01*
X8602324Y-8980412D02*
X8602324Y-8808984D01*
X8735658Y-9008984D02*
X8716610Y-8999460D01*
X8716610Y-8999460D02*
X8707086Y-8980412D01*
X8707086Y-8980412D02*
X8707086Y-8808984D01*
X8964229Y-9008984D02*
X8964229Y-8808984D01*
X8964229Y-8808984D02*
X9030896Y-8951841D01*
X9030896Y-8951841D02*
X9097563Y-8808984D01*
X9097563Y-8808984D02*
X9097563Y-9008984D01*
X9278515Y-9008984D02*
X9278515Y-8904222D01*
X9278515Y-8904222D02*
X9268991Y-8885174D01*
X9268991Y-8885174D02*
X9249944Y-8875650D01*
X9249944Y-8875650D02*
X9211848Y-8875650D01*
X9211848Y-8875650D02*
X9192801Y-8885174D01*
X9278515Y-8999460D02*
X9259467Y-9008984D01*
X9259467Y-9008984D02*
X9211848Y-9008984D01*
X9211848Y-9008984D02*
X9192801Y-8999460D01*
X9192801Y-8999460D02*
X9183277Y-8980412D01*
X9183277Y-8980412D02*
X9183277Y-8961365D01*
X9183277Y-8961365D02*
X9192801Y-8942317D01*
X9192801Y-8942317D02*
X9211848Y-8932793D01*
X9211848Y-8932793D02*
X9259467Y-8932793D01*
X9259467Y-8932793D02*
X9278515Y-8923270D01*
X9373753Y-8875650D02*
X9373753Y-9075650D01*
X9373753Y-8885174D02*
X9392801Y-8875650D01*
X9392801Y-8875650D02*
X9430896Y-8875650D01*
X9430896Y-8875650D02*
X9449944Y-8885174D01*
X9449944Y-8885174D02*
X9459467Y-8894698D01*
X9459467Y-8894698D02*
X9468991Y-8913746D01*
X9468991Y-8913746D02*
X9468991Y-8970889D01*
X9468991Y-8970889D02*
X9459467Y-8989936D01*
X9459467Y-8989936D02*
X9449944Y-8999460D01*
X9449944Y-8999460D02*
X9430896Y-9008984D01*
X9430896Y-9008984D02*
X9392801Y-9008984D01*
X9392801Y-9008984D02*
X9373753Y-8999460D01*
X9554705Y-8989936D02*
X9564229Y-8999460D01*
X9564229Y-8999460D02*
X9554705Y-9008984D01*
X9554705Y-9008984D02*
X9545182Y-8999460D01*
X9545182Y-8999460D02*
X9554705Y-8989936D01*
X9554705Y-8989936D02*
X9554705Y-9008984D01*
X9554705Y-8885174D02*
X9564229Y-8894698D01*
X9564229Y-8894698D02*
X9554705Y-8904222D01*
X9554705Y-8904222D02*
X9545182Y-8894698D01*
X9545182Y-8894698D02*
X9554705Y-8885174D01*
X9554705Y-8885174D02*
X9554705Y-8904222D01*
D12*
X7847500Y-9300000D02*
X7922500Y-9375000D01*
X7922500Y-9300000D02*
X7847500Y-9375000D01*
D11*
X8221372Y-9228984D02*
X8240420Y-9228984D01*
X8240420Y-9228984D02*
X8259467Y-9238508D01*
X8259467Y-9238508D02*
X8268991Y-9248031D01*
X8268991Y-9248031D02*
X8278515Y-9267079D01*
X8278515Y-9267079D02*
X8288039Y-9305174D01*
X8288039Y-9305174D02*
X8288039Y-9352793D01*
X8288039Y-9352793D02*
X8278515Y-9390889D01*
X8278515Y-9390889D02*
X8268991Y-9409936D01*
X8268991Y-9409936D02*
X8259467Y-9419460D01*
X8259467Y-9419460D02*
X8240420Y-9428984D01*
X8240420Y-9428984D02*
X8221372Y-9428984D01*
X8221372Y-9428984D02*
X8202324Y-9419460D01*
X8202324Y-9419460D02*
X8192801Y-9409936D01*
X8192801Y-9409936D02*
X8183277Y-9390889D01*
X8183277Y-9390889D02*
X8173753Y-9352793D01*
X8173753Y-9352793D02*
X8173753Y-9305174D01*
X8173753Y-9305174D02*
X8183277Y-9267079D01*
X8183277Y-9267079D02*
X8192801Y-9248031D01*
X8192801Y-9248031D02*
X8202324Y-9238508D01*
X8202324Y-9238508D02*
X8221372Y-9228984D01*
X8373753Y-9409936D02*
X8383277Y-9419460D01*
X8383277Y-9419460D02*
X8373753Y-9428984D01*
X8373753Y-9428984D02*
X8364229Y-9419460D01*
X8364229Y-9419460D02*
X8373753Y-9409936D01*
X8373753Y-9409936D02*
X8373753Y-9428984D01*
X8449944Y-9228984D02*
X8583277Y-9228984D01*
X8583277Y-9228984D02*
X8497563Y-9428984D01*
X8754705Y-9228984D02*
X8659467Y-9228984D01*
X8659467Y-9228984D02*
X8649944Y-9324222D01*
X8649944Y-9324222D02*
X8659467Y-9314698D01*
X8659467Y-9314698D02*
X8678515Y-9305174D01*
X8678515Y-9305174D02*
X8726134Y-9305174D01*
X8726134Y-9305174D02*
X8745182Y-9314698D01*
X8745182Y-9314698D02*
X8754705Y-9324222D01*
X8754705Y-9324222D02*
X8764229Y-9343270D01*
X8764229Y-9343270D02*
X8764229Y-9390889D01*
X8764229Y-9390889D02*
X8754705Y-9409936D01*
X8754705Y-9409936D02*
X8745182Y-9419460D01*
X8745182Y-9419460D02*
X8726134Y-9428984D01*
X8726134Y-9428984D02*
X8678515Y-9428984D01*
X8678515Y-9428984D02*
X8659467Y-9419460D01*
X8659467Y-9419460D02*
X8649944Y-9409936D01*
X8888039Y-9228984D02*
X8907086Y-9228984D01*
X8907086Y-9228984D02*
X8926134Y-9238508D01*
X8926134Y-9238508D02*
X8935658Y-9248031D01*
X8935658Y-9248031D02*
X8945182Y-9267079D01*
X8945182Y-9267079D02*
X8954705Y-9305174D01*
X8954705Y-9305174D02*
X8954705Y-9352793D01*
X8954705Y-9352793D02*
X8945182Y-9390889D01*
X8945182Y-9390889D02*
X8935658Y-9409936D01*
X8935658Y-9409936D02*
X8926134Y-9419460D01*
X8926134Y-9419460D02*
X8907086Y-9428984D01*
X8907086Y-9428984D02*
X8888039Y-9428984D01*
X8888039Y-9428984D02*
X8868991Y-9419460D01*
X8868991Y-9419460D02*
X8859467Y-9409936D01*
X8859467Y-9409936D02*
X8849944Y-9390889D01*
X8849944Y-9390889D02*
X8840420Y-9352793D01*
X8840420Y-9352793D02*
X8840420Y-9305174D01*
X8840420Y-9305174D02*
X8849944Y-9267079D01*
X8849944Y-9267079D02*
X8859467Y-9248031D01*
X8859467Y-9248031D02*
X8868991Y-9238508D01*
X8868991Y-9238508D02*
X8888039Y-9228984D01*
X9040420Y-9428984D02*
X9040420Y-9295650D01*
X9040420Y-9314698D02*
X9049944Y-9305174D01*
X9049944Y-9305174D02*
X9068991Y-9295650D01*
X9068991Y-9295650D02*
X9097563Y-9295650D01*
X9097563Y-9295650D02*
X9116610Y-9305174D01*
X9116610Y-9305174D02*
X9126134Y-9324222D01*
X9126134Y-9324222D02*
X9126134Y-9428984D01*
X9126134Y-9324222D02*
X9135658Y-9305174D01*
X9135658Y-9305174D02*
X9154705Y-9295650D01*
X9154705Y-9295650D02*
X9183277Y-9295650D01*
X9183277Y-9295650D02*
X9202325Y-9305174D01*
X9202325Y-9305174D02*
X9211848Y-9324222D01*
X9211848Y-9324222D02*
X9211848Y-9428984D01*
X9307086Y-9428984D02*
X9307086Y-9295650D01*
X9307086Y-9314698D02*
X9316610Y-9305174D01*
X9316610Y-9305174D02*
X9335658Y-9295650D01*
X9335658Y-9295650D02*
X9364229Y-9295650D01*
X9364229Y-9295650D02*
X9383277Y-9305174D01*
X9383277Y-9305174D02*
X9392801Y-9324222D01*
X9392801Y-9324222D02*
X9392801Y-9428984D01*
X9392801Y-9324222D02*
X9402325Y-9305174D01*
X9402325Y-9305174D02*
X9421372Y-9295650D01*
X9421372Y-9295650D02*
X9449944Y-9295650D01*
X9449944Y-9295650D02*
X9468991Y-9305174D01*
X9468991Y-9305174D02*
X9478515Y-9324222D01*
X9478515Y-9324222D02*
X9478515Y-9428984D01*
X9868991Y-9219460D02*
X9697563Y-9476603D01*
X10126134Y-9228984D02*
X10145182Y-9228984D01*
X10145182Y-9228984D02*
X10164229Y-9238508D01*
X10164229Y-9238508D02*
X10173753Y-9248031D01*
X10173753Y-9248031D02*
X10183277Y-9267079D01*
X10183277Y-9267079D02*
X10192801Y-9305174D01*
X10192801Y-9305174D02*
X10192801Y-9352793D01*
X10192801Y-9352793D02*
X10183277Y-9390889D01*
X10183277Y-9390889D02*
X10173753Y-9409936D01*
X10173753Y-9409936D02*
X10164229Y-9419460D01*
X10164229Y-9419460D02*
X10145182Y-9428984D01*
X10145182Y-9428984D02*
X10126134Y-9428984D01*
X10126134Y-9428984D02*
X10107087Y-9419460D01*
X10107087Y-9419460D02*
X10097563Y-9409936D01*
X10097563Y-9409936D02*
X10088039Y-9390889D01*
X10088039Y-9390889D02*
X10078515Y-9352793D01*
X10078515Y-9352793D02*
X10078515Y-9305174D01*
X10078515Y-9305174D02*
X10088039Y-9267079D01*
X10088039Y-9267079D02*
X10097563Y-9248031D01*
X10097563Y-9248031D02*
X10107087Y-9238508D01*
X10107087Y-9238508D02*
X10126134Y-9228984D01*
X10278515Y-9409936D02*
X10288039Y-9419460D01*
X10288039Y-9419460D02*
X10278515Y-9428984D01*
X10278515Y-9428984D02*
X10268991Y-9419460D01*
X10268991Y-9419460D02*
X10278515Y-9409936D01*
X10278515Y-9409936D02*
X10278515Y-9428984D01*
X10411848Y-9228984D02*
X10430896Y-9228984D01*
X10430896Y-9228984D02*
X10449944Y-9238508D01*
X10449944Y-9238508D02*
X10459468Y-9248031D01*
X10459468Y-9248031D02*
X10468991Y-9267079D01*
X10468991Y-9267079D02*
X10478515Y-9305174D01*
X10478515Y-9305174D02*
X10478515Y-9352793D01*
X10478515Y-9352793D02*
X10468991Y-9390889D01*
X10468991Y-9390889D02*
X10459468Y-9409936D01*
X10459468Y-9409936D02*
X10449944Y-9419460D01*
X10449944Y-9419460D02*
X10430896Y-9428984D01*
X10430896Y-9428984D02*
X10411848Y-9428984D01*
X10411848Y-9428984D02*
X10392801Y-9419460D01*
X10392801Y-9419460D02*
X10383277Y-9409936D01*
X10383277Y-9409936D02*
X10373753Y-9390889D01*
X10373753Y-9390889D02*
X10364229Y-9352793D01*
X10364229Y-9352793D02*
X10364229Y-9305174D01*
X10364229Y-9305174D02*
X10373753Y-9267079D01*
X10373753Y-9267079D02*
X10383277Y-9248031D01*
X10383277Y-9248031D02*
X10392801Y-9238508D01*
X10392801Y-9238508D02*
X10411848Y-9228984D01*
X10554706Y-9248031D02*
X10564229Y-9238508D01*
X10564229Y-9238508D02*
X10583277Y-9228984D01*
X10583277Y-9228984D02*
X10630896Y-9228984D01*
X10630896Y-9228984D02*
X10649944Y-9238508D01*
X10649944Y-9238508D02*
X10659468Y-9248031D01*
X10659468Y-9248031D02*
X10668991Y-9267079D01*
X10668991Y-9267079D02*
X10668991Y-9286127D01*
X10668991Y-9286127D02*
X10659468Y-9314698D01*
X10659468Y-9314698D02*
X10545182Y-9428984D01*
X10545182Y-9428984D02*
X10668991Y-9428984D01*
X10764229Y-9428984D02*
X10802325Y-9428984D01*
X10802325Y-9428984D02*
X10821372Y-9419460D01*
X10821372Y-9419460D02*
X10830896Y-9409936D01*
X10830896Y-9409936D02*
X10849944Y-9381365D01*
X10849944Y-9381365D02*
X10859468Y-9343270D01*
X10859468Y-9343270D02*
X10859468Y-9267079D01*
X10859468Y-9267079D02*
X10849944Y-9248031D01*
X10849944Y-9248031D02*
X10840420Y-9238508D01*
X10840420Y-9238508D02*
X10821372Y-9228984D01*
X10821372Y-9228984D02*
X10783277Y-9228984D01*
X10783277Y-9228984D02*
X10764229Y-9238508D01*
X10764229Y-9238508D02*
X10754706Y-9248031D01*
X10754706Y-9248031D02*
X10745182Y-9267079D01*
X10745182Y-9267079D02*
X10745182Y-9314698D01*
X10745182Y-9314698D02*
X10754706Y-9333746D01*
X10754706Y-9333746D02*
X10764229Y-9343270D01*
X10764229Y-9343270D02*
X10783277Y-9352793D01*
X10783277Y-9352793D02*
X10821372Y-9352793D01*
X10821372Y-9352793D02*
X10840420Y-9343270D01*
X10840420Y-9343270D02*
X10849944Y-9333746D01*
X10849944Y-9333746D02*
X10859468Y-9314698D01*
X11040420Y-9228984D02*
X10945182Y-9228984D01*
X10945182Y-9228984D02*
X10935658Y-9324222D01*
X10935658Y-9324222D02*
X10945182Y-9314698D01*
X10945182Y-9314698D02*
X10964229Y-9305174D01*
X10964229Y-9305174D02*
X11011849Y-9305174D01*
X11011849Y-9305174D02*
X11030896Y-9314698D01*
X11030896Y-9314698D02*
X11040420Y-9324222D01*
X11040420Y-9324222D02*
X11049944Y-9343270D01*
X11049944Y-9343270D02*
X11049944Y-9390889D01*
X11049944Y-9390889D02*
X11040420Y-9409936D01*
X11040420Y-9409936D02*
X11030896Y-9419460D01*
X11030896Y-9419460D02*
X11011849Y-9428984D01*
X11011849Y-9428984D02*
X10964229Y-9428984D01*
X10964229Y-9428984D02*
X10945182Y-9419460D01*
X10945182Y-9419460D02*
X10935658Y-9409936D01*
X11126134Y-9228984D02*
X11126134Y-9267079D01*
X11202325Y-9228984D02*
X11202325Y-9267079D01*
X11497563Y-9505174D02*
X11488039Y-9495650D01*
X11488039Y-9495650D02*
X11468991Y-9467079D01*
X11468991Y-9467079D02*
X11459468Y-9448031D01*
X11459468Y-9448031D02*
X11449944Y-9419460D01*
X11449944Y-9419460D02*
X11440420Y-9371841D01*
X11440420Y-9371841D02*
X11440420Y-9333746D01*
X11440420Y-9333746D02*
X11449944Y-9286127D01*
X11449944Y-9286127D02*
X11459468Y-9257555D01*
X11459468Y-9257555D02*
X11468991Y-9238508D01*
X11468991Y-9238508D02*
X11488039Y-9209936D01*
X11488039Y-9209936D02*
X11497563Y-9200412D01*
X11659468Y-9295650D02*
X11659468Y-9428984D01*
X11611848Y-9219460D02*
X11564229Y-9362317D01*
X11564229Y-9362317D02*
X11688039Y-9362317D01*
X11916610Y-9428984D02*
X11916610Y-9228984D01*
X12002325Y-9428984D02*
X12002325Y-9324222D01*
X12002325Y-9324222D02*
X11992801Y-9305174D01*
X11992801Y-9305174D02*
X11973753Y-9295650D01*
X11973753Y-9295650D02*
X11945182Y-9295650D01*
X11945182Y-9295650D02*
X11926134Y-9305174D01*
X11926134Y-9305174D02*
X11916610Y-9314698D01*
X12126134Y-9428984D02*
X12107087Y-9419460D01*
X12107087Y-9419460D02*
X12097563Y-9409936D01*
X12097563Y-9409936D02*
X12088039Y-9390889D01*
X12088039Y-9390889D02*
X12088039Y-9333746D01*
X12088039Y-9333746D02*
X12097563Y-9314698D01*
X12097563Y-9314698D02*
X12107087Y-9305174D01*
X12107087Y-9305174D02*
X12126134Y-9295650D01*
X12126134Y-9295650D02*
X12154706Y-9295650D01*
X12154706Y-9295650D02*
X12173753Y-9305174D01*
X12173753Y-9305174D02*
X12183277Y-9314698D01*
X12183277Y-9314698D02*
X12192801Y-9333746D01*
X12192801Y-9333746D02*
X12192801Y-9390889D01*
X12192801Y-9390889D02*
X12183277Y-9409936D01*
X12183277Y-9409936D02*
X12173753Y-9419460D01*
X12173753Y-9419460D02*
X12154706Y-9428984D01*
X12154706Y-9428984D02*
X12126134Y-9428984D01*
X12307087Y-9428984D02*
X12288039Y-9419460D01*
X12288039Y-9419460D02*
X12278515Y-9400412D01*
X12278515Y-9400412D02*
X12278515Y-9228984D01*
X12459468Y-9419460D02*
X12440420Y-9428984D01*
X12440420Y-9428984D02*
X12402325Y-9428984D01*
X12402325Y-9428984D02*
X12383277Y-9419460D01*
X12383277Y-9419460D02*
X12373753Y-9400412D01*
X12373753Y-9400412D02*
X12373753Y-9324222D01*
X12373753Y-9324222D02*
X12383277Y-9305174D01*
X12383277Y-9305174D02*
X12402325Y-9295650D01*
X12402325Y-9295650D02*
X12440420Y-9295650D01*
X12440420Y-9295650D02*
X12459468Y-9305174D01*
X12459468Y-9305174D02*
X12468991Y-9324222D01*
X12468991Y-9324222D02*
X12468991Y-9343270D01*
X12468991Y-9343270D02*
X12373753Y-9362317D01*
X12545182Y-9419460D02*
X12564230Y-9428984D01*
X12564230Y-9428984D02*
X12602325Y-9428984D01*
X12602325Y-9428984D02*
X12621372Y-9419460D01*
X12621372Y-9419460D02*
X12630896Y-9400412D01*
X12630896Y-9400412D02*
X12630896Y-9390889D01*
X12630896Y-9390889D02*
X12621372Y-9371841D01*
X12621372Y-9371841D02*
X12602325Y-9362317D01*
X12602325Y-9362317D02*
X12573753Y-9362317D01*
X12573753Y-9362317D02*
X12554706Y-9352793D01*
X12554706Y-9352793D02*
X12545182Y-9333746D01*
X12545182Y-9333746D02*
X12545182Y-9324222D01*
X12545182Y-9324222D02*
X12554706Y-9305174D01*
X12554706Y-9305174D02*
X12573753Y-9295650D01*
X12573753Y-9295650D02*
X12602325Y-9295650D01*
X12602325Y-9295650D02*
X12621372Y-9305174D01*
X12697563Y-9505174D02*
X12707087Y-9495650D01*
X12707087Y-9495650D02*
X12726134Y-9467079D01*
X12726134Y-9467079D02*
X12735658Y-9448031D01*
X12735658Y-9448031D02*
X12745182Y-9419460D01*
X12745182Y-9419460D02*
X12754706Y-9371841D01*
X12754706Y-9371841D02*
X12754706Y-9333746D01*
X12754706Y-9333746D02*
X12745182Y-9286127D01*
X12745182Y-9286127D02*
X12735658Y-9257555D01*
X12735658Y-9257555D02*
X12726134Y-9238508D01*
X12726134Y-9238508D02*
X12707087Y-9209936D01*
X12707087Y-9209936D02*
X12697563Y-9200412D01*
D12*
X7922500Y-9601500D02*
G75*
G02*
X7842500Y-9601500I-40000J0D01*
G01*
X7842500Y-9601500D02*
G75*
G02*
X7922500Y-9601500I40000J0D01*
G01*
D11*
X8221372Y-9492984D02*
X8240420Y-9492984D01*
X8240420Y-9492984D02*
X8259467Y-9502508D01*
X8259467Y-9502508D02*
X8268991Y-9512031D01*
X8268991Y-9512031D02*
X8278515Y-9531079D01*
X8278515Y-9531079D02*
X8288039Y-9569174D01*
X8288039Y-9569174D02*
X8288039Y-9616793D01*
X8288039Y-9616793D02*
X8278515Y-9654889D01*
X8278515Y-9654889D02*
X8268991Y-9673936D01*
X8268991Y-9673936D02*
X8259467Y-9683460D01*
X8259467Y-9683460D02*
X8240420Y-9692984D01*
X8240420Y-9692984D02*
X8221372Y-9692984D01*
X8221372Y-9692984D02*
X8202324Y-9683460D01*
X8202324Y-9683460D02*
X8192801Y-9673936D01*
X8192801Y-9673936D02*
X8183277Y-9654889D01*
X8183277Y-9654889D02*
X8173753Y-9616793D01*
X8173753Y-9616793D02*
X8173753Y-9569174D01*
X8173753Y-9569174D02*
X8183277Y-9531079D01*
X8183277Y-9531079D02*
X8192801Y-9512031D01*
X8192801Y-9512031D02*
X8202324Y-9502508D01*
X8202324Y-9502508D02*
X8221372Y-9492984D01*
X8373753Y-9673936D02*
X8383277Y-9683460D01*
X8383277Y-9683460D02*
X8373753Y-9692984D01*
X8373753Y-9692984D02*
X8364229Y-9683460D01*
X8364229Y-9683460D02*
X8373753Y-9673936D01*
X8373753Y-9673936D02*
X8373753Y-9692984D01*
X8497563Y-9578698D02*
X8478515Y-9569174D01*
X8478515Y-9569174D02*
X8468991Y-9559650D01*
X8468991Y-9559650D02*
X8459467Y-9540603D01*
X8459467Y-9540603D02*
X8459467Y-9531079D01*
X8459467Y-9531079D02*
X8468991Y-9512031D01*
X8468991Y-9512031D02*
X8478515Y-9502508D01*
X8478515Y-9502508D02*
X8497563Y-9492984D01*
X8497563Y-9492984D02*
X8535658Y-9492984D01*
X8535658Y-9492984D02*
X8554705Y-9502508D01*
X8554705Y-9502508D02*
X8564229Y-9512031D01*
X8564229Y-9512031D02*
X8573753Y-9531079D01*
X8573753Y-9531079D02*
X8573753Y-9540603D01*
X8573753Y-9540603D02*
X8564229Y-9559650D01*
X8564229Y-9559650D02*
X8554705Y-9569174D01*
X8554705Y-9569174D02*
X8535658Y-9578698D01*
X8535658Y-9578698D02*
X8497563Y-9578698D01*
X8497563Y-9578698D02*
X8478515Y-9588222D01*
X8478515Y-9588222D02*
X8468991Y-9597746D01*
X8468991Y-9597746D02*
X8459467Y-9616793D01*
X8459467Y-9616793D02*
X8459467Y-9654889D01*
X8459467Y-9654889D02*
X8468991Y-9673936D01*
X8468991Y-9673936D02*
X8478515Y-9683460D01*
X8478515Y-9683460D02*
X8497563Y-9692984D01*
X8497563Y-9692984D02*
X8535658Y-9692984D01*
X8535658Y-9692984D02*
X8554705Y-9683460D01*
X8554705Y-9683460D02*
X8564229Y-9673936D01*
X8564229Y-9673936D02*
X8573753Y-9654889D01*
X8573753Y-9654889D02*
X8573753Y-9616793D01*
X8573753Y-9616793D02*
X8564229Y-9597746D01*
X8564229Y-9597746D02*
X8554705Y-9588222D01*
X8554705Y-9588222D02*
X8535658Y-9578698D01*
X8697563Y-9492984D02*
X8716610Y-9492984D01*
X8716610Y-9492984D02*
X8735658Y-9502508D01*
X8735658Y-9502508D02*
X8745182Y-9512031D01*
X8745182Y-9512031D02*
X8754705Y-9531079D01*
X8754705Y-9531079D02*
X8764229Y-9569174D01*
X8764229Y-9569174D02*
X8764229Y-9616793D01*
X8764229Y-9616793D02*
X8754705Y-9654889D01*
X8754705Y-9654889D02*
X8745182Y-9673936D01*
X8745182Y-9673936D02*
X8735658Y-9683460D01*
X8735658Y-9683460D02*
X8716610Y-9692984D01*
X8716610Y-9692984D02*
X8697563Y-9692984D01*
X8697563Y-9692984D02*
X8678515Y-9683460D01*
X8678515Y-9683460D02*
X8668991Y-9673936D01*
X8668991Y-9673936D02*
X8659467Y-9654889D01*
X8659467Y-9654889D02*
X8649944Y-9616793D01*
X8649944Y-9616793D02*
X8649944Y-9569174D01*
X8649944Y-9569174D02*
X8659467Y-9531079D01*
X8659467Y-9531079D02*
X8668991Y-9512031D01*
X8668991Y-9512031D02*
X8678515Y-9502508D01*
X8678515Y-9502508D02*
X8697563Y-9492984D01*
X8888039Y-9492984D02*
X8907086Y-9492984D01*
X8907086Y-9492984D02*
X8926134Y-9502508D01*
X8926134Y-9502508D02*
X8935658Y-9512031D01*
X8935658Y-9512031D02*
X8945182Y-9531079D01*
X8945182Y-9531079D02*
X8954705Y-9569174D01*
X8954705Y-9569174D02*
X8954705Y-9616793D01*
X8954705Y-9616793D02*
X8945182Y-9654889D01*
X8945182Y-9654889D02*
X8935658Y-9673936D01*
X8935658Y-9673936D02*
X8926134Y-9683460D01*
X8926134Y-9683460D02*
X8907086Y-9692984D01*
X8907086Y-9692984D02*
X8888039Y-9692984D01*
X8888039Y-9692984D02*
X8868991Y-9683460D01*
X8868991Y-9683460D02*
X8859467Y-9673936D01*
X8859467Y-9673936D02*
X8849944Y-9654889D01*
X8849944Y-9654889D02*
X8840420Y-9616793D01*
X8840420Y-9616793D02*
X8840420Y-9569174D01*
X8840420Y-9569174D02*
X8849944Y-9531079D01*
X8849944Y-9531079D02*
X8859467Y-9512031D01*
X8859467Y-9512031D02*
X8868991Y-9502508D01*
X8868991Y-9502508D02*
X8888039Y-9492984D01*
X9040420Y-9692984D02*
X9040420Y-9559650D01*
X9040420Y-9578698D02*
X9049944Y-9569174D01*
X9049944Y-9569174D02*
X9068991Y-9559650D01*
X9068991Y-9559650D02*
X9097563Y-9559650D01*
X9097563Y-9559650D02*
X9116610Y-9569174D01*
X9116610Y-9569174D02*
X9126134Y-9588222D01*
X9126134Y-9588222D02*
X9126134Y-9692984D01*
X9126134Y-9588222D02*
X9135658Y-9569174D01*
X9135658Y-9569174D02*
X9154705Y-9559650D01*
X9154705Y-9559650D02*
X9183277Y-9559650D01*
X9183277Y-9559650D02*
X9202325Y-9569174D01*
X9202325Y-9569174D02*
X9211848Y-9588222D01*
X9211848Y-9588222D02*
X9211848Y-9692984D01*
X9307086Y-9692984D02*
X9307086Y-9559650D01*
X9307086Y-9578698D02*
X9316610Y-9569174D01*
X9316610Y-9569174D02*
X9335658Y-9559650D01*
X9335658Y-9559650D02*
X9364229Y-9559650D01*
X9364229Y-9559650D02*
X9383277Y-9569174D01*
X9383277Y-9569174D02*
X9392801Y-9588222D01*
X9392801Y-9588222D02*
X9392801Y-9692984D01*
X9392801Y-9588222D02*
X9402325Y-9569174D01*
X9402325Y-9569174D02*
X9421372Y-9559650D01*
X9421372Y-9559650D02*
X9449944Y-9559650D01*
X9449944Y-9559650D02*
X9468991Y-9569174D01*
X9468991Y-9569174D02*
X9478515Y-9588222D01*
X9478515Y-9588222D02*
X9478515Y-9692984D01*
X9868991Y-9483460D02*
X9697563Y-9740603D01*
X10126134Y-9492984D02*
X10145182Y-9492984D01*
X10145182Y-9492984D02*
X10164229Y-9502508D01*
X10164229Y-9502508D02*
X10173753Y-9512031D01*
X10173753Y-9512031D02*
X10183277Y-9531079D01*
X10183277Y-9531079D02*
X10192801Y-9569174D01*
X10192801Y-9569174D02*
X10192801Y-9616793D01*
X10192801Y-9616793D02*
X10183277Y-9654889D01*
X10183277Y-9654889D02*
X10173753Y-9673936D01*
X10173753Y-9673936D02*
X10164229Y-9683460D01*
X10164229Y-9683460D02*
X10145182Y-9692984D01*
X10145182Y-9692984D02*
X10126134Y-9692984D01*
X10126134Y-9692984D02*
X10107087Y-9683460D01*
X10107087Y-9683460D02*
X10097563Y-9673936D01*
X10097563Y-9673936D02*
X10088039Y-9654889D01*
X10088039Y-9654889D02*
X10078515Y-9616793D01*
X10078515Y-9616793D02*
X10078515Y-9569174D01*
X10078515Y-9569174D02*
X10088039Y-9531079D01*
X10088039Y-9531079D02*
X10097563Y-9512031D01*
X10097563Y-9512031D02*
X10107087Y-9502508D01*
X10107087Y-9502508D02*
X10126134Y-9492984D01*
X10278515Y-9673936D02*
X10288039Y-9683460D01*
X10288039Y-9683460D02*
X10278515Y-9692984D01*
X10278515Y-9692984D02*
X10268991Y-9683460D01*
X10268991Y-9683460D02*
X10278515Y-9673936D01*
X10278515Y-9673936D02*
X10278515Y-9692984D01*
X10411848Y-9492984D02*
X10430896Y-9492984D01*
X10430896Y-9492984D02*
X10449944Y-9502508D01*
X10449944Y-9502508D02*
X10459468Y-9512031D01*
X10459468Y-9512031D02*
X10468991Y-9531079D01*
X10468991Y-9531079D02*
X10478515Y-9569174D01*
X10478515Y-9569174D02*
X10478515Y-9616793D01*
X10478515Y-9616793D02*
X10468991Y-9654889D01*
X10468991Y-9654889D02*
X10459468Y-9673936D01*
X10459468Y-9673936D02*
X10449944Y-9683460D01*
X10449944Y-9683460D02*
X10430896Y-9692984D01*
X10430896Y-9692984D02*
X10411848Y-9692984D01*
X10411848Y-9692984D02*
X10392801Y-9683460D01*
X10392801Y-9683460D02*
X10383277Y-9673936D01*
X10383277Y-9673936D02*
X10373753Y-9654889D01*
X10373753Y-9654889D02*
X10364229Y-9616793D01*
X10364229Y-9616793D02*
X10364229Y-9569174D01*
X10364229Y-9569174D02*
X10373753Y-9531079D01*
X10373753Y-9531079D02*
X10383277Y-9512031D01*
X10383277Y-9512031D02*
X10392801Y-9502508D01*
X10392801Y-9502508D02*
X10411848Y-9492984D01*
X10545182Y-9492984D02*
X10668991Y-9492984D01*
X10668991Y-9492984D02*
X10602325Y-9569174D01*
X10602325Y-9569174D02*
X10630896Y-9569174D01*
X10630896Y-9569174D02*
X10649944Y-9578698D01*
X10649944Y-9578698D02*
X10659468Y-9588222D01*
X10659468Y-9588222D02*
X10668991Y-9607270D01*
X10668991Y-9607270D02*
X10668991Y-9654889D01*
X10668991Y-9654889D02*
X10659468Y-9673936D01*
X10659468Y-9673936D02*
X10649944Y-9683460D01*
X10649944Y-9683460D02*
X10630896Y-9692984D01*
X10630896Y-9692984D02*
X10573753Y-9692984D01*
X10573753Y-9692984D02*
X10554706Y-9683460D01*
X10554706Y-9683460D02*
X10545182Y-9673936D01*
X10859468Y-9692984D02*
X10745182Y-9692984D01*
X10802325Y-9692984D02*
X10802325Y-9492984D01*
X10802325Y-9492984D02*
X10783277Y-9521555D01*
X10783277Y-9521555D02*
X10764229Y-9540603D01*
X10764229Y-9540603D02*
X10745182Y-9550127D01*
X11040420Y-9492984D02*
X10945182Y-9492984D01*
X10945182Y-9492984D02*
X10935658Y-9588222D01*
X10935658Y-9588222D02*
X10945182Y-9578698D01*
X10945182Y-9578698D02*
X10964229Y-9569174D01*
X10964229Y-9569174D02*
X11011849Y-9569174D01*
X11011849Y-9569174D02*
X11030896Y-9578698D01*
X11030896Y-9578698D02*
X11040420Y-9588222D01*
X11040420Y-9588222D02*
X11049944Y-9607270D01*
X11049944Y-9607270D02*
X11049944Y-9654889D01*
X11049944Y-9654889D02*
X11040420Y-9673936D01*
X11040420Y-9673936D02*
X11030896Y-9683460D01*
X11030896Y-9683460D02*
X11011849Y-9692984D01*
X11011849Y-9692984D02*
X10964229Y-9692984D01*
X10964229Y-9692984D02*
X10945182Y-9683460D01*
X10945182Y-9683460D02*
X10935658Y-9673936D01*
X11126134Y-9492984D02*
X11126134Y-9531079D01*
X11202325Y-9492984D02*
X11202325Y-9531079D01*
X11497563Y-9769174D02*
X11488039Y-9759650D01*
X11488039Y-9759650D02*
X11468991Y-9731079D01*
X11468991Y-9731079D02*
X11459468Y-9712031D01*
X11459468Y-9712031D02*
X11449944Y-9683460D01*
X11449944Y-9683460D02*
X11440420Y-9635841D01*
X11440420Y-9635841D02*
X11440420Y-9597746D01*
X11440420Y-9597746D02*
X11449944Y-9550127D01*
X11449944Y-9550127D02*
X11459468Y-9521555D01*
X11459468Y-9521555D02*
X11468991Y-9502508D01*
X11468991Y-9502508D02*
X11488039Y-9473936D01*
X11488039Y-9473936D02*
X11497563Y-9464412D01*
X11554706Y-9492984D02*
X11678515Y-9492984D01*
X11678515Y-9492984D02*
X11611848Y-9569174D01*
X11611848Y-9569174D02*
X11640420Y-9569174D01*
X11640420Y-9569174D02*
X11659468Y-9578698D01*
X11659468Y-9578698D02*
X11668991Y-9588222D01*
X11668991Y-9588222D02*
X11678515Y-9607270D01*
X11678515Y-9607270D02*
X11678515Y-9654889D01*
X11678515Y-9654889D02*
X11668991Y-9673936D01*
X11668991Y-9673936D02*
X11659468Y-9683460D01*
X11659468Y-9683460D02*
X11640420Y-9692984D01*
X11640420Y-9692984D02*
X11583277Y-9692984D01*
X11583277Y-9692984D02*
X11564229Y-9683460D01*
X11564229Y-9683460D02*
X11554706Y-9673936D01*
X11849944Y-9492984D02*
X11811848Y-9492984D01*
X11811848Y-9492984D02*
X11792801Y-9502508D01*
X11792801Y-9502508D02*
X11783277Y-9512031D01*
X11783277Y-9512031D02*
X11764229Y-9540603D01*
X11764229Y-9540603D02*
X11754706Y-9578698D01*
X11754706Y-9578698D02*
X11754706Y-9654889D01*
X11754706Y-9654889D02*
X11764229Y-9673936D01*
X11764229Y-9673936D02*
X11773753Y-9683460D01*
X11773753Y-9683460D02*
X11792801Y-9692984D01*
X11792801Y-9692984D02*
X11830896Y-9692984D01*
X11830896Y-9692984D02*
X11849944Y-9683460D01*
X11849944Y-9683460D02*
X11859468Y-9673936D01*
X11859468Y-9673936D02*
X11868991Y-9654889D01*
X11868991Y-9654889D02*
X11868991Y-9607270D01*
X11868991Y-9607270D02*
X11859468Y-9588222D01*
X11859468Y-9588222D02*
X11849944Y-9578698D01*
X11849944Y-9578698D02*
X11830896Y-9569174D01*
X11830896Y-9569174D02*
X11792801Y-9569174D01*
X11792801Y-9569174D02*
X11773753Y-9578698D01*
X11773753Y-9578698D02*
X11764229Y-9588222D01*
X11764229Y-9588222D02*
X11754706Y-9607270D01*
X12107087Y-9692984D02*
X12107087Y-9492984D01*
X12192801Y-9692984D02*
X12192801Y-9588222D01*
X12192801Y-9588222D02*
X12183277Y-9569174D01*
X12183277Y-9569174D02*
X12164230Y-9559650D01*
X12164230Y-9559650D02*
X12135658Y-9559650D01*
X12135658Y-9559650D02*
X12116610Y-9569174D01*
X12116610Y-9569174D02*
X12107087Y-9578698D01*
X12316610Y-9692984D02*
X12297563Y-9683460D01*
X12297563Y-9683460D02*
X12288039Y-9673936D01*
X12288039Y-9673936D02*
X12278515Y-9654889D01*
X12278515Y-9654889D02*
X12278515Y-9597746D01*
X12278515Y-9597746D02*
X12288039Y-9578698D01*
X12288039Y-9578698D02*
X12297563Y-9569174D01*
X12297563Y-9569174D02*
X12316610Y-9559650D01*
X12316610Y-9559650D02*
X12345182Y-9559650D01*
X12345182Y-9559650D02*
X12364230Y-9569174D01*
X12364230Y-9569174D02*
X12373753Y-9578698D01*
X12373753Y-9578698D02*
X12383277Y-9597746D01*
X12383277Y-9597746D02*
X12383277Y-9654889D01*
X12383277Y-9654889D02*
X12373753Y-9673936D01*
X12373753Y-9673936D02*
X12364230Y-9683460D01*
X12364230Y-9683460D02*
X12345182Y-9692984D01*
X12345182Y-9692984D02*
X12316610Y-9692984D01*
X12497563Y-9692984D02*
X12478515Y-9683460D01*
X12478515Y-9683460D02*
X12468991Y-9664412D01*
X12468991Y-9664412D02*
X12468991Y-9492984D01*
X12649944Y-9683460D02*
X12630896Y-9692984D01*
X12630896Y-9692984D02*
X12592801Y-9692984D01*
X12592801Y-9692984D02*
X12573753Y-9683460D01*
X12573753Y-9683460D02*
X12564230Y-9664412D01*
X12564230Y-9664412D02*
X12564230Y-9588222D01*
X12564230Y-9588222D02*
X12573753Y-9569174D01*
X12573753Y-9569174D02*
X12592801Y-9559650D01*
X12592801Y-9559650D02*
X12630896Y-9559650D01*
X12630896Y-9559650D02*
X12649944Y-9569174D01*
X12649944Y-9569174D02*
X12659468Y-9588222D01*
X12659468Y-9588222D02*
X12659468Y-9607270D01*
X12659468Y-9607270D02*
X12564230Y-9626317D01*
X12735658Y-9683460D02*
X12754706Y-9692984D01*
X12754706Y-9692984D02*
X12792801Y-9692984D01*
X12792801Y-9692984D02*
X12811849Y-9683460D01*
X12811849Y-9683460D02*
X12821372Y-9664412D01*
X12821372Y-9664412D02*
X12821372Y-9654889D01*
X12821372Y-9654889D02*
X12811849Y-9635841D01*
X12811849Y-9635841D02*
X12792801Y-9626317D01*
X12792801Y-9626317D02*
X12764230Y-9626317D01*
X12764230Y-9626317D02*
X12745182Y-9616793D01*
X12745182Y-9616793D02*
X12735658Y-9597746D01*
X12735658Y-9597746D02*
X12735658Y-9588222D01*
X12735658Y-9588222D02*
X12745182Y-9569174D01*
X12745182Y-9569174D02*
X12764230Y-9559650D01*
X12764230Y-9559650D02*
X12792801Y-9559650D01*
X12792801Y-9559650D02*
X12811849Y-9569174D01*
X12888039Y-9769174D02*
X12897563Y-9759650D01*
X12897563Y-9759650D02*
X12916611Y-9731079D01*
X12916611Y-9731079D02*
X12926134Y-9712031D01*
X12926134Y-9712031D02*
X12935658Y-9683460D01*
X12935658Y-9683460D02*
X12945182Y-9635841D01*
X12945182Y-9635841D02*
X12945182Y-9597746D01*
X12945182Y-9597746D02*
X12935658Y-9550127D01*
X12935658Y-9550127D02*
X12926134Y-9521555D01*
X12926134Y-9521555D02*
X12916611Y-9502508D01*
X12916611Y-9502508D02*
X12897563Y-9473936D01*
X12897563Y-9473936D02*
X12888039Y-9464412D01*
D12*
X7875000Y-9818000D02*
X7875000Y-9913000D01*
X7827500Y-9865500D02*
X7922500Y-9865500D01*
D11*
X8221372Y-9756984D02*
X8240420Y-9756984D01*
X8240420Y-9756984D02*
X8259467Y-9766508D01*
X8259467Y-9766508D02*
X8268991Y-9776031D01*
X8268991Y-9776031D02*
X8278515Y-9795079D01*
X8278515Y-9795079D02*
X8288039Y-9833174D01*
X8288039Y-9833174D02*
X8288039Y-9880793D01*
X8288039Y-9880793D02*
X8278515Y-9918889D01*
X8278515Y-9918889D02*
X8268991Y-9937936D01*
X8268991Y-9937936D02*
X8259467Y-9947460D01*
X8259467Y-9947460D02*
X8240420Y-9956984D01*
X8240420Y-9956984D02*
X8221372Y-9956984D01*
X8221372Y-9956984D02*
X8202324Y-9947460D01*
X8202324Y-9947460D02*
X8192801Y-9937936D01*
X8192801Y-9937936D02*
X8183277Y-9918889D01*
X8183277Y-9918889D02*
X8173753Y-9880793D01*
X8173753Y-9880793D02*
X8173753Y-9833174D01*
X8173753Y-9833174D02*
X8183277Y-9795079D01*
X8183277Y-9795079D02*
X8192801Y-9776031D01*
X8192801Y-9776031D02*
X8202324Y-9766508D01*
X8202324Y-9766508D02*
X8221372Y-9756984D01*
X8373753Y-9937936D02*
X8383277Y-9947460D01*
X8383277Y-9947460D02*
X8373753Y-9956984D01*
X8373753Y-9956984D02*
X8364229Y-9947460D01*
X8364229Y-9947460D02*
X8373753Y-9937936D01*
X8373753Y-9937936D02*
X8373753Y-9956984D01*
X8478515Y-9956984D02*
X8516610Y-9956984D01*
X8516610Y-9956984D02*
X8535658Y-9947460D01*
X8535658Y-9947460D02*
X8545182Y-9937936D01*
X8545182Y-9937936D02*
X8564229Y-9909365D01*
X8564229Y-9909365D02*
X8573753Y-9871270D01*
X8573753Y-9871270D02*
X8573753Y-9795079D01*
X8573753Y-9795079D02*
X8564229Y-9776031D01*
X8564229Y-9776031D02*
X8554705Y-9766508D01*
X8554705Y-9766508D02*
X8535658Y-9756984D01*
X8535658Y-9756984D02*
X8497563Y-9756984D01*
X8497563Y-9756984D02*
X8478515Y-9766508D01*
X8478515Y-9766508D02*
X8468991Y-9776031D01*
X8468991Y-9776031D02*
X8459467Y-9795079D01*
X8459467Y-9795079D02*
X8459467Y-9842698D01*
X8459467Y-9842698D02*
X8468991Y-9861746D01*
X8468991Y-9861746D02*
X8478515Y-9871270D01*
X8478515Y-9871270D02*
X8497563Y-9880793D01*
X8497563Y-9880793D02*
X8535658Y-9880793D01*
X8535658Y-9880793D02*
X8554705Y-9871270D01*
X8554705Y-9871270D02*
X8564229Y-9861746D01*
X8564229Y-9861746D02*
X8573753Y-9842698D01*
X8754705Y-9756984D02*
X8659467Y-9756984D01*
X8659467Y-9756984D02*
X8649944Y-9852222D01*
X8649944Y-9852222D02*
X8659467Y-9842698D01*
X8659467Y-9842698D02*
X8678515Y-9833174D01*
X8678515Y-9833174D02*
X8726134Y-9833174D01*
X8726134Y-9833174D02*
X8745182Y-9842698D01*
X8745182Y-9842698D02*
X8754705Y-9852222D01*
X8754705Y-9852222D02*
X8764229Y-9871270D01*
X8764229Y-9871270D02*
X8764229Y-9918889D01*
X8764229Y-9918889D02*
X8754705Y-9937936D01*
X8754705Y-9937936D02*
X8745182Y-9947460D01*
X8745182Y-9947460D02*
X8726134Y-9956984D01*
X8726134Y-9956984D02*
X8678515Y-9956984D01*
X8678515Y-9956984D02*
X8659467Y-9947460D01*
X8659467Y-9947460D02*
X8649944Y-9937936D01*
X8888039Y-9756984D02*
X8907086Y-9756984D01*
X8907086Y-9756984D02*
X8926134Y-9766508D01*
X8926134Y-9766508D02*
X8935658Y-9776031D01*
X8935658Y-9776031D02*
X8945182Y-9795079D01*
X8945182Y-9795079D02*
X8954705Y-9833174D01*
X8954705Y-9833174D02*
X8954705Y-9880793D01*
X8954705Y-9880793D02*
X8945182Y-9918889D01*
X8945182Y-9918889D02*
X8935658Y-9937936D01*
X8935658Y-9937936D02*
X8926134Y-9947460D01*
X8926134Y-9947460D02*
X8907086Y-9956984D01*
X8907086Y-9956984D02*
X8888039Y-9956984D01*
X8888039Y-9956984D02*
X8868991Y-9947460D01*
X8868991Y-9947460D02*
X8859467Y-9937936D01*
X8859467Y-9937936D02*
X8849944Y-9918889D01*
X8849944Y-9918889D02*
X8840420Y-9880793D01*
X8840420Y-9880793D02*
X8840420Y-9833174D01*
X8840420Y-9833174D02*
X8849944Y-9795079D01*
X8849944Y-9795079D02*
X8859467Y-9776031D01*
X8859467Y-9776031D02*
X8868991Y-9766508D01*
X8868991Y-9766508D02*
X8888039Y-9756984D01*
X9040420Y-9956984D02*
X9040420Y-9823650D01*
X9040420Y-9842698D02*
X9049944Y-9833174D01*
X9049944Y-9833174D02*
X9068991Y-9823650D01*
X9068991Y-9823650D02*
X9097563Y-9823650D01*
X9097563Y-9823650D02*
X9116610Y-9833174D01*
X9116610Y-9833174D02*
X9126134Y-9852222D01*
X9126134Y-9852222D02*
X9126134Y-9956984D01*
X9126134Y-9852222D02*
X9135658Y-9833174D01*
X9135658Y-9833174D02*
X9154705Y-9823650D01*
X9154705Y-9823650D02*
X9183277Y-9823650D01*
X9183277Y-9823650D02*
X9202325Y-9833174D01*
X9202325Y-9833174D02*
X9211848Y-9852222D01*
X9211848Y-9852222D02*
X9211848Y-9956984D01*
X9307086Y-9956984D02*
X9307086Y-9823650D01*
X9307086Y-9842698D02*
X9316610Y-9833174D01*
X9316610Y-9833174D02*
X9335658Y-9823650D01*
X9335658Y-9823650D02*
X9364229Y-9823650D01*
X9364229Y-9823650D02*
X9383277Y-9833174D01*
X9383277Y-9833174D02*
X9392801Y-9852222D01*
X9392801Y-9852222D02*
X9392801Y-9956984D01*
X9392801Y-9852222D02*
X9402325Y-9833174D01*
X9402325Y-9833174D02*
X9421372Y-9823650D01*
X9421372Y-9823650D02*
X9449944Y-9823650D01*
X9449944Y-9823650D02*
X9468991Y-9833174D01*
X9468991Y-9833174D02*
X9478515Y-9852222D01*
X9478515Y-9852222D02*
X9478515Y-9956984D01*
X9868991Y-9747460D02*
X9697563Y-10004603D01*
X10126134Y-9756984D02*
X10145182Y-9756984D01*
X10145182Y-9756984D02*
X10164229Y-9766508D01*
X10164229Y-9766508D02*
X10173753Y-9776031D01*
X10173753Y-9776031D02*
X10183277Y-9795079D01*
X10183277Y-9795079D02*
X10192801Y-9833174D01*
X10192801Y-9833174D02*
X10192801Y-9880793D01*
X10192801Y-9880793D02*
X10183277Y-9918889D01*
X10183277Y-9918889D02*
X10173753Y-9937936D01*
X10173753Y-9937936D02*
X10164229Y-9947460D01*
X10164229Y-9947460D02*
X10145182Y-9956984D01*
X10145182Y-9956984D02*
X10126134Y-9956984D01*
X10126134Y-9956984D02*
X10107087Y-9947460D01*
X10107087Y-9947460D02*
X10097563Y-9937936D01*
X10097563Y-9937936D02*
X10088039Y-9918889D01*
X10088039Y-9918889D02*
X10078515Y-9880793D01*
X10078515Y-9880793D02*
X10078515Y-9833174D01*
X10078515Y-9833174D02*
X10088039Y-9795079D01*
X10088039Y-9795079D02*
X10097563Y-9776031D01*
X10097563Y-9776031D02*
X10107087Y-9766508D01*
X10107087Y-9766508D02*
X10126134Y-9756984D01*
X10278515Y-9937936D02*
X10288039Y-9947460D01*
X10288039Y-9947460D02*
X10278515Y-9956984D01*
X10278515Y-9956984D02*
X10268991Y-9947460D01*
X10268991Y-9947460D02*
X10278515Y-9937936D01*
X10278515Y-9937936D02*
X10278515Y-9956984D01*
X10411848Y-9756984D02*
X10430896Y-9756984D01*
X10430896Y-9756984D02*
X10449944Y-9766508D01*
X10449944Y-9766508D02*
X10459468Y-9776031D01*
X10459468Y-9776031D02*
X10468991Y-9795079D01*
X10468991Y-9795079D02*
X10478515Y-9833174D01*
X10478515Y-9833174D02*
X10478515Y-9880793D01*
X10478515Y-9880793D02*
X10468991Y-9918889D01*
X10468991Y-9918889D02*
X10459468Y-9937936D01*
X10459468Y-9937936D02*
X10449944Y-9947460D01*
X10449944Y-9947460D02*
X10430896Y-9956984D01*
X10430896Y-9956984D02*
X10411848Y-9956984D01*
X10411848Y-9956984D02*
X10392801Y-9947460D01*
X10392801Y-9947460D02*
X10383277Y-9937936D01*
X10383277Y-9937936D02*
X10373753Y-9918889D01*
X10373753Y-9918889D02*
X10364229Y-9880793D01*
X10364229Y-9880793D02*
X10364229Y-9833174D01*
X10364229Y-9833174D02*
X10373753Y-9795079D01*
X10373753Y-9795079D02*
X10383277Y-9776031D01*
X10383277Y-9776031D02*
X10392801Y-9766508D01*
X10392801Y-9766508D02*
X10411848Y-9756984D01*
X10545182Y-9756984D02*
X10668991Y-9756984D01*
X10668991Y-9756984D02*
X10602325Y-9833174D01*
X10602325Y-9833174D02*
X10630896Y-9833174D01*
X10630896Y-9833174D02*
X10649944Y-9842698D01*
X10649944Y-9842698D02*
X10659468Y-9852222D01*
X10659468Y-9852222D02*
X10668991Y-9871270D01*
X10668991Y-9871270D02*
X10668991Y-9918889D01*
X10668991Y-9918889D02*
X10659468Y-9937936D01*
X10659468Y-9937936D02*
X10649944Y-9947460D01*
X10649944Y-9947460D02*
X10630896Y-9956984D01*
X10630896Y-9956984D02*
X10573753Y-9956984D01*
X10573753Y-9956984D02*
X10554706Y-9947460D01*
X10554706Y-9947460D02*
X10545182Y-9937936D01*
X10735658Y-9756984D02*
X10868991Y-9756984D01*
X10868991Y-9756984D02*
X10783277Y-9956984D01*
X11030896Y-9823650D02*
X11030896Y-9956984D01*
X10983277Y-9747460D02*
X10935658Y-9890317D01*
X10935658Y-9890317D02*
X11059468Y-9890317D01*
X11126134Y-9756984D02*
X11126134Y-9795079D01*
X11202325Y-9756984D02*
X11202325Y-9795079D01*
X11497563Y-10033174D02*
X11488039Y-10023650D01*
X11488039Y-10023650D02*
X11468991Y-9995079D01*
X11468991Y-9995079D02*
X11459468Y-9976031D01*
X11459468Y-9976031D02*
X11449944Y-9947460D01*
X11449944Y-9947460D02*
X11440420Y-9899841D01*
X11440420Y-9899841D02*
X11440420Y-9861746D01*
X11440420Y-9861746D02*
X11449944Y-9814127D01*
X11449944Y-9814127D02*
X11459468Y-9785555D01*
X11459468Y-9785555D02*
X11468991Y-9766508D01*
X11468991Y-9766508D02*
X11488039Y-9737936D01*
X11488039Y-9737936D02*
X11497563Y-9728412D01*
X11678515Y-9956984D02*
X11564229Y-9956984D01*
X11621372Y-9956984D02*
X11621372Y-9756984D01*
X11621372Y-9756984D02*
X11602325Y-9785555D01*
X11602325Y-9785555D02*
X11583277Y-9804603D01*
X11583277Y-9804603D02*
X11564229Y-9814127D01*
X11859468Y-9756984D02*
X11764229Y-9756984D01*
X11764229Y-9756984D02*
X11754706Y-9852222D01*
X11754706Y-9852222D02*
X11764229Y-9842698D01*
X11764229Y-9842698D02*
X11783277Y-9833174D01*
X11783277Y-9833174D02*
X11830896Y-9833174D01*
X11830896Y-9833174D02*
X11849944Y-9842698D01*
X11849944Y-9842698D02*
X11859468Y-9852222D01*
X11859468Y-9852222D02*
X11868991Y-9871270D01*
X11868991Y-9871270D02*
X11868991Y-9918889D01*
X11868991Y-9918889D02*
X11859468Y-9937936D01*
X11859468Y-9937936D02*
X11849944Y-9947460D01*
X11849944Y-9947460D02*
X11830896Y-9956984D01*
X11830896Y-9956984D02*
X11783277Y-9956984D01*
X11783277Y-9956984D02*
X11764229Y-9947460D01*
X11764229Y-9947460D02*
X11754706Y-9937936D01*
X12107087Y-9956984D02*
X12107087Y-9756984D01*
X12192801Y-9956984D02*
X12192801Y-9852222D01*
X12192801Y-9852222D02*
X12183277Y-9833174D01*
X12183277Y-9833174D02*
X12164230Y-9823650D01*
X12164230Y-9823650D02*
X12135658Y-9823650D01*
X12135658Y-9823650D02*
X12116610Y-9833174D01*
X12116610Y-9833174D02*
X12107087Y-9842698D01*
X12316610Y-9956984D02*
X12297563Y-9947460D01*
X12297563Y-9947460D02*
X12288039Y-9937936D01*
X12288039Y-9937936D02*
X12278515Y-9918889D01*
X12278515Y-9918889D02*
X12278515Y-9861746D01*
X12278515Y-9861746D02*
X12288039Y-9842698D01*
X12288039Y-9842698D02*
X12297563Y-9833174D01*
X12297563Y-9833174D02*
X12316610Y-9823650D01*
X12316610Y-9823650D02*
X12345182Y-9823650D01*
X12345182Y-9823650D02*
X12364230Y-9833174D01*
X12364230Y-9833174D02*
X12373753Y-9842698D01*
X12373753Y-9842698D02*
X12383277Y-9861746D01*
X12383277Y-9861746D02*
X12383277Y-9918889D01*
X12383277Y-9918889D02*
X12373753Y-9937936D01*
X12373753Y-9937936D02*
X12364230Y-9947460D01*
X12364230Y-9947460D02*
X12345182Y-9956984D01*
X12345182Y-9956984D02*
X12316610Y-9956984D01*
X12497563Y-9956984D02*
X12478515Y-9947460D01*
X12478515Y-9947460D02*
X12468991Y-9928412D01*
X12468991Y-9928412D02*
X12468991Y-9756984D01*
X12649944Y-9947460D02*
X12630896Y-9956984D01*
X12630896Y-9956984D02*
X12592801Y-9956984D01*
X12592801Y-9956984D02*
X12573753Y-9947460D01*
X12573753Y-9947460D02*
X12564230Y-9928412D01*
X12564230Y-9928412D02*
X12564230Y-9852222D01*
X12564230Y-9852222D02*
X12573753Y-9833174D01*
X12573753Y-9833174D02*
X12592801Y-9823650D01*
X12592801Y-9823650D02*
X12630896Y-9823650D01*
X12630896Y-9823650D02*
X12649944Y-9833174D01*
X12649944Y-9833174D02*
X12659468Y-9852222D01*
X12659468Y-9852222D02*
X12659468Y-9871270D01*
X12659468Y-9871270D02*
X12564230Y-9890317D01*
X12735658Y-9947460D02*
X12754706Y-9956984D01*
X12754706Y-9956984D02*
X12792801Y-9956984D01*
X12792801Y-9956984D02*
X12811849Y-9947460D01*
X12811849Y-9947460D02*
X12821372Y-9928412D01*
X12821372Y-9928412D02*
X12821372Y-9918889D01*
X12821372Y-9918889D02*
X12811849Y-9899841D01*
X12811849Y-9899841D02*
X12792801Y-9890317D01*
X12792801Y-9890317D02*
X12764230Y-9890317D01*
X12764230Y-9890317D02*
X12745182Y-9880793D01*
X12745182Y-9880793D02*
X12735658Y-9861746D01*
X12735658Y-9861746D02*
X12735658Y-9852222D01*
X12735658Y-9852222D02*
X12745182Y-9833174D01*
X12745182Y-9833174D02*
X12764230Y-9823650D01*
X12764230Y-9823650D02*
X12792801Y-9823650D01*
X12792801Y-9823650D02*
X12811849Y-9833174D01*
X12888039Y-10033174D02*
X12897563Y-10023650D01*
X12897563Y-10023650D02*
X12916611Y-9995079D01*
X12916611Y-9995079D02*
X12926134Y-9976031D01*
X12926134Y-9976031D02*
X12935658Y-9947460D01*
X12935658Y-9947460D02*
X12945182Y-9899841D01*
X12945182Y-9899841D02*
X12945182Y-9861746D01*
X12945182Y-9861746D02*
X12935658Y-9814127D01*
X12935658Y-9814127D02*
X12926134Y-9785555D01*
X12926134Y-9785555D02*
X12916611Y-9766508D01*
X12916611Y-9766508D02*
X12897563Y-9737936D01*
X12897563Y-9737936D02*
X12888039Y-9728412D01*
D12*
X7907856Y-10164856D02*
X7907856Y-10094144D01*
X7837144Y-10094144D01*
X7837144Y-10164856D01*
X7907856Y-10164856D01*
D11*
X8288039Y-10220984D02*
X8173753Y-10220984D01*
X8230896Y-10220984D02*
X8230896Y-10020984D01*
X8230896Y-10020984D02*
X8211848Y-10049555D01*
X8211848Y-10049555D02*
X8192801Y-10068603D01*
X8192801Y-10068603D02*
X8173753Y-10078127D01*
X8373753Y-10201936D02*
X8383277Y-10211460D01*
X8383277Y-10211460D02*
X8373753Y-10220984D01*
X8373753Y-10220984D02*
X8364229Y-10211460D01*
X8364229Y-10211460D02*
X8373753Y-10201936D01*
X8373753Y-10201936D02*
X8373753Y-10220984D01*
X8507086Y-10020984D02*
X8526134Y-10020984D01*
X8526134Y-10020984D02*
X8545182Y-10030508D01*
X8545182Y-10030508D02*
X8554705Y-10040031D01*
X8554705Y-10040031D02*
X8564229Y-10059079D01*
X8564229Y-10059079D02*
X8573753Y-10097174D01*
X8573753Y-10097174D02*
X8573753Y-10144793D01*
X8573753Y-10144793D02*
X8564229Y-10182889D01*
X8564229Y-10182889D02*
X8554705Y-10201936D01*
X8554705Y-10201936D02*
X8545182Y-10211460D01*
X8545182Y-10211460D02*
X8526134Y-10220984D01*
X8526134Y-10220984D02*
X8507086Y-10220984D01*
X8507086Y-10220984D02*
X8488039Y-10211460D01*
X8488039Y-10211460D02*
X8478515Y-10201936D01*
X8478515Y-10201936D02*
X8468991Y-10182889D01*
X8468991Y-10182889D02*
X8459467Y-10144793D01*
X8459467Y-10144793D02*
X8459467Y-10097174D01*
X8459467Y-10097174D02*
X8468991Y-10059079D01*
X8468991Y-10059079D02*
X8478515Y-10040031D01*
X8478515Y-10040031D02*
X8488039Y-10030508D01*
X8488039Y-10030508D02*
X8507086Y-10020984D01*
X8697563Y-10020984D02*
X8716610Y-10020984D01*
X8716610Y-10020984D02*
X8735658Y-10030508D01*
X8735658Y-10030508D02*
X8745182Y-10040031D01*
X8745182Y-10040031D02*
X8754705Y-10059079D01*
X8754705Y-10059079D02*
X8764229Y-10097174D01*
X8764229Y-10097174D02*
X8764229Y-10144793D01*
X8764229Y-10144793D02*
X8754705Y-10182889D01*
X8754705Y-10182889D02*
X8745182Y-10201936D01*
X8745182Y-10201936D02*
X8735658Y-10211460D01*
X8735658Y-10211460D02*
X8716610Y-10220984D01*
X8716610Y-10220984D02*
X8697563Y-10220984D01*
X8697563Y-10220984D02*
X8678515Y-10211460D01*
X8678515Y-10211460D02*
X8668991Y-10201936D01*
X8668991Y-10201936D02*
X8659467Y-10182889D01*
X8659467Y-10182889D02*
X8649944Y-10144793D01*
X8649944Y-10144793D02*
X8649944Y-10097174D01*
X8649944Y-10097174D02*
X8659467Y-10059079D01*
X8659467Y-10059079D02*
X8668991Y-10040031D01*
X8668991Y-10040031D02*
X8678515Y-10030508D01*
X8678515Y-10030508D02*
X8697563Y-10020984D01*
X8888039Y-10020984D02*
X8907086Y-10020984D01*
X8907086Y-10020984D02*
X8926134Y-10030508D01*
X8926134Y-10030508D02*
X8935658Y-10040031D01*
X8935658Y-10040031D02*
X8945182Y-10059079D01*
X8945182Y-10059079D02*
X8954705Y-10097174D01*
X8954705Y-10097174D02*
X8954705Y-10144793D01*
X8954705Y-10144793D02*
X8945182Y-10182889D01*
X8945182Y-10182889D02*
X8935658Y-10201936D01*
X8935658Y-10201936D02*
X8926134Y-10211460D01*
X8926134Y-10211460D02*
X8907086Y-10220984D01*
X8907086Y-10220984D02*
X8888039Y-10220984D01*
X8888039Y-10220984D02*
X8868991Y-10211460D01*
X8868991Y-10211460D02*
X8859467Y-10201936D01*
X8859467Y-10201936D02*
X8849944Y-10182889D01*
X8849944Y-10182889D02*
X8840420Y-10144793D01*
X8840420Y-10144793D02*
X8840420Y-10097174D01*
X8840420Y-10097174D02*
X8849944Y-10059079D01*
X8849944Y-10059079D02*
X8859467Y-10040031D01*
X8859467Y-10040031D02*
X8868991Y-10030508D01*
X8868991Y-10030508D02*
X8888039Y-10020984D01*
X9040420Y-10220984D02*
X9040420Y-10087650D01*
X9040420Y-10106698D02*
X9049944Y-10097174D01*
X9049944Y-10097174D02*
X9068991Y-10087650D01*
X9068991Y-10087650D02*
X9097563Y-10087650D01*
X9097563Y-10087650D02*
X9116610Y-10097174D01*
X9116610Y-10097174D02*
X9126134Y-10116222D01*
X9126134Y-10116222D02*
X9126134Y-10220984D01*
X9126134Y-10116222D02*
X9135658Y-10097174D01*
X9135658Y-10097174D02*
X9154705Y-10087650D01*
X9154705Y-10087650D02*
X9183277Y-10087650D01*
X9183277Y-10087650D02*
X9202325Y-10097174D01*
X9202325Y-10097174D02*
X9211848Y-10116222D01*
X9211848Y-10116222D02*
X9211848Y-10220984D01*
X9307086Y-10220984D02*
X9307086Y-10087650D01*
X9307086Y-10106698D02*
X9316610Y-10097174D01*
X9316610Y-10097174D02*
X9335658Y-10087650D01*
X9335658Y-10087650D02*
X9364229Y-10087650D01*
X9364229Y-10087650D02*
X9383277Y-10097174D01*
X9383277Y-10097174D02*
X9392801Y-10116222D01*
X9392801Y-10116222D02*
X9392801Y-10220984D01*
X9392801Y-10116222D02*
X9402325Y-10097174D01*
X9402325Y-10097174D02*
X9421372Y-10087650D01*
X9421372Y-10087650D02*
X9449944Y-10087650D01*
X9449944Y-10087650D02*
X9468991Y-10097174D01*
X9468991Y-10097174D02*
X9478515Y-10116222D01*
X9478515Y-10116222D02*
X9478515Y-10220984D01*
X9868991Y-10011460D02*
X9697563Y-10268603D01*
X10126134Y-10020984D02*
X10145182Y-10020984D01*
X10145182Y-10020984D02*
X10164229Y-10030508D01*
X10164229Y-10030508D02*
X10173753Y-10040031D01*
X10173753Y-10040031D02*
X10183277Y-10059079D01*
X10183277Y-10059079D02*
X10192801Y-10097174D01*
X10192801Y-10097174D02*
X10192801Y-10144793D01*
X10192801Y-10144793D02*
X10183277Y-10182889D01*
X10183277Y-10182889D02*
X10173753Y-10201936D01*
X10173753Y-10201936D02*
X10164229Y-10211460D01*
X10164229Y-10211460D02*
X10145182Y-10220984D01*
X10145182Y-10220984D02*
X10126134Y-10220984D01*
X10126134Y-10220984D02*
X10107087Y-10211460D01*
X10107087Y-10211460D02*
X10097563Y-10201936D01*
X10097563Y-10201936D02*
X10088039Y-10182889D01*
X10088039Y-10182889D02*
X10078515Y-10144793D01*
X10078515Y-10144793D02*
X10078515Y-10097174D01*
X10078515Y-10097174D02*
X10088039Y-10059079D01*
X10088039Y-10059079D02*
X10097563Y-10040031D01*
X10097563Y-10040031D02*
X10107087Y-10030508D01*
X10107087Y-10030508D02*
X10126134Y-10020984D01*
X10278515Y-10201936D02*
X10288039Y-10211460D01*
X10288039Y-10211460D02*
X10278515Y-10220984D01*
X10278515Y-10220984D02*
X10268991Y-10211460D01*
X10268991Y-10211460D02*
X10278515Y-10201936D01*
X10278515Y-10201936D02*
X10278515Y-10220984D01*
X10411848Y-10020984D02*
X10430896Y-10020984D01*
X10430896Y-10020984D02*
X10449944Y-10030508D01*
X10449944Y-10030508D02*
X10459468Y-10040031D01*
X10459468Y-10040031D02*
X10468991Y-10059079D01*
X10468991Y-10059079D02*
X10478515Y-10097174D01*
X10478515Y-10097174D02*
X10478515Y-10144793D01*
X10478515Y-10144793D02*
X10468991Y-10182889D01*
X10468991Y-10182889D02*
X10459468Y-10201936D01*
X10459468Y-10201936D02*
X10449944Y-10211460D01*
X10449944Y-10211460D02*
X10430896Y-10220984D01*
X10430896Y-10220984D02*
X10411848Y-10220984D01*
X10411848Y-10220984D02*
X10392801Y-10211460D01*
X10392801Y-10211460D02*
X10383277Y-10201936D01*
X10383277Y-10201936D02*
X10373753Y-10182889D01*
X10373753Y-10182889D02*
X10364229Y-10144793D01*
X10364229Y-10144793D02*
X10364229Y-10097174D01*
X10364229Y-10097174D02*
X10373753Y-10059079D01*
X10373753Y-10059079D02*
X10383277Y-10040031D01*
X10383277Y-10040031D02*
X10392801Y-10030508D01*
X10392801Y-10030508D02*
X10411848Y-10020984D01*
X10545182Y-10020984D02*
X10668991Y-10020984D01*
X10668991Y-10020984D02*
X10602325Y-10097174D01*
X10602325Y-10097174D02*
X10630896Y-10097174D01*
X10630896Y-10097174D02*
X10649944Y-10106698D01*
X10649944Y-10106698D02*
X10659468Y-10116222D01*
X10659468Y-10116222D02*
X10668991Y-10135270D01*
X10668991Y-10135270D02*
X10668991Y-10182889D01*
X10668991Y-10182889D02*
X10659468Y-10201936D01*
X10659468Y-10201936D02*
X10649944Y-10211460D01*
X10649944Y-10211460D02*
X10630896Y-10220984D01*
X10630896Y-10220984D02*
X10573753Y-10220984D01*
X10573753Y-10220984D02*
X10554706Y-10211460D01*
X10554706Y-10211460D02*
X10545182Y-10201936D01*
X10764229Y-10220984D02*
X10802325Y-10220984D01*
X10802325Y-10220984D02*
X10821372Y-10211460D01*
X10821372Y-10211460D02*
X10830896Y-10201936D01*
X10830896Y-10201936D02*
X10849944Y-10173365D01*
X10849944Y-10173365D02*
X10859468Y-10135270D01*
X10859468Y-10135270D02*
X10859468Y-10059079D01*
X10859468Y-10059079D02*
X10849944Y-10040031D01*
X10849944Y-10040031D02*
X10840420Y-10030508D01*
X10840420Y-10030508D02*
X10821372Y-10020984D01*
X10821372Y-10020984D02*
X10783277Y-10020984D01*
X10783277Y-10020984D02*
X10764229Y-10030508D01*
X10764229Y-10030508D02*
X10754706Y-10040031D01*
X10754706Y-10040031D02*
X10745182Y-10059079D01*
X10745182Y-10059079D02*
X10745182Y-10106698D01*
X10745182Y-10106698D02*
X10754706Y-10125746D01*
X10754706Y-10125746D02*
X10764229Y-10135270D01*
X10764229Y-10135270D02*
X10783277Y-10144793D01*
X10783277Y-10144793D02*
X10821372Y-10144793D01*
X10821372Y-10144793D02*
X10840420Y-10135270D01*
X10840420Y-10135270D02*
X10849944Y-10125746D01*
X10849944Y-10125746D02*
X10859468Y-10106698D01*
X11030896Y-10087650D02*
X11030896Y-10220984D01*
X10983277Y-10011460D02*
X10935658Y-10154317D01*
X10935658Y-10154317D02*
X11059468Y-10154317D01*
X11126134Y-10020984D02*
X11126134Y-10059079D01*
X11202325Y-10020984D02*
X11202325Y-10059079D01*
X11497563Y-10297174D02*
X11488039Y-10287650D01*
X11488039Y-10287650D02*
X11468991Y-10259079D01*
X11468991Y-10259079D02*
X11459468Y-10240031D01*
X11459468Y-10240031D02*
X11449944Y-10211460D01*
X11449944Y-10211460D02*
X11440420Y-10163841D01*
X11440420Y-10163841D02*
X11440420Y-10125746D01*
X11440420Y-10125746D02*
X11449944Y-10078127D01*
X11449944Y-10078127D02*
X11459468Y-10049555D01*
X11459468Y-10049555D02*
X11468991Y-10030508D01*
X11468991Y-10030508D02*
X11488039Y-10001936D01*
X11488039Y-10001936D02*
X11497563Y-9992412D01*
X11554706Y-10020984D02*
X11678515Y-10020984D01*
X11678515Y-10020984D02*
X11611848Y-10097174D01*
X11611848Y-10097174D02*
X11640420Y-10097174D01*
X11640420Y-10097174D02*
X11659468Y-10106698D01*
X11659468Y-10106698D02*
X11668991Y-10116222D01*
X11668991Y-10116222D02*
X11678515Y-10135270D01*
X11678515Y-10135270D02*
X11678515Y-10182889D01*
X11678515Y-10182889D02*
X11668991Y-10201936D01*
X11668991Y-10201936D02*
X11659468Y-10211460D01*
X11659468Y-10211460D02*
X11640420Y-10220984D01*
X11640420Y-10220984D02*
X11583277Y-10220984D01*
X11583277Y-10220984D02*
X11564229Y-10211460D01*
X11564229Y-10211460D02*
X11554706Y-10201936D01*
X11745182Y-10020984D02*
X11868991Y-10020984D01*
X11868991Y-10020984D02*
X11802325Y-10097174D01*
X11802325Y-10097174D02*
X11830896Y-10097174D01*
X11830896Y-10097174D02*
X11849944Y-10106698D01*
X11849944Y-10106698D02*
X11859468Y-10116222D01*
X11859468Y-10116222D02*
X11868991Y-10135270D01*
X11868991Y-10135270D02*
X11868991Y-10182889D01*
X11868991Y-10182889D02*
X11859468Y-10201936D01*
X11859468Y-10201936D02*
X11849944Y-10211460D01*
X11849944Y-10211460D02*
X11830896Y-10220984D01*
X11830896Y-10220984D02*
X11773753Y-10220984D01*
X11773753Y-10220984D02*
X11754706Y-10211460D01*
X11754706Y-10211460D02*
X11745182Y-10201936D01*
X12107087Y-10220984D02*
X12107087Y-10020984D01*
X12192801Y-10220984D02*
X12192801Y-10116222D01*
X12192801Y-10116222D02*
X12183277Y-10097174D01*
X12183277Y-10097174D02*
X12164230Y-10087650D01*
X12164230Y-10087650D02*
X12135658Y-10087650D01*
X12135658Y-10087650D02*
X12116610Y-10097174D01*
X12116610Y-10097174D02*
X12107087Y-10106698D01*
X12316610Y-10220984D02*
X12297563Y-10211460D01*
X12297563Y-10211460D02*
X12288039Y-10201936D01*
X12288039Y-10201936D02*
X12278515Y-10182889D01*
X12278515Y-10182889D02*
X12278515Y-10125746D01*
X12278515Y-10125746D02*
X12288039Y-10106698D01*
X12288039Y-10106698D02*
X12297563Y-10097174D01*
X12297563Y-10097174D02*
X12316610Y-10087650D01*
X12316610Y-10087650D02*
X12345182Y-10087650D01*
X12345182Y-10087650D02*
X12364230Y-10097174D01*
X12364230Y-10097174D02*
X12373753Y-10106698D01*
X12373753Y-10106698D02*
X12383277Y-10125746D01*
X12383277Y-10125746D02*
X12383277Y-10182889D01*
X12383277Y-10182889D02*
X12373753Y-10201936D01*
X12373753Y-10201936D02*
X12364230Y-10211460D01*
X12364230Y-10211460D02*
X12345182Y-10220984D01*
X12345182Y-10220984D02*
X12316610Y-10220984D01*
X12497563Y-10220984D02*
X12478515Y-10211460D01*
X12478515Y-10211460D02*
X12468991Y-10192412D01*
X12468991Y-10192412D02*
X12468991Y-10020984D01*
X12649944Y-10211460D02*
X12630896Y-10220984D01*
X12630896Y-10220984D02*
X12592801Y-10220984D01*
X12592801Y-10220984D02*
X12573753Y-10211460D01*
X12573753Y-10211460D02*
X12564230Y-10192412D01*
X12564230Y-10192412D02*
X12564230Y-10116222D01*
X12564230Y-10116222D02*
X12573753Y-10097174D01*
X12573753Y-10097174D02*
X12592801Y-10087650D01*
X12592801Y-10087650D02*
X12630896Y-10087650D01*
X12630896Y-10087650D02*
X12649944Y-10097174D01*
X12649944Y-10097174D02*
X12659468Y-10116222D01*
X12659468Y-10116222D02*
X12659468Y-10135270D01*
X12659468Y-10135270D02*
X12564230Y-10154317D01*
X12735658Y-10211460D02*
X12754706Y-10220984D01*
X12754706Y-10220984D02*
X12792801Y-10220984D01*
X12792801Y-10220984D02*
X12811849Y-10211460D01*
X12811849Y-10211460D02*
X12821372Y-10192412D01*
X12821372Y-10192412D02*
X12821372Y-10182889D01*
X12821372Y-10182889D02*
X12811849Y-10163841D01*
X12811849Y-10163841D02*
X12792801Y-10154317D01*
X12792801Y-10154317D02*
X12764230Y-10154317D01*
X12764230Y-10154317D02*
X12745182Y-10144793D01*
X12745182Y-10144793D02*
X12735658Y-10125746D01*
X12735658Y-10125746D02*
X12735658Y-10116222D01*
X12735658Y-10116222D02*
X12745182Y-10097174D01*
X12745182Y-10097174D02*
X12764230Y-10087650D01*
X12764230Y-10087650D02*
X12792801Y-10087650D01*
X12792801Y-10087650D02*
X12811849Y-10097174D01*
X12888039Y-10297174D02*
X12897563Y-10287650D01*
X12897563Y-10287650D02*
X12916611Y-10259079D01*
X12916611Y-10259079D02*
X12926134Y-10240031D01*
X12926134Y-10240031D02*
X12935658Y-10211460D01*
X12935658Y-10211460D02*
X12945182Y-10163841D01*
X12945182Y-10163841D02*
X12945182Y-10125746D01*
X12945182Y-10125746D02*
X12935658Y-10078127D01*
X12935658Y-10078127D02*
X12926134Y-10049555D01*
X12926134Y-10049555D02*
X12916611Y-10030508D01*
X12916611Y-10030508D02*
X12897563Y-10001936D01*
X12897563Y-10001936D02*
X12888039Y-9992412D01*
M02*
