%TF.GenerationSoftware,KiCad,Pcbnew,8.0.3*%
%TF.CreationDate,2024-06-17T15:26:27+02:00*%
%TF.ProjectId,OFMBearBoard1_0_Bruno,4f464d42-6561-4724-926f-617264315f30,1.1*%
%TF.SameCoordinates,Original*%
%TF.FileFunction,Drillmap*%
%TF.FilePolarity,Positive*%
%FSLAX45Y45*%
G04 Gerber Fmt 4.5, Leading zero omitted, Abs format (unit mm)*
G04 Created by KiCad (PCBNEW 8.0.3) date 2024-06-17 15:26:27*
%MOMM*%
%LPD*%
G01*
G04 APERTURE LIST*
%ADD10C,0.050000*%
%ADD11C,0.200000*%
%ADD12C,0.320000*%
G04 APERTURE END LIST*
D10*
X7925000Y-2145000D02*
X12925000Y-2145000D01*
X12925000Y-8695000D01*
X7925000Y-8695000D01*
X7925000Y-2145000D01*
D11*
D12*
X8165000Y-2385000D02*
X8485000Y-2705000D01*
X8485000Y-2385000D02*
X8165000Y-2705000D01*
X8165000Y-8140000D02*
X8485000Y-8460000D01*
X8485000Y-8140000D02*
X8165000Y-8460000D01*
X12365000Y-2385000D02*
X12685000Y-2705000D01*
X12685000Y-2385000D02*
X12365000Y-2705000D01*
X12365000Y-8140000D02*
X12685000Y-8460000D01*
X12685000Y-8140000D02*
X12365000Y-8460000D01*
D11*
X8183277Y-9008984D02*
X8183277Y-8808984D01*
X8183277Y-8808984D02*
X8230896Y-8808984D01*
X8230896Y-8808984D02*
X8259467Y-8818508D01*
X8259467Y-8818508D02*
X8278515Y-8837555D01*
X8278515Y-8837555D02*
X8288039Y-8856603D01*
X8288039Y-8856603D02*
X8297562Y-8894698D01*
X8297562Y-8894698D02*
X8297562Y-8923270D01*
X8297562Y-8923270D02*
X8288039Y-8961365D01*
X8288039Y-8961365D02*
X8278515Y-8980412D01*
X8278515Y-8980412D02*
X8259467Y-8999460D01*
X8259467Y-8999460D02*
X8230896Y-9008984D01*
X8230896Y-9008984D02*
X8183277Y-9008984D01*
X8383277Y-9008984D02*
X8383277Y-8875650D01*
X8383277Y-8913746D02*
X8392801Y-8894698D01*
X8392801Y-8894698D02*
X8402324Y-8885174D01*
X8402324Y-8885174D02*
X8421372Y-8875650D01*
X8421372Y-8875650D02*
X8440420Y-8875650D01*
X8507086Y-9008984D02*
X8507086Y-8875650D01*
X8507086Y-8808984D02*
X8497563Y-8818508D01*
X8497563Y-8818508D02*
X8507086Y-8828031D01*
X8507086Y-8828031D02*
X8516610Y-8818508D01*
X8516610Y-8818508D02*
X8507086Y-8808984D01*
X8507086Y-8808984D02*
X8507086Y-8828031D01*
X8630896Y-9008984D02*
X8611848Y-8999460D01*
X8611848Y-8999460D02*
X8602324Y-8980412D01*
X8602324Y-8980412D02*
X8602324Y-8808984D01*
X8735658Y-9008984D02*
X8716610Y-8999460D01*
X8716610Y-8999460D02*
X8707086Y-8980412D01*
X8707086Y-8980412D02*
X8707086Y-8808984D01*
X8964229Y-9008984D02*
X8964229Y-8808984D01*
X8964229Y-8808984D02*
X9030896Y-8951841D01*
X9030896Y-8951841D02*
X9097563Y-8808984D01*
X9097563Y-8808984D02*
X9097563Y-9008984D01*
X9278515Y-9008984D02*
X9278515Y-8904222D01*
X9278515Y-8904222D02*
X9268991Y-8885174D01*
X9268991Y-8885174D02*
X9249944Y-8875650D01*
X9249944Y-8875650D02*
X9211848Y-8875650D01*
X9211848Y-8875650D02*
X9192801Y-8885174D01*
X9278515Y-8999460D02*
X9259467Y-9008984D01*
X9259467Y-9008984D02*
X9211848Y-9008984D01*
X9211848Y-9008984D02*
X9192801Y-8999460D01*
X9192801Y-8999460D02*
X9183277Y-8980412D01*
X9183277Y-8980412D02*
X9183277Y-8961365D01*
X9183277Y-8961365D02*
X9192801Y-8942317D01*
X9192801Y-8942317D02*
X9211848Y-8932793D01*
X9211848Y-8932793D02*
X9259467Y-8932793D01*
X9259467Y-8932793D02*
X9278515Y-8923270D01*
X9373753Y-8875650D02*
X9373753Y-9075650D01*
X9373753Y-8885174D02*
X9392801Y-8875650D01*
X9392801Y-8875650D02*
X9430896Y-8875650D01*
X9430896Y-8875650D02*
X9449944Y-8885174D01*
X9449944Y-8885174D02*
X9459467Y-8894698D01*
X9459467Y-8894698D02*
X9468991Y-8913746D01*
X9468991Y-8913746D02*
X9468991Y-8970889D01*
X9468991Y-8970889D02*
X9459467Y-8989936D01*
X9459467Y-8989936D02*
X9449944Y-8999460D01*
X9449944Y-8999460D02*
X9430896Y-9008984D01*
X9430896Y-9008984D02*
X9392801Y-9008984D01*
X9392801Y-9008984D02*
X9373753Y-8999460D01*
X9554705Y-8989936D02*
X9564229Y-8999460D01*
X9564229Y-8999460D02*
X9554705Y-9008984D01*
X9554705Y-9008984D02*
X9545182Y-8999460D01*
X9545182Y-8999460D02*
X9554705Y-8989936D01*
X9554705Y-8989936D02*
X9554705Y-9008984D01*
X9554705Y-8885174D02*
X9564229Y-8894698D01*
X9564229Y-8894698D02*
X9554705Y-8904222D01*
X9554705Y-8904222D02*
X9545182Y-8894698D01*
X9545182Y-8894698D02*
X9554705Y-8885174D01*
X9554705Y-8885174D02*
X9554705Y-8904222D01*
X7722500Y-9237500D02*
X7922500Y-9437500D01*
X7922500Y-9237500D02*
X7722500Y-9437500D01*
X8164229Y-9228984D02*
X8288039Y-9228984D01*
X8288039Y-9228984D02*
X8221372Y-9305174D01*
X8221372Y-9305174D02*
X8249943Y-9305174D01*
X8249943Y-9305174D02*
X8268991Y-9314698D01*
X8268991Y-9314698D02*
X8278515Y-9324222D01*
X8278515Y-9324222D02*
X8288039Y-9343270D01*
X8288039Y-9343270D02*
X8288039Y-9390889D01*
X8288039Y-9390889D02*
X8278515Y-9409936D01*
X8278515Y-9409936D02*
X8268991Y-9419460D01*
X8268991Y-9419460D02*
X8249943Y-9428984D01*
X8249943Y-9428984D02*
X8192801Y-9428984D01*
X8192801Y-9428984D02*
X8173753Y-9419460D01*
X8173753Y-9419460D02*
X8164229Y-9409936D01*
X8373753Y-9409936D02*
X8383277Y-9419460D01*
X8383277Y-9419460D02*
X8373753Y-9428984D01*
X8373753Y-9428984D02*
X8364229Y-9419460D01*
X8364229Y-9419460D02*
X8373753Y-9409936D01*
X8373753Y-9409936D02*
X8373753Y-9428984D01*
X8459467Y-9248031D02*
X8468991Y-9238508D01*
X8468991Y-9238508D02*
X8488039Y-9228984D01*
X8488039Y-9228984D02*
X8535658Y-9228984D01*
X8535658Y-9228984D02*
X8554705Y-9238508D01*
X8554705Y-9238508D02*
X8564229Y-9248031D01*
X8564229Y-9248031D02*
X8573753Y-9267079D01*
X8573753Y-9267079D02*
X8573753Y-9286127D01*
X8573753Y-9286127D02*
X8564229Y-9314698D01*
X8564229Y-9314698D02*
X8449944Y-9428984D01*
X8449944Y-9428984D02*
X8573753Y-9428984D01*
X8697563Y-9228984D02*
X8716610Y-9228984D01*
X8716610Y-9228984D02*
X8735658Y-9238508D01*
X8735658Y-9238508D02*
X8745182Y-9248031D01*
X8745182Y-9248031D02*
X8754705Y-9267079D01*
X8754705Y-9267079D02*
X8764229Y-9305174D01*
X8764229Y-9305174D02*
X8764229Y-9352793D01*
X8764229Y-9352793D02*
X8754705Y-9390889D01*
X8754705Y-9390889D02*
X8745182Y-9409936D01*
X8745182Y-9409936D02*
X8735658Y-9419460D01*
X8735658Y-9419460D02*
X8716610Y-9428984D01*
X8716610Y-9428984D02*
X8697563Y-9428984D01*
X8697563Y-9428984D02*
X8678515Y-9419460D01*
X8678515Y-9419460D02*
X8668991Y-9409936D01*
X8668991Y-9409936D02*
X8659467Y-9390889D01*
X8659467Y-9390889D02*
X8649944Y-9352793D01*
X8649944Y-9352793D02*
X8649944Y-9305174D01*
X8649944Y-9305174D02*
X8659467Y-9267079D01*
X8659467Y-9267079D02*
X8668991Y-9248031D01*
X8668991Y-9248031D02*
X8678515Y-9238508D01*
X8678515Y-9238508D02*
X8697563Y-9228984D01*
X8888039Y-9228984D02*
X8907086Y-9228984D01*
X8907086Y-9228984D02*
X8926134Y-9238508D01*
X8926134Y-9238508D02*
X8935658Y-9248031D01*
X8935658Y-9248031D02*
X8945182Y-9267079D01*
X8945182Y-9267079D02*
X8954705Y-9305174D01*
X8954705Y-9305174D02*
X8954705Y-9352793D01*
X8954705Y-9352793D02*
X8945182Y-9390889D01*
X8945182Y-9390889D02*
X8935658Y-9409936D01*
X8935658Y-9409936D02*
X8926134Y-9419460D01*
X8926134Y-9419460D02*
X8907086Y-9428984D01*
X8907086Y-9428984D02*
X8888039Y-9428984D01*
X8888039Y-9428984D02*
X8868991Y-9419460D01*
X8868991Y-9419460D02*
X8859467Y-9409936D01*
X8859467Y-9409936D02*
X8849944Y-9390889D01*
X8849944Y-9390889D02*
X8840420Y-9352793D01*
X8840420Y-9352793D02*
X8840420Y-9305174D01*
X8840420Y-9305174D02*
X8849944Y-9267079D01*
X8849944Y-9267079D02*
X8859467Y-9248031D01*
X8859467Y-9248031D02*
X8868991Y-9238508D01*
X8868991Y-9238508D02*
X8888039Y-9228984D01*
X9040420Y-9428984D02*
X9040420Y-9295650D01*
X9040420Y-9314698D02*
X9049944Y-9305174D01*
X9049944Y-9305174D02*
X9068991Y-9295650D01*
X9068991Y-9295650D02*
X9097563Y-9295650D01*
X9097563Y-9295650D02*
X9116610Y-9305174D01*
X9116610Y-9305174D02*
X9126134Y-9324222D01*
X9126134Y-9324222D02*
X9126134Y-9428984D01*
X9126134Y-9324222D02*
X9135658Y-9305174D01*
X9135658Y-9305174D02*
X9154705Y-9295650D01*
X9154705Y-9295650D02*
X9183277Y-9295650D01*
X9183277Y-9295650D02*
X9202325Y-9305174D01*
X9202325Y-9305174D02*
X9211848Y-9324222D01*
X9211848Y-9324222D02*
X9211848Y-9428984D01*
X9307086Y-9428984D02*
X9307086Y-9295650D01*
X9307086Y-9314698D02*
X9316610Y-9305174D01*
X9316610Y-9305174D02*
X9335658Y-9295650D01*
X9335658Y-9295650D02*
X9364229Y-9295650D01*
X9364229Y-9295650D02*
X9383277Y-9305174D01*
X9383277Y-9305174D02*
X9392801Y-9324222D01*
X9392801Y-9324222D02*
X9392801Y-9428984D01*
X9392801Y-9324222D02*
X9402325Y-9305174D01*
X9402325Y-9305174D02*
X9421372Y-9295650D01*
X9421372Y-9295650D02*
X9449944Y-9295650D01*
X9449944Y-9295650D02*
X9468991Y-9305174D01*
X9468991Y-9305174D02*
X9478515Y-9324222D01*
X9478515Y-9324222D02*
X9478515Y-9428984D01*
X9868991Y-9219460D02*
X9697563Y-9476603D01*
X10126134Y-9228984D02*
X10145182Y-9228984D01*
X10145182Y-9228984D02*
X10164229Y-9238508D01*
X10164229Y-9238508D02*
X10173753Y-9248031D01*
X10173753Y-9248031D02*
X10183277Y-9267079D01*
X10183277Y-9267079D02*
X10192801Y-9305174D01*
X10192801Y-9305174D02*
X10192801Y-9352793D01*
X10192801Y-9352793D02*
X10183277Y-9390889D01*
X10183277Y-9390889D02*
X10173753Y-9409936D01*
X10173753Y-9409936D02*
X10164229Y-9419460D01*
X10164229Y-9419460D02*
X10145182Y-9428984D01*
X10145182Y-9428984D02*
X10126134Y-9428984D01*
X10126134Y-9428984D02*
X10107087Y-9419460D01*
X10107087Y-9419460D02*
X10097563Y-9409936D01*
X10097563Y-9409936D02*
X10088039Y-9390889D01*
X10088039Y-9390889D02*
X10078515Y-9352793D01*
X10078515Y-9352793D02*
X10078515Y-9305174D01*
X10078515Y-9305174D02*
X10088039Y-9267079D01*
X10088039Y-9267079D02*
X10097563Y-9248031D01*
X10097563Y-9248031D02*
X10107087Y-9238508D01*
X10107087Y-9238508D02*
X10126134Y-9228984D01*
X10278515Y-9409936D02*
X10288039Y-9419460D01*
X10288039Y-9419460D02*
X10278515Y-9428984D01*
X10278515Y-9428984D02*
X10268991Y-9419460D01*
X10268991Y-9419460D02*
X10278515Y-9409936D01*
X10278515Y-9409936D02*
X10278515Y-9428984D01*
X10478515Y-9428984D02*
X10364229Y-9428984D01*
X10421372Y-9428984D02*
X10421372Y-9228984D01*
X10421372Y-9228984D02*
X10402325Y-9257555D01*
X10402325Y-9257555D02*
X10383277Y-9276603D01*
X10383277Y-9276603D02*
X10364229Y-9286127D01*
X10554706Y-9248031D02*
X10564229Y-9238508D01*
X10564229Y-9238508D02*
X10583277Y-9228984D01*
X10583277Y-9228984D02*
X10630896Y-9228984D01*
X10630896Y-9228984D02*
X10649944Y-9238508D01*
X10649944Y-9238508D02*
X10659468Y-9248031D01*
X10659468Y-9248031D02*
X10668991Y-9267079D01*
X10668991Y-9267079D02*
X10668991Y-9286127D01*
X10668991Y-9286127D02*
X10659468Y-9314698D01*
X10659468Y-9314698D02*
X10545182Y-9428984D01*
X10545182Y-9428984D02*
X10668991Y-9428984D01*
X10840420Y-9228984D02*
X10802325Y-9228984D01*
X10802325Y-9228984D02*
X10783277Y-9238508D01*
X10783277Y-9238508D02*
X10773753Y-9248031D01*
X10773753Y-9248031D02*
X10754706Y-9276603D01*
X10754706Y-9276603D02*
X10745182Y-9314698D01*
X10745182Y-9314698D02*
X10745182Y-9390889D01*
X10745182Y-9390889D02*
X10754706Y-9409936D01*
X10754706Y-9409936D02*
X10764229Y-9419460D01*
X10764229Y-9419460D02*
X10783277Y-9428984D01*
X10783277Y-9428984D02*
X10821372Y-9428984D01*
X10821372Y-9428984D02*
X10840420Y-9419460D01*
X10840420Y-9419460D02*
X10849944Y-9409936D01*
X10849944Y-9409936D02*
X10859468Y-9390889D01*
X10859468Y-9390889D02*
X10859468Y-9343270D01*
X10859468Y-9343270D02*
X10849944Y-9324222D01*
X10849944Y-9324222D02*
X10840420Y-9314698D01*
X10840420Y-9314698D02*
X10821372Y-9305174D01*
X10821372Y-9305174D02*
X10783277Y-9305174D01*
X10783277Y-9305174D02*
X10764229Y-9314698D01*
X10764229Y-9314698D02*
X10754706Y-9324222D01*
X10754706Y-9324222D02*
X10745182Y-9343270D01*
X10983277Y-9228984D02*
X11002325Y-9228984D01*
X11002325Y-9228984D02*
X11021372Y-9238508D01*
X11021372Y-9238508D02*
X11030896Y-9248031D01*
X11030896Y-9248031D02*
X11040420Y-9267079D01*
X11040420Y-9267079D02*
X11049944Y-9305174D01*
X11049944Y-9305174D02*
X11049944Y-9352793D01*
X11049944Y-9352793D02*
X11040420Y-9390889D01*
X11040420Y-9390889D02*
X11030896Y-9409936D01*
X11030896Y-9409936D02*
X11021372Y-9419460D01*
X11021372Y-9419460D02*
X11002325Y-9428984D01*
X11002325Y-9428984D02*
X10983277Y-9428984D01*
X10983277Y-9428984D02*
X10964229Y-9419460D01*
X10964229Y-9419460D02*
X10954706Y-9409936D01*
X10954706Y-9409936D02*
X10945182Y-9390889D01*
X10945182Y-9390889D02*
X10935658Y-9352793D01*
X10935658Y-9352793D02*
X10935658Y-9305174D01*
X10935658Y-9305174D02*
X10945182Y-9267079D01*
X10945182Y-9267079D02*
X10954706Y-9248031D01*
X10954706Y-9248031D02*
X10964229Y-9238508D01*
X10964229Y-9238508D02*
X10983277Y-9228984D01*
X11126134Y-9228984D02*
X11126134Y-9267079D01*
X11202325Y-9228984D02*
X11202325Y-9267079D01*
X11497563Y-9505174D02*
X11488039Y-9495650D01*
X11488039Y-9495650D02*
X11468991Y-9467079D01*
X11468991Y-9467079D02*
X11459468Y-9448031D01*
X11459468Y-9448031D02*
X11449944Y-9419460D01*
X11449944Y-9419460D02*
X11440420Y-9371841D01*
X11440420Y-9371841D02*
X11440420Y-9333746D01*
X11440420Y-9333746D02*
X11449944Y-9286127D01*
X11449944Y-9286127D02*
X11459468Y-9257555D01*
X11459468Y-9257555D02*
X11468991Y-9238508D01*
X11468991Y-9238508D02*
X11488039Y-9209936D01*
X11488039Y-9209936D02*
X11497563Y-9200412D01*
X11659468Y-9295650D02*
X11659468Y-9428984D01*
X11611848Y-9219460D02*
X11564229Y-9362317D01*
X11564229Y-9362317D02*
X11688039Y-9362317D01*
X11916610Y-9428984D02*
X11916610Y-9228984D01*
X12002325Y-9428984D02*
X12002325Y-9324222D01*
X12002325Y-9324222D02*
X11992801Y-9305174D01*
X11992801Y-9305174D02*
X11973753Y-9295650D01*
X11973753Y-9295650D02*
X11945182Y-9295650D01*
X11945182Y-9295650D02*
X11926134Y-9305174D01*
X11926134Y-9305174D02*
X11916610Y-9314698D01*
X12126134Y-9428984D02*
X12107087Y-9419460D01*
X12107087Y-9419460D02*
X12097563Y-9409936D01*
X12097563Y-9409936D02*
X12088039Y-9390889D01*
X12088039Y-9390889D02*
X12088039Y-9333746D01*
X12088039Y-9333746D02*
X12097563Y-9314698D01*
X12097563Y-9314698D02*
X12107087Y-9305174D01*
X12107087Y-9305174D02*
X12126134Y-9295650D01*
X12126134Y-9295650D02*
X12154706Y-9295650D01*
X12154706Y-9295650D02*
X12173753Y-9305174D01*
X12173753Y-9305174D02*
X12183277Y-9314698D01*
X12183277Y-9314698D02*
X12192801Y-9333746D01*
X12192801Y-9333746D02*
X12192801Y-9390889D01*
X12192801Y-9390889D02*
X12183277Y-9409936D01*
X12183277Y-9409936D02*
X12173753Y-9419460D01*
X12173753Y-9419460D02*
X12154706Y-9428984D01*
X12154706Y-9428984D02*
X12126134Y-9428984D01*
X12307087Y-9428984D02*
X12288039Y-9419460D01*
X12288039Y-9419460D02*
X12278515Y-9400412D01*
X12278515Y-9400412D02*
X12278515Y-9228984D01*
X12459468Y-9419460D02*
X12440420Y-9428984D01*
X12440420Y-9428984D02*
X12402325Y-9428984D01*
X12402325Y-9428984D02*
X12383277Y-9419460D01*
X12383277Y-9419460D02*
X12373753Y-9400412D01*
X12373753Y-9400412D02*
X12373753Y-9324222D01*
X12373753Y-9324222D02*
X12383277Y-9305174D01*
X12383277Y-9305174D02*
X12402325Y-9295650D01*
X12402325Y-9295650D02*
X12440420Y-9295650D01*
X12440420Y-9295650D02*
X12459468Y-9305174D01*
X12459468Y-9305174D02*
X12468991Y-9324222D01*
X12468991Y-9324222D02*
X12468991Y-9343270D01*
X12468991Y-9343270D02*
X12373753Y-9362317D01*
X12545182Y-9419460D02*
X12564230Y-9428984D01*
X12564230Y-9428984D02*
X12602325Y-9428984D01*
X12602325Y-9428984D02*
X12621372Y-9419460D01*
X12621372Y-9419460D02*
X12630896Y-9400412D01*
X12630896Y-9400412D02*
X12630896Y-9390889D01*
X12630896Y-9390889D02*
X12621372Y-9371841D01*
X12621372Y-9371841D02*
X12602325Y-9362317D01*
X12602325Y-9362317D02*
X12573753Y-9362317D01*
X12573753Y-9362317D02*
X12554706Y-9352793D01*
X12554706Y-9352793D02*
X12545182Y-9333746D01*
X12545182Y-9333746D02*
X12545182Y-9324222D01*
X12545182Y-9324222D02*
X12554706Y-9305174D01*
X12554706Y-9305174D02*
X12573753Y-9295650D01*
X12573753Y-9295650D02*
X12602325Y-9295650D01*
X12602325Y-9295650D02*
X12621372Y-9305174D01*
X12697563Y-9505174D02*
X12707087Y-9495650D01*
X12707087Y-9495650D02*
X12726134Y-9467079D01*
X12726134Y-9467079D02*
X12735658Y-9448031D01*
X12735658Y-9448031D02*
X12745182Y-9419460D01*
X12745182Y-9419460D02*
X12754706Y-9371841D01*
X12754706Y-9371841D02*
X12754706Y-9333746D01*
X12754706Y-9333746D02*
X12745182Y-9286127D01*
X12745182Y-9286127D02*
X12735658Y-9257555D01*
X12735658Y-9257555D02*
X12726134Y-9238508D01*
X12726134Y-9238508D02*
X12707087Y-9209936D01*
X12707087Y-9209936D02*
X12697563Y-9200412D01*
X13059468Y-9505174D02*
X13049944Y-9495650D01*
X13049944Y-9495650D02*
X13030896Y-9467079D01*
X13030896Y-9467079D02*
X13021372Y-9448031D01*
X13021372Y-9448031D02*
X13011849Y-9419460D01*
X13011849Y-9419460D02*
X13002325Y-9371841D01*
X13002325Y-9371841D02*
X13002325Y-9333746D01*
X13002325Y-9333746D02*
X13011849Y-9286127D01*
X13011849Y-9286127D02*
X13021372Y-9257555D01*
X13021372Y-9257555D02*
X13030896Y-9238508D01*
X13030896Y-9238508D02*
X13049944Y-9209936D01*
X13049944Y-9209936D02*
X13059468Y-9200412D01*
X13135658Y-9295650D02*
X13135658Y-9428984D01*
X13135658Y-9314698D02*
X13145182Y-9305174D01*
X13145182Y-9305174D02*
X13164230Y-9295650D01*
X13164230Y-9295650D02*
X13192801Y-9295650D01*
X13192801Y-9295650D02*
X13211849Y-9305174D01*
X13211849Y-9305174D02*
X13221372Y-9324222D01*
X13221372Y-9324222D02*
X13221372Y-9428984D01*
X13345182Y-9428984D02*
X13326134Y-9419460D01*
X13326134Y-9419460D02*
X13316611Y-9409936D01*
X13316611Y-9409936D02*
X13307087Y-9390889D01*
X13307087Y-9390889D02*
X13307087Y-9333746D01*
X13307087Y-9333746D02*
X13316611Y-9314698D01*
X13316611Y-9314698D02*
X13326134Y-9305174D01*
X13326134Y-9305174D02*
X13345182Y-9295650D01*
X13345182Y-9295650D02*
X13373753Y-9295650D01*
X13373753Y-9295650D02*
X13392801Y-9305174D01*
X13392801Y-9305174D02*
X13402325Y-9314698D01*
X13402325Y-9314698D02*
X13411849Y-9333746D01*
X13411849Y-9333746D02*
X13411849Y-9390889D01*
X13411849Y-9390889D02*
X13402325Y-9409936D01*
X13402325Y-9409936D02*
X13392801Y-9419460D01*
X13392801Y-9419460D02*
X13373753Y-9428984D01*
X13373753Y-9428984D02*
X13345182Y-9428984D01*
X13468992Y-9295650D02*
X13545182Y-9295650D01*
X13497563Y-9228984D02*
X13497563Y-9400412D01*
X13497563Y-9400412D02*
X13507087Y-9419460D01*
X13507087Y-9419460D02*
X13526134Y-9428984D01*
X13526134Y-9428984D02*
X13545182Y-9428984D01*
X13764230Y-9295650D02*
X13764230Y-9495650D01*
X13764230Y-9305174D02*
X13783277Y-9295650D01*
X13783277Y-9295650D02*
X13821373Y-9295650D01*
X13821373Y-9295650D02*
X13840420Y-9305174D01*
X13840420Y-9305174D02*
X13849944Y-9314698D01*
X13849944Y-9314698D02*
X13859468Y-9333746D01*
X13859468Y-9333746D02*
X13859468Y-9390889D01*
X13859468Y-9390889D02*
X13849944Y-9409936D01*
X13849944Y-9409936D02*
X13840420Y-9419460D01*
X13840420Y-9419460D02*
X13821373Y-9428984D01*
X13821373Y-9428984D02*
X13783277Y-9428984D01*
X13783277Y-9428984D02*
X13764230Y-9419460D01*
X13973753Y-9428984D02*
X13954706Y-9419460D01*
X13954706Y-9419460D02*
X13945182Y-9400412D01*
X13945182Y-9400412D02*
X13945182Y-9228984D01*
X14135658Y-9428984D02*
X14135658Y-9324222D01*
X14135658Y-9324222D02*
X14126134Y-9305174D01*
X14126134Y-9305174D02*
X14107087Y-9295650D01*
X14107087Y-9295650D02*
X14068992Y-9295650D01*
X14068992Y-9295650D02*
X14049944Y-9305174D01*
X14135658Y-9419460D02*
X14116611Y-9428984D01*
X14116611Y-9428984D02*
X14068992Y-9428984D01*
X14068992Y-9428984D02*
X14049944Y-9419460D01*
X14049944Y-9419460D02*
X14040420Y-9400412D01*
X14040420Y-9400412D02*
X14040420Y-9381365D01*
X14040420Y-9381365D02*
X14049944Y-9362317D01*
X14049944Y-9362317D02*
X14068992Y-9352793D01*
X14068992Y-9352793D02*
X14116611Y-9352793D01*
X14116611Y-9352793D02*
X14135658Y-9343270D01*
X14202325Y-9295650D02*
X14278515Y-9295650D01*
X14230896Y-9228984D02*
X14230896Y-9400412D01*
X14230896Y-9400412D02*
X14240420Y-9419460D01*
X14240420Y-9419460D02*
X14259468Y-9428984D01*
X14259468Y-9428984D02*
X14278515Y-9428984D01*
X14421373Y-9419460D02*
X14402325Y-9428984D01*
X14402325Y-9428984D02*
X14364230Y-9428984D01*
X14364230Y-9428984D02*
X14345182Y-9419460D01*
X14345182Y-9419460D02*
X14335658Y-9400412D01*
X14335658Y-9400412D02*
X14335658Y-9324222D01*
X14335658Y-9324222D02*
X14345182Y-9305174D01*
X14345182Y-9305174D02*
X14364230Y-9295650D01*
X14364230Y-9295650D02*
X14402325Y-9295650D01*
X14402325Y-9295650D02*
X14421373Y-9305174D01*
X14421373Y-9305174D02*
X14430896Y-9324222D01*
X14430896Y-9324222D02*
X14430896Y-9343270D01*
X14430896Y-9343270D02*
X14335658Y-9362317D01*
X14602325Y-9428984D02*
X14602325Y-9228984D01*
X14602325Y-9419460D02*
X14583277Y-9428984D01*
X14583277Y-9428984D02*
X14545182Y-9428984D01*
X14545182Y-9428984D02*
X14526134Y-9419460D01*
X14526134Y-9419460D02*
X14516611Y-9409936D01*
X14516611Y-9409936D02*
X14507087Y-9390889D01*
X14507087Y-9390889D02*
X14507087Y-9333746D01*
X14507087Y-9333746D02*
X14516611Y-9314698D01*
X14516611Y-9314698D02*
X14526134Y-9305174D01*
X14526134Y-9305174D02*
X14545182Y-9295650D01*
X14545182Y-9295650D02*
X14583277Y-9295650D01*
X14583277Y-9295650D02*
X14602325Y-9305174D01*
X14678515Y-9505174D02*
X14688039Y-9495650D01*
X14688039Y-9495650D02*
X14707087Y-9467079D01*
X14707087Y-9467079D02*
X14716611Y-9448031D01*
X14716611Y-9448031D02*
X14726134Y-9419460D01*
X14726134Y-9419460D02*
X14735658Y-9371841D01*
X14735658Y-9371841D02*
X14735658Y-9333746D01*
X14735658Y-9333746D02*
X14726134Y-9286127D01*
X14726134Y-9286127D02*
X14716611Y-9257555D01*
X14716611Y-9257555D02*
X14707087Y-9238508D01*
X14707087Y-9238508D02*
X14688039Y-9209936D01*
X14688039Y-9209936D02*
X14678515Y-9200412D01*
M02*
