%TF.GenerationSoftware,KiCad,Pcbnew,8.0.3*%
%TF.CreationDate,2024-06-17T15:26:31+02:00*%
%TF.ProjectId,OFMBearBoard1_0_Bruno,4f464d42-6561-4724-926f-617264315f30,1.1*%
%TF.SameCoordinates,Original*%
%TF.FileFunction,Copper,L2,Bot*%
%TF.FilePolarity,Positive*%
%FSLAX46Y46*%
G04 Gerber Fmt 4.6, Leading zero omitted, Abs format (unit mm)*
G04 Created by KiCad (PCBNEW 8.0.3) date 2024-06-17 15:26:31*
%MOMM*%
%LPD*%
G01*
G04 APERTURE LIST*
G04 Aperture macros list*
%AMRoundRect*
0 Rectangle with rounded corners*
0 $1 Rounding radius*
0 $2 $3 $4 $5 $6 $7 $8 $9 X,Y pos of 4 corners*
0 Add a 4 corners polygon primitive as box body*
4,1,4,$2,$3,$4,$5,$6,$7,$8,$9,$2,$3,0*
0 Add four circle primitives for the rounded corners*
1,1,$1+$1,$2,$3*
1,1,$1+$1,$4,$5*
1,1,$1+$1,$6,$7*
1,1,$1+$1,$8,$9*
0 Add four rect primitives between the rounded corners*
20,1,$1+$1,$2,$3,$4,$5,0*
20,1,$1+$1,$4,$5,$6,$7,0*
20,1,$1+$1,$6,$7,$8,$9,0*
20,1,$1+$1,$8,$9,$2,$3,0*%
G04 Aperture macros list end*
%TA.AperFunction,ComponentPad*%
%ADD10R,1.600000X1.600000*%
%TD*%
%TA.AperFunction,ComponentPad*%
%ADD11O,1.600000X1.600000*%
%TD*%
%TA.AperFunction,ComponentPad*%
%ADD12RoundRect,0.250000X-0.725000X0.600000X-0.725000X-0.600000X0.725000X-0.600000X0.725000X0.600000X0*%
%TD*%
%TA.AperFunction,ComponentPad*%
%ADD13O,1.950000X1.700000*%
%TD*%
%TA.AperFunction,ComponentPad*%
%ADD14C,1.600000*%
%TD*%
%TA.AperFunction,ComponentPad*%
%ADD15RoundRect,0.250000X0.350000X0.625000X-0.350000X0.625000X-0.350000X-0.625000X0.350000X-0.625000X0*%
%TD*%
%TA.AperFunction,ComponentPad*%
%ADD16O,1.200000X1.750000*%
%TD*%
%TA.AperFunction,ComponentPad*%
%ADD17R,1.700000X1.700000*%
%TD*%
%TA.AperFunction,ComponentPad*%
%ADD18O,1.700000X1.700000*%
%TD*%
G04 APERTURE END LIST*
D10*
%TO.P,U2,1,I1*%
%TO.N,/D06*%
X109880000Y-52580000D03*
D11*
%TO.P,U2,2,I2*%
%TO.N,/D05*%
X109880000Y-55120000D03*
%TO.P,U2,3,I3*%
%TO.N,/D04*%
X109880000Y-57660000D03*
%TO.P,U2,4,I4*%
%TO.N,/D03*%
X109880000Y-60200000D03*
%TO.P,U2,5,I5*%
%TO.N,/D02*%
X109880000Y-62740000D03*
%TO.P,U2,6,I6*%
%TO.N,/A00*%
X109880000Y-65280000D03*
%TO.P,U2,7,I7*%
%TO.N,unconnected-(U2-I7-Pad7)*%
X109880000Y-67820000D03*
%TO.P,U2,8,GND*%
%TO.N,GND*%
X109880000Y-70360000D03*
%TO.P,U2,9,COM*%
%TO.N,+5V*%
X117500000Y-70360000D03*
%TO.P,U2,10,O7*%
%TO.N,unconnected-(U2-O7-Pad10)*%
X117500000Y-67820000D03*
%TO.P,U2,11,O6*%
%TO.N,Net-(JP1-B)*%
X117500000Y-65280000D03*
%TO.P,U2,12,O5*%
%TO.N,/ZM4*%
X117500000Y-62740000D03*
%TO.P,U2,13,O4*%
%TO.N,/ZM3*%
X117500000Y-60200000D03*
%TO.P,U2,14,O3*%
%TO.N,/ZM2*%
X117500000Y-57660000D03*
%TO.P,U2,15,O2*%
%TO.N,/ZM1*%
X117500000Y-55120000D03*
%TO.P,U2,16,O1*%
%TO.N,/YM4*%
X117500000Y-52580000D03*
%TD*%
D12*
%TO.P,J2,1,Pin_1*%
%TO.N,/YM1*%
X124500000Y-49500000D03*
D13*
%TO.P,J2,2,Pin_2*%
%TO.N,/YM2*%
X124500000Y-52000000D03*
%TO.P,J2,3,Pin_3*%
%TO.N,/YM3*%
X124500000Y-54500000D03*
%TO.P,J2,4,Pin_4*%
%TO.N,/YM4*%
X124500000Y-57000000D03*
%TO.P,J2,5,Pin_5*%
%TO.N,+5V*%
X124500000Y-59500000D03*
%TD*%
D10*
%TO.P,U1,1,I1*%
%TO.N,/D13*%
X110380000Y-26420000D03*
D11*
%TO.P,U1,2,I2*%
%TO.N,/D12*%
X110380000Y-28960000D03*
%TO.P,U1,3,I3*%
%TO.N,/D11*%
X110380000Y-31500000D03*
%TO.P,U1,4,I4*%
%TO.N,/D10*%
X110380000Y-34040000D03*
%TO.P,U1,5,I5*%
%TO.N,/D09*%
X110380000Y-36580000D03*
%TO.P,U1,6,I6*%
%TO.N,/D08*%
X110380000Y-39120000D03*
%TO.P,U1,7,I7*%
%TO.N,/D07*%
X110380000Y-41660000D03*
%TO.P,U1,8,GND*%
%TO.N,GND*%
X110380000Y-44200000D03*
%TO.P,U1,9,COM*%
%TO.N,+5V*%
X118000000Y-44200000D03*
%TO.P,U1,10,O7*%
%TO.N,/YM3*%
X118000000Y-41660000D03*
%TO.P,U1,11,O6*%
%TO.N,/YM2*%
X118000000Y-39120000D03*
%TO.P,U1,12,O5*%
%TO.N,/YM1*%
X118000000Y-36580000D03*
%TO.P,U1,13,O4*%
%TO.N,/XM4*%
X118000000Y-34040000D03*
%TO.P,U1,14,O3*%
%TO.N,/XM3*%
X118000000Y-31500000D03*
%TO.P,U1,15,O2*%
%TO.N,/XM2*%
X118000000Y-28960000D03*
%TO.P,U1,16,O1*%
%TO.N,/XM1*%
X118000000Y-26420000D03*
%TD*%
D14*
%TO.P,C1,1*%
%TO.N,GND*%
X112000000Y-48960000D03*
%TO.P,C1,2*%
%TO.N,+5V*%
X114500000Y-48960000D03*
%TD*%
%TO.P,C2,1*%
%TO.N,GND*%
X112250000Y-74660000D03*
%TO.P,C2,2*%
%TO.N,+5V*%
X114750000Y-74660000D03*
%TD*%
D15*
%TO.P,J4,1,Pin_1*%
%TO.N,+5V*%
X117500000Y-82000000D03*
D16*
%TO.P,J4,2,Pin_2*%
%TO.N,Net-(J4-Pin_2)*%
X115500000Y-82000000D03*
%TD*%
D17*
%TO.P,JP1,1,A*%
%TO.N,GND*%
X91475000Y-81000000D03*
D18*
%TO.P,JP1,2,C*%
%TO.N,Net-(J4-Pin_2)*%
X94015000Y-81000000D03*
%TO.P,JP1,3,B*%
%TO.N,Net-(JP1-B)*%
X96555000Y-81000000D03*
%TD*%
D12*
%TO.P,J1,1,Pin_1*%
%TO.N,/XM1*%
X124500000Y-32500000D03*
D13*
%TO.P,J1,2,Pin_2*%
%TO.N,/XM2*%
X124500000Y-35000000D03*
%TO.P,J1,3,Pin_3*%
%TO.N,/XM3*%
X124500000Y-37500000D03*
%TO.P,J1,4,Pin_4*%
%TO.N,/XM4*%
X124500000Y-40000000D03*
%TO.P,J1,5,Pin_5*%
%TO.N,+5V*%
X124500000Y-42500000D03*
%TD*%
D12*
%TO.P,J3,1,Pin_1*%
%TO.N,/ZM1*%
X124500000Y-66000000D03*
D13*
%TO.P,J3,2,Pin_2*%
%TO.N,/ZM2*%
X124500000Y-68500000D03*
%TO.P,J3,3,Pin_3*%
%TO.N,/ZM3*%
X124500000Y-71000000D03*
%TO.P,J3,4,Pin_4*%
%TO.N,/ZM4*%
X124500000Y-73500000D03*
%TO.P,J3,5,Pin_5*%
%TO.N,+5V*%
X124500000Y-76000000D03*
%TD*%
D15*
%TO.P,J5,1,Pin_1*%
%TO.N,+5V*%
X107000000Y-82000000D03*
D16*
%TO.P,J5,2,Pin_2*%
%TO.N,GND*%
X105000000Y-82000000D03*
%TD*%
D10*
%TO.P,A1,1,D1/TX*%
%TO.N,unconnected-(A1-D1{slash}TX-Pad1)*%
X104610000Y-74550000D03*
D11*
%TO.P,A1,2,D0/RX*%
%TO.N,unconnected-(A1-D0{slash}RX-Pad2)*%
X104610000Y-72010000D03*
%TO.P,A1,3,~{RESET}*%
%TO.N,unconnected-(A1-~{RESET}-Pad3)*%
X104610000Y-69470000D03*
%TO.P,A1,4,GND*%
%TO.N,GND*%
X104610000Y-66930000D03*
%TO.P,A1,5,D2*%
%TO.N,/D02*%
X104610000Y-64390000D03*
%TO.P,A1,6,D3*%
%TO.N,/D03*%
X104610000Y-61850000D03*
%TO.P,A1,7,D4*%
%TO.N,/D04*%
X104610000Y-59310000D03*
%TO.P,A1,8,D5*%
%TO.N,/D05*%
X104610000Y-56770000D03*
%TO.P,A1,9,D6*%
%TO.N,/D06*%
X104610000Y-54230000D03*
%TO.P,A1,10,D7*%
%TO.N,/D07*%
X104610000Y-51690000D03*
%TO.P,A1,11,D8*%
%TO.N,/D08*%
X104610000Y-49150000D03*
%TO.P,A1,12,D9*%
%TO.N,/D09*%
X104610000Y-46610000D03*
%TO.P,A1,13,D10*%
%TO.N,/D10*%
X104610000Y-44070000D03*
%TO.P,A1,14,D11*%
%TO.N,/D11*%
X104610000Y-41530000D03*
%TO.P,A1,15,D12*%
%TO.N,/D12*%
X104610000Y-38990000D03*
%TO.P,A1,16,D13*%
%TO.N,/D13*%
X89370000Y-38990000D03*
%TO.P,A1,17,3V3*%
%TO.N,unconnected-(A1-3V3-Pad17)*%
X89370000Y-41530000D03*
%TO.P,A1,18,AREF*%
%TO.N,unconnected-(A1-AREF-Pad18)*%
X89370000Y-44070000D03*
%TO.P,A1,19,A0*%
%TO.N,/A00*%
X89370000Y-46610000D03*
%TO.P,A1,20,A1*%
%TO.N,unconnected-(A1-A1-Pad20)*%
X89370000Y-49150000D03*
%TO.P,A1,21,A2*%
%TO.N,unconnected-(A1-A2-Pad21)*%
X89370000Y-51690000D03*
%TO.P,A1,22,A3*%
%TO.N,unconnected-(A1-A3-Pad22)*%
X89370000Y-54230000D03*
%TO.P,A1,23,A4*%
%TO.N,unconnected-(A1-A4-Pad23)*%
X89370000Y-56770000D03*
%TO.P,A1,24,A5*%
%TO.N,unconnected-(A1-A5-Pad24)*%
X89370000Y-59310000D03*
%TO.P,A1,25,A6*%
%TO.N,unconnected-(A1-A6-Pad25)*%
X89370000Y-61850000D03*
%TO.P,A1,26,A7*%
%TO.N,unconnected-(A1-A7-Pad26)*%
X89370000Y-64390000D03*
%TO.P,A1,27,+5V*%
%TO.N,unconnected-(A1-+5V-Pad27)*%
X89370000Y-66930000D03*
%TO.P,A1,28,~{RESET}*%
%TO.N,unconnected-(A1-~{RESET}-Pad28)*%
X89370000Y-69470000D03*
%TO.P,A1,29,GND*%
%TO.N,GND*%
X89370000Y-72010000D03*
%TO.P,A1,30,VIN*%
%TO.N,unconnected-(A1-VIN-Pad30)*%
X89370000Y-74550000D03*
%TD*%
%TA.AperFunction,Conductor*%
%TO.N,GND*%
G36*
X128692539Y-21970185D02*
G01*
X128738294Y-22022989D01*
X128749500Y-22074500D01*
X128749500Y-86325500D01*
X128729815Y-86392539D01*
X128677011Y-86438294D01*
X128625500Y-86449500D01*
X79874500Y-86449500D01*
X79807461Y-86429815D01*
X79761706Y-86377011D01*
X79750500Y-86325500D01*
X79750500Y-82878711D01*
X81399500Y-82878711D01*
X81399500Y-83121288D01*
X81431161Y-83361785D01*
X81493947Y-83596104D01*
X81586773Y-83820205D01*
X81586776Y-83820212D01*
X81708064Y-84030289D01*
X81708066Y-84030292D01*
X81708067Y-84030293D01*
X81855733Y-84222736D01*
X81855739Y-84222743D01*
X82027256Y-84394260D01*
X82027262Y-84394265D01*
X82219711Y-84541936D01*
X82429788Y-84663224D01*
X82653900Y-84756054D01*
X82888211Y-84818838D01*
X83068586Y-84842584D01*
X83128711Y-84850500D01*
X83128712Y-84850500D01*
X83371289Y-84850500D01*
X83419388Y-84844167D01*
X83611789Y-84818838D01*
X83846100Y-84756054D01*
X84070212Y-84663224D01*
X84280289Y-84541936D01*
X84472738Y-84394265D01*
X84644265Y-84222738D01*
X84791936Y-84030289D01*
X84913224Y-83820212D01*
X85006054Y-83596100D01*
X85068838Y-83361789D01*
X85100500Y-83121288D01*
X85100500Y-82878712D01*
X85096955Y-82851788D01*
X85092584Y-82818586D01*
X85068838Y-82638211D01*
X85006054Y-82403900D01*
X84913224Y-82179788D01*
X84791936Y-81969711D01*
X84644265Y-81777262D01*
X84644260Y-81777256D01*
X84472743Y-81605739D01*
X84472736Y-81605733D01*
X84280293Y-81458067D01*
X84280292Y-81458066D01*
X84280289Y-81458064D01*
X84070212Y-81336776D01*
X84070205Y-81336773D01*
X83846104Y-81243947D01*
X83728944Y-81212554D01*
X83611789Y-81181162D01*
X83611788Y-81181161D01*
X83611785Y-81181161D01*
X83371289Y-81149500D01*
X83371288Y-81149500D01*
X83128712Y-81149500D01*
X83128711Y-81149500D01*
X82888214Y-81181161D01*
X82653895Y-81243947D01*
X82429794Y-81336773D01*
X82429785Y-81336777D01*
X82219706Y-81458067D01*
X82027263Y-81605733D01*
X82027256Y-81605739D01*
X81855739Y-81777256D01*
X81855733Y-81777263D01*
X81708067Y-81969706D01*
X81586777Y-82179785D01*
X81586773Y-82179794D01*
X81493947Y-82403895D01*
X81431161Y-82638214D01*
X81399500Y-82878711D01*
X79750500Y-82878711D01*
X79750500Y-80102155D01*
X90125000Y-80102155D01*
X90125000Y-80750000D01*
X91041988Y-80750000D01*
X91009075Y-80807007D01*
X90975000Y-80934174D01*
X90975000Y-81065826D01*
X91009075Y-81192993D01*
X91041988Y-81250000D01*
X90125000Y-81250000D01*
X90125000Y-81897844D01*
X90131401Y-81957372D01*
X90131403Y-81957379D01*
X90181645Y-82092086D01*
X90181649Y-82092093D01*
X90267809Y-82207187D01*
X90267812Y-82207190D01*
X90382906Y-82293350D01*
X90382913Y-82293354D01*
X90517620Y-82343596D01*
X90517627Y-82343598D01*
X90577155Y-82349999D01*
X90577172Y-82350000D01*
X91225000Y-82350000D01*
X91225000Y-81433012D01*
X91282007Y-81465925D01*
X91409174Y-81500000D01*
X91540826Y-81500000D01*
X91667993Y-81465925D01*
X91725000Y-81433012D01*
X91725000Y-82350000D01*
X92372828Y-82350000D01*
X92372844Y-82349999D01*
X92432372Y-82343598D01*
X92432379Y-82343596D01*
X92567086Y-82293354D01*
X92567093Y-82293350D01*
X92682187Y-82207190D01*
X92682190Y-82207187D01*
X92768350Y-82092093D01*
X92768354Y-82092086D01*
X92817422Y-81960529D01*
X92859293Y-81904595D01*
X92924757Y-81880178D01*
X92993030Y-81895030D01*
X93021285Y-81916181D01*
X93143599Y-82038495D01*
X93220135Y-82092086D01*
X93337165Y-82174032D01*
X93337167Y-82174033D01*
X93337170Y-82174035D01*
X93551337Y-82273903D01*
X93779592Y-82335063D01*
X93950319Y-82350000D01*
X94014999Y-82355659D01*
X94015000Y-82355659D01*
X94015001Y-82355659D01*
X94079681Y-82350000D01*
X94250408Y-82335063D01*
X94478663Y-82273903D01*
X94692830Y-82174035D01*
X94886401Y-82038495D01*
X95053495Y-81871401D01*
X95183425Y-81685842D01*
X95238002Y-81642217D01*
X95307500Y-81635023D01*
X95369855Y-81666546D01*
X95386575Y-81685842D01*
X95516500Y-81871395D01*
X95516505Y-81871401D01*
X95683599Y-82038495D01*
X95760135Y-82092086D01*
X95877165Y-82174032D01*
X95877167Y-82174033D01*
X95877170Y-82174035D01*
X96091337Y-82273903D01*
X96319592Y-82335063D01*
X96490319Y-82350000D01*
X96554999Y-82355659D01*
X96555000Y-82355659D01*
X96555001Y-82355659D01*
X96619681Y-82350000D01*
X96790408Y-82335063D01*
X97018663Y-82273903D01*
X97232830Y-82174035D01*
X97426401Y-82038495D01*
X97593495Y-81871401D01*
X97729035Y-81677830D01*
X97747409Y-81638428D01*
X103900000Y-81638428D01*
X103900000Y-81750000D01*
X104719670Y-81750000D01*
X104699925Y-81769745D01*
X104650556Y-81855255D01*
X104625000Y-81950630D01*
X104625000Y-82049370D01*
X104650556Y-82144745D01*
X104699925Y-82230255D01*
X104719670Y-82250000D01*
X103900000Y-82250000D01*
X103900000Y-82361571D01*
X103927085Y-82532584D01*
X103980591Y-82697257D01*
X104059195Y-82851524D01*
X104160967Y-82991602D01*
X104283397Y-83114032D01*
X104423475Y-83215804D01*
X104577744Y-83294408D01*
X104742415Y-83347914D01*
X104742414Y-83347914D01*
X104749999Y-83349115D01*
X104750000Y-83349114D01*
X104750000Y-82280330D01*
X104769745Y-82300075D01*
X104855255Y-82349444D01*
X104950630Y-82375000D01*
X105049370Y-82375000D01*
X105144745Y-82349444D01*
X105230255Y-82300075D01*
X105250000Y-82280330D01*
X105250000Y-83349115D01*
X105257584Y-83347914D01*
X105422255Y-83294408D01*
X105576524Y-83215804D01*
X105716598Y-83114035D01*
X105824199Y-83006434D01*
X105885522Y-82972949D01*
X105955214Y-82977933D01*
X106011148Y-83019804D01*
X106017418Y-83029016D01*
X106030353Y-83049988D01*
X106057285Y-83093652D01*
X106057288Y-83093656D01*
X106181344Y-83217712D01*
X106330666Y-83309814D01*
X106497203Y-83364999D01*
X106599991Y-83375500D01*
X107400008Y-83375499D01*
X107400016Y-83375498D01*
X107400019Y-83375498D01*
X107456302Y-83369748D01*
X107502797Y-83364999D01*
X107669334Y-83309814D01*
X107818656Y-83217712D01*
X107942712Y-83093656D01*
X108034814Y-82944334D01*
X108089999Y-82777797D01*
X108100500Y-82675009D01*
X108100499Y-81638389D01*
X114399500Y-81638389D01*
X114399500Y-82361611D01*
X114426598Y-82532701D01*
X114480127Y-82697445D01*
X114558768Y-82851788D01*
X114660586Y-82991928D01*
X114783072Y-83114414D01*
X114923212Y-83216232D01*
X115077555Y-83294873D01*
X115242299Y-83348402D01*
X115413389Y-83375500D01*
X115413390Y-83375500D01*
X115586610Y-83375500D01*
X115586611Y-83375500D01*
X115757701Y-83348402D01*
X115922445Y-83294873D01*
X116076788Y-83216232D01*
X116216928Y-83114414D01*
X116324472Y-83006869D01*
X116385791Y-82973387D01*
X116455483Y-82978371D01*
X116511417Y-83020242D01*
X116517688Y-83029456D01*
X116557285Y-83093652D01*
X116557287Y-83093655D01*
X116557288Y-83093656D01*
X116681344Y-83217712D01*
X116830666Y-83309814D01*
X116997203Y-83364999D01*
X117099991Y-83375500D01*
X117900008Y-83375499D01*
X117900016Y-83375498D01*
X117900019Y-83375498D01*
X117956302Y-83369748D01*
X118002797Y-83364999D01*
X118169334Y-83309814D01*
X118318656Y-83217712D01*
X118442712Y-83093656D01*
X118534814Y-82944334D01*
X118556559Y-82878711D01*
X123399500Y-82878711D01*
X123399500Y-83121288D01*
X123431161Y-83361785D01*
X123493947Y-83596104D01*
X123586773Y-83820205D01*
X123586776Y-83820212D01*
X123708064Y-84030289D01*
X123708066Y-84030292D01*
X123708067Y-84030293D01*
X123855733Y-84222736D01*
X123855739Y-84222743D01*
X124027256Y-84394260D01*
X124027262Y-84394265D01*
X124219711Y-84541936D01*
X124429788Y-84663224D01*
X124653900Y-84756054D01*
X124888211Y-84818838D01*
X125068586Y-84842584D01*
X125128711Y-84850500D01*
X125128712Y-84850500D01*
X125371289Y-84850500D01*
X125419388Y-84844167D01*
X125611789Y-84818838D01*
X125846100Y-84756054D01*
X126070212Y-84663224D01*
X126280289Y-84541936D01*
X126472738Y-84394265D01*
X126644265Y-84222738D01*
X126791936Y-84030289D01*
X126913224Y-83820212D01*
X127006054Y-83596100D01*
X127068838Y-83361789D01*
X127100500Y-83121288D01*
X127100500Y-82878712D01*
X127096955Y-82851788D01*
X127092584Y-82818586D01*
X127068838Y-82638211D01*
X127006054Y-82403900D01*
X126913224Y-82179788D01*
X126791936Y-81969711D01*
X126644265Y-81777262D01*
X126644260Y-81777256D01*
X126472743Y-81605739D01*
X126472736Y-81605733D01*
X126280293Y-81458067D01*
X126280292Y-81458066D01*
X126280289Y-81458064D01*
X126070212Y-81336776D01*
X126070205Y-81336773D01*
X125846104Y-81243947D01*
X125728944Y-81212554D01*
X125611789Y-81181162D01*
X125611788Y-81181161D01*
X125611785Y-81181161D01*
X125371289Y-81149500D01*
X125371288Y-81149500D01*
X125128712Y-81149500D01*
X125128711Y-81149500D01*
X124888214Y-81181161D01*
X124653895Y-81243947D01*
X124429794Y-81336773D01*
X124429785Y-81336777D01*
X124219706Y-81458067D01*
X124027263Y-81605733D01*
X124027256Y-81605739D01*
X123855739Y-81777256D01*
X123855733Y-81777263D01*
X123708067Y-81969706D01*
X123586777Y-82179785D01*
X123586773Y-82179794D01*
X123493947Y-82403895D01*
X123431161Y-82638214D01*
X123399500Y-82878711D01*
X118556559Y-82878711D01*
X118589999Y-82777797D01*
X118600500Y-82675009D01*
X118600499Y-81324992D01*
X118592838Y-81250000D01*
X118589999Y-81222203D01*
X118589998Y-81222200D01*
X118576399Y-81181161D01*
X118534814Y-81055666D01*
X118442712Y-80906344D01*
X118318656Y-80782288D01*
X118193559Y-80705128D01*
X118169336Y-80690187D01*
X118169331Y-80690185D01*
X118167862Y-80689698D01*
X118002797Y-80635001D01*
X118002795Y-80635000D01*
X117900010Y-80624500D01*
X117099998Y-80624500D01*
X117099980Y-80624501D01*
X116997203Y-80635000D01*
X116997200Y-80635001D01*
X116830668Y-80690185D01*
X116830663Y-80690187D01*
X116681342Y-80782289D01*
X116557287Y-80906344D01*
X116517688Y-80970544D01*
X116465739Y-81017268D01*
X116396777Y-81028489D01*
X116332695Y-81000645D01*
X116324469Y-80993127D01*
X116216930Y-80885588D01*
X116216928Y-80885586D01*
X116076788Y-80783768D01*
X115922445Y-80705127D01*
X115757701Y-80651598D01*
X115757699Y-80651597D01*
X115757698Y-80651597D01*
X115626271Y-80630781D01*
X115586611Y-80624500D01*
X115413389Y-80624500D01*
X115373728Y-80630781D01*
X115242302Y-80651597D01*
X115077552Y-80705128D01*
X114923211Y-80783768D01*
X114891226Y-80807007D01*
X114783072Y-80885586D01*
X114783070Y-80885588D01*
X114783069Y-80885588D01*
X114660588Y-81008069D01*
X114660588Y-81008070D01*
X114660586Y-81008072D01*
X114626009Y-81055663D01*
X114558768Y-81148211D01*
X114480128Y-81302552D01*
X114426597Y-81467302D01*
X114404672Y-81605733D01*
X114399500Y-81638389D01*
X108100499Y-81638389D01*
X108100499Y-81324992D01*
X108092838Y-81250000D01*
X108089999Y-81222203D01*
X108089998Y-81222200D01*
X108076399Y-81181161D01*
X108034814Y-81055666D01*
X107942712Y-80906344D01*
X107818656Y-80782288D01*
X107693559Y-80705128D01*
X107669336Y-80690187D01*
X107669331Y-80690185D01*
X107667862Y-80689698D01*
X107502797Y-80635001D01*
X107502795Y-80635000D01*
X107400010Y-80624500D01*
X106599998Y-80624500D01*
X106599980Y-80624501D01*
X106497203Y-80635000D01*
X106497200Y-80635001D01*
X106330668Y-80690185D01*
X106330663Y-80690187D01*
X106181342Y-80782289D01*
X106057289Y-80906342D01*
X106057288Y-80906344D01*
X106017690Y-80970544D01*
X106017420Y-80970981D01*
X105965472Y-81017705D01*
X105896509Y-81028928D01*
X105832427Y-81001084D01*
X105824200Y-80993565D01*
X105716602Y-80885967D01*
X105576524Y-80784195D01*
X105422257Y-80705591D01*
X105257589Y-80652087D01*
X105257581Y-80652085D01*
X105250000Y-80650884D01*
X105250000Y-81719670D01*
X105230255Y-81699925D01*
X105144745Y-81650556D01*
X105049370Y-81625000D01*
X104950630Y-81625000D01*
X104855255Y-81650556D01*
X104769745Y-81699925D01*
X104750000Y-81719670D01*
X104750000Y-80650884D01*
X104749999Y-80650884D01*
X104742418Y-80652085D01*
X104742410Y-80652087D01*
X104577742Y-80705591D01*
X104423475Y-80784195D01*
X104283397Y-80885967D01*
X104160967Y-81008397D01*
X104059195Y-81148475D01*
X103980591Y-81302742D01*
X103927085Y-81467415D01*
X103900000Y-81638428D01*
X97747409Y-81638428D01*
X97828903Y-81463663D01*
X97890063Y-81235408D01*
X97910659Y-81000000D01*
X97890063Y-80764592D01*
X97828903Y-80536337D01*
X97729035Y-80322171D01*
X97723425Y-80314158D01*
X97593494Y-80128597D01*
X97426402Y-79961506D01*
X97426395Y-79961501D01*
X97232834Y-79825967D01*
X97232830Y-79825965D01*
X97161727Y-79792809D01*
X97018663Y-79726097D01*
X97018659Y-79726096D01*
X97018655Y-79726094D01*
X96790413Y-79664938D01*
X96790403Y-79664936D01*
X96555001Y-79644341D01*
X96554999Y-79644341D01*
X96319596Y-79664936D01*
X96319586Y-79664938D01*
X96091344Y-79726094D01*
X96091335Y-79726098D01*
X95877171Y-79825964D01*
X95877169Y-79825965D01*
X95683597Y-79961505D01*
X95516505Y-80128597D01*
X95386575Y-80314158D01*
X95331998Y-80357783D01*
X95262500Y-80364977D01*
X95200145Y-80333454D01*
X95183425Y-80314158D01*
X95053494Y-80128597D01*
X94886402Y-79961506D01*
X94886395Y-79961501D01*
X94692834Y-79825967D01*
X94692830Y-79825965D01*
X94621727Y-79792809D01*
X94478663Y-79726097D01*
X94478659Y-79726096D01*
X94478655Y-79726094D01*
X94250413Y-79664938D01*
X94250403Y-79664936D01*
X94015001Y-79644341D01*
X94014999Y-79644341D01*
X93779596Y-79664936D01*
X93779586Y-79664938D01*
X93551344Y-79726094D01*
X93551335Y-79726098D01*
X93337171Y-79825964D01*
X93337169Y-79825965D01*
X93143600Y-79961503D01*
X93021284Y-80083819D01*
X92959961Y-80117303D01*
X92890269Y-80112319D01*
X92834336Y-80070447D01*
X92817421Y-80039470D01*
X92768354Y-79907913D01*
X92768350Y-79907906D01*
X92682190Y-79792812D01*
X92682187Y-79792809D01*
X92567093Y-79706649D01*
X92567086Y-79706645D01*
X92432379Y-79656403D01*
X92432372Y-79656401D01*
X92372844Y-79650000D01*
X91725000Y-79650000D01*
X91725000Y-80566988D01*
X91667993Y-80534075D01*
X91540826Y-80500000D01*
X91409174Y-80500000D01*
X91282007Y-80534075D01*
X91225000Y-80566988D01*
X91225000Y-79650000D01*
X90577155Y-79650000D01*
X90517627Y-79656401D01*
X90517620Y-79656403D01*
X90382913Y-79706645D01*
X90382906Y-79706649D01*
X90267812Y-79792809D01*
X90267809Y-79792812D01*
X90181649Y-79907906D01*
X90181645Y-79907913D01*
X90131403Y-80042620D01*
X90131401Y-80042627D01*
X90125000Y-80102155D01*
X79750500Y-80102155D01*
X79750500Y-38989998D01*
X88064532Y-38989998D01*
X88064532Y-38990001D01*
X88084364Y-39216686D01*
X88084366Y-39216697D01*
X88143258Y-39436488D01*
X88143261Y-39436497D01*
X88239431Y-39642732D01*
X88239432Y-39642734D01*
X88369954Y-39829141D01*
X88530858Y-39990045D01*
X88530861Y-39990047D01*
X88717266Y-40120568D01*
X88775275Y-40147618D01*
X88827714Y-40193791D01*
X88846866Y-40260984D01*
X88826650Y-40327865D01*
X88775275Y-40372382D01*
X88717267Y-40399431D01*
X88717265Y-40399432D01*
X88530858Y-40529954D01*
X88369954Y-40690858D01*
X88239432Y-40877265D01*
X88239431Y-40877267D01*
X88143261Y-41083502D01*
X88143258Y-41083511D01*
X88084366Y-41303302D01*
X88084364Y-41303313D01*
X88064532Y-41529998D01*
X88064532Y-41530001D01*
X88084364Y-41756686D01*
X88084366Y-41756697D01*
X88143258Y-41976488D01*
X88143261Y-41976497D01*
X88239431Y-42182732D01*
X88239432Y-42182734D01*
X88369954Y-42369141D01*
X88530858Y-42530045D01*
X88530861Y-42530047D01*
X88717266Y-42660568D01*
X88775275Y-42687618D01*
X88827714Y-42733791D01*
X88846866Y-42800984D01*
X88826650Y-42867865D01*
X88775275Y-42912382D01*
X88717267Y-42939431D01*
X88717265Y-42939432D01*
X88530858Y-43069954D01*
X88369954Y-43230858D01*
X88239432Y-43417265D01*
X88239431Y-43417267D01*
X88143261Y-43623502D01*
X88143258Y-43623511D01*
X88084366Y-43843302D01*
X88084364Y-43843313D01*
X88064532Y-44069998D01*
X88064532Y-44070001D01*
X88084364Y-44296686D01*
X88084366Y-44296697D01*
X88143258Y-44516488D01*
X88143261Y-44516497D01*
X88239431Y-44722732D01*
X88239432Y-44722734D01*
X88369954Y-44909141D01*
X88530858Y-45070045D01*
X88530861Y-45070047D01*
X88717266Y-45200568D01*
X88775275Y-45227618D01*
X88827714Y-45273791D01*
X88846866Y-45340984D01*
X88826650Y-45407865D01*
X88775275Y-45452382D01*
X88717267Y-45479431D01*
X88717265Y-45479432D01*
X88530858Y-45609954D01*
X88369954Y-45770858D01*
X88239432Y-45957265D01*
X88239431Y-45957267D01*
X88143261Y-46163502D01*
X88143258Y-46163511D01*
X88084366Y-46383302D01*
X88084364Y-46383313D01*
X88064532Y-46609998D01*
X88064532Y-46610001D01*
X88084364Y-46836686D01*
X88084366Y-46836697D01*
X88143258Y-47056488D01*
X88143261Y-47056497D01*
X88239431Y-47262732D01*
X88239432Y-47262734D01*
X88369954Y-47449141D01*
X88530858Y-47610045D01*
X88530861Y-47610047D01*
X88717266Y-47740568D01*
X88775275Y-47767618D01*
X88827714Y-47813791D01*
X88846866Y-47880984D01*
X88826650Y-47947865D01*
X88775275Y-47992382D01*
X88717267Y-48019431D01*
X88717265Y-48019432D01*
X88530858Y-48149954D01*
X88369954Y-48310858D01*
X88239432Y-48497265D01*
X88239431Y-48497267D01*
X88143261Y-48703502D01*
X88143258Y-48703511D01*
X88084366Y-48923302D01*
X88084364Y-48923313D01*
X88064532Y-49149998D01*
X88064532Y-49150001D01*
X88084364Y-49376686D01*
X88084366Y-49376697D01*
X88143258Y-49596488D01*
X88143261Y-49596497D01*
X88239431Y-49802732D01*
X88239432Y-49802734D01*
X88369954Y-49989141D01*
X88530858Y-50150045D01*
X88530861Y-50150047D01*
X88717266Y-50280568D01*
X88775275Y-50307618D01*
X88827714Y-50353791D01*
X88846866Y-50420984D01*
X88826650Y-50487865D01*
X88775275Y-50532382D01*
X88717267Y-50559431D01*
X88717265Y-50559432D01*
X88530858Y-50689954D01*
X88369954Y-50850858D01*
X88239432Y-51037265D01*
X88239431Y-51037267D01*
X88143261Y-51243502D01*
X88143258Y-51243511D01*
X88084366Y-51463302D01*
X88084364Y-51463313D01*
X88064532Y-51689998D01*
X88064532Y-51690001D01*
X88084364Y-51916686D01*
X88084366Y-51916697D01*
X88143258Y-52136488D01*
X88143261Y-52136497D01*
X88239431Y-52342732D01*
X88239432Y-52342734D01*
X88369954Y-52529141D01*
X88530858Y-52690045D01*
X88530861Y-52690047D01*
X88717266Y-52820568D01*
X88775275Y-52847618D01*
X88827714Y-52893791D01*
X88846866Y-52960984D01*
X88826650Y-53027865D01*
X88775275Y-53072382D01*
X88717267Y-53099431D01*
X88717265Y-53099432D01*
X88530858Y-53229954D01*
X88369954Y-53390858D01*
X88239432Y-53577265D01*
X88239431Y-53577267D01*
X88143261Y-53783502D01*
X88143258Y-53783511D01*
X88084366Y-54003302D01*
X88084364Y-54003313D01*
X88064532Y-54229998D01*
X88064532Y-54230001D01*
X88084364Y-54456686D01*
X88084366Y-54456697D01*
X88143258Y-54676488D01*
X88143261Y-54676497D01*
X88239431Y-54882732D01*
X88239432Y-54882734D01*
X88369954Y-55069141D01*
X88530858Y-55230045D01*
X88530861Y-55230047D01*
X88717266Y-55360568D01*
X88758479Y-55379786D01*
X88775275Y-55387618D01*
X88827714Y-55433791D01*
X88846866Y-55500984D01*
X88826650Y-55567865D01*
X88775275Y-55612382D01*
X88717267Y-55639431D01*
X88717265Y-55639432D01*
X88530858Y-55769954D01*
X88369954Y-55930858D01*
X88239432Y-56117265D01*
X88239431Y-56117267D01*
X88143261Y-56323502D01*
X88143258Y-56323511D01*
X88084366Y-56543302D01*
X88084364Y-56543313D01*
X88064532Y-56769998D01*
X88064532Y-56770001D01*
X88084364Y-56996686D01*
X88084366Y-56996697D01*
X88143258Y-57216488D01*
X88143261Y-57216497D01*
X88239431Y-57422732D01*
X88239432Y-57422734D01*
X88369954Y-57609141D01*
X88530858Y-57770045D01*
X88530861Y-57770047D01*
X88717266Y-57900568D01*
X88775275Y-57927618D01*
X88827714Y-57973791D01*
X88846866Y-58040984D01*
X88826650Y-58107865D01*
X88775275Y-58152382D01*
X88717267Y-58179431D01*
X88717265Y-58179432D01*
X88530858Y-58309954D01*
X88369954Y-58470858D01*
X88239432Y-58657265D01*
X88239431Y-58657267D01*
X88143261Y-58863502D01*
X88143258Y-58863511D01*
X88084366Y-59083302D01*
X88084364Y-59083313D01*
X88064532Y-59309998D01*
X88064532Y-59310001D01*
X88084364Y-59536686D01*
X88084366Y-59536697D01*
X88143258Y-59756488D01*
X88143261Y-59756497D01*
X88239431Y-59962732D01*
X88239432Y-59962734D01*
X88369954Y-60149141D01*
X88530858Y-60310045D01*
X88530861Y-60310047D01*
X88717266Y-60440568D01*
X88775275Y-60467618D01*
X88827714Y-60513791D01*
X88846866Y-60580984D01*
X88826650Y-60647865D01*
X88775275Y-60692382D01*
X88717267Y-60719431D01*
X88717265Y-60719432D01*
X88530858Y-60849954D01*
X88369954Y-61010858D01*
X88239432Y-61197265D01*
X88239431Y-61197267D01*
X88143261Y-61403502D01*
X88143258Y-61403511D01*
X88084366Y-61623302D01*
X88084364Y-61623313D01*
X88064532Y-61849998D01*
X88064532Y-61850001D01*
X88084364Y-62076686D01*
X88084366Y-62076697D01*
X88143258Y-62296488D01*
X88143261Y-62296497D01*
X88239431Y-62502732D01*
X88239432Y-62502734D01*
X88369954Y-62689141D01*
X88530858Y-62850045D01*
X88530861Y-62850047D01*
X88717266Y-62980568D01*
X88775275Y-63007618D01*
X88827714Y-63053791D01*
X88846866Y-63120984D01*
X88826650Y-63187865D01*
X88775275Y-63232382D01*
X88717267Y-63259431D01*
X88717265Y-63259432D01*
X88530858Y-63389954D01*
X88369954Y-63550858D01*
X88239432Y-63737265D01*
X88239431Y-63737267D01*
X88143261Y-63943502D01*
X88143258Y-63943511D01*
X88084366Y-64163302D01*
X88084364Y-64163313D01*
X88064532Y-64389998D01*
X88064532Y-64390001D01*
X88084364Y-64616686D01*
X88084366Y-64616697D01*
X88143258Y-64836488D01*
X88143261Y-64836497D01*
X88239431Y-65042732D01*
X88239432Y-65042734D01*
X88369954Y-65229141D01*
X88530858Y-65390045D01*
X88530861Y-65390047D01*
X88717266Y-65520568D01*
X88775275Y-65547618D01*
X88827714Y-65593791D01*
X88846866Y-65660984D01*
X88826650Y-65727865D01*
X88775275Y-65772382D01*
X88717267Y-65799431D01*
X88717265Y-65799432D01*
X88530858Y-65929954D01*
X88369954Y-66090858D01*
X88239432Y-66277265D01*
X88239431Y-66277267D01*
X88143261Y-66483502D01*
X88143258Y-66483511D01*
X88084366Y-66703302D01*
X88084364Y-66703313D01*
X88064532Y-66929998D01*
X88064532Y-66930001D01*
X88084364Y-67156686D01*
X88084366Y-67156697D01*
X88143258Y-67376488D01*
X88143261Y-67376497D01*
X88239431Y-67582732D01*
X88239432Y-67582734D01*
X88369954Y-67769141D01*
X88530858Y-67930045D01*
X88530861Y-67930047D01*
X88717266Y-68060568D01*
X88774681Y-68087341D01*
X88775275Y-68087618D01*
X88827714Y-68133791D01*
X88846866Y-68200984D01*
X88826650Y-68267865D01*
X88775275Y-68312382D01*
X88717267Y-68339431D01*
X88717265Y-68339432D01*
X88530858Y-68469954D01*
X88369954Y-68630858D01*
X88239432Y-68817265D01*
X88239431Y-68817267D01*
X88143261Y-69023502D01*
X88143258Y-69023511D01*
X88084366Y-69243302D01*
X88084364Y-69243313D01*
X88064532Y-69469998D01*
X88064532Y-69470001D01*
X88084364Y-69696686D01*
X88084366Y-69696697D01*
X88143258Y-69916488D01*
X88143261Y-69916497D01*
X88239431Y-70122732D01*
X88239432Y-70122734D01*
X88369954Y-70309141D01*
X88530858Y-70470045D01*
X88530861Y-70470047D01*
X88717266Y-70600568D01*
X88775865Y-70627893D01*
X88828305Y-70674065D01*
X88847457Y-70741258D01*
X88827242Y-70808139D01*
X88775867Y-70852657D01*
X88717515Y-70879867D01*
X88531179Y-71010342D01*
X88370342Y-71171179D01*
X88239865Y-71357517D01*
X88143734Y-71563673D01*
X88143730Y-71563682D01*
X88091127Y-71759999D01*
X88091128Y-71760000D01*
X88936988Y-71760000D01*
X88904075Y-71817007D01*
X88870000Y-71944174D01*
X88870000Y-72075826D01*
X88904075Y-72202993D01*
X88936988Y-72260000D01*
X88091128Y-72260000D01*
X88143730Y-72456317D01*
X88143734Y-72456326D01*
X88239865Y-72662482D01*
X88370342Y-72848820D01*
X88531179Y-73009657D01*
X88717518Y-73140134D01*
X88717520Y-73140135D01*
X88775865Y-73167342D01*
X88828305Y-73213514D01*
X88847457Y-73280707D01*
X88827242Y-73347589D01*
X88775867Y-73392105D01*
X88717268Y-73419431D01*
X88717264Y-73419433D01*
X88530858Y-73549954D01*
X88369954Y-73710858D01*
X88239432Y-73897265D01*
X88239431Y-73897267D01*
X88143261Y-74103502D01*
X88143258Y-74103511D01*
X88084366Y-74323302D01*
X88084364Y-74323313D01*
X88064532Y-74549998D01*
X88064532Y-74550001D01*
X88084364Y-74776686D01*
X88084366Y-74776697D01*
X88143258Y-74996488D01*
X88143261Y-74996497D01*
X88239431Y-75202732D01*
X88239432Y-75202734D01*
X88369954Y-75389141D01*
X88530858Y-75550045D01*
X88530861Y-75550047D01*
X88717266Y-75680568D01*
X88923504Y-75776739D01*
X89143308Y-75835635D01*
X89305230Y-75849801D01*
X89369998Y-75855468D01*
X89370000Y-75855468D01*
X89370002Y-75855468D01*
X89426807Y-75850498D01*
X89596692Y-75835635D01*
X89816496Y-75776739D01*
X90022734Y-75680568D01*
X90209139Y-75550047D01*
X90370047Y-75389139D01*
X90500568Y-75202734D01*
X90596739Y-74996496D01*
X90655635Y-74776692D01*
X90675468Y-74550000D01*
X90673727Y-74530105D01*
X90663604Y-74414394D01*
X90655635Y-74323308D01*
X90596739Y-74103504D01*
X90500568Y-73897266D01*
X90370047Y-73710861D01*
X90370045Y-73710858D01*
X90209141Y-73549954D01*
X90022734Y-73419432D01*
X90022732Y-73419431D01*
X90011275Y-73414088D01*
X89964132Y-73392105D01*
X89911694Y-73345934D01*
X89892542Y-73278740D01*
X89912758Y-73211859D01*
X89964134Y-73167341D01*
X90022484Y-73140132D01*
X90208820Y-73009657D01*
X90369657Y-72848820D01*
X90500134Y-72662482D01*
X90596265Y-72456326D01*
X90596269Y-72456317D01*
X90648872Y-72260000D01*
X89803012Y-72260000D01*
X89835925Y-72202993D01*
X89870000Y-72075826D01*
X89870000Y-71944174D01*
X89835925Y-71817007D01*
X89803012Y-71760000D01*
X90648872Y-71760000D01*
X90648872Y-71759999D01*
X90596269Y-71563682D01*
X90596265Y-71563673D01*
X90500134Y-71357517D01*
X90369657Y-71171179D01*
X90208820Y-71010342D01*
X90022482Y-70879865D01*
X89964133Y-70852657D01*
X89911694Y-70806484D01*
X89892542Y-70739291D01*
X89912758Y-70672410D01*
X89964129Y-70627895D01*
X90022734Y-70600568D01*
X90209139Y-70470047D01*
X90370047Y-70309139D01*
X90500568Y-70122734D01*
X90596739Y-69916496D01*
X90655635Y-69696692D01*
X90675468Y-69470000D01*
X90655635Y-69243308D01*
X90596739Y-69023504D01*
X90500568Y-68817266D01*
X90370047Y-68630861D01*
X90370045Y-68630858D01*
X90209141Y-68469954D01*
X90022734Y-68339432D01*
X90022728Y-68339429D01*
X89964725Y-68312382D01*
X89912285Y-68266210D01*
X89893133Y-68199017D01*
X89913348Y-68132135D01*
X89964725Y-68087618D01*
X89965319Y-68087341D01*
X90022734Y-68060568D01*
X90209139Y-67930047D01*
X90370047Y-67769139D01*
X90500568Y-67582734D01*
X90596739Y-67376496D01*
X90655635Y-67156692D01*
X90675468Y-66930000D01*
X90655635Y-66703308D01*
X90596739Y-66483504D01*
X90500568Y-66277266D01*
X90370047Y-66090861D01*
X90370045Y-66090858D01*
X90209141Y-65929954D01*
X90022734Y-65799432D01*
X90022728Y-65799429D01*
X89964725Y-65772382D01*
X89912285Y-65726210D01*
X89893133Y-65659017D01*
X89913348Y-65592135D01*
X89964725Y-65547618D01*
X90022734Y-65520568D01*
X90209139Y-65390047D01*
X90370047Y-65229139D01*
X90500568Y-65042734D01*
X90596739Y-64836496D01*
X90655635Y-64616692D01*
X90675468Y-64390000D01*
X90655635Y-64163308D01*
X90596739Y-63943504D01*
X90500568Y-63737266D01*
X90370047Y-63550861D01*
X90370045Y-63550858D01*
X90209141Y-63389954D01*
X90022734Y-63259432D01*
X90022728Y-63259429D01*
X89964725Y-63232382D01*
X89912285Y-63186210D01*
X89893133Y-63119017D01*
X89913348Y-63052135D01*
X89964725Y-63007618D01*
X90022734Y-62980568D01*
X90209139Y-62850047D01*
X90370047Y-62689139D01*
X90500568Y-62502734D01*
X90596739Y-62296496D01*
X90655635Y-62076692D01*
X90675468Y-61850000D01*
X90655635Y-61623308D01*
X90596739Y-61403504D01*
X90500568Y-61197266D01*
X90370047Y-61010861D01*
X90370045Y-61010858D01*
X90209141Y-60849954D01*
X90022734Y-60719432D01*
X90022728Y-60719429D01*
X89964725Y-60692382D01*
X89912285Y-60646210D01*
X89893133Y-60579017D01*
X89913348Y-60512135D01*
X89964725Y-60467618D01*
X90022734Y-60440568D01*
X90209139Y-60310047D01*
X90370047Y-60149139D01*
X90500568Y-59962734D01*
X90596739Y-59756496D01*
X90655635Y-59536692D01*
X90675468Y-59310000D01*
X90655635Y-59083308D01*
X90596739Y-58863504D01*
X90500568Y-58657266D01*
X90370047Y-58470861D01*
X90370045Y-58470858D01*
X90209141Y-58309954D01*
X90022734Y-58179432D01*
X90022728Y-58179429D01*
X89995038Y-58166517D01*
X89964724Y-58152381D01*
X89912285Y-58106210D01*
X89893133Y-58039017D01*
X89913348Y-57972135D01*
X89964725Y-57927618D01*
X90022734Y-57900568D01*
X90209139Y-57770047D01*
X90370047Y-57609139D01*
X90500568Y-57422734D01*
X90596739Y-57216496D01*
X90655635Y-56996692D01*
X90675468Y-56770000D01*
X90655635Y-56543308D01*
X90596739Y-56323504D01*
X90500568Y-56117266D01*
X90370047Y-55930861D01*
X90370045Y-55930858D01*
X90209141Y-55769954D01*
X90022734Y-55639432D01*
X90022728Y-55639429D01*
X89964725Y-55612382D01*
X89912285Y-55566210D01*
X89893133Y-55499017D01*
X89913348Y-55432135D01*
X89964725Y-55387618D01*
X90022734Y-55360568D01*
X90209139Y-55230047D01*
X90370047Y-55069139D01*
X90500568Y-54882734D01*
X90596739Y-54676496D01*
X90655635Y-54456692D01*
X90675468Y-54230000D01*
X90655635Y-54003308D01*
X90599065Y-53792184D01*
X90596741Y-53783511D01*
X90596738Y-53783502D01*
X90562728Y-53710568D01*
X90500568Y-53577266D01*
X90370047Y-53390861D01*
X90370045Y-53390858D01*
X90209141Y-53229954D01*
X90022734Y-53099432D01*
X90022728Y-53099429D01*
X89964725Y-53072382D01*
X89912285Y-53026210D01*
X89893133Y-52959017D01*
X89913348Y-52892135D01*
X89964725Y-52847618D01*
X90022734Y-52820568D01*
X90209139Y-52690047D01*
X90370047Y-52529139D01*
X90500568Y-52342734D01*
X90596739Y-52136496D01*
X90655635Y-51916692D01*
X90675468Y-51690000D01*
X90673938Y-51672517D01*
X90655635Y-51463313D01*
X90655635Y-51463308D01*
X90596739Y-51243504D01*
X90500568Y-51037266D01*
X90370047Y-50850861D01*
X90370045Y-50850858D01*
X90209141Y-50689954D01*
X90022734Y-50559432D01*
X90022728Y-50559429D01*
X89964725Y-50532382D01*
X89912285Y-50486210D01*
X89893133Y-50419017D01*
X89913348Y-50352135D01*
X89964725Y-50307618D01*
X90022734Y-50280568D01*
X90209139Y-50150047D01*
X90370047Y-49989139D01*
X90500568Y-49802734D01*
X90596739Y-49596496D01*
X90655635Y-49376692D01*
X90675468Y-49150000D01*
X90655635Y-48923308D01*
X90596739Y-48703504D01*
X90500568Y-48497266D01*
X90370047Y-48310861D01*
X90370045Y-48310858D01*
X90209141Y-48149954D01*
X90022734Y-48019432D01*
X90022728Y-48019429D01*
X89964725Y-47992382D01*
X89912285Y-47946210D01*
X89893133Y-47879017D01*
X89913348Y-47812135D01*
X89964725Y-47767618D01*
X90022734Y-47740568D01*
X90209139Y-47610047D01*
X90370047Y-47449139D01*
X90500568Y-47262734D01*
X90596739Y-47056496D01*
X90655635Y-46836692D01*
X90675468Y-46610000D01*
X90655635Y-46383308D01*
X90596739Y-46163504D01*
X90500568Y-45957266D01*
X90370047Y-45770861D01*
X90370045Y-45770858D01*
X90209141Y-45609954D01*
X90022734Y-45479432D01*
X90022728Y-45479429D01*
X89964725Y-45452382D01*
X89912285Y-45406210D01*
X89893133Y-45339017D01*
X89913348Y-45272135D01*
X89964725Y-45227618D01*
X90022734Y-45200568D01*
X90209139Y-45070047D01*
X90370047Y-44909139D01*
X90500568Y-44722734D01*
X90596739Y-44516496D01*
X90655635Y-44296692D01*
X90675468Y-44070000D01*
X90655635Y-43843308D01*
X90596739Y-43623504D01*
X90500568Y-43417266D01*
X90370047Y-43230861D01*
X90370045Y-43230858D01*
X90209141Y-43069954D01*
X90022734Y-42939432D01*
X90022728Y-42939429D01*
X89964725Y-42912382D01*
X89912285Y-42866210D01*
X89893133Y-42799017D01*
X89913348Y-42732135D01*
X89964725Y-42687618D01*
X90022734Y-42660568D01*
X90209139Y-42530047D01*
X90370047Y-42369139D01*
X90500568Y-42182734D01*
X90596739Y-41976496D01*
X90655635Y-41756692D01*
X90675468Y-41530000D01*
X90655635Y-41303308D01*
X90596739Y-41083504D01*
X90500568Y-40877266D01*
X90370047Y-40690861D01*
X90370045Y-40690858D01*
X90209141Y-40529954D01*
X90022734Y-40399432D01*
X90022728Y-40399429D01*
X89964725Y-40372382D01*
X89912285Y-40326210D01*
X89893133Y-40259017D01*
X89913348Y-40192135D01*
X89964725Y-40147618D01*
X90022734Y-40120568D01*
X90209139Y-39990047D01*
X90370047Y-39829139D01*
X90500568Y-39642734D01*
X90596739Y-39436496D01*
X90655635Y-39216692D01*
X90675468Y-38990000D01*
X90675468Y-38989998D01*
X103304532Y-38989998D01*
X103304532Y-38990001D01*
X103324364Y-39216686D01*
X103324366Y-39216697D01*
X103383258Y-39436488D01*
X103383261Y-39436497D01*
X103479431Y-39642732D01*
X103479432Y-39642734D01*
X103609954Y-39829141D01*
X103770858Y-39990045D01*
X103770861Y-39990047D01*
X103957266Y-40120568D01*
X104015275Y-40147618D01*
X104067714Y-40193791D01*
X104086866Y-40260984D01*
X104066650Y-40327865D01*
X104015275Y-40372382D01*
X103957267Y-40399431D01*
X103957265Y-40399432D01*
X103770858Y-40529954D01*
X103609954Y-40690858D01*
X103479432Y-40877265D01*
X103479431Y-40877267D01*
X103383261Y-41083502D01*
X103383258Y-41083511D01*
X103324366Y-41303302D01*
X103324364Y-41303313D01*
X103304532Y-41529998D01*
X103304532Y-41530001D01*
X103324364Y-41756686D01*
X103324366Y-41756697D01*
X103383258Y-41976488D01*
X103383261Y-41976497D01*
X103479431Y-42182732D01*
X103479432Y-42182734D01*
X103609954Y-42369141D01*
X103770858Y-42530045D01*
X103770861Y-42530047D01*
X103957266Y-42660568D01*
X104015275Y-42687618D01*
X104067714Y-42733791D01*
X104086866Y-42800984D01*
X104066650Y-42867865D01*
X104015275Y-42912382D01*
X103957267Y-42939431D01*
X103957265Y-42939432D01*
X103770858Y-43069954D01*
X103609954Y-43230858D01*
X103479432Y-43417265D01*
X103479431Y-43417267D01*
X103383261Y-43623502D01*
X103383258Y-43623511D01*
X103324366Y-43843302D01*
X103324364Y-43843313D01*
X103304532Y-44069998D01*
X103304532Y-44070001D01*
X103324364Y-44296686D01*
X103324366Y-44296697D01*
X103383258Y-44516488D01*
X103383261Y-44516497D01*
X103479431Y-44722732D01*
X103479432Y-44722734D01*
X103609954Y-44909141D01*
X103770858Y-45070045D01*
X103770861Y-45070047D01*
X103957266Y-45200568D01*
X104015275Y-45227618D01*
X104067714Y-45273791D01*
X104086866Y-45340984D01*
X104066650Y-45407865D01*
X104015275Y-45452382D01*
X103957267Y-45479431D01*
X103957265Y-45479432D01*
X103770858Y-45609954D01*
X103609954Y-45770858D01*
X103479432Y-45957265D01*
X103479431Y-45957267D01*
X103383261Y-46163502D01*
X103383258Y-46163511D01*
X103324366Y-46383302D01*
X103324364Y-46383313D01*
X103304532Y-46609998D01*
X103304532Y-46610001D01*
X103324364Y-46836686D01*
X103324366Y-46836697D01*
X103383258Y-47056488D01*
X103383261Y-47056497D01*
X103479431Y-47262732D01*
X103479432Y-47262734D01*
X103609954Y-47449141D01*
X103770858Y-47610045D01*
X103770861Y-47610047D01*
X103957266Y-47740568D01*
X104015275Y-47767618D01*
X104067714Y-47813791D01*
X104086866Y-47880984D01*
X104066650Y-47947865D01*
X104015275Y-47992382D01*
X103957267Y-48019431D01*
X103957265Y-48019432D01*
X103770858Y-48149954D01*
X103609954Y-48310858D01*
X103479432Y-48497265D01*
X103479431Y-48497267D01*
X103383261Y-48703502D01*
X103383258Y-48703511D01*
X103324366Y-48923302D01*
X103324364Y-48923313D01*
X103304532Y-49149998D01*
X103304532Y-49150001D01*
X103324364Y-49376686D01*
X103324366Y-49376697D01*
X103383258Y-49596488D01*
X103383261Y-49596497D01*
X103479431Y-49802732D01*
X103479432Y-49802734D01*
X103609954Y-49989141D01*
X103770858Y-50150045D01*
X103770861Y-50150047D01*
X103957266Y-50280568D01*
X104015275Y-50307618D01*
X104067714Y-50353791D01*
X104086866Y-50420984D01*
X104066650Y-50487865D01*
X104015275Y-50532382D01*
X103957267Y-50559431D01*
X103957265Y-50559432D01*
X103770858Y-50689954D01*
X103609954Y-50850858D01*
X103479432Y-51037265D01*
X103479431Y-51037267D01*
X103383261Y-51243502D01*
X103383258Y-51243511D01*
X103324366Y-51463302D01*
X103324364Y-51463313D01*
X103304532Y-51689998D01*
X103304532Y-51690001D01*
X103324364Y-51916686D01*
X103324366Y-51916697D01*
X103383258Y-52136488D01*
X103383261Y-52136497D01*
X103479431Y-52342732D01*
X103479432Y-52342734D01*
X103609954Y-52529141D01*
X103770858Y-52690045D01*
X103770861Y-52690047D01*
X103957266Y-52820568D01*
X104015275Y-52847618D01*
X104067714Y-52893791D01*
X104086866Y-52960984D01*
X104066650Y-53027865D01*
X104015275Y-53072382D01*
X103957267Y-53099431D01*
X103957265Y-53099432D01*
X103770858Y-53229954D01*
X103609954Y-53390858D01*
X103479432Y-53577265D01*
X103479431Y-53577267D01*
X103383261Y-53783502D01*
X103383258Y-53783511D01*
X103324366Y-54003302D01*
X103324364Y-54003313D01*
X103304532Y-54229998D01*
X103304532Y-54230001D01*
X103324364Y-54456686D01*
X103324366Y-54456697D01*
X103383258Y-54676488D01*
X103383261Y-54676497D01*
X103479431Y-54882732D01*
X103479432Y-54882734D01*
X103609954Y-55069141D01*
X103770858Y-55230045D01*
X103770861Y-55230047D01*
X103957266Y-55360568D01*
X103998479Y-55379786D01*
X104015275Y-55387618D01*
X104067714Y-55433791D01*
X104086866Y-55500984D01*
X104066650Y-55567865D01*
X104015275Y-55612382D01*
X103957267Y-55639431D01*
X103957265Y-55639432D01*
X103770858Y-55769954D01*
X103609954Y-55930858D01*
X103479432Y-56117265D01*
X103479431Y-56117267D01*
X103383261Y-56323502D01*
X103383258Y-56323511D01*
X103324366Y-56543302D01*
X103324364Y-56543313D01*
X103304532Y-56769998D01*
X103304532Y-56770001D01*
X103324364Y-56996686D01*
X103324366Y-56996697D01*
X103383258Y-57216488D01*
X103383261Y-57216497D01*
X103479431Y-57422732D01*
X103479432Y-57422734D01*
X103609954Y-57609141D01*
X103770858Y-57770045D01*
X103770861Y-57770047D01*
X103957266Y-57900568D01*
X104015275Y-57927618D01*
X104067714Y-57973791D01*
X104086866Y-58040984D01*
X104066650Y-58107865D01*
X104015275Y-58152382D01*
X103957267Y-58179431D01*
X103957265Y-58179432D01*
X103770858Y-58309954D01*
X103609954Y-58470858D01*
X103479432Y-58657265D01*
X103479431Y-58657267D01*
X103383261Y-58863502D01*
X103383258Y-58863511D01*
X103324366Y-59083302D01*
X103324364Y-59083313D01*
X103304532Y-59309998D01*
X103304532Y-59310001D01*
X103324364Y-59536686D01*
X103324366Y-59536697D01*
X103383258Y-59756488D01*
X103383261Y-59756497D01*
X103479431Y-59962732D01*
X103479432Y-59962734D01*
X103609954Y-60149141D01*
X103770858Y-60310045D01*
X103770861Y-60310047D01*
X103957266Y-60440568D01*
X104015275Y-60467618D01*
X104067714Y-60513791D01*
X104086866Y-60580984D01*
X104066650Y-60647865D01*
X104015275Y-60692382D01*
X103957267Y-60719431D01*
X103957265Y-60719432D01*
X103770858Y-60849954D01*
X103609954Y-61010858D01*
X103479432Y-61197265D01*
X103479431Y-61197267D01*
X103383261Y-61403502D01*
X103383258Y-61403511D01*
X103324366Y-61623302D01*
X103324364Y-61623313D01*
X103304532Y-61849998D01*
X103304532Y-61850001D01*
X103324364Y-62076686D01*
X103324366Y-62076697D01*
X103383258Y-62296488D01*
X103383261Y-62296497D01*
X103479431Y-62502732D01*
X103479432Y-62502734D01*
X103609954Y-62689141D01*
X103770858Y-62850045D01*
X103770861Y-62850047D01*
X103957266Y-62980568D01*
X104015275Y-63007618D01*
X104067714Y-63053791D01*
X104086866Y-63120984D01*
X104066650Y-63187865D01*
X104015275Y-63232382D01*
X103957267Y-63259431D01*
X103957265Y-63259432D01*
X103770858Y-63389954D01*
X103609954Y-63550858D01*
X103479432Y-63737265D01*
X103479431Y-63737267D01*
X103383261Y-63943502D01*
X103383258Y-63943511D01*
X103324366Y-64163302D01*
X103324364Y-64163313D01*
X103304532Y-64389998D01*
X103304532Y-64390001D01*
X103324364Y-64616686D01*
X103324366Y-64616697D01*
X103383258Y-64836488D01*
X103383261Y-64836497D01*
X103479431Y-65042732D01*
X103479432Y-65042734D01*
X103609954Y-65229141D01*
X103770858Y-65390045D01*
X103770861Y-65390047D01*
X103957266Y-65520568D01*
X104015865Y-65547893D01*
X104068305Y-65594065D01*
X104087457Y-65661258D01*
X104067242Y-65728139D01*
X104015867Y-65772657D01*
X103957515Y-65799867D01*
X103771179Y-65930342D01*
X103610342Y-66091179D01*
X103479865Y-66277517D01*
X103383734Y-66483673D01*
X103383730Y-66483682D01*
X103331127Y-66679999D01*
X103331128Y-66680000D01*
X104176988Y-66680000D01*
X104144075Y-66737007D01*
X104110000Y-66864174D01*
X104110000Y-66995826D01*
X104144075Y-67122993D01*
X104176988Y-67180000D01*
X103331128Y-67180000D01*
X103383730Y-67376317D01*
X103383734Y-67376326D01*
X103479865Y-67582482D01*
X103610342Y-67768820D01*
X103771179Y-67929657D01*
X103957518Y-68060134D01*
X103957520Y-68060135D01*
X104015865Y-68087342D01*
X104068305Y-68133514D01*
X104087457Y-68200707D01*
X104067242Y-68267589D01*
X104015867Y-68312105D01*
X103957268Y-68339431D01*
X103957264Y-68339433D01*
X103770858Y-68469954D01*
X103609954Y-68630858D01*
X103479432Y-68817265D01*
X103479431Y-68817267D01*
X103383261Y-69023502D01*
X103383258Y-69023511D01*
X103324366Y-69243302D01*
X103324364Y-69243313D01*
X103304532Y-69469998D01*
X103304532Y-69470001D01*
X103324364Y-69696686D01*
X103324366Y-69696697D01*
X103383258Y-69916488D01*
X103383261Y-69916497D01*
X103479431Y-70122732D01*
X103479432Y-70122734D01*
X103609954Y-70309141D01*
X103770858Y-70470045D01*
X103770861Y-70470047D01*
X103957266Y-70600568D01*
X104015275Y-70627618D01*
X104067714Y-70673791D01*
X104086866Y-70740984D01*
X104066650Y-70807865D01*
X104015275Y-70852382D01*
X103957267Y-70879431D01*
X103957265Y-70879432D01*
X103770858Y-71009954D01*
X103609954Y-71170858D01*
X103479432Y-71357265D01*
X103479431Y-71357267D01*
X103383261Y-71563502D01*
X103383258Y-71563511D01*
X103324366Y-71783302D01*
X103324364Y-71783313D01*
X103304532Y-72009998D01*
X103304532Y-72010001D01*
X103324364Y-72236686D01*
X103324366Y-72236697D01*
X103383258Y-72456488D01*
X103383261Y-72456497D01*
X103479431Y-72662732D01*
X103479432Y-72662734D01*
X103609954Y-72849141D01*
X103770858Y-73010045D01*
X103795462Y-73027273D01*
X103839087Y-73081849D01*
X103846281Y-73151348D01*
X103814758Y-73213703D01*
X103754529Y-73249117D01*
X103737593Y-73252138D01*
X103702516Y-73255908D01*
X103567671Y-73306202D01*
X103567664Y-73306206D01*
X103452455Y-73392452D01*
X103452452Y-73392455D01*
X103366206Y-73507664D01*
X103366202Y-73507671D01*
X103315908Y-73642517D01*
X103309501Y-73702116D01*
X103309501Y-73702123D01*
X103309500Y-73702135D01*
X103309500Y-75397870D01*
X103309501Y-75397876D01*
X103315908Y-75457483D01*
X103366202Y-75592328D01*
X103366206Y-75592335D01*
X103452452Y-75707544D01*
X103452455Y-75707547D01*
X103567664Y-75793793D01*
X103567671Y-75793797D01*
X103702517Y-75844091D01*
X103702516Y-75844091D01*
X103709444Y-75844835D01*
X103762127Y-75850500D01*
X105457872Y-75850499D01*
X105517483Y-75844091D01*
X105652331Y-75793796D01*
X105767546Y-75707546D01*
X105853796Y-75592331D01*
X105904091Y-75457483D01*
X105910500Y-75397873D01*
X105910500Y-74659997D01*
X110945034Y-74659997D01*
X110945034Y-74660002D01*
X110964858Y-74886599D01*
X110964860Y-74886610D01*
X111023730Y-75106317D01*
X111023735Y-75106331D01*
X111119863Y-75312478D01*
X111170974Y-75385472D01*
X111850000Y-74706446D01*
X111850000Y-74712661D01*
X111877259Y-74814394D01*
X111929920Y-74905606D01*
X112004394Y-74980080D01*
X112095606Y-75032741D01*
X112197339Y-75060000D01*
X112203553Y-75060000D01*
X111524526Y-75739025D01*
X111597513Y-75790132D01*
X111597521Y-75790136D01*
X111803668Y-75886264D01*
X111803682Y-75886269D01*
X112023389Y-75945139D01*
X112023400Y-75945141D01*
X112249998Y-75964966D01*
X112250002Y-75964966D01*
X112476599Y-75945141D01*
X112476610Y-75945139D01*
X112696317Y-75886269D01*
X112696331Y-75886264D01*
X112902478Y-75790136D01*
X112975471Y-75739024D01*
X112296447Y-75060000D01*
X112302661Y-75060000D01*
X112404394Y-75032741D01*
X112495606Y-74980080D01*
X112570080Y-74905606D01*
X112622741Y-74814394D01*
X112650000Y-74712661D01*
X112650000Y-74706447D01*
X113329024Y-75385471D01*
X113380134Y-75312481D01*
X113387340Y-75297028D01*
X113433511Y-75244587D01*
X113500704Y-75225433D01*
X113567585Y-75245646D01*
X113612105Y-75297022D01*
X113619430Y-75312730D01*
X113619432Y-75312734D01*
X113749954Y-75499141D01*
X113910858Y-75660045D01*
X113910861Y-75660047D01*
X114097266Y-75790568D01*
X114303504Y-75886739D01*
X114523308Y-75945635D01*
X114685230Y-75959801D01*
X114749998Y-75965468D01*
X114750000Y-75965468D01*
X114750002Y-75965468D01*
X114806673Y-75960509D01*
X114976692Y-75945635D01*
X115196496Y-75886739D01*
X115402734Y-75790568D01*
X115589139Y-75660047D01*
X115750047Y-75499139D01*
X115880568Y-75312734D01*
X115976739Y-75106496D01*
X116035635Y-74886692D01*
X116055468Y-74660000D01*
X116035635Y-74433308D01*
X115976739Y-74213504D01*
X115880568Y-74007266D01*
X115750047Y-73820861D01*
X115750045Y-73820858D01*
X115589141Y-73659954D01*
X115402734Y-73529432D01*
X115402732Y-73529431D01*
X115196497Y-73433261D01*
X115196488Y-73433258D01*
X114976697Y-73374366D01*
X114976693Y-73374365D01*
X114976692Y-73374365D01*
X114976691Y-73374364D01*
X114976686Y-73374364D01*
X114750002Y-73354532D01*
X114749998Y-73354532D01*
X114523313Y-73374364D01*
X114523302Y-73374366D01*
X114303511Y-73433258D01*
X114303502Y-73433261D01*
X114097267Y-73529431D01*
X114097265Y-73529432D01*
X113910858Y-73659954D01*
X113749954Y-73820858D01*
X113619432Y-74007265D01*
X113619429Y-74007270D01*
X113612104Y-74022979D01*
X113565929Y-74075417D01*
X113498735Y-74094566D01*
X113431855Y-74074347D01*
X113387341Y-74022973D01*
X113380133Y-74007515D01*
X113380132Y-74007513D01*
X113329025Y-73934526D01*
X112650000Y-74613551D01*
X112650000Y-74607339D01*
X112622741Y-74505606D01*
X112570080Y-74414394D01*
X112495606Y-74339920D01*
X112404394Y-74287259D01*
X112302661Y-74260000D01*
X112296448Y-74260000D01*
X112975472Y-73580974D01*
X112902478Y-73529863D01*
X112696331Y-73433735D01*
X112696317Y-73433730D01*
X112476610Y-73374860D01*
X112476599Y-73374858D01*
X112250002Y-73355034D01*
X112249998Y-73355034D01*
X112023400Y-73374858D01*
X112023389Y-73374860D01*
X111803682Y-73433730D01*
X111803673Y-73433734D01*
X111597516Y-73529866D01*
X111597512Y-73529868D01*
X111524526Y-73580973D01*
X111524526Y-73580974D01*
X112203553Y-74260000D01*
X112197339Y-74260000D01*
X112095606Y-74287259D01*
X112004394Y-74339920D01*
X111929920Y-74414394D01*
X111877259Y-74505606D01*
X111850000Y-74607339D01*
X111850000Y-74613552D01*
X111170974Y-73934526D01*
X111170973Y-73934526D01*
X111119868Y-74007512D01*
X111119866Y-74007516D01*
X111023734Y-74213673D01*
X111023730Y-74213682D01*
X110964860Y-74433389D01*
X110964858Y-74433400D01*
X110945034Y-74659997D01*
X105910500Y-74659997D01*
X105910499Y-73702128D01*
X105904091Y-73642517D01*
X105869567Y-73549954D01*
X105853797Y-73507671D01*
X105853793Y-73507664D01*
X105767547Y-73392455D01*
X105767544Y-73392452D01*
X105652335Y-73306206D01*
X105652328Y-73306202D01*
X105517482Y-73255908D01*
X105517483Y-73255908D01*
X105482404Y-73252137D01*
X105417853Y-73225399D01*
X105378005Y-73168006D01*
X105375512Y-73098181D01*
X105411165Y-73038092D01*
X105424539Y-73027272D01*
X105449140Y-73010046D01*
X105610045Y-72849141D01*
X105610047Y-72849139D01*
X105740568Y-72662734D01*
X105836739Y-72456496D01*
X105895635Y-72236692D01*
X105915468Y-72010000D01*
X105895635Y-71783308D01*
X105842965Y-71586739D01*
X105836741Y-71563511D01*
X105836738Y-71563502D01*
X105815712Y-71518412D01*
X105740568Y-71357266D01*
X105610047Y-71170861D01*
X105610045Y-71170858D01*
X105449141Y-71009954D01*
X105262734Y-70879432D01*
X105262728Y-70879429D01*
X105204725Y-70852382D01*
X105152285Y-70806210D01*
X105133133Y-70739017D01*
X105153348Y-70672135D01*
X105204725Y-70627618D01*
X105262734Y-70600568D01*
X105449139Y-70470047D01*
X105610047Y-70309139D01*
X105740568Y-70122734D01*
X105836739Y-69916496D01*
X105895635Y-69696692D01*
X105915468Y-69470000D01*
X105895635Y-69243308D01*
X105836739Y-69023504D01*
X105740568Y-68817266D01*
X105610047Y-68630861D01*
X105610045Y-68630858D01*
X105449141Y-68469954D01*
X105262734Y-68339432D01*
X105262732Y-68339431D01*
X105204725Y-68312382D01*
X105204132Y-68312105D01*
X105151694Y-68265934D01*
X105132542Y-68198740D01*
X105152758Y-68131859D01*
X105204134Y-68087341D01*
X105262484Y-68060132D01*
X105448820Y-67929657D01*
X105609657Y-67768820D01*
X105740134Y-67582482D01*
X105836265Y-67376326D01*
X105836269Y-67376317D01*
X105888872Y-67180000D01*
X105043012Y-67180000D01*
X105075925Y-67122993D01*
X105110000Y-66995826D01*
X105110000Y-66864174D01*
X105075925Y-66737007D01*
X105043012Y-66680000D01*
X105888872Y-66680000D01*
X105888872Y-66679999D01*
X105836269Y-66483682D01*
X105836265Y-66483673D01*
X105740134Y-66277517D01*
X105609657Y-66091179D01*
X105448820Y-65930342D01*
X105262482Y-65799865D01*
X105204133Y-65772657D01*
X105151694Y-65726484D01*
X105132542Y-65659291D01*
X105152758Y-65592410D01*
X105204129Y-65547895D01*
X105262734Y-65520568D01*
X105449139Y-65390047D01*
X105610047Y-65229139D01*
X105740568Y-65042734D01*
X105836739Y-64836496D01*
X105895635Y-64616692D01*
X105915468Y-64390000D01*
X105895635Y-64163308D01*
X105836739Y-63943504D01*
X105740568Y-63737266D01*
X105610047Y-63550861D01*
X105610045Y-63550858D01*
X105449141Y-63389954D01*
X105262734Y-63259432D01*
X105262728Y-63259429D01*
X105204725Y-63232382D01*
X105152285Y-63186210D01*
X105133133Y-63119017D01*
X105153348Y-63052135D01*
X105204725Y-63007618D01*
X105262734Y-62980568D01*
X105449139Y-62850047D01*
X105610047Y-62689139D01*
X105740568Y-62502734D01*
X105836739Y-62296496D01*
X105895635Y-62076692D01*
X105915468Y-61850000D01*
X105895635Y-61623308D01*
X105836739Y-61403504D01*
X105740568Y-61197266D01*
X105610047Y-61010861D01*
X105610045Y-61010858D01*
X105449141Y-60849954D01*
X105262734Y-60719432D01*
X105262728Y-60719429D01*
X105204725Y-60692382D01*
X105152285Y-60646210D01*
X105133133Y-60579017D01*
X105153348Y-60512135D01*
X105204725Y-60467618D01*
X105262734Y-60440568D01*
X105449139Y-60310047D01*
X105610047Y-60149139D01*
X105740568Y-59962734D01*
X105836739Y-59756496D01*
X105895635Y-59536692D01*
X105915468Y-59310000D01*
X105895635Y-59083308D01*
X105836739Y-58863504D01*
X105740568Y-58657266D01*
X105610047Y-58470861D01*
X105610045Y-58470858D01*
X105449141Y-58309954D01*
X105262734Y-58179432D01*
X105262728Y-58179429D01*
X105235038Y-58166517D01*
X105204724Y-58152381D01*
X105152285Y-58106210D01*
X105133133Y-58039017D01*
X105153348Y-57972135D01*
X105204725Y-57927618D01*
X105262734Y-57900568D01*
X105449139Y-57770047D01*
X105610047Y-57609139D01*
X105740568Y-57422734D01*
X105836739Y-57216496D01*
X105895635Y-56996692D01*
X105915468Y-56770000D01*
X105895635Y-56543308D01*
X105836739Y-56323504D01*
X105740568Y-56117266D01*
X105610047Y-55930861D01*
X105610045Y-55930858D01*
X105449141Y-55769954D01*
X105262734Y-55639432D01*
X105262728Y-55639429D01*
X105204725Y-55612382D01*
X105152285Y-55566210D01*
X105133133Y-55499017D01*
X105153348Y-55432135D01*
X105204725Y-55387618D01*
X105262734Y-55360568D01*
X105449139Y-55230047D01*
X105559188Y-55119998D01*
X108574532Y-55119998D01*
X108574532Y-55120001D01*
X108594364Y-55346686D01*
X108594366Y-55346697D01*
X108653258Y-55566488D01*
X108653261Y-55566497D01*
X108749431Y-55772732D01*
X108749432Y-55772734D01*
X108879954Y-55959141D01*
X109040858Y-56120045D01*
X109040861Y-56120047D01*
X109227266Y-56250568D01*
X109285275Y-56277618D01*
X109337714Y-56323791D01*
X109356866Y-56390984D01*
X109336650Y-56457865D01*
X109285275Y-56502382D01*
X109227267Y-56529431D01*
X109227265Y-56529432D01*
X109040858Y-56659954D01*
X108879954Y-56820858D01*
X108749432Y-57007265D01*
X108749431Y-57007267D01*
X108653261Y-57213502D01*
X108653258Y-57213511D01*
X108594366Y-57433302D01*
X108594364Y-57433313D01*
X108574532Y-57659998D01*
X108574532Y-57660001D01*
X108594364Y-57886686D01*
X108594366Y-57886697D01*
X108653258Y-58106488D01*
X108653261Y-58106497D01*
X108749431Y-58312732D01*
X108749432Y-58312734D01*
X108879954Y-58499141D01*
X109040858Y-58660045D01*
X109040861Y-58660047D01*
X109227266Y-58790568D01*
X109230732Y-58792184D01*
X109285275Y-58817618D01*
X109337714Y-58863791D01*
X109356866Y-58930984D01*
X109336650Y-58997865D01*
X109285275Y-59042382D01*
X109227267Y-59069431D01*
X109227265Y-59069432D01*
X109040858Y-59199954D01*
X108879954Y-59360858D01*
X108749432Y-59547265D01*
X108749431Y-59547267D01*
X108653261Y-59753502D01*
X108653258Y-59753511D01*
X108594366Y-59973302D01*
X108594364Y-59973313D01*
X108574532Y-60199998D01*
X108574532Y-60200001D01*
X108594364Y-60426686D01*
X108594366Y-60426697D01*
X108653258Y-60646488D01*
X108653261Y-60646497D01*
X108749431Y-60852732D01*
X108749432Y-60852734D01*
X108879954Y-61039141D01*
X109040858Y-61200045D01*
X109040861Y-61200047D01*
X109227266Y-61330568D01*
X109285275Y-61357618D01*
X109337714Y-61403791D01*
X109356866Y-61470984D01*
X109336650Y-61537865D01*
X109285275Y-61582382D01*
X109227267Y-61609431D01*
X109227265Y-61609432D01*
X109040858Y-61739954D01*
X108879954Y-61900858D01*
X108749432Y-62087265D01*
X108749431Y-62087267D01*
X108653261Y-62293502D01*
X108653258Y-62293511D01*
X108594366Y-62513302D01*
X108594364Y-62513313D01*
X108574532Y-62739998D01*
X108574532Y-62740001D01*
X108594364Y-62966686D01*
X108594366Y-62966697D01*
X108653258Y-63186488D01*
X108653261Y-63186497D01*
X108749431Y-63392732D01*
X108749432Y-63392734D01*
X108879954Y-63579141D01*
X109040858Y-63740045D01*
X109040861Y-63740047D01*
X109227266Y-63870568D01*
X109285275Y-63897618D01*
X109337714Y-63943791D01*
X109356866Y-64010984D01*
X109336650Y-64077865D01*
X109285275Y-64122382D01*
X109227267Y-64149431D01*
X109227265Y-64149432D01*
X109040858Y-64279954D01*
X108879954Y-64440858D01*
X108749432Y-64627265D01*
X108749431Y-64627267D01*
X108653261Y-64833502D01*
X108653258Y-64833511D01*
X108594366Y-65053302D01*
X108594364Y-65053313D01*
X108574532Y-65279998D01*
X108574532Y-65280001D01*
X108594364Y-65506686D01*
X108594366Y-65506697D01*
X108653257Y-65726484D01*
X108653261Y-65726497D01*
X108749431Y-65932732D01*
X108749432Y-65932734D01*
X108879954Y-66119141D01*
X109040858Y-66280045D01*
X109040861Y-66280047D01*
X109227266Y-66410568D01*
X109268938Y-66430000D01*
X109285275Y-66437618D01*
X109337714Y-66483791D01*
X109356866Y-66550984D01*
X109336650Y-66617865D01*
X109285275Y-66662382D01*
X109227267Y-66689431D01*
X109227265Y-66689432D01*
X109040858Y-66819954D01*
X108879954Y-66980858D01*
X108749432Y-67167265D01*
X108749431Y-67167267D01*
X108653261Y-67373502D01*
X108653258Y-67373511D01*
X108594366Y-67593302D01*
X108594364Y-67593313D01*
X108574532Y-67819998D01*
X108574532Y-67820001D01*
X108594364Y-68046686D01*
X108594366Y-68046697D01*
X108653258Y-68266488D01*
X108653261Y-68266497D01*
X108749431Y-68472732D01*
X108749432Y-68472734D01*
X108879954Y-68659141D01*
X109040858Y-68820045D01*
X109040861Y-68820047D01*
X109227266Y-68950568D01*
X109285865Y-68977893D01*
X109338305Y-69024065D01*
X109357457Y-69091258D01*
X109337242Y-69158139D01*
X109285867Y-69202657D01*
X109227515Y-69229867D01*
X109041179Y-69360342D01*
X108880342Y-69521179D01*
X108749865Y-69707517D01*
X108653734Y-69913673D01*
X108653730Y-69913682D01*
X108601127Y-70109999D01*
X108601128Y-70110000D01*
X109564314Y-70110000D01*
X109559920Y-70114394D01*
X109507259Y-70205606D01*
X109480000Y-70307339D01*
X109480000Y-70412661D01*
X109507259Y-70514394D01*
X109559920Y-70605606D01*
X109564314Y-70610000D01*
X108601128Y-70610000D01*
X108653730Y-70806317D01*
X108653734Y-70806326D01*
X108749865Y-71012482D01*
X108880342Y-71198820D01*
X109041179Y-71359657D01*
X109227517Y-71490134D01*
X109433673Y-71586265D01*
X109433682Y-71586269D01*
X109629999Y-71638872D01*
X109630000Y-71638871D01*
X109630000Y-70675686D01*
X109634394Y-70680080D01*
X109725606Y-70732741D01*
X109827339Y-70760000D01*
X109932661Y-70760000D01*
X110034394Y-70732741D01*
X110125606Y-70680080D01*
X110130000Y-70675686D01*
X110130000Y-71638872D01*
X110326317Y-71586269D01*
X110326326Y-71586265D01*
X110532482Y-71490134D01*
X110718820Y-71359657D01*
X110879657Y-71198820D01*
X111010134Y-71012482D01*
X111106265Y-70806326D01*
X111106269Y-70806317D01*
X111158872Y-70610000D01*
X110195686Y-70610000D01*
X110200080Y-70605606D01*
X110252741Y-70514394D01*
X110280000Y-70412661D01*
X110280000Y-70307339D01*
X110252741Y-70205606D01*
X110200080Y-70114394D01*
X110195686Y-70110000D01*
X111158872Y-70110000D01*
X111158872Y-70109999D01*
X111106269Y-69913682D01*
X111106265Y-69913673D01*
X111010134Y-69707517D01*
X110879657Y-69521179D01*
X110718820Y-69360342D01*
X110532482Y-69229865D01*
X110474133Y-69202657D01*
X110421694Y-69156484D01*
X110402542Y-69089291D01*
X110422758Y-69022410D01*
X110474129Y-68977895D01*
X110532734Y-68950568D01*
X110719139Y-68820047D01*
X110880047Y-68659139D01*
X111010568Y-68472734D01*
X111106739Y-68266496D01*
X111165635Y-68046692D01*
X111185468Y-67820000D01*
X111183034Y-67792184D01*
X111165635Y-67593313D01*
X111165635Y-67593308D01*
X111106739Y-67373504D01*
X111010568Y-67167266D01*
X110880047Y-66980861D01*
X110880045Y-66980858D01*
X110719141Y-66819954D01*
X110532734Y-66689432D01*
X110532728Y-66689429D01*
X110474725Y-66662382D01*
X110422285Y-66616210D01*
X110403133Y-66549017D01*
X110423348Y-66482135D01*
X110474725Y-66437618D01*
X110532734Y-66410568D01*
X110719139Y-66280047D01*
X110880047Y-66119139D01*
X111010568Y-65932734D01*
X111106739Y-65726496D01*
X111106740Y-65726490D01*
X111106743Y-65726484D01*
X111154595Y-65547893D01*
X111165635Y-65506692D01*
X111185468Y-65280000D01*
X111165635Y-65053308D01*
X111106739Y-64833504D01*
X111010568Y-64627266D01*
X110880047Y-64440861D01*
X110880045Y-64440858D01*
X110719141Y-64279954D01*
X110532734Y-64149432D01*
X110532728Y-64149429D01*
X110474725Y-64122382D01*
X110422285Y-64076210D01*
X110403133Y-64009017D01*
X110423348Y-63942135D01*
X110474725Y-63897618D01*
X110532734Y-63870568D01*
X110719139Y-63740047D01*
X110880047Y-63579139D01*
X111010568Y-63392734D01*
X111106739Y-63186496D01*
X111165635Y-62966692D01*
X111185468Y-62740000D01*
X111165635Y-62513308D01*
X111106739Y-62293504D01*
X111010568Y-62087266D01*
X110880047Y-61900861D01*
X110880045Y-61900858D01*
X110719141Y-61739954D01*
X110532734Y-61609432D01*
X110532728Y-61609429D01*
X110474725Y-61582382D01*
X110422285Y-61536210D01*
X110403133Y-61469017D01*
X110423348Y-61402135D01*
X110474725Y-61357618D01*
X110532734Y-61330568D01*
X110719139Y-61200047D01*
X110880047Y-61039139D01*
X111010568Y-60852734D01*
X111106739Y-60646496D01*
X111165635Y-60426692D01*
X111185468Y-60200000D01*
X111165635Y-59973308D01*
X111106739Y-59753504D01*
X111010568Y-59547266D01*
X110880047Y-59360861D01*
X110880045Y-59360858D01*
X110719141Y-59199954D01*
X110532734Y-59069432D01*
X110532728Y-59069429D01*
X110474725Y-59042382D01*
X110422285Y-58996210D01*
X110403133Y-58929017D01*
X110423348Y-58862135D01*
X110474725Y-58817618D01*
X110532734Y-58790568D01*
X110719139Y-58660047D01*
X110880047Y-58499139D01*
X111010568Y-58312734D01*
X111106739Y-58106496D01*
X111165635Y-57886692D01*
X111185468Y-57660000D01*
X111165635Y-57433308D01*
X111106739Y-57213504D01*
X111010568Y-57007266D01*
X110880047Y-56820861D01*
X110880045Y-56820858D01*
X110719141Y-56659954D01*
X110532734Y-56529432D01*
X110532728Y-56529429D01*
X110474725Y-56502382D01*
X110422285Y-56456210D01*
X110403133Y-56389017D01*
X110423348Y-56322135D01*
X110474725Y-56277618D01*
X110532734Y-56250568D01*
X110719139Y-56120047D01*
X110880047Y-55959139D01*
X111010568Y-55772734D01*
X111106739Y-55566496D01*
X111165635Y-55346692D01*
X111185468Y-55120000D01*
X111165635Y-54893308D01*
X111106739Y-54673504D01*
X111010568Y-54467266D01*
X110880047Y-54280861D01*
X110880045Y-54280858D01*
X110719143Y-54119956D01*
X110694536Y-54102726D01*
X110650912Y-54048149D01*
X110643719Y-53978650D01*
X110675241Y-53916296D01*
X110735471Y-53880882D01*
X110752404Y-53877861D01*
X110787483Y-53874091D01*
X110922331Y-53823796D01*
X111037546Y-53737546D01*
X111123796Y-53622331D01*
X111174091Y-53487483D01*
X111180500Y-53427873D01*
X111180499Y-52579998D01*
X116194532Y-52579998D01*
X116194532Y-52580001D01*
X116214364Y-52806686D01*
X116214366Y-52806697D01*
X116273258Y-53026488D01*
X116273261Y-53026497D01*
X116369431Y-53232732D01*
X116369432Y-53232734D01*
X116499954Y-53419141D01*
X116660858Y-53580045D01*
X116660861Y-53580047D01*
X116847266Y-53710568D01*
X116905275Y-53737618D01*
X116957714Y-53783791D01*
X116976866Y-53850984D01*
X116956650Y-53917865D01*
X116905275Y-53962382D01*
X116847267Y-53989431D01*
X116847265Y-53989432D01*
X116660858Y-54119954D01*
X116499954Y-54280858D01*
X116369432Y-54467265D01*
X116369431Y-54467267D01*
X116273261Y-54673502D01*
X116273258Y-54673511D01*
X116214366Y-54893302D01*
X116214364Y-54893313D01*
X116194532Y-55119998D01*
X116194532Y-55120001D01*
X116214364Y-55346686D01*
X116214366Y-55346697D01*
X116273258Y-55566488D01*
X116273261Y-55566497D01*
X116369431Y-55772732D01*
X116369432Y-55772734D01*
X116499954Y-55959141D01*
X116660858Y-56120045D01*
X116660861Y-56120047D01*
X116847266Y-56250568D01*
X116905275Y-56277618D01*
X116957714Y-56323791D01*
X116976866Y-56390984D01*
X116956650Y-56457865D01*
X116905275Y-56502382D01*
X116847267Y-56529431D01*
X116847265Y-56529432D01*
X116660858Y-56659954D01*
X116499954Y-56820858D01*
X116369432Y-57007265D01*
X116369431Y-57007267D01*
X116273261Y-57213502D01*
X116273258Y-57213511D01*
X116214366Y-57433302D01*
X116214364Y-57433313D01*
X116194532Y-57659998D01*
X116194532Y-57660001D01*
X116214364Y-57886686D01*
X116214366Y-57886697D01*
X116273258Y-58106488D01*
X116273261Y-58106497D01*
X116369431Y-58312732D01*
X116369432Y-58312734D01*
X116499954Y-58499141D01*
X116660858Y-58660045D01*
X116660861Y-58660047D01*
X116847266Y-58790568D01*
X116850732Y-58792184D01*
X116905275Y-58817618D01*
X116957714Y-58863791D01*
X116976866Y-58930984D01*
X116956650Y-58997865D01*
X116905275Y-59042382D01*
X116847267Y-59069431D01*
X116847265Y-59069432D01*
X116660858Y-59199954D01*
X116499954Y-59360858D01*
X116369432Y-59547265D01*
X116369431Y-59547267D01*
X116273261Y-59753502D01*
X116273258Y-59753511D01*
X116214366Y-59973302D01*
X116214364Y-59973313D01*
X116194532Y-60199998D01*
X116194532Y-60200001D01*
X116214364Y-60426686D01*
X116214366Y-60426697D01*
X116273258Y-60646488D01*
X116273261Y-60646497D01*
X116369431Y-60852732D01*
X116369432Y-60852734D01*
X116499954Y-61039141D01*
X116660858Y-61200045D01*
X116660861Y-61200047D01*
X116847266Y-61330568D01*
X116905275Y-61357618D01*
X116957714Y-61403791D01*
X116976866Y-61470984D01*
X116956650Y-61537865D01*
X116905275Y-61582382D01*
X116847267Y-61609431D01*
X116847265Y-61609432D01*
X116660858Y-61739954D01*
X116499954Y-61900858D01*
X116369432Y-62087265D01*
X116369431Y-62087267D01*
X116273261Y-62293502D01*
X116273258Y-62293511D01*
X116214366Y-62513302D01*
X116214364Y-62513313D01*
X116194532Y-62739998D01*
X116194532Y-62740001D01*
X116214364Y-62966686D01*
X116214366Y-62966697D01*
X116273258Y-63186488D01*
X116273261Y-63186497D01*
X116369431Y-63392732D01*
X116369432Y-63392734D01*
X116499954Y-63579141D01*
X116660858Y-63740045D01*
X116660861Y-63740047D01*
X116847266Y-63870568D01*
X116905275Y-63897618D01*
X116957714Y-63943791D01*
X116976866Y-64010984D01*
X116956650Y-64077865D01*
X116905275Y-64122382D01*
X116847267Y-64149431D01*
X116847265Y-64149432D01*
X116660858Y-64279954D01*
X116499954Y-64440858D01*
X116369432Y-64627265D01*
X116369431Y-64627267D01*
X116273261Y-64833502D01*
X116273258Y-64833511D01*
X116214366Y-65053302D01*
X116214364Y-65053313D01*
X116194532Y-65279998D01*
X116194532Y-65280001D01*
X116214364Y-65506686D01*
X116214366Y-65506697D01*
X116273257Y-65726484D01*
X116273261Y-65726497D01*
X116369431Y-65932732D01*
X116369432Y-65932734D01*
X116499954Y-66119141D01*
X116660858Y-66280045D01*
X116660861Y-66280047D01*
X116847266Y-66410568D01*
X116888938Y-66430000D01*
X116905275Y-66437618D01*
X116957714Y-66483791D01*
X116976866Y-66550984D01*
X116956650Y-66617865D01*
X116905275Y-66662382D01*
X116847267Y-66689431D01*
X116847265Y-66689432D01*
X116660858Y-66819954D01*
X116499954Y-66980858D01*
X116369432Y-67167265D01*
X116369431Y-67167267D01*
X116273261Y-67373502D01*
X116273258Y-67373511D01*
X116214366Y-67593302D01*
X116214364Y-67593313D01*
X116194532Y-67819998D01*
X116194532Y-67820001D01*
X116214364Y-68046686D01*
X116214366Y-68046697D01*
X116273258Y-68266488D01*
X116273261Y-68266497D01*
X116369431Y-68472732D01*
X116369432Y-68472734D01*
X116499954Y-68659141D01*
X116660858Y-68820045D01*
X116660861Y-68820047D01*
X116847266Y-68950568D01*
X116905275Y-68977618D01*
X116957714Y-69023791D01*
X116976866Y-69090984D01*
X116956650Y-69157865D01*
X116905275Y-69202381D01*
X116893613Y-69207820D01*
X116847267Y-69229431D01*
X116847265Y-69229432D01*
X116660858Y-69359954D01*
X116499954Y-69520858D01*
X116369432Y-69707265D01*
X116369431Y-69707267D01*
X116273261Y-69913502D01*
X116273258Y-69913511D01*
X116214366Y-70133302D01*
X116214364Y-70133313D01*
X116194532Y-70359998D01*
X116194532Y-70360001D01*
X116214364Y-70586686D01*
X116214366Y-70586697D01*
X116273257Y-70806484D01*
X116273261Y-70806497D01*
X116369431Y-71012732D01*
X116369432Y-71012734D01*
X116499954Y-71199141D01*
X116660858Y-71360045D01*
X116660861Y-71360047D01*
X116847266Y-71490568D01*
X117053504Y-71586739D01*
X117273308Y-71645635D01*
X117435230Y-71659801D01*
X117499998Y-71665468D01*
X117500000Y-71665468D01*
X117500002Y-71665468D01*
X117556673Y-71660509D01*
X117726692Y-71645635D01*
X117946496Y-71586739D01*
X118152734Y-71490568D01*
X118339139Y-71360047D01*
X118500047Y-71199139D01*
X118630568Y-71012734D01*
X118726739Y-70806496D01*
X118726740Y-70806490D01*
X118726743Y-70806484D01*
X118774595Y-70627893D01*
X118785635Y-70586692D01*
X118805468Y-70360000D01*
X118785635Y-70133308D01*
X118726739Y-69913504D01*
X118630568Y-69707266D01*
X118532839Y-69567693D01*
X118500045Y-69520858D01*
X118339141Y-69359954D01*
X118152734Y-69229432D01*
X118152728Y-69229429D01*
X118106387Y-69207820D01*
X118094724Y-69202381D01*
X118042285Y-69156210D01*
X118023133Y-69089017D01*
X118043348Y-69022135D01*
X118094725Y-68977618D01*
X118152734Y-68950568D01*
X118339139Y-68820047D01*
X118500047Y-68659139D01*
X118630568Y-68472734D01*
X118726739Y-68266496D01*
X118785635Y-68046692D01*
X118805468Y-67820000D01*
X118803034Y-67792184D01*
X118785635Y-67593313D01*
X118785635Y-67593308D01*
X118726739Y-67373504D01*
X118630568Y-67167266D01*
X118500047Y-66980861D01*
X118500045Y-66980858D01*
X118339141Y-66819954D01*
X118152734Y-66689432D01*
X118152728Y-66689429D01*
X118094725Y-66662382D01*
X118042285Y-66616210D01*
X118023133Y-66549017D01*
X118043348Y-66482135D01*
X118094725Y-66437618D01*
X118152734Y-66410568D01*
X118339139Y-66280047D01*
X118500047Y-66119139D01*
X118630568Y-65932734D01*
X118726739Y-65726496D01*
X118726740Y-65726490D01*
X118726743Y-65726484D01*
X118774595Y-65547893D01*
X118785635Y-65506692D01*
X118799345Y-65349983D01*
X123024500Y-65349983D01*
X123024500Y-66650001D01*
X123024501Y-66650018D01*
X123035000Y-66752796D01*
X123035001Y-66752799D01*
X123090185Y-66919331D01*
X123090187Y-66919336D01*
X123182289Y-67068657D01*
X123306344Y-67192712D01*
X123461120Y-67288178D01*
X123507845Y-67340126D01*
X123519068Y-67409088D01*
X123491224Y-67473171D01*
X123483706Y-67481398D01*
X123344889Y-67620215D01*
X123219951Y-67792179D01*
X123123444Y-67981585D01*
X123057753Y-68183760D01*
X123033098Y-68339429D01*
X123024500Y-68393713D01*
X123024500Y-68606287D01*
X123057754Y-68816243D01*
X123110277Y-68977892D01*
X123123444Y-69018414D01*
X123219951Y-69207820D01*
X123344890Y-69379786D01*
X123495209Y-69530105D01*
X123495214Y-69530109D01*
X123659793Y-69649682D01*
X123702459Y-69705011D01*
X123708438Y-69774625D01*
X123675833Y-69836420D01*
X123659793Y-69850318D01*
X123495214Y-69969890D01*
X123495209Y-69969894D01*
X123344890Y-70120213D01*
X123219951Y-70292179D01*
X123123444Y-70481585D01*
X123057753Y-70683760D01*
X123031046Y-70852382D01*
X123024500Y-70893713D01*
X123024500Y-71106287D01*
X123057754Y-71316243D01*
X123071986Y-71360045D01*
X123123444Y-71518414D01*
X123219951Y-71707820D01*
X123344890Y-71879786D01*
X123495209Y-72030105D01*
X123495214Y-72030109D01*
X123659793Y-72149682D01*
X123702459Y-72205011D01*
X123708438Y-72274625D01*
X123675833Y-72336420D01*
X123659793Y-72350318D01*
X123495214Y-72469890D01*
X123495209Y-72469894D01*
X123344890Y-72620213D01*
X123219951Y-72792179D01*
X123123444Y-72981585D01*
X123057753Y-73183760D01*
X123024500Y-73393713D01*
X123024500Y-73606286D01*
X123041062Y-73710858D01*
X123057754Y-73816243D01*
X123119902Y-74007515D01*
X123123444Y-74018414D01*
X123219951Y-74207820D01*
X123344890Y-74379786D01*
X123495209Y-74530105D01*
X123495214Y-74530109D01*
X123659793Y-74649682D01*
X123702459Y-74705011D01*
X123708438Y-74774625D01*
X123675833Y-74836420D01*
X123659793Y-74850318D01*
X123495214Y-74969890D01*
X123495209Y-74969894D01*
X123344890Y-75120213D01*
X123219951Y-75292179D01*
X123123444Y-75481585D01*
X123057753Y-75683760D01*
X123024500Y-75893713D01*
X123024500Y-76106286D01*
X123057753Y-76316239D01*
X123123444Y-76518414D01*
X123219951Y-76707820D01*
X123344890Y-76879786D01*
X123495213Y-77030109D01*
X123667179Y-77155048D01*
X123667181Y-77155049D01*
X123667184Y-77155051D01*
X123856588Y-77251557D01*
X124058757Y-77317246D01*
X124268713Y-77350500D01*
X124268714Y-77350500D01*
X124731286Y-77350500D01*
X124731287Y-77350500D01*
X124941243Y-77317246D01*
X125143412Y-77251557D01*
X125332816Y-77155051D01*
X125354789Y-77139086D01*
X125504786Y-77030109D01*
X125504788Y-77030106D01*
X125504792Y-77030104D01*
X125655104Y-76879792D01*
X125655106Y-76879788D01*
X125655109Y-76879786D01*
X125780048Y-76707820D01*
X125780047Y-76707820D01*
X125780051Y-76707816D01*
X125876557Y-76518412D01*
X125942246Y-76316243D01*
X125975500Y-76106287D01*
X125975500Y-75893713D01*
X125942246Y-75683757D01*
X125876557Y-75481588D01*
X125780051Y-75292184D01*
X125780049Y-75292181D01*
X125780048Y-75292179D01*
X125655109Y-75120213D01*
X125504792Y-74969896D01*
X125504784Y-74969890D01*
X125340204Y-74850316D01*
X125297540Y-74794989D01*
X125291561Y-74725376D01*
X125324166Y-74663580D01*
X125340199Y-74649686D01*
X125504792Y-74530104D01*
X125655104Y-74379792D01*
X125655106Y-74379788D01*
X125655109Y-74379786D01*
X125780048Y-74207820D01*
X125780047Y-74207820D01*
X125780051Y-74207816D01*
X125876557Y-74018412D01*
X125942246Y-73816243D01*
X125975500Y-73606287D01*
X125975500Y-73393713D01*
X125942246Y-73183757D01*
X125876557Y-72981588D01*
X125780051Y-72792184D01*
X125780049Y-72792181D01*
X125780048Y-72792179D01*
X125655109Y-72620213D01*
X125504792Y-72469896D01*
X125486102Y-72456317D01*
X125340204Y-72350316D01*
X125297540Y-72294989D01*
X125291561Y-72225376D01*
X125324166Y-72163580D01*
X125340199Y-72149686D01*
X125504792Y-72030104D01*
X125655104Y-71879792D01*
X125655106Y-71879788D01*
X125655109Y-71879786D01*
X125780048Y-71707820D01*
X125780047Y-71707820D01*
X125780051Y-71707816D01*
X125876557Y-71518412D01*
X125942246Y-71316243D01*
X125975500Y-71106287D01*
X125975500Y-70893713D01*
X125942246Y-70683757D01*
X125876557Y-70481588D01*
X125780051Y-70292184D01*
X125780049Y-70292181D01*
X125780048Y-70292179D01*
X125655109Y-70120213D01*
X125504792Y-69969896D01*
X125431294Y-69916497D01*
X125340204Y-69850316D01*
X125297540Y-69794989D01*
X125291561Y-69725376D01*
X125324166Y-69663580D01*
X125340199Y-69649686D01*
X125504792Y-69530104D01*
X125655104Y-69379792D01*
X125655106Y-69379788D01*
X125655109Y-69379786D01*
X125780048Y-69207820D01*
X125780047Y-69207820D01*
X125780051Y-69207816D01*
X125876557Y-69018412D01*
X125942246Y-68816243D01*
X125975500Y-68606287D01*
X125975500Y-68393713D01*
X125942246Y-68183757D01*
X125876557Y-67981588D01*
X125780051Y-67792184D01*
X125780049Y-67792181D01*
X125780048Y-67792179D01*
X125655109Y-67620213D01*
X125516294Y-67481398D01*
X125482809Y-67420075D01*
X125487793Y-67350383D01*
X125529665Y-67294450D01*
X125538879Y-67288178D01*
X125544331Y-67284814D01*
X125544334Y-67284814D01*
X125693656Y-67192712D01*
X125817712Y-67068656D01*
X125909814Y-66919334D01*
X125964999Y-66752797D01*
X125975500Y-66650009D01*
X125975499Y-65349992D01*
X125964999Y-65247203D01*
X125909814Y-65080666D01*
X125817712Y-64931344D01*
X125693656Y-64807288D01*
X125544334Y-64715186D01*
X125377797Y-64660001D01*
X125377795Y-64660000D01*
X125275010Y-64649500D01*
X123724998Y-64649500D01*
X123724981Y-64649501D01*
X123622203Y-64660000D01*
X123622200Y-64660001D01*
X123455668Y-64715185D01*
X123455663Y-64715187D01*
X123306342Y-64807289D01*
X123182289Y-64931342D01*
X123090187Y-65080663D01*
X123090186Y-65080666D01*
X123035001Y-65247203D01*
X123035001Y-65247204D01*
X123035000Y-65247204D01*
X123024500Y-65349983D01*
X118799345Y-65349983D01*
X118805468Y-65280000D01*
X118785635Y-65053308D01*
X118726739Y-64833504D01*
X118630568Y-64627266D01*
X118500047Y-64440861D01*
X118500045Y-64440858D01*
X118339141Y-64279954D01*
X118152734Y-64149432D01*
X118152728Y-64149429D01*
X118094725Y-64122382D01*
X118042285Y-64076210D01*
X118023133Y-64009017D01*
X118043348Y-63942135D01*
X118094725Y-63897618D01*
X118152734Y-63870568D01*
X118339139Y-63740047D01*
X118500047Y-63579139D01*
X118630568Y-63392734D01*
X118726739Y-63186496D01*
X118785635Y-62966692D01*
X118805468Y-62740000D01*
X118785635Y-62513308D01*
X118726739Y-62293504D01*
X118630568Y-62087266D01*
X118500047Y-61900861D01*
X118500045Y-61900858D01*
X118339141Y-61739954D01*
X118152734Y-61609432D01*
X118152728Y-61609429D01*
X118094725Y-61582382D01*
X118042285Y-61536210D01*
X118023133Y-61469017D01*
X118043348Y-61402135D01*
X118094725Y-61357618D01*
X118152734Y-61330568D01*
X118339139Y-61200047D01*
X118500047Y-61039139D01*
X118630568Y-60852734D01*
X118726739Y-60646496D01*
X118785635Y-60426692D01*
X118805468Y-60200000D01*
X118785635Y-59973308D01*
X118726739Y-59753504D01*
X118630568Y-59547266D01*
X118500047Y-59360861D01*
X118500045Y-59360858D01*
X118339141Y-59199954D01*
X118152734Y-59069432D01*
X118152728Y-59069429D01*
X118094725Y-59042382D01*
X118042285Y-58996210D01*
X118023133Y-58929017D01*
X118043348Y-58862135D01*
X118094725Y-58817618D01*
X118152734Y-58790568D01*
X118339139Y-58660047D01*
X118500047Y-58499139D01*
X118630568Y-58312734D01*
X118726739Y-58106496D01*
X118785635Y-57886692D01*
X118805468Y-57660000D01*
X118785635Y-57433308D01*
X118726739Y-57213504D01*
X118630568Y-57007266D01*
X118500047Y-56820861D01*
X118500045Y-56820858D01*
X118339141Y-56659954D01*
X118152734Y-56529432D01*
X118152728Y-56529429D01*
X118094725Y-56502382D01*
X118042285Y-56456210D01*
X118023133Y-56389017D01*
X118043348Y-56322135D01*
X118094725Y-56277618D01*
X118152734Y-56250568D01*
X118339139Y-56120047D01*
X118500047Y-55959139D01*
X118630568Y-55772734D01*
X118726739Y-55566496D01*
X118785635Y-55346692D01*
X118805468Y-55120000D01*
X118785635Y-54893308D01*
X118726739Y-54673504D01*
X118630568Y-54467266D01*
X118500047Y-54280861D01*
X118500045Y-54280858D01*
X118339141Y-54119954D01*
X118152734Y-53989432D01*
X118152728Y-53989429D01*
X118094725Y-53962382D01*
X118042285Y-53916210D01*
X118023133Y-53849017D01*
X118043348Y-53782135D01*
X118094725Y-53737618D01*
X118152734Y-53710568D01*
X118339139Y-53580047D01*
X118500047Y-53419139D01*
X118630568Y-53232734D01*
X118726739Y-53026496D01*
X118785635Y-52806692D01*
X118805468Y-52580000D01*
X118785635Y-52353308D01*
X118726739Y-52133504D01*
X118630568Y-51927266D01*
X118500047Y-51740861D01*
X118500045Y-51740858D01*
X118339141Y-51579954D01*
X118152734Y-51449432D01*
X118152732Y-51449431D01*
X117946497Y-51353261D01*
X117946488Y-51353258D01*
X117726697Y-51294366D01*
X117726693Y-51294365D01*
X117726692Y-51294365D01*
X117726691Y-51294364D01*
X117726686Y-51294364D01*
X117500002Y-51274532D01*
X117499998Y-51274532D01*
X117273313Y-51294364D01*
X117273302Y-51294366D01*
X117053511Y-51353258D01*
X117053502Y-51353261D01*
X116847267Y-51449431D01*
X116847265Y-51449432D01*
X116660858Y-51579954D01*
X116499954Y-51740858D01*
X116369432Y-51927265D01*
X116369431Y-51927267D01*
X116273261Y-52133502D01*
X116273258Y-52133511D01*
X116214366Y-52353302D01*
X116214364Y-52353313D01*
X116194532Y-52579998D01*
X111180499Y-52579998D01*
X111180499Y-51732128D01*
X111174091Y-51672517D01*
X111139567Y-51579954D01*
X111123797Y-51537671D01*
X111123793Y-51537664D01*
X111037547Y-51422455D01*
X111037544Y-51422452D01*
X110922335Y-51336206D01*
X110922328Y-51336202D01*
X110787482Y-51285908D01*
X110787483Y-51285908D01*
X110727883Y-51279501D01*
X110727881Y-51279500D01*
X110727873Y-51279500D01*
X110727864Y-51279500D01*
X109032129Y-51279500D01*
X109032123Y-51279501D01*
X108972516Y-51285908D01*
X108837671Y-51336202D01*
X108837664Y-51336206D01*
X108722455Y-51422452D01*
X108722452Y-51422455D01*
X108636206Y-51537664D01*
X108636202Y-51537671D01*
X108585908Y-51672517D01*
X108579501Y-51732116D01*
X108579501Y-51732123D01*
X108579500Y-51732135D01*
X108579500Y-53427870D01*
X108579501Y-53427876D01*
X108585908Y-53487483D01*
X108636202Y-53622328D01*
X108636206Y-53622335D01*
X108722452Y-53737544D01*
X108722455Y-53737547D01*
X108837664Y-53823793D01*
X108837671Y-53823797D01*
X108882618Y-53840561D01*
X108972517Y-53874091D01*
X109007596Y-53877862D01*
X109072144Y-53904599D01*
X109111993Y-53961991D01*
X109114488Y-54031816D01*
X109078836Y-54091905D01*
X109065464Y-54102725D01*
X109040858Y-54119954D01*
X108879954Y-54280858D01*
X108749432Y-54467265D01*
X108749431Y-54467267D01*
X108653261Y-54673502D01*
X108653258Y-54673511D01*
X108594366Y-54893302D01*
X108594364Y-54893313D01*
X108574532Y-55119998D01*
X105559188Y-55119998D01*
X105610047Y-55069139D01*
X105740568Y-54882734D01*
X105836739Y-54676496D01*
X105895635Y-54456692D01*
X105915468Y-54230000D01*
X105895635Y-54003308D01*
X105839065Y-53792184D01*
X105836741Y-53783511D01*
X105836738Y-53783502D01*
X105802728Y-53710568D01*
X105740568Y-53577266D01*
X105610047Y-53390861D01*
X105610045Y-53390858D01*
X105449141Y-53229954D01*
X105262734Y-53099432D01*
X105262728Y-53099429D01*
X105204725Y-53072382D01*
X105152285Y-53026210D01*
X105133133Y-52959017D01*
X105153348Y-52892135D01*
X105204725Y-52847618D01*
X105262734Y-52820568D01*
X105449139Y-52690047D01*
X105610047Y-52529139D01*
X105740568Y-52342734D01*
X105836739Y-52136496D01*
X105895635Y-51916692D01*
X105915468Y-51690000D01*
X105913938Y-51672517D01*
X105895635Y-51463313D01*
X105895635Y-51463308D01*
X105836739Y-51243504D01*
X105740568Y-51037266D01*
X105610047Y-50850861D01*
X105610045Y-50850858D01*
X105449141Y-50689954D01*
X105262734Y-50559432D01*
X105262728Y-50559429D01*
X105204725Y-50532382D01*
X105152285Y-50486210D01*
X105133133Y-50419017D01*
X105153348Y-50352135D01*
X105204725Y-50307618D01*
X105262734Y-50280568D01*
X105449139Y-50150047D01*
X105610047Y-49989139D01*
X105740568Y-49802734D01*
X105836739Y-49596496D01*
X105895635Y-49376692D01*
X105915468Y-49150000D01*
X105898845Y-48959997D01*
X110695034Y-48959997D01*
X110695034Y-48960002D01*
X110714858Y-49186599D01*
X110714860Y-49186610D01*
X110773730Y-49406317D01*
X110773735Y-49406331D01*
X110869863Y-49612478D01*
X110920974Y-49685472D01*
X111600000Y-49006446D01*
X111600000Y-49012661D01*
X111627259Y-49114394D01*
X111679920Y-49205606D01*
X111754394Y-49280080D01*
X111845606Y-49332741D01*
X111947339Y-49360000D01*
X111953553Y-49360000D01*
X111274526Y-50039025D01*
X111347513Y-50090132D01*
X111347521Y-50090136D01*
X111553668Y-50186264D01*
X111553682Y-50186269D01*
X111773389Y-50245139D01*
X111773400Y-50245141D01*
X111999998Y-50264966D01*
X112000002Y-50264966D01*
X112226599Y-50245141D01*
X112226610Y-50245139D01*
X112446317Y-50186269D01*
X112446331Y-50186264D01*
X112652478Y-50090136D01*
X112725471Y-50039024D01*
X112046447Y-49360000D01*
X112052661Y-49360000D01*
X112154394Y-49332741D01*
X112245606Y-49280080D01*
X112320080Y-49205606D01*
X112372741Y-49114394D01*
X112400000Y-49012661D01*
X112400000Y-49006447D01*
X113079024Y-49685471D01*
X113130134Y-49612481D01*
X113137340Y-49597028D01*
X113183511Y-49544587D01*
X113250704Y-49525433D01*
X113317585Y-49545646D01*
X113362105Y-49597022D01*
X113369430Y-49612730D01*
X113369432Y-49612734D01*
X113499954Y-49799141D01*
X113660858Y-49960045D01*
X113660861Y-49960047D01*
X113847266Y-50090568D01*
X114053504Y-50186739D01*
X114273308Y-50245635D01*
X114435230Y-50259801D01*
X114499998Y-50265468D01*
X114500000Y-50265468D01*
X114500002Y-50265468D01*
X114556673Y-50260509D01*
X114726692Y-50245635D01*
X114946496Y-50186739D01*
X115152734Y-50090568D01*
X115339139Y-49960047D01*
X115500047Y-49799139D01*
X115630568Y-49612734D01*
X115726739Y-49406496D01*
X115785635Y-49186692D01*
X115805468Y-48960000D01*
X115795843Y-48849983D01*
X123024500Y-48849983D01*
X123024500Y-50150001D01*
X123024501Y-50150018D01*
X123035000Y-50252796D01*
X123035001Y-50252799D01*
X123090185Y-50419331D01*
X123090187Y-50419336D01*
X123182289Y-50568657D01*
X123306344Y-50692712D01*
X123461120Y-50788178D01*
X123507845Y-50840126D01*
X123519068Y-50909088D01*
X123491224Y-50973171D01*
X123483706Y-50981398D01*
X123344889Y-51120215D01*
X123219951Y-51292179D01*
X123123444Y-51481585D01*
X123057753Y-51683760D01*
X123024500Y-51893713D01*
X123024500Y-52106287D01*
X123057754Y-52316243D01*
X123069797Y-52353308D01*
X123123444Y-52518414D01*
X123219951Y-52707820D01*
X123344890Y-52879786D01*
X123495209Y-53030105D01*
X123495214Y-53030109D01*
X123659793Y-53149682D01*
X123702459Y-53205011D01*
X123708438Y-53274625D01*
X123675833Y-53336420D01*
X123659793Y-53350318D01*
X123495214Y-53469890D01*
X123495209Y-53469894D01*
X123344890Y-53620213D01*
X123219951Y-53792179D01*
X123123444Y-53981585D01*
X123057753Y-54183760D01*
X123042374Y-54280861D01*
X123024500Y-54393713D01*
X123024500Y-54606287D01*
X123057754Y-54816243D01*
X123079358Y-54882734D01*
X123123444Y-55018414D01*
X123219951Y-55207820D01*
X123344890Y-55379786D01*
X123495209Y-55530105D01*
X123495214Y-55530109D01*
X123659793Y-55649682D01*
X123702459Y-55705011D01*
X123708438Y-55774625D01*
X123675833Y-55836420D01*
X123659793Y-55850318D01*
X123495214Y-55969890D01*
X123495209Y-55969894D01*
X123344890Y-56120213D01*
X123219951Y-56292179D01*
X123123444Y-56481585D01*
X123057753Y-56683760D01*
X123024500Y-56893713D01*
X123024500Y-57106286D01*
X123041955Y-57216496D01*
X123057754Y-57316243D01*
X123092355Y-57422734D01*
X123123444Y-57518414D01*
X123219951Y-57707820D01*
X123344890Y-57879786D01*
X123495209Y-58030105D01*
X123495214Y-58030109D01*
X123659793Y-58149682D01*
X123702459Y-58205011D01*
X123708438Y-58274625D01*
X123675833Y-58336420D01*
X123659793Y-58350318D01*
X123495214Y-58469890D01*
X123495209Y-58469894D01*
X123344890Y-58620213D01*
X123219951Y-58792179D01*
X123123444Y-58981585D01*
X123057753Y-59183760D01*
X123024500Y-59393713D01*
X123024500Y-59606286D01*
X123048289Y-59756488D01*
X123057754Y-59816243D01*
X123108789Y-59973313D01*
X123123444Y-60018414D01*
X123219951Y-60207820D01*
X123344890Y-60379786D01*
X123495213Y-60530109D01*
X123667179Y-60655048D01*
X123667181Y-60655049D01*
X123667184Y-60655051D01*
X123856588Y-60751557D01*
X124058757Y-60817246D01*
X124268713Y-60850500D01*
X124268714Y-60850500D01*
X124731286Y-60850500D01*
X124731287Y-60850500D01*
X124941243Y-60817246D01*
X125143412Y-60751557D01*
X125332816Y-60655051D01*
X125354789Y-60639086D01*
X125504786Y-60530109D01*
X125504788Y-60530106D01*
X125504792Y-60530104D01*
X125655104Y-60379792D01*
X125655106Y-60379788D01*
X125655109Y-60379786D01*
X125780048Y-60207820D01*
X125780047Y-60207820D01*
X125780051Y-60207816D01*
X125876557Y-60018412D01*
X125942246Y-59816243D01*
X125975500Y-59606287D01*
X125975500Y-59393713D01*
X125942246Y-59183757D01*
X125876557Y-58981588D01*
X125780051Y-58792184D01*
X125780049Y-58792181D01*
X125780048Y-58792179D01*
X125655109Y-58620213D01*
X125504792Y-58469896D01*
X125504784Y-58469890D01*
X125340204Y-58350316D01*
X125297540Y-58294989D01*
X125291561Y-58225376D01*
X125324166Y-58163580D01*
X125340199Y-58149686D01*
X125504792Y-58030104D01*
X125655104Y-57879792D01*
X125655106Y-57879788D01*
X125655109Y-57879786D01*
X125780048Y-57707820D01*
X125780047Y-57707820D01*
X125780051Y-57707816D01*
X125876557Y-57518412D01*
X125942246Y-57316243D01*
X125975500Y-57106287D01*
X125975500Y-56893713D01*
X125942246Y-56683757D01*
X125876557Y-56481588D01*
X125780051Y-56292184D01*
X125780049Y-56292181D01*
X125780048Y-56292179D01*
X125655109Y-56120213D01*
X125504792Y-55969896D01*
X125489986Y-55959139D01*
X125340204Y-55850316D01*
X125297540Y-55794989D01*
X125291561Y-55725376D01*
X125324166Y-55663580D01*
X125340199Y-55649686D01*
X125504792Y-55530104D01*
X125655104Y-55379792D01*
X125655106Y-55379788D01*
X125655109Y-55379786D01*
X125780048Y-55207820D01*
X125780047Y-55207820D01*
X125780051Y-55207816D01*
X125876557Y-55018412D01*
X125942246Y-54816243D01*
X125975500Y-54606287D01*
X125975500Y-54393713D01*
X125942246Y-54183757D01*
X125876557Y-53981588D01*
X125780051Y-53792184D01*
X125780049Y-53792181D01*
X125780048Y-53792179D01*
X125655109Y-53620213D01*
X125504792Y-53469896D01*
X125504784Y-53469890D01*
X125340204Y-53350316D01*
X125297540Y-53294989D01*
X125291561Y-53225376D01*
X125324166Y-53163580D01*
X125340199Y-53149686D01*
X125504792Y-53030104D01*
X125655104Y-52879792D01*
X125655106Y-52879788D01*
X125655109Y-52879786D01*
X125780048Y-52707820D01*
X125780047Y-52707820D01*
X125780051Y-52707816D01*
X125876557Y-52518412D01*
X125942246Y-52316243D01*
X125975500Y-52106287D01*
X125975500Y-51893713D01*
X125942246Y-51683757D01*
X125876557Y-51481588D01*
X125780051Y-51292184D01*
X125780049Y-51292181D01*
X125780048Y-51292179D01*
X125655109Y-51120213D01*
X125516294Y-50981398D01*
X125482809Y-50920075D01*
X125487793Y-50850383D01*
X125529665Y-50794450D01*
X125538879Y-50788178D01*
X125544331Y-50784814D01*
X125544334Y-50784814D01*
X125693656Y-50692712D01*
X125817712Y-50568656D01*
X125909814Y-50419334D01*
X125964999Y-50252797D01*
X125975500Y-50150009D01*
X125975499Y-48849992D01*
X125964999Y-48747203D01*
X125909814Y-48580666D01*
X125817712Y-48431344D01*
X125693656Y-48307288D01*
X125544334Y-48215186D01*
X125377797Y-48160001D01*
X125377795Y-48160000D01*
X125275010Y-48149500D01*
X123724998Y-48149500D01*
X123724981Y-48149501D01*
X123622203Y-48160000D01*
X123622200Y-48160001D01*
X123455668Y-48215185D01*
X123455663Y-48215187D01*
X123306342Y-48307289D01*
X123182289Y-48431342D01*
X123090187Y-48580663D01*
X123090186Y-48580666D01*
X123035001Y-48747203D01*
X123035001Y-48747204D01*
X123035000Y-48747204D01*
X123024500Y-48849983D01*
X115795843Y-48849983D01*
X115785635Y-48733308D01*
X115726739Y-48513504D01*
X115630568Y-48307266D01*
X115500047Y-48120861D01*
X115500045Y-48120858D01*
X115339141Y-47959954D01*
X115152734Y-47829432D01*
X115152732Y-47829431D01*
X114946497Y-47733261D01*
X114946488Y-47733258D01*
X114726697Y-47674366D01*
X114726693Y-47674365D01*
X114726692Y-47674365D01*
X114726691Y-47674364D01*
X114726686Y-47674364D01*
X114500002Y-47654532D01*
X114499998Y-47654532D01*
X114273313Y-47674364D01*
X114273302Y-47674366D01*
X114053511Y-47733258D01*
X114053502Y-47733261D01*
X113847267Y-47829431D01*
X113847265Y-47829432D01*
X113660858Y-47959954D01*
X113499954Y-48120858D01*
X113369432Y-48307265D01*
X113369429Y-48307270D01*
X113362104Y-48322979D01*
X113315929Y-48375417D01*
X113248735Y-48394566D01*
X113181855Y-48374347D01*
X113137341Y-48322973D01*
X113130133Y-48307515D01*
X113130132Y-48307513D01*
X113079025Y-48234526D01*
X112400000Y-48913551D01*
X112400000Y-48907339D01*
X112372741Y-48805606D01*
X112320080Y-48714394D01*
X112245606Y-48639920D01*
X112154394Y-48587259D01*
X112052661Y-48560000D01*
X112046448Y-48560000D01*
X112725472Y-47880974D01*
X112652478Y-47829863D01*
X112446331Y-47733735D01*
X112446317Y-47733730D01*
X112226610Y-47674860D01*
X112226599Y-47674858D01*
X112000002Y-47655034D01*
X111999998Y-47655034D01*
X111773400Y-47674858D01*
X111773389Y-47674860D01*
X111553682Y-47733730D01*
X111553673Y-47733734D01*
X111347516Y-47829866D01*
X111347512Y-47829868D01*
X111274526Y-47880973D01*
X111274526Y-47880974D01*
X111953553Y-48560000D01*
X111947339Y-48560000D01*
X111845606Y-48587259D01*
X111754394Y-48639920D01*
X111679920Y-48714394D01*
X111627259Y-48805606D01*
X111600000Y-48907339D01*
X111600000Y-48913552D01*
X110920974Y-48234526D01*
X110920973Y-48234526D01*
X110869868Y-48307512D01*
X110869866Y-48307516D01*
X110773734Y-48513673D01*
X110773730Y-48513682D01*
X110714860Y-48733389D01*
X110714858Y-48733400D01*
X110695034Y-48959997D01*
X105898845Y-48959997D01*
X105895635Y-48923308D01*
X105836739Y-48703504D01*
X105740568Y-48497266D01*
X105610047Y-48310861D01*
X105610045Y-48310858D01*
X105449141Y-48149954D01*
X105262734Y-48019432D01*
X105262728Y-48019429D01*
X105204725Y-47992382D01*
X105152285Y-47946210D01*
X105133133Y-47879017D01*
X105153348Y-47812135D01*
X105204725Y-47767618D01*
X105262734Y-47740568D01*
X105449139Y-47610047D01*
X105610047Y-47449139D01*
X105740568Y-47262734D01*
X105836739Y-47056496D01*
X105895635Y-46836692D01*
X105915468Y-46610000D01*
X105895635Y-46383308D01*
X105836739Y-46163504D01*
X105740568Y-45957266D01*
X105610047Y-45770861D01*
X105610045Y-45770858D01*
X105449141Y-45609954D01*
X105262734Y-45479432D01*
X105262728Y-45479429D01*
X105204725Y-45452382D01*
X105152285Y-45406210D01*
X105133133Y-45339017D01*
X105153348Y-45272135D01*
X105204725Y-45227618D01*
X105262734Y-45200568D01*
X105449139Y-45070047D01*
X105610047Y-44909139D01*
X105740568Y-44722734D01*
X105836739Y-44516496D01*
X105895635Y-44296692D01*
X105915468Y-44070000D01*
X105895635Y-43843308D01*
X105836739Y-43623504D01*
X105740568Y-43417266D01*
X105610047Y-43230861D01*
X105610045Y-43230858D01*
X105449141Y-43069954D01*
X105262734Y-42939432D01*
X105262728Y-42939429D01*
X105204725Y-42912382D01*
X105152285Y-42866210D01*
X105133133Y-42799017D01*
X105153348Y-42732135D01*
X105204725Y-42687618D01*
X105262734Y-42660568D01*
X105449139Y-42530047D01*
X105610047Y-42369139D01*
X105740568Y-42182734D01*
X105836739Y-41976496D01*
X105895635Y-41756692D01*
X105915468Y-41530000D01*
X105895635Y-41303308D01*
X105836739Y-41083504D01*
X105740568Y-40877266D01*
X105610047Y-40690861D01*
X105610045Y-40690858D01*
X105449141Y-40529954D01*
X105262734Y-40399432D01*
X105262728Y-40399429D01*
X105204725Y-40372382D01*
X105152285Y-40326210D01*
X105133133Y-40259017D01*
X105153348Y-40192135D01*
X105204725Y-40147618D01*
X105262734Y-40120568D01*
X105449139Y-39990047D01*
X105610047Y-39829139D01*
X105740568Y-39642734D01*
X105836739Y-39436496D01*
X105895635Y-39216692D01*
X105915468Y-38990000D01*
X105895635Y-38763308D01*
X105836739Y-38543504D01*
X105740568Y-38337266D01*
X105610047Y-38150861D01*
X105610045Y-38150858D01*
X105449141Y-37989954D01*
X105262734Y-37859432D01*
X105262732Y-37859431D01*
X105056497Y-37763261D01*
X105056488Y-37763258D01*
X104836697Y-37704366D01*
X104836693Y-37704365D01*
X104836692Y-37704365D01*
X104836691Y-37704364D01*
X104836686Y-37704364D01*
X104610002Y-37684532D01*
X104609998Y-37684532D01*
X104383313Y-37704364D01*
X104383302Y-37704366D01*
X104163511Y-37763258D01*
X104163502Y-37763261D01*
X103957267Y-37859431D01*
X103957265Y-37859432D01*
X103770858Y-37989954D01*
X103609954Y-38150858D01*
X103479432Y-38337265D01*
X103479431Y-38337267D01*
X103383261Y-38543502D01*
X103383258Y-38543511D01*
X103324366Y-38763302D01*
X103324364Y-38763313D01*
X103304532Y-38989998D01*
X90675468Y-38989998D01*
X90655635Y-38763308D01*
X90596739Y-38543504D01*
X90500568Y-38337266D01*
X90370047Y-38150861D01*
X90370045Y-38150858D01*
X90209141Y-37989954D01*
X90022734Y-37859432D01*
X90022732Y-37859431D01*
X89816497Y-37763261D01*
X89816488Y-37763258D01*
X89596697Y-37704366D01*
X89596693Y-37704365D01*
X89596692Y-37704365D01*
X89596691Y-37704364D01*
X89596686Y-37704364D01*
X89370002Y-37684532D01*
X89369998Y-37684532D01*
X89143313Y-37704364D01*
X89143302Y-37704366D01*
X88923511Y-37763258D01*
X88923502Y-37763261D01*
X88717267Y-37859431D01*
X88717265Y-37859432D01*
X88530858Y-37989954D01*
X88369954Y-38150858D01*
X88239432Y-38337265D01*
X88239431Y-38337267D01*
X88143261Y-38543502D01*
X88143258Y-38543511D01*
X88084366Y-38763302D01*
X88084364Y-38763313D01*
X88064532Y-38989998D01*
X79750500Y-38989998D01*
X79750500Y-28959998D01*
X109074532Y-28959998D01*
X109074532Y-28960001D01*
X109094364Y-29186686D01*
X109094366Y-29186697D01*
X109153258Y-29406488D01*
X109153261Y-29406497D01*
X109249431Y-29612732D01*
X109249432Y-29612734D01*
X109379954Y-29799141D01*
X109540858Y-29960045D01*
X109540861Y-29960047D01*
X109727266Y-30090568D01*
X109785275Y-30117618D01*
X109837714Y-30163791D01*
X109856866Y-30230984D01*
X109836650Y-30297865D01*
X109785275Y-30342382D01*
X109727267Y-30369431D01*
X109727265Y-30369432D01*
X109540858Y-30499954D01*
X109379954Y-30660858D01*
X109249432Y-30847265D01*
X109249431Y-30847267D01*
X109153261Y-31053502D01*
X109153258Y-31053511D01*
X109094366Y-31273302D01*
X109094364Y-31273313D01*
X109074532Y-31499998D01*
X109074532Y-31500001D01*
X109094364Y-31726686D01*
X109094366Y-31726697D01*
X109153258Y-31946488D01*
X109153261Y-31946497D01*
X109249431Y-32152732D01*
X109249432Y-32152734D01*
X109379954Y-32339141D01*
X109540858Y-32500045D01*
X109540861Y-32500047D01*
X109727266Y-32630568D01*
X109785275Y-32657618D01*
X109837714Y-32703791D01*
X109856866Y-32770984D01*
X109836650Y-32837865D01*
X109785275Y-32882382D01*
X109727267Y-32909431D01*
X109727265Y-32909432D01*
X109540858Y-33039954D01*
X109379954Y-33200858D01*
X109249432Y-33387265D01*
X109249431Y-33387267D01*
X109153261Y-33593502D01*
X109153258Y-33593511D01*
X109094366Y-33813302D01*
X109094364Y-33813313D01*
X109074532Y-34039998D01*
X109074532Y-34040001D01*
X109094364Y-34266686D01*
X109094366Y-34266697D01*
X109153258Y-34486488D01*
X109153261Y-34486497D01*
X109249431Y-34692732D01*
X109249432Y-34692734D01*
X109379954Y-34879141D01*
X109540858Y-35040045D01*
X109540861Y-35040047D01*
X109727266Y-35170568D01*
X109785275Y-35197618D01*
X109837714Y-35243791D01*
X109856866Y-35310984D01*
X109836650Y-35377865D01*
X109785275Y-35422382D01*
X109727267Y-35449431D01*
X109727265Y-35449432D01*
X109540858Y-35579954D01*
X109379954Y-35740858D01*
X109249432Y-35927265D01*
X109249431Y-35927267D01*
X109153261Y-36133502D01*
X109153258Y-36133511D01*
X109094366Y-36353302D01*
X109094364Y-36353313D01*
X109074532Y-36579998D01*
X109074532Y-36580001D01*
X109094364Y-36806686D01*
X109094366Y-36806697D01*
X109153258Y-37026488D01*
X109153261Y-37026497D01*
X109249431Y-37232732D01*
X109249432Y-37232734D01*
X109379954Y-37419141D01*
X109540858Y-37580045D01*
X109578336Y-37606287D01*
X109727266Y-37710568D01*
X109785275Y-37737618D01*
X109837714Y-37783791D01*
X109856866Y-37850984D01*
X109836650Y-37917865D01*
X109785275Y-37962382D01*
X109727267Y-37989431D01*
X109727265Y-37989432D01*
X109540858Y-38119954D01*
X109379954Y-38280858D01*
X109249432Y-38467265D01*
X109249431Y-38467267D01*
X109153261Y-38673502D01*
X109153258Y-38673511D01*
X109094366Y-38893302D01*
X109094364Y-38893313D01*
X109074532Y-39119998D01*
X109074532Y-39120001D01*
X109094364Y-39346686D01*
X109094366Y-39346697D01*
X109153258Y-39566488D01*
X109153261Y-39566497D01*
X109249431Y-39772732D01*
X109249432Y-39772734D01*
X109379954Y-39959141D01*
X109540858Y-40120045D01*
X109540861Y-40120047D01*
X109727266Y-40250568D01*
X109785275Y-40277618D01*
X109837714Y-40323791D01*
X109856866Y-40390984D01*
X109836650Y-40457865D01*
X109785275Y-40502382D01*
X109727267Y-40529431D01*
X109727265Y-40529432D01*
X109540858Y-40659954D01*
X109379954Y-40820858D01*
X109249432Y-41007265D01*
X109249431Y-41007267D01*
X109153261Y-41213502D01*
X109153258Y-41213511D01*
X109094366Y-41433302D01*
X109094364Y-41433313D01*
X109074532Y-41659998D01*
X109074532Y-41660001D01*
X109094364Y-41886686D01*
X109094366Y-41886697D01*
X109153258Y-42106488D01*
X109153261Y-42106497D01*
X109249431Y-42312732D01*
X109249432Y-42312734D01*
X109379954Y-42499141D01*
X109540858Y-42660045D01*
X109540861Y-42660047D01*
X109727266Y-42790568D01*
X109785865Y-42817893D01*
X109838305Y-42864065D01*
X109857457Y-42931258D01*
X109837242Y-42998139D01*
X109785867Y-43042657D01*
X109727515Y-43069867D01*
X109541179Y-43200342D01*
X109380342Y-43361179D01*
X109249865Y-43547517D01*
X109153734Y-43753673D01*
X109153730Y-43753682D01*
X109101127Y-43949999D01*
X109101128Y-43950000D01*
X110064314Y-43950000D01*
X110059920Y-43954394D01*
X110007259Y-44045606D01*
X109980000Y-44147339D01*
X109980000Y-44252661D01*
X110007259Y-44354394D01*
X110059920Y-44445606D01*
X110064314Y-44450000D01*
X109101128Y-44450000D01*
X109153730Y-44646317D01*
X109153734Y-44646326D01*
X109249865Y-44852482D01*
X109380342Y-45038820D01*
X109541179Y-45199657D01*
X109727517Y-45330134D01*
X109933673Y-45426265D01*
X109933682Y-45426269D01*
X110129999Y-45478872D01*
X110130000Y-45478871D01*
X110130000Y-44515686D01*
X110134394Y-44520080D01*
X110225606Y-44572741D01*
X110327339Y-44600000D01*
X110432661Y-44600000D01*
X110534394Y-44572741D01*
X110625606Y-44520080D01*
X110630000Y-44515686D01*
X110630000Y-45478872D01*
X110826317Y-45426269D01*
X110826326Y-45426265D01*
X111032482Y-45330134D01*
X111218820Y-45199657D01*
X111379657Y-45038820D01*
X111510134Y-44852482D01*
X111606265Y-44646326D01*
X111606269Y-44646317D01*
X111658872Y-44450000D01*
X110695686Y-44450000D01*
X110700080Y-44445606D01*
X110752741Y-44354394D01*
X110780000Y-44252661D01*
X110780000Y-44147339D01*
X110752741Y-44045606D01*
X110700080Y-43954394D01*
X110695686Y-43950000D01*
X111658872Y-43950000D01*
X111658872Y-43949999D01*
X111606269Y-43753682D01*
X111606265Y-43753673D01*
X111510134Y-43547517D01*
X111379657Y-43361179D01*
X111218820Y-43200342D01*
X111032482Y-43069865D01*
X110974133Y-43042657D01*
X110921694Y-42996484D01*
X110902542Y-42929291D01*
X110922758Y-42862410D01*
X110974129Y-42817895D01*
X111032734Y-42790568D01*
X111219139Y-42660047D01*
X111380047Y-42499139D01*
X111510568Y-42312734D01*
X111606739Y-42106496D01*
X111665635Y-41886692D01*
X111685468Y-41660000D01*
X111665635Y-41433308D01*
X111606739Y-41213504D01*
X111510568Y-41007266D01*
X111380047Y-40820861D01*
X111380045Y-40820858D01*
X111219141Y-40659954D01*
X111032734Y-40529432D01*
X111032728Y-40529429D01*
X110974725Y-40502382D01*
X110922285Y-40456210D01*
X110903133Y-40389017D01*
X110923348Y-40322135D01*
X110974725Y-40277618D01*
X111032734Y-40250568D01*
X111219139Y-40120047D01*
X111380047Y-39959139D01*
X111510568Y-39772734D01*
X111606739Y-39566496D01*
X111665635Y-39346692D01*
X111685468Y-39120000D01*
X111665635Y-38893308D01*
X111606739Y-38673504D01*
X111510568Y-38467266D01*
X111380047Y-38280861D01*
X111380045Y-38280858D01*
X111219141Y-38119954D01*
X111032734Y-37989432D01*
X111032728Y-37989429D01*
X110974725Y-37962382D01*
X110922285Y-37916210D01*
X110903133Y-37849017D01*
X110923348Y-37782135D01*
X110974725Y-37737618D01*
X111032734Y-37710568D01*
X111219139Y-37580047D01*
X111380047Y-37419139D01*
X111510568Y-37232734D01*
X111606739Y-37026496D01*
X111665635Y-36806692D01*
X111685468Y-36580000D01*
X111665635Y-36353308D01*
X111614798Y-36163580D01*
X111606741Y-36133511D01*
X111606738Y-36133502D01*
X111510568Y-35927267D01*
X111510567Y-35927265D01*
X111477326Y-35879792D01*
X111380047Y-35740861D01*
X111380045Y-35740858D01*
X111219141Y-35579954D01*
X111032734Y-35449432D01*
X111032728Y-35449429D01*
X110974725Y-35422382D01*
X110922285Y-35376210D01*
X110903133Y-35309017D01*
X110923348Y-35242135D01*
X110974725Y-35197618D01*
X111032734Y-35170568D01*
X111219139Y-35040047D01*
X111380047Y-34879139D01*
X111510568Y-34692734D01*
X111606739Y-34486496D01*
X111665635Y-34266692D01*
X111685468Y-34040000D01*
X111665635Y-33813308D01*
X111606739Y-33593504D01*
X111510568Y-33387266D01*
X111380047Y-33200861D01*
X111380045Y-33200858D01*
X111219141Y-33039954D01*
X111032734Y-32909432D01*
X111032728Y-32909429D01*
X110974725Y-32882382D01*
X110922285Y-32836210D01*
X110903133Y-32769017D01*
X110923348Y-32702135D01*
X110974725Y-32657618D01*
X111032734Y-32630568D01*
X111219139Y-32500047D01*
X111380047Y-32339139D01*
X111510568Y-32152734D01*
X111606739Y-31946496D01*
X111665635Y-31726692D01*
X111685468Y-31500000D01*
X111665635Y-31273308D01*
X111606739Y-31053504D01*
X111510568Y-30847266D01*
X111380047Y-30660861D01*
X111380045Y-30660858D01*
X111219141Y-30499954D01*
X111032734Y-30369432D01*
X111032728Y-30369429D01*
X110974725Y-30342382D01*
X110922285Y-30296210D01*
X110903133Y-30229017D01*
X110923348Y-30162135D01*
X110974725Y-30117618D01*
X111032734Y-30090568D01*
X111219139Y-29960047D01*
X111380047Y-29799139D01*
X111510568Y-29612734D01*
X111606739Y-29406496D01*
X111665635Y-29186692D01*
X111685468Y-28960000D01*
X111665635Y-28733308D01*
X111606739Y-28513504D01*
X111510568Y-28307266D01*
X111380047Y-28120861D01*
X111380045Y-28120858D01*
X111219143Y-27959956D01*
X111194536Y-27942726D01*
X111150912Y-27888149D01*
X111143719Y-27818650D01*
X111175241Y-27756296D01*
X111235471Y-27720882D01*
X111252404Y-27717861D01*
X111287483Y-27714091D01*
X111422331Y-27663796D01*
X111537546Y-27577546D01*
X111623796Y-27462331D01*
X111674091Y-27327483D01*
X111680500Y-27267873D01*
X111680499Y-26419998D01*
X116694532Y-26419998D01*
X116694532Y-26420001D01*
X116714364Y-26646686D01*
X116714366Y-26646697D01*
X116773258Y-26866488D01*
X116773261Y-26866497D01*
X116869431Y-27072732D01*
X116869432Y-27072734D01*
X116999954Y-27259141D01*
X117160858Y-27420045D01*
X117160861Y-27420047D01*
X117347266Y-27550568D01*
X117405275Y-27577618D01*
X117457714Y-27623791D01*
X117476866Y-27690984D01*
X117456650Y-27757865D01*
X117405275Y-27802382D01*
X117347267Y-27829431D01*
X117347265Y-27829432D01*
X117160858Y-27959954D01*
X116999954Y-28120858D01*
X116869432Y-28307265D01*
X116869431Y-28307267D01*
X116773261Y-28513502D01*
X116773258Y-28513511D01*
X116714366Y-28733302D01*
X116714364Y-28733313D01*
X116694532Y-28959998D01*
X116694532Y-28960001D01*
X116714364Y-29186686D01*
X116714366Y-29186697D01*
X116773258Y-29406488D01*
X116773261Y-29406497D01*
X116869431Y-29612732D01*
X116869432Y-29612734D01*
X116999954Y-29799141D01*
X117160858Y-29960045D01*
X117160861Y-29960047D01*
X117347266Y-30090568D01*
X117405275Y-30117618D01*
X117457714Y-30163791D01*
X117476866Y-30230984D01*
X117456650Y-30297865D01*
X117405275Y-30342382D01*
X117347267Y-30369431D01*
X117347265Y-30369432D01*
X117160858Y-30499954D01*
X116999954Y-30660858D01*
X116869432Y-30847265D01*
X116869431Y-30847267D01*
X116773261Y-31053502D01*
X116773258Y-31053511D01*
X116714366Y-31273302D01*
X116714364Y-31273313D01*
X116694532Y-31499998D01*
X116694532Y-31500001D01*
X116714364Y-31726686D01*
X116714366Y-31726697D01*
X116773258Y-31946488D01*
X116773261Y-31946497D01*
X116869431Y-32152732D01*
X116869432Y-32152734D01*
X116999954Y-32339141D01*
X117160858Y-32500045D01*
X117160861Y-32500047D01*
X117347266Y-32630568D01*
X117405275Y-32657618D01*
X117457714Y-32703791D01*
X117476866Y-32770984D01*
X117456650Y-32837865D01*
X117405275Y-32882382D01*
X117347267Y-32909431D01*
X117347265Y-32909432D01*
X117160858Y-33039954D01*
X116999954Y-33200858D01*
X116869432Y-33387265D01*
X116869431Y-33387267D01*
X116773261Y-33593502D01*
X116773258Y-33593511D01*
X116714366Y-33813302D01*
X116714364Y-33813313D01*
X116694532Y-34039998D01*
X116694532Y-34040001D01*
X116714364Y-34266686D01*
X116714366Y-34266697D01*
X116773258Y-34486488D01*
X116773261Y-34486497D01*
X116869431Y-34692732D01*
X116869432Y-34692734D01*
X116999954Y-34879141D01*
X117160858Y-35040045D01*
X117160861Y-35040047D01*
X117347266Y-35170568D01*
X117405275Y-35197618D01*
X117457714Y-35243791D01*
X117476866Y-35310984D01*
X117456650Y-35377865D01*
X117405275Y-35422382D01*
X117347267Y-35449431D01*
X117347265Y-35449432D01*
X117160858Y-35579954D01*
X116999954Y-35740858D01*
X116869432Y-35927265D01*
X116869431Y-35927267D01*
X116773261Y-36133502D01*
X116773258Y-36133511D01*
X116714366Y-36353302D01*
X116714364Y-36353313D01*
X116694532Y-36579998D01*
X116694532Y-36580001D01*
X116714364Y-36806686D01*
X116714366Y-36806697D01*
X116773258Y-37026488D01*
X116773261Y-37026497D01*
X116869431Y-37232732D01*
X116869432Y-37232734D01*
X116999954Y-37419141D01*
X117160858Y-37580045D01*
X117198336Y-37606287D01*
X117347266Y-37710568D01*
X117405275Y-37737618D01*
X117457714Y-37783791D01*
X117476866Y-37850984D01*
X117456650Y-37917865D01*
X117405275Y-37962382D01*
X117347267Y-37989431D01*
X117347265Y-37989432D01*
X117160858Y-38119954D01*
X116999954Y-38280858D01*
X116869432Y-38467265D01*
X116869431Y-38467267D01*
X116773261Y-38673502D01*
X116773258Y-38673511D01*
X116714366Y-38893302D01*
X116714364Y-38893313D01*
X116694532Y-39119998D01*
X116694532Y-39120001D01*
X116714364Y-39346686D01*
X116714366Y-39346697D01*
X116773258Y-39566488D01*
X116773261Y-39566497D01*
X116869431Y-39772732D01*
X116869432Y-39772734D01*
X116999954Y-39959141D01*
X117160858Y-40120045D01*
X117160861Y-40120047D01*
X117347266Y-40250568D01*
X117405275Y-40277618D01*
X117457714Y-40323791D01*
X117476866Y-40390984D01*
X117456650Y-40457865D01*
X117405275Y-40502382D01*
X117347267Y-40529431D01*
X117347265Y-40529432D01*
X117160858Y-40659954D01*
X116999954Y-40820858D01*
X116869432Y-41007265D01*
X116869431Y-41007267D01*
X116773261Y-41213502D01*
X116773258Y-41213511D01*
X116714366Y-41433302D01*
X116714364Y-41433313D01*
X116694532Y-41659998D01*
X116694532Y-41660001D01*
X116714364Y-41886686D01*
X116714366Y-41886697D01*
X116773258Y-42106488D01*
X116773261Y-42106497D01*
X116869431Y-42312732D01*
X116869432Y-42312734D01*
X116999954Y-42499141D01*
X117160858Y-42660045D01*
X117160861Y-42660047D01*
X117347266Y-42790568D01*
X117402326Y-42816243D01*
X117405275Y-42817618D01*
X117457714Y-42863791D01*
X117476866Y-42930984D01*
X117456650Y-42997865D01*
X117405275Y-43042382D01*
X117347267Y-43069431D01*
X117347265Y-43069432D01*
X117160858Y-43199954D01*
X116999954Y-43360858D01*
X116869432Y-43547265D01*
X116869431Y-43547267D01*
X116773261Y-43753502D01*
X116773258Y-43753511D01*
X116714366Y-43973302D01*
X116714364Y-43973313D01*
X116694532Y-44199998D01*
X116694532Y-44200001D01*
X116714364Y-44426686D01*
X116714366Y-44426697D01*
X116773258Y-44646488D01*
X116773261Y-44646497D01*
X116869431Y-44852732D01*
X116869432Y-44852734D01*
X116999954Y-45039141D01*
X117160858Y-45200045D01*
X117160861Y-45200047D01*
X117347266Y-45330568D01*
X117553504Y-45426739D01*
X117773308Y-45485635D01*
X117935230Y-45499801D01*
X117999998Y-45505468D01*
X118000000Y-45505468D01*
X118000002Y-45505468D01*
X118056673Y-45500509D01*
X118226692Y-45485635D01*
X118446496Y-45426739D01*
X118652734Y-45330568D01*
X118839139Y-45200047D01*
X119000047Y-45039139D01*
X119130568Y-44852734D01*
X119226739Y-44646496D01*
X119285635Y-44426692D01*
X119305468Y-44200000D01*
X119285635Y-43973308D01*
X119226739Y-43753504D01*
X119130568Y-43547266D01*
X119000047Y-43360861D01*
X119000045Y-43360858D01*
X118839141Y-43199954D01*
X118652734Y-43069432D01*
X118652728Y-43069429D01*
X118594725Y-43042382D01*
X118542285Y-42996210D01*
X118523133Y-42929017D01*
X118543348Y-42862135D01*
X118594725Y-42817618D01*
X118597674Y-42816243D01*
X118652734Y-42790568D01*
X118839139Y-42660047D01*
X119000047Y-42499139D01*
X119130568Y-42312734D01*
X119226739Y-42106496D01*
X119285635Y-41886692D01*
X119305468Y-41660000D01*
X119285635Y-41433308D01*
X119226739Y-41213504D01*
X119130568Y-41007266D01*
X119000047Y-40820861D01*
X119000045Y-40820858D01*
X118839141Y-40659954D01*
X118652734Y-40529432D01*
X118652728Y-40529429D01*
X118594725Y-40502382D01*
X118542285Y-40456210D01*
X118523133Y-40389017D01*
X118543348Y-40322135D01*
X118594725Y-40277618D01*
X118652734Y-40250568D01*
X118839139Y-40120047D01*
X119000047Y-39959139D01*
X119130568Y-39772734D01*
X119226739Y-39566496D01*
X119285635Y-39346692D01*
X119305468Y-39120000D01*
X119285635Y-38893308D01*
X119226739Y-38673504D01*
X119130568Y-38467266D01*
X119000047Y-38280861D01*
X119000045Y-38280858D01*
X118839141Y-38119954D01*
X118652734Y-37989432D01*
X118652728Y-37989429D01*
X118594725Y-37962382D01*
X118542285Y-37916210D01*
X118523133Y-37849017D01*
X118543348Y-37782135D01*
X118594725Y-37737618D01*
X118652734Y-37710568D01*
X118839139Y-37580047D01*
X119000047Y-37419139D01*
X119130568Y-37232734D01*
X119226739Y-37026496D01*
X119285635Y-36806692D01*
X119305468Y-36580000D01*
X119285635Y-36353308D01*
X119234798Y-36163580D01*
X119226741Y-36133511D01*
X119226738Y-36133502D01*
X119130568Y-35927267D01*
X119130567Y-35927265D01*
X119097326Y-35879792D01*
X119000047Y-35740861D01*
X119000045Y-35740858D01*
X118839141Y-35579954D01*
X118652734Y-35449432D01*
X118652728Y-35449429D01*
X118594725Y-35422382D01*
X118542285Y-35376210D01*
X118523133Y-35309017D01*
X118543348Y-35242135D01*
X118594725Y-35197618D01*
X118652734Y-35170568D01*
X118839139Y-35040047D01*
X119000047Y-34879139D01*
X119130568Y-34692734D01*
X119226739Y-34486496D01*
X119285635Y-34266692D01*
X119305468Y-34040000D01*
X119285635Y-33813308D01*
X119226739Y-33593504D01*
X119130568Y-33387266D01*
X119000047Y-33200861D01*
X119000045Y-33200858D01*
X118839141Y-33039954D01*
X118652734Y-32909432D01*
X118652728Y-32909429D01*
X118594725Y-32882382D01*
X118542285Y-32836210D01*
X118523133Y-32769017D01*
X118543348Y-32702135D01*
X118594725Y-32657618D01*
X118652734Y-32630568D01*
X118839139Y-32500047D01*
X119000047Y-32339139D01*
X119130568Y-32152734D01*
X119226739Y-31946496D01*
X119252599Y-31849983D01*
X123024500Y-31849983D01*
X123024500Y-33150001D01*
X123024501Y-33150018D01*
X123035000Y-33252796D01*
X123035001Y-33252799D01*
X123090185Y-33419331D01*
X123090187Y-33419336D01*
X123182289Y-33568657D01*
X123306344Y-33692712D01*
X123461120Y-33788178D01*
X123507845Y-33840126D01*
X123519068Y-33909088D01*
X123491224Y-33973171D01*
X123483706Y-33981398D01*
X123344889Y-34120215D01*
X123219951Y-34292179D01*
X123123444Y-34481585D01*
X123057753Y-34683760D01*
X123024500Y-34893713D01*
X123024500Y-35106286D01*
X123056609Y-35309017D01*
X123057754Y-35316243D01*
X123077776Y-35377865D01*
X123123444Y-35518414D01*
X123219951Y-35707820D01*
X123344890Y-35879786D01*
X123495209Y-36030105D01*
X123495214Y-36030109D01*
X123659793Y-36149682D01*
X123702459Y-36205011D01*
X123708438Y-36274625D01*
X123675833Y-36336420D01*
X123659793Y-36350318D01*
X123495214Y-36469890D01*
X123495209Y-36469894D01*
X123344890Y-36620213D01*
X123219951Y-36792179D01*
X123123444Y-36981585D01*
X123057753Y-37183760D01*
X123024500Y-37393713D01*
X123024500Y-37606286D01*
X123056248Y-37806739D01*
X123057754Y-37816243D01*
X123114196Y-37989954D01*
X123123444Y-38018414D01*
X123219951Y-38207820D01*
X123344890Y-38379786D01*
X123495209Y-38530105D01*
X123495214Y-38530109D01*
X123659793Y-38649682D01*
X123702459Y-38705011D01*
X123708438Y-38774625D01*
X123675833Y-38836420D01*
X123659793Y-38850318D01*
X123495214Y-38969890D01*
X123495209Y-38969894D01*
X123344890Y-39120213D01*
X123219951Y-39292179D01*
X123123444Y-39481585D01*
X123057753Y-39683760D01*
X123034727Y-39829141D01*
X123024500Y-39893713D01*
X123024500Y-40106287D01*
X123057754Y-40316243D01*
X123103232Y-40456210D01*
X123123444Y-40518414D01*
X123219951Y-40707820D01*
X123344890Y-40879786D01*
X123495209Y-41030105D01*
X123495214Y-41030109D01*
X123659793Y-41149682D01*
X123702459Y-41205011D01*
X123708438Y-41274625D01*
X123675833Y-41336420D01*
X123659793Y-41350318D01*
X123495214Y-41469890D01*
X123495209Y-41469894D01*
X123344890Y-41620213D01*
X123219951Y-41792179D01*
X123123444Y-41981585D01*
X123057753Y-42183760D01*
X123037326Y-42312732D01*
X123024500Y-42393713D01*
X123024500Y-42606287D01*
X123033015Y-42660047D01*
X123055025Y-42799017D01*
X123057754Y-42816243D01*
X123108772Y-42973261D01*
X123123444Y-43018414D01*
X123219951Y-43207820D01*
X123344890Y-43379786D01*
X123495213Y-43530109D01*
X123667179Y-43655048D01*
X123667181Y-43655049D01*
X123667184Y-43655051D01*
X123856588Y-43751557D01*
X124058757Y-43817246D01*
X124268713Y-43850500D01*
X124268714Y-43850500D01*
X124731286Y-43850500D01*
X124731287Y-43850500D01*
X124941243Y-43817246D01*
X125143412Y-43751557D01*
X125332816Y-43655051D01*
X125354789Y-43639086D01*
X125504786Y-43530109D01*
X125504788Y-43530106D01*
X125504792Y-43530104D01*
X125655104Y-43379792D01*
X125655106Y-43379788D01*
X125655109Y-43379786D01*
X125780048Y-43207820D01*
X125780047Y-43207820D01*
X125780051Y-43207816D01*
X125876557Y-43018412D01*
X125942246Y-42816243D01*
X125975500Y-42606287D01*
X125975500Y-42393713D01*
X125942246Y-42183757D01*
X125876557Y-41981588D01*
X125780051Y-41792184D01*
X125780049Y-41792181D01*
X125780048Y-41792179D01*
X125655109Y-41620213D01*
X125504792Y-41469896D01*
X125454439Y-41433313D01*
X125340204Y-41350316D01*
X125297540Y-41294989D01*
X125291561Y-41225376D01*
X125324166Y-41163580D01*
X125340199Y-41149686D01*
X125504792Y-41030104D01*
X125655104Y-40879792D01*
X125655106Y-40879788D01*
X125655109Y-40879786D01*
X125780048Y-40707820D01*
X125780047Y-40707820D01*
X125780051Y-40707816D01*
X125876557Y-40518412D01*
X125942246Y-40316243D01*
X125975500Y-40106287D01*
X125975500Y-39893713D01*
X125942246Y-39683757D01*
X125876557Y-39481588D01*
X125780051Y-39292184D01*
X125780049Y-39292181D01*
X125780048Y-39292179D01*
X125655109Y-39120213D01*
X125504792Y-38969896D01*
X125504784Y-38969890D01*
X125340204Y-38850316D01*
X125297540Y-38794989D01*
X125291561Y-38725376D01*
X125324166Y-38663580D01*
X125340199Y-38649686D01*
X125504792Y-38530104D01*
X125655104Y-38379792D01*
X125655106Y-38379788D01*
X125655109Y-38379786D01*
X125780048Y-38207820D01*
X125780047Y-38207820D01*
X125780051Y-38207816D01*
X125876557Y-38018412D01*
X125942246Y-37816243D01*
X125975500Y-37606287D01*
X125975500Y-37393713D01*
X125942246Y-37183757D01*
X125876557Y-36981588D01*
X125780051Y-36792184D01*
X125780049Y-36792181D01*
X125780048Y-36792179D01*
X125655109Y-36620213D01*
X125504792Y-36469896D01*
X125504784Y-36469890D01*
X125340204Y-36350316D01*
X125297540Y-36294989D01*
X125291561Y-36225376D01*
X125324166Y-36163580D01*
X125340199Y-36149686D01*
X125504792Y-36030104D01*
X125655104Y-35879792D01*
X125655106Y-35879788D01*
X125655109Y-35879786D01*
X125780048Y-35707820D01*
X125780047Y-35707820D01*
X125780051Y-35707816D01*
X125876557Y-35518412D01*
X125942246Y-35316243D01*
X125975500Y-35106287D01*
X125975500Y-34893713D01*
X125942246Y-34683757D01*
X125876557Y-34481588D01*
X125780051Y-34292184D01*
X125780049Y-34292181D01*
X125780048Y-34292179D01*
X125655109Y-34120213D01*
X125516294Y-33981398D01*
X125482809Y-33920075D01*
X125487793Y-33850383D01*
X125529665Y-33794450D01*
X125538879Y-33788178D01*
X125544331Y-33784814D01*
X125544334Y-33784814D01*
X125693656Y-33692712D01*
X125817712Y-33568656D01*
X125909814Y-33419334D01*
X125964999Y-33252797D01*
X125975500Y-33150009D01*
X125975499Y-31849992D01*
X125964999Y-31747203D01*
X125909814Y-31580666D01*
X125817712Y-31431344D01*
X125693656Y-31307288D01*
X125544334Y-31215186D01*
X125377797Y-31160001D01*
X125377795Y-31160000D01*
X125275010Y-31149500D01*
X123724998Y-31149500D01*
X123724981Y-31149501D01*
X123622203Y-31160000D01*
X123622200Y-31160001D01*
X123455668Y-31215185D01*
X123455663Y-31215187D01*
X123306342Y-31307289D01*
X123182289Y-31431342D01*
X123090187Y-31580663D01*
X123090186Y-31580666D01*
X123035001Y-31747203D01*
X123035001Y-31747204D01*
X123035000Y-31747204D01*
X123024500Y-31849983D01*
X119252599Y-31849983D01*
X119285635Y-31726692D01*
X119305468Y-31500000D01*
X119285635Y-31273308D01*
X119226739Y-31053504D01*
X119130568Y-30847266D01*
X119000047Y-30660861D01*
X119000045Y-30660858D01*
X118839141Y-30499954D01*
X118652734Y-30369432D01*
X118652728Y-30369429D01*
X118594725Y-30342382D01*
X118542285Y-30296210D01*
X118523133Y-30229017D01*
X118543348Y-30162135D01*
X118594725Y-30117618D01*
X118652734Y-30090568D01*
X118839139Y-29960047D01*
X119000047Y-29799139D01*
X119130568Y-29612734D01*
X119226739Y-29406496D01*
X119285635Y-29186692D01*
X119305468Y-28960000D01*
X119285635Y-28733308D01*
X119226739Y-28513504D01*
X119130568Y-28307266D01*
X119000047Y-28120861D01*
X119000045Y-28120858D01*
X118839141Y-27959954D01*
X118652734Y-27829432D01*
X118652728Y-27829429D01*
X118594725Y-27802382D01*
X118542285Y-27756210D01*
X118523133Y-27689017D01*
X118543348Y-27622135D01*
X118594725Y-27577618D01*
X118652734Y-27550568D01*
X118839139Y-27420047D01*
X119000047Y-27259139D01*
X119130568Y-27072734D01*
X119226739Y-26866496D01*
X119285635Y-26646692D01*
X119305468Y-26420000D01*
X119285635Y-26193308D01*
X119226739Y-25973504D01*
X119130568Y-25767266D01*
X119000047Y-25580861D01*
X119000045Y-25580858D01*
X118839141Y-25419954D01*
X118708831Y-25328711D01*
X123399500Y-25328711D01*
X123399500Y-25571288D01*
X123431161Y-25811785D01*
X123493947Y-26046104D01*
X123554919Y-26193302D01*
X123586776Y-26270212D01*
X123708064Y-26480289D01*
X123708066Y-26480292D01*
X123708067Y-26480293D01*
X123855733Y-26672736D01*
X123855739Y-26672743D01*
X124027256Y-26844260D01*
X124027263Y-26844266D01*
X124056234Y-26866496D01*
X124219711Y-26991936D01*
X124429788Y-27113224D01*
X124653900Y-27206054D01*
X124888211Y-27268838D01*
X125068586Y-27292584D01*
X125128711Y-27300500D01*
X125128712Y-27300500D01*
X125371289Y-27300500D01*
X125419388Y-27294167D01*
X125611789Y-27268838D01*
X125846100Y-27206054D01*
X126070212Y-27113224D01*
X126280289Y-26991936D01*
X126472738Y-26844265D01*
X126644265Y-26672738D01*
X126791936Y-26480289D01*
X126913224Y-26270212D01*
X127006054Y-26046100D01*
X127068838Y-25811789D01*
X127100500Y-25571288D01*
X127100500Y-25328712D01*
X127068838Y-25088211D01*
X127006054Y-24853900D01*
X126913224Y-24629788D01*
X126791936Y-24419711D01*
X126644265Y-24227262D01*
X126644260Y-24227256D01*
X126472743Y-24055739D01*
X126472736Y-24055733D01*
X126280293Y-23908067D01*
X126280292Y-23908066D01*
X126280289Y-23908064D01*
X126070212Y-23786776D01*
X126070205Y-23786773D01*
X125846104Y-23693947D01*
X125611785Y-23631161D01*
X125371289Y-23599500D01*
X125371288Y-23599500D01*
X125128712Y-23599500D01*
X125128711Y-23599500D01*
X124888214Y-23631161D01*
X124653895Y-23693947D01*
X124429794Y-23786773D01*
X124429785Y-23786777D01*
X124219706Y-23908067D01*
X124027263Y-24055733D01*
X124027256Y-24055739D01*
X123855739Y-24227256D01*
X123855733Y-24227263D01*
X123708067Y-24419706D01*
X123586777Y-24629785D01*
X123586773Y-24629794D01*
X123493947Y-24853895D01*
X123431161Y-25088214D01*
X123399500Y-25328711D01*
X118708831Y-25328711D01*
X118652734Y-25289432D01*
X118652732Y-25289431D01*
X118446497Y-25193261D01*
X118446488Y-25193258D01*
X118226697Y-25134366D01*
X118226693Y-25134365D01*
X118226692Y-25134365D01*
X118226691Y-25134364D01*
X118226686Y-25134364D01*
X118000002Y-25114532D01*
X117999998Y-25114532D01*
X117773313Y-25134364D01*
X117773302Y-25134366D01*
X117553511Y-25193258D01*
X117553502Y-25193261D01*
X117347267Y-25289431D01*
X117347265Y-25289432D01*
X117160858Y-25419954D01*
X116999954Y-25580858D01*
X116869432Y-25767265D01*
X116869431Y-25767267D01*
X116773261Y-25973502D01*
X116773258Y-25973511D01*
X116714366Y-26193302D01*
X116714364Y-26193313D01*
X116694532Y-26419998D01*
X111680499Y-26419998D01*
X111680499Y-25572128D01*
X111674091Y-25512517D01*
X111639567Y-25419954D01*
X111623797Y-25377671D01*
X111623793Y-25377664D01*
X111537547Y-25262455D01*
X111537544Y-25262452D01*
X111422335Y-25176206D01*
X111422328Y-25176202D01*
X111287482Y-25125908D01*
X111287483Y-25125908D01*
X111227883Y-25119501D01*
X111227881Y-25119500D01*
X111227873Y-25119500D01*
X111227864Y-25119500D01*
X109532129Y-25119500D01*
X109532123Y-25119501D01*
X109472516Y-25125908D01*
X109337671Y-25176202D01*
X109337664Y-25176206D01*
X109222455Y-25262452D01*
X109222452Y-25262455D01*
X109136206Y-25377664D01*
X109136202Y-25377671D01*
X109085908Y-25512517D01*
X109079590Y-25571288D01*
X109079501Y-25572123D01*
X109079500Y-25572135D01*
X109079500Y-27267870D01*
X109079501Y-27267876D01*
X109085908Y-27327483D01*
X109136202Y-27462328D01*
X109136206Y-27462335D01*
X109222452Y-27577544D01*
X109222455Y-27577547D01*
X109337664Y-27663793D01*
X109337671Y-27663797D01*
X109382618Y-27680561D01*
X109472517Y-27714091D01*
X109507596Y-27717862D01*
X109572144Y-27744599D01*
X109611993Y-27801991D01*
X109614488Y-27871816D01*
X109578836Y-27931905D01*
X109565464Y-27942725D01*
X109540858Y-27959954D01*
X109379954Y-28120858D01*
X109249432Y-28307265D01*
X109249431Y-28307267D01*
X109153261Y-28513502D01*
X109153258Y-28513511D01*
X109094366Y-28733302D01*
X109094364Y-28733313D01*
X109074532Y-28959998D01*
X79750500Y-28959998D01*
X79750500Y-25328711D01*
X81399500Y-25328711D01*
X81399500Y-25571288D01*
X81431161Y-25811785D01*
X81493947Y-26046104D01*
X81554919Y-26193302D01*
X81586776Y-26270212D01*
X81708064Y-26480289D01*
X81708066Y-26480292D01*
X81708067Y-26480293D01*
X81855733Y-26672736D01*
X81855739Y-26672743D01*
X82027256Y-26844260D01*
X82027263Y-26844266D01*
X82056234Y-26866496D01*
X82219711Y-26991936D01*
X82429788Y-27113224D01*
X82653900Y-27206054D01*
X82888211Y-27268838D01*
X83068586Y-27292584D01*
X83128711Y-27300500D01*
X83128712Y-27300500D01*
X83371289Y-27300500D01*
X83419388Y-27294167D01*
X83611789Y-27268838D01*
X83846100Y-27206054D01*
X84070212Y-27113224D01*
X84280289Y-26991936D01*
X84472738Y-26844265D01*
X84644265Y-26672738D01*
X84791936Y-26480289D01*
X84913224Y-26270212D01*
X85006054Y-26046100D01*
X85068838Y-25811789D01*
X85100500Y-25571288D01*
X85100500Y-25328712D01*
X85068838Y-25088211D01*
X85006054Y-24853900D01*
X84913224Y-24629788D01*
X84791936Y-24419711D01*
X84644265Y-24227262D01*
X84644260Y-24227256D01*
X84472743Y-24055739D01*
X84472736Y-24055733D01*
X84280293Y-23908067D01*
X84280292Y-23908066D01*
X84280289Y-23908064D01*
X84070212Y-23786776D01*
X84070205Y-23786773D01*
X83846104Y-23693947D01*
X83611785Y-23631161D01*
X83371289Y-23599500D01*
X83371288Y-23599500D01*
X83128712Y-23599500D01*
X83128711Y-23599500D01*
X82888214Y-23631161D01*
X82653895Y-23693947D01*
X82429794Y-23786773D01*
X82429785Y-23786777D01*
X82219706Y-23908067D01*
X82027263Y-24055733D01*
X82027256Y-24055739D01*
X81855739Y-24227256D01*
X81855733Y-24227263D01*
X81708067Y-24419706D01*
X81586777Y-24629785D01*
X81586773Y-24629794D01*
X81493947Y-24853895D01*
X81431161Y-25088214D01*
X81399500Y-25328711D01*
X79750500Y-25328711D01*
X79750500Y-22074500D01*
X79770185Y-22007461D01*
X79822989Y-21961706D01*
X79874500Y-21950500D01*
X128625500Y-21950500D01*
X128692539Y-21970185D01*
G37*
%TD.AperFunction*%
%TD*%
M02*
