M48
; DRILL file {KiCad 8.0.3} date 2024-06-17T15:26:28+0200
; FORMAT={-:-/ absolute / inch / decimal}
; #@! TF.CreationDate,2024-06-17T15:26:28+02:00
; #@! TF.GenerationSoftware,Kicad,Pcbnew,8.0.3
; #@! TF.FileFunction,Plated,1,2,PTH
FMAT,2
INCH
; #@! TA.AperFunction,Plated,PTH,ComponentDrill
T1C0.0295
; #@! TA.AperFunction,Plated,PTH,ComponentDrill
T2C0.0315
; #@! TA.AperFunction,Plated,PTH,ComponentDrill
T3C0.0374
; #@! TA.AperFunction,Plated,PTH,ComponentDrill
T4C0.0394
%
G90
G05
T1
X4.1339Y-3.2283
X4.2126Y-3.2283
X4.5472Y-3.2283
X4.626Y-3.2283
T2
X4.326Y-2.0701
X4.326Y-2.1701
X4.326Y-2.2701
X4.326Y-2.3701
X4.326Y-2.4701
X4.326Y-2.5701
X4.326Y-2.6701
X4.326Y-2.7701
X4.3457Y-1.0402
X4.3457Y-1.1402
X4.3457Y-1.2402
X4.3457Y-1.3402
X4.3457Y-1.4402
X4.3457Y-1.5402
X4.3457Y-1.6402
X4.3457Y-1.7402
X4.4094Y-1.9276
X4.4193Y-2.9394
X4.5079Y-1.9276
X4.5177Y-2.9394
X4.626Y-2.0701
X4.626Y-2.1701
X4.626Y-2.2701
X4.626Y-2.3701
X4.626Y-2.4701
X4.626Y-2.5701
X4.626Y-2.6701
X4.626Y-2.7701
X4.6457Y-1.0402
X4.6457Y-1.1402
X4.6457Y-1.2402
X4.6457Y-1.3402
X4.6457Y-1.4402
X4.6457Y-1.5402
X4.6457Y-1.6402
X4.6457Y-1.7402
T3
X4.9016Y-1.2795
X4.9016Y-1.378
X4.9016Y-1.4764
X4.9016Y-1.5748
X4.9016Y-1.6732
X4.9016Y-1.9488
X4.9016Y-2.0472
X4.9016Y-2.1457
X4.9016Y-2.2441
X4.9016Y-2.3425
X4.9016Y-2.5984
X4.9016Y-2.6969
X4.9016Y-2.7953
X4.9016Y-2.8937
X4.9016Y-2.9921
T4
X3.5185Y-1.535
X3.5185Y-1.635
X3.5185Y-1.735
X3.5185Y-1.835
X3.5185Y-1.935
X3.5185Y-2.035
X3.5185Y-2.135
X3.5185Y-2.235
X3.5185Y-2.335
X3.5185Y-2.435
X3.5185Y-2.535
X3.5185Y-2.635
X3.5185Y-2.735
X3.5185Y-2.835
X3.5185Y-2.935
X3.6014Y-3.189
X3.7014Y-3.189
X3.8014Y-3.189
X4.1185Y-1.535
X4.1185Y-1.635
X4.1185Y-1.735
X4.1185Y-1.835
X4.1185Y-1.935
X4.1185Y-2.035
X4.1185Y-2.135
X4.1185Y-2.235
X4.1185Y-2.335
X4.1185Y-2.435
X4.1185Y-2.535
X4.1185Y-2.635
X4.1185Y-2.735
X4.1185Y-2.835
X4.1185Y-2.935
M30
